<svg class="portfolio-client" xmlns="http://www.w3.org/2000/svg" viewBox="0 0 200 100"><path fill="#9DBE3B" d="M41.91,73.83c17.56-1.19,38.99-1.69,56.74-2.58c21.23-1.09,44.34-1.69,65.67-2.08c0,0.2-1.69,0.6,0,0.6
	c7.14,0.2,7.14,0.6,7.14,1.09c0,0.2-5.36,0.1-3.47,0.2c-2.68,0-6.15,0.1-8.43,0.2c-2.18,0.1-3.17,0.2-0.5,0.2
	c1.79,0.2,8.83-0.1,10.61,0.1c1.79,0.4-1.69,0.69,0,0.99c1.79,0,5.36-0.1,7.14-0.1c1.79,0.2-1.69,0.69,0,0.6
	c2.68,0.1,5.85,0.1,9.03,0c3.27,0,6.94-0.1,10.42-0.1c0,0.2,1.79,0.5-1.79,0.6c-30.95,0.2-62.4,1.09-93.75,2.18
	C69.29,77,38.04,78.39,7.19,80.08c-7.04,0.2-1.79-0.5,3.37-1.09c-1.69,0.2-1.79-0.1-3.47,0.1c-0.1-0.4,3.37-1.09,10.42-1.59
	c-1.79,0.1-3.47,0.2-5.36,0.4c-1.79,0-0.1-0.4-0.1-0.6c1.79-0.1,3.47-0.2,3.47-0.4s-0.1-0.4-0.1-0.5c-1.79,0.2-5.26,0.4-7.04,0.4
	c1.79-0.1,3.47-0.2,3.47-0.3s-0.1-0.4-0.1-0.5c3.47-0.4,8.83-0.4,12.3-0.69v-0.4c-3.47,0.1-8.83,0.5-12.3,0.69
	c1.69-0.2,1.69-0.4,1.69-0.5c5.36-0.4,10.61-0.4,15.87-0.99c-1.79,0.1-3.47,0.2-5.36,0.2c1.69-0.4,4.86-0.6,8.13-0.69
	C35.76,74.13,39.23,74.03,41.91,73.83"/><path fill="#353331" d="M32.98,44.96c-1.49,6.84-6.65,10.61-14.38,10.61c-9.62,0-15.57-5.36-15.57-14.29
	c0-9.03,5.95-14.58,15.57-14.58c7.44,0,12.7,3.67,14.09,9.72h-5.36c-1.29-3.67-4.27-5.56-8.63-5.56c-6.45,0-10.02,3.77-10.02,10.02
	c0,6.45,3.77,10.22,10.22,10.22c4.46,0,7.44-2.08,8.73-6.45h5.36L32.98,44.96L32.98,44.96z M57.59,41.19
	c-3.08,0.89-6.45,1.59-10.81,2.08c-4.96,0.4-6.55,1.49-6.55,3.97c0,2.78,2.28,4.27,6.84,4.27c3.77,0,6.55-0.89,8.63-2.78
	c1.59-1.49,2.08-2.58,2.08-5.06v-2.28L57.59,41.19L57.59,41.19z M35.66,36.53c0.3-2.58,0.89-4.07,1.88-5.56
	c2.28-2.78,6.45-4.27,12.2-4.27c4.66,0,8.04,0.69,10.32,2.28c1.88,1.29,2.78,3.17,2.78,6.55v12.1c0,2.58,0.69,3.67,2.58,3.47
	c0.3,0,0.89,0,1.29-0.1v3.67c-0.99,0.3-1.79,0.4-2.88,0.4c-3.47,0-5.06-0.99-6.15-4.07c-3.47,3.17-6.94,4.46-12.1,4.46
	c-6.84,0-10.91-3.08-10.91-8.13c0-2.88,1.59-5.56,4.27-6.65c2.08-0.89,3.37-1.19,9.13-1.79c5.06-0.4,5.85-0.6,7.24-0.99
	c1.59-0.4,2.18-1.29,2.18-2.78c0-2.88-2.48-4.27-7.54-4.27c-6.15,0-8.43,1.49-8.83,5.56C41.12,36.53,35.66,36.53,35.66,36.53z
	 M75.64,27.5h7.74v4.36h-7.74v15.67c0,2.48,0.69,3.08,3.47,3.08c1.19,0,1.79,0,3.08-0.3v4.46c-2.18,0.3-3.17,0.4-4.46,0.4
	c-2.78,0-4.96-0.6-6.15-1.79c-1.19-0.99-1.49-2.28-1.49-5.85V31.67h-5.75V27.3h5.85v-7.54h5.56L75.64,27.5L75.64,27.5z
	 M108.58,38.61c-1.29-4.76-4.96-7.54-10.22-7.54s-8.83,2.78-10.22,7.54H108.58z M88.24,42.78c0.6,5.26,4.66,8.63,10.81,8.63
	c4.36,0,7.44-1.59,8.83-4.96h5.95c-2.78,6.25-7.84,9.33-15.28,9.33c-9.33,0-15.67-5.65-15.67-14.29s6.45-14.58,15.67-14.58
	c6.65,0,12.2,3.08,14.38,8.13c0.99,2.28,1.29,4.36,1.29,7.84H88.24V42.78z M122.86,27.5v4.07c3.37-3.77,5.36-4.76,9.33-4.76
	c0.99,0,1.88,0,3.47,0.3v5.36c-1.59-0.4-2.48-0.4-3.77-0.4c-2.88,0-5.26,0.89-6.94,2.78c-1.59,1.59-2.08,2.78-2.08,5.26v14.88h-5.65
	V27.5H122.86z M138.44,54.88h5.56V27.5h-5.56V54.88z M138.44,23.53h5.56v-5.65h-5.56V23.53z M157.78,27.5h7.74v4.36h-7.74v15.67
	c0,2.48,0.69,3.08,3.47,3.08c1.19,0,1.79,0,3.08-0.3v4.46c-2.18,0.3-3.17,0.4-4.46,0.4c-2.78,0-4.96-0.6-6.15-1.79
	c-1.19-0.99-1.49-2.28-1.49-5.85V31.67h-5.85V27.3h5.85v-7.54h5.56C157.78,19.76,157.78,27.5,157.78,27.5z M191.51,38.61
	c-1.29-4.76-4.96-7.54-10.22-7.54s-8.83,2.78-10.22,7.54H191.51z M170.97,42.78c0.6,5.26,4.66,8.63,10.81,8.63
	c4.36,0,7.44-1.59,8.83-4.96h5.95c-2.78,6.25-7.84,9.33-15.28,9.33c-9.32,0-15.67-5.65-15.67-14.29s6.45-14.58,15.67-14.58
	c6.65,0,12.2,3.08,14.38,8.13c0.99,2.28,1.29,4.36,1.29,7.84h-25.99V42.78z"/></svg>