<svg xmlns="http://www.w3.org/2000/svg" viewBox="0 0 200 100" class="portfolio-client"><path fill="#9DBE3B" d="M41.4,75c17.7-1.2,39.3-1.7,57.2-2.6c21.4-1.1,44.7-1.7,66.2-2.1c0,0.2-1.7,0.6,0,0.6 c7.2,0.2,7.2,0.6,7.2,1.1c0,0.2-5.4,0.1-3.5,0.2c-2.7,0-6.2,0.1-8.5,0.2c-2.2,0.1-3.2,0.2-0.5,0.2c1.8,0.2,8.9-0.1,10.7,0.1 c1.8,0.4-1.7,0.7,0,1c1.8,0,5.4-0.1,7.2-0.1c1.8,0.2-1.7,0.7,0,0.6c2.7,0.1,5.9,0.1,9.1,0c3.3,0,7-0.1,10.5-0.1 c0,0.2,1.8,0.5-1.8,0.6c-31.2,0.2-62.9,1.1-94.5,2.2C69,78.2,37.5,79.6,6.4,81.3c-7.1,0.2-1.8-0.5,3.4-1.1c-1.7,0.2-1.8-0.1-3.5,0.1 c-0.1-0.4,3.4-1.1,10.5-1.6c-1.8,0.1-3.5,0.2-5.4,0.4c-1.8,0-0.1-0.4-0.1-0.6c1.8-0.1,3.5-0.2,3.5-0.4s-0.1-0.4-0.1-0.5 C12.9,77.8,9.4,78,7.6,78c1.8-0.1,3.5-0.2,3.5-0.3S11,77.3,11,77.2c3.5-0.4,8.9-0.4,12.4-0.7v-0.4c-3.5,0.1-8.9,0.5-12.4,0.7 c1.7-0.2,1.7-0.4,1.7-0.5c5.4-0.4,10.7-0.4,16-1c-1.8,0.1-3.5,0.2-5.4,0.2c1.7-0.4,4.9-0.6,8.2-0.7C35.2,75.3,38.7,75.2,41.4,75"/><path fill="#353331" d="M32.4,45.9c-1.5,6.9-6.7,10.7-14.5,10.7c-9.7,0-15.7-5.4-15.7-14.4c0-9.1,6-14.7,15.7-14.7 c7.5,0,12.8,3.7,14.2,9.8h-5.4c-1.3-3.7-4.3-5.6-8.7-5.6c-6.5,0-10.1,3.8-10.1,10.1c0,6.5,3.8,10.3,10.3,10.3c4.5,0,7.5-2.1,8.8-6.5 h5.4L32.4,45.9L32.4,45.9z M57.2,42.1c-3.1,0.9-6.5,1.6-10.9,2.1c-5,0.4-6.6,1.5-6.6,4c0,2.8,2.3,4.3,6.9,4.3c3.8,0,6.6-0.9,8.7-2.8 c1.6-1.5,2.1-2.6,2.1-5.1v-2.3L57.2,42.1L57.2,42.1z M35.1,37.4c0.3-2.6,0.9-4.1,1.9-5.6c2.3-2.8,6.5-4.3,12.3-4.3 c4.7,0,8.1,0.7,10.4,2.3c1.9,1.3,2.8,3.2,2.8,6.6v12.2c0,2.6,0.7,3.7,2.6,3.5c0.3,0,0.9,0,1.3-0.1v3.7c-1,0.3-1.8,0.4-2.9,0.4 c-3.5,0-5.1-1-6.2-4.1c-3.5,3.2-7,4.5-12.2,4.5c-6.9,0-11-3.1-11-8.2c0-2.9,1.6-5.6,4.3-6.7c2.1-0.9,3.4-1.2,9.2-1.8 c5.1-0.4,5.9-0.6,7.3-1c1.6-0.4,2.2-1.3,2.2-2.8c0-2.9-2.5-4.3-7.6-4.3c-6.2,0-8.5,1.5-8.9,5.6C40.6,37.4,35.1,37.4,35.1,37.4z  M75.4,28.3h7.8v4.4h-7.8v15.8c0,2.5,0.7,3.1,3.5,3.1c1.2,0,1.8,0,3.1-0.3v4.5c-2.2,0.3-3.2,0.4-4.5,0.4c-2.8,0-5-0.6-6.2-1.8 c-1.2-1-1.5-2.3-1.5-5.9v-16H64v-4.4h5.9v-7.6h5.6L75.4,28.3L75.4,28.3z M108.6,39.5c-1.3-4.8-5-7.6-10.3-7.6s-8.9,2.8-10.3,7.6 H108.6z M88.1,43.7c0.6,5.3,4.7,8.7,10.9,8.7c4.4,0,7.5-1.6,8.9-5h6c-2.8,6.3-7.9,9.4-15.4,9.4c-9.4,0-15.8-5.7-15.8-14.4 s6.5-14.7,15.8-14.7c6.7,0,12.3,3.1,14.5,8.2c1,2.3,1.3,4.4,1.3,7.9H88.1V43.7z M123,28.3v4.1c3.4-3.8,5.4-4.8,9.4-4.8 c1,0,1.9,0,3.5,0.3v5.4c-1.6-0.4-2.5-0.4-3.8-0.4c-2.9,0-5.3,0.9-7,2.8c-1.6,1.6-2.1,2.8-2.1,5.3V56h-5.7V28.3H123z M138.7,55.9h5.6 V28.3h-5.6V55.9z M138.7,24.3h5.6v-5.7h-5.6V24.3z M158.2,28.3h7.8v4.4h-7.8v15.8c0,2.5,0.7,3.1,3.5,3.1c1.2,0,1.8,0,3.1-0.3v4.5 c-2.2,0.3-3.2,0.4-4.5,0.4c-2.8,0-5-0.6-6.2-1.8c-1.2-1-1.5-2.3-1.5-5.9v-16h-5.9v-4.4h5.9v-7.6h5.6V28.3z M192.2,39.5 c-1.3-4.8-5-7.6-10.3-7.6c-5.3,0-8.9,2.8-10.3,7.6H192.2z M171.5,43.7c0.6,5.3,4.7,8.7,10.9,8.7c4.4,0,7.5-1.6,8.9-5h6 c-2.8,6.3-7.9,9.4-15.4,9.4c-9.4,0-15.8-5.7-15.8-14.4s6.5-14.7,15.8-14.7c6.7,0,12.3,3.1,14.5,8.2c1,2.3,1.3,4.4,1.3,7.9h-26.2 V43.7z"/></svg>