
<svg version="1.1" id="Layer_1" class="portfolio-client" xmlns="http://www.w3.org/2000/svg" xmlns:xlink="http://www.w3.org/1999/xlink" x="0px" y="0px"
	 viewBox="0 0 200 100" enable-background="new 0 0 200 100" xml:space="preserve">
<path fill="#40AAA7" d="M195.41,53.49c1.34,0.1,1.94,0.69,2.01,1.75c0.07,1.05-0.46,1.82-1.51,1.9c-1.25,0.09-2.07-0.62-2.02-1.9
	C193.93,54.22,194.72,53.71,195.41,53.49z"/>
<path fill="#1E1D1B" d="M113.49,36.86c1.25,0.3,1.44,1.17,1.14,2.14c-0.61,1.88-1.09,4.07-3.68,4.01c-0.97-0.02-1.64-1.07-1.37-2.05
	C110.17,38.97,111.4,37.45,113.49,36.86z M77.56,45.6c0.63-0.98,1.39-2.19-0.36-3.02c-1.29-0.61-1.92,0.06-2.6,1.08
	c-1.52,2.31-3.16,4.54-4.82,6.91c-0.45-0.55-0.83-0.87-0.98-1.28c-2-5.38-2-5.39-6.94-2.92c-0.69,0.36-1.3,0.85-2.11,0.45
	c-4.4-2.16-7.28,0.67-10.19,3.21c-1.93,1.68-3.76,3.48-5.88,5.48c-0.22-3.07,0.7-9.01,1.46-10.27c1.43-2.36,3.91-0.99,5.85-1.56
	c1.99-0.59,2.14-2.69,1.49-3.11c-2.14-1.38-5.21-1.41-5.77-4.75c-0.52,0.23-1.41,0.36-1.51,0.7c-1.02,3.41-3.64,3.21-6.32,2.94
	c-1.26-0.13-2.06,0.32-2.21,1.71c-0.14,1.24,0.17,2.17,1.46,2.46c1.02,0.23,2.07,0.33,3.32,0.52c-1.78,3.96-4.43,6.9-7.64,9.34
	c-1.01,0.77-2.33,1.54-3.33,0.53c-1.38-1.37,0.41-2.08,1.11-2.91c1-1.17,2.15-2.16,2.75-3.67c0.62-1.58,0.92-3.02-0.58-4.17
	c-1.67-1.29-3.23-0.63-4.56,0.61c-1.52,1.4-2.41,3.22-2.88,5.17c-0.6,2.51-2.06,4.75-4.56,4.15c-2.17-0.52-2.44-3.29-2.36-5.52
	c0.05-1.23,0.24-2.45,0.45-3.67c0.89-5.34,2.9-10.36,4.57-15.48c0.49-1.53,1.66-3.08,0.41-4.79c-0.61,0-1.24,0-1.85,0
	c-3.64,2.45-4.24,6.62-5.71,10.29c-0.85,2.13-1.24,4.44-3.32,5.93c-5.71,4.06-9.56,9.45-11.38,16.24c0,0.93,0,1.85,0,2.78
	c3.56,4.34,5.77,3.78,13.06-3.56c0.46,0.79,0.9,1.82,1.72,1.98c4.62,0.95,9.4,0.67,14.04,1.94c1.92,0.52,3.86-1.97,5.91-2.98
	c1.68,5.93,3.23,6.54,8.15,3.44c1.09-0.68,1.83-1.23,3.27-0.41c5.01,2.84,9.38,1.33,12.42-3.92c0.79-1.37,0.69-3.37,2.93-4.11
	c1.14,2.41-0.41,3.79-1.78,5.14c-4.1,3.98-8,8.11-11.54,12.61c-0.86,1.09-1.87,2.26-1.09,3.74c0.6,1.14,1.56,1.93,2.94,0.9
	c5.02-5.32,10.03-10.65,15.16-16.09c1.11,1.83,1.75,3.29,2.75,4.4c1.02,1.16,2.52,1,3.86,0.41c0.89-0.39,1.58-1.08,1.53-2.11
	c-0.05-0.83-0.61-1.36-1.45-1.54c-3.98-0.93-4.11-3.07-1.93-6.03C74.29,50.44,75.96,48.05,77.56,45.6z M14.48,49.44
	c-1.54,2.63-3.22,5.17-7.06,7.25c0.92-4.29,2.68-6.71,4.93-8.83c0.53-0.49,1.26-1.14,2-0.55C15.05,47.85,14.87,48.76,14.48,49.44z
	 M57.32,51.9c-0.42,2.18-2.02,3.33-3.86,4.16c-0.95-0.15-1.61-0.7-1.41-1.53c0.52-2.16,2.08-3.36,4.21-3.77
	C57.01,50.6,57.44,51.3,57.32,51.9z M189.33,55.6c-2.74-1.63-2.19-5.47-4.72-6.82c-2.35-1.24-3.63,1.54-5.54,2.52
	c0-0.54-0.08-1.01,0.01-1.43c0.38-1.59,1.56-3.51-0.4-4.55c-2.17-1.14-3.23,1.02-4.41,2.35c-1.84,2.05-3.27,4.49-5.8,5.87
	c-0.89,0.48-1.82,0.62-2.47-0.26c-0.55-0.75-0.06-1.41,0.48-2.02c0.51-0.56,1.05-1.15,1.46-1.78c1.15-1.76,2.9-3.39,2.05-5.78
	c-0.39-1.09-1.56-1.51-2.71-1.34c-2.7,0.4-3.64,2.53-4.47,4.75c-0.16,0.44-0.48,0.86-0.48,1.29c0.07,3.13-1.99,4.77-4.52,4.72
	c-2.4-0.03-0.97-3.15-2.16-4.47c-0.21-0.02-0.4-0.06-0.58-0.09c-1.72-0.05-1.99,2.43-3.92,2.74c0.54-2.23,2.06-3.36,3.43-4.57
	c2.03-3.44,4.28-6.78,5.33-10.69c0.49-1.84,1.71-4.18-0.56-5.43c-2.1-1.16-3.29,1.1-4.46,2.37c-3.3,3.56-5.68,7.79-6.77,12.47
	c-1.3,5.53-5.94,7.59-9.85,10.41c-0.98,0.71-2.74,1.33-3.25-0.89c-0.63-2.72,2.93-6.67,5.51-5.88c1.11,0.34,1.97,1.71,2.63-0.33
	c0.64-1.98-0.45-3.06-2.15-3.33c-3.39-0.58-6.04,1-7.99,3.6c-2,2.67-4.76,4.22-7.77,6.24c0.34-2.25,0.42-4.11,0.94-5.85
	c0.9-2.96,0.44-7.06,5.85-6.34c2.17,0.29,1.85-2.94,1-3.33c-1.84-0.84-4.63,0.02-4-3.67c0.09-0.53-1.56-0.46-1.79,0.26
	c-1.06,3.3-3.48,3.38-6.25,2.99c-1.29-0.2-2.08,0.47-2.23,1.76c-0.15,1.33,0.55,1.94,1.85,2.1c0.79,0.1,1.83-0.4,2.43,0.87
	c-2.01,3.08-4.33,5.91-7.54,7.9c-1.3,0.84-2.28,1.21-2.88-1.05c-1.66-6.09-1.8-6.04-6.11-1.54c-0.53,0.55-1,1.24-1.64,1.61
	c-1.11,0.67-1.46,3.24-3.54,1.61c-1.78-1.39-1.76-3.01-0.55-4.86c1.33-2.07,2.87-4.03,3.49-6.48c0.24-0.92,0.37-1.98-0.67-2.41
	c-1.18-0.49-1.55,0.67-1.97,1.41c-1.79,3.18-3.06,6.79-7.1,8.24c0.44-3.6,1.88-6.79,3.29-10.01c1.47-3.37,3.24-6.69,3.23-10.52
	c0-1.24,0.07-2.72-1.39-3.13c-1.66-0.46-1.95,1.18-2.4,2.24c-3.94,9.06-6.81,18.47-8.36,28.25c-0.28,1.69-1.1,4.06,1.07,5
	c2.17,0.95,3.23-1.3,4.34-2.62c1.58-1.85,2.71-4.29,5.43-1.19c1.31,1.48,2.88,0.6,4.14-0.39c1.43-1.15,2.72-2.46,4.23-3.85
	c0.33,0.62,0.67,1.13,0.86,1.68c1.72,4.84,3.29,5.37,7.25,2.34c1.92-1.46,3.72-3.1,5.67-4.74c0.87,2.88-2,6.52,0.89,8
	c3.53,1.83,5.21-2.95,8.46-4.06c0.34,4.31,3.01,5.28,6.69,4.31c3.17-0.84,5.26-3.47,8.23-5.54c0,1.64-0.08,2.83,0.02,3.99
	c0.16,1.86,2,2.79,2.78,1.63c2.45-3.62,5.77-3.84,9.49-3.62c0.67,0.03,1.4-0.56,2.08-0.93c0.64-0.34,1.21-0.98,1.95-0.14
	c3.64,4.09,6.72,2.16,9.68-0.94c2.11-0.29,1.55,0.9,1.1,2.01c0.11,1.18-0.72,2.79,0.52,3.41c1.51,0.77,2.46-0.74,3.38-1.75
	c0.52-0.56,1.01-1.16,1.52-1.74c2.05-2.28,4.09-5.37,5.62,0.44c0.42,1.6,1.91,2.02,3.37,1.23C188.55,57.4,190.04,56.03,189.33,55.6z
	 M157.24,35.57c-0.13,2.14-0.44,3.46-2.33,4.19C154.39,37.73,155.29,36.71,157.24,35.57z"/>
</svg>
