<svg xmlns="http://www.w3.org/2000/svg" viewBox="0 0 200 100" class="portfolio-client"><path fill="#40AAA7" d="M196.42,54.55c1.35,0.1,1.96,0.7,2.03,1.77c0.07,1.06-0.46,1.84-1.53,1.92c-1.26,0.09-2.09-0.63-2.04-1.92 C194.92,55.29,195.72,54.77,196.42,54.55z"/><path fill="#1E1D1B" d="M113.63,37.74c1.26,0.3,1.46,1.18,1.15,2.16c-0.62,1.9-1.1,4.11-3.72,4.05c-0.98-0.02-1.66-1.08-1.38-2.07 C110.27,39.87,111.52,38.34,113.63,37.74z M77.32,46.57c0.64-0.99,1.4-2.21-0.36-3.05c-1.3-0.62-1.94,0.06-2.63,1.09 c-1.54,2.33-3.19,4.59-4.87,6.98c-0.45-0.56-0.84-0.88-0.99-1.29c-2.02-5.44-2.02-5.45-7.01-2.95c-0.7,0.36-1.31,0.86-2.13,0.45 c-4.45-2.18-7.36,0.68-10.3,3.24c-1.95,1.7-3.8,3.52-5.94,5.54c-0.22-3.1,0.71-9.11,1.48-10.38c1.45-2.39,3.95-1,5.91-1.58 c2.01-0.6,2.16-2.72,1.51-3.14c-2.16-1.39-5.27-1.43-5.83-4.8c-0.53,0.23-1.42,0.36-1.53,0.71c-1.03,3.45-3.68,3.24-6.39,2.97 c-1.27-0.13-2.08,0.32-2.23,1.73c-0.14,1.25,0.17,2.19,1.48,2.49c1.03,0.23,2.09,0.33,3.36,0.53c-1.8,4-4.48,6.97-7.72,9.44 c-1.02,0.78-2.35,1.56-3.37,0.54c-1.39-1.38,0.41-2.1,1.12-2.94c1.01-1.18,2.17-2.18,2.78-3.71c0.63-1.6,0.93-3.05-0.59-4.21 c-1.69-1.3-3.26-0.64-4.61,0.62c-1.54,1.41-2.44,3.25-2.91,5.23c-0.61,2.54-2.08,4.8-4.61,4.19c-2.19-0.53-2.47-3.33-2.39-5.58 c0.05-1.24,0.24-2.48,0.45-3.71c0.9-5.4,2.93-10.47,4.62-15.64c0.5-1.55,1.68-3.11,0.41-4.84c-0.62,0-1.25,0-1.87,0 c-3.68,2.48-4.29,6.69-5.77,10.4c-0.86,2.15-1.25,4.49-3.36,5.99c-5.77,4.1-9.66,9.55-11.5,16.41c0,0.94,0,1.87,0,2.81 c3.6,4.39,5.83,3.82,13.2-3.6c0.46,0.8,0.91,1.84,1.74,2c4.67,0.96,9.5,0.68,14.19,1.96c1.94,0.53,3.9-1.99,5.97-3.01 c1.7,5.99,3.26,6.61,8.24,3.48c1.1-0.69,1.85-1.24,3.3-0.41c5.06,2.87,9.48,1.34,12.55-3.96c0.8-1.38,0.7-3.41,2.96-4.15 c1.15,2.44-0.41,3.83-1.8,5.19c-4.14,4.02-8.09,8.2-11.66,12.74c-0.87,1.1-1.89,2.28-1.1,3.78c0.61,1.15,1.58,1.95,2.97,0.91 c5.07-5.38,10.14-10.76,15.32-16.26c1.12,1.85,1.77,3.32,2.78,4.45c1.03,1.17,2.55,1.01,3.9,0.41c0.9-0.39,1.6-1.09,1.55-2.13 c-0.05-0.84-0.62-1.37-1.47-1.56c-4.02-0.94-4.15-3.1-1.95-6.09C74.01,51.47,75.7,49.05,77.32,46.57z M13.56,50.45 c-1.56,2.66-3.25,5.22-7.14,7.33c0.93-4.34,2.71-6.78,4.98-8.92c0.54-0.5,1.27-1.15,2.02-0.56C14.14,48.85,13.96,49.77,13.56,50.45z  M56.86,52.94c-0.42,2.2-2.04,3.37-3.9,4.2c-0.96-0.15-1.63-0.71-1.42-1.55c0.53-2.18,2.1-3.4,4.25-3.81 C56.55,51.63,56.98,52.33,56.86,52.94z M190.27,56.68c-2.77-1.65-2.21-5.53-4.77-6.89c-2.38-1.25-3.67,1.56-5.6,2.55 c0-0.55-0.08-1.02,0.01-1.45c0.38-1.61,1.58-3.55-0.4-4.6c-2.19-1.15-3.26,1.03-4.46,2.38c-1.86,2.07-3.3,4.54-5.86,5.93 c-0.9,0.49-1.84,0.63-2.5-0.26c-0.56-0.76-0.06-1.43,0.49-2.04c0.52-0.57,1.06-1.16,1.48-1.8c1.16-1.78,2.93-3.43,2.07-5.84 c-0.39-1.1-1.58-1.53-2.74-1.35c-2.73,0.4-3.68,2.56-4.52,4.8c-0.16,0.44-0.49,0.87-0.49,1.3c0.07,3.16-2.01,4.82-4.57,4.77 c-2.43-0.03-0.98-3.18-2.18-4.52c-0.21-0.02-0.4-0.06-0.59-0.09c-1.74-0.05-2.01,2.46-3.96,2.77c0.55-2.25,2.08-3.4,3.47-4.62 c2.05-3.48,4.33-6.85,5.39-10.8c0.5-1.86,1.73-4.22-0.57-5.49c-2.12-1.17-3.32,1.11-4.51,2.4c-3.34,3.6-5.74,7.87-6.84,12.6 c-1.31,5.59-6,7.67-9.95,10.52c-0.99,0.72-2.77,1.34-3.28-0.9c-0.64-2.75,2.96-6.74,5.57-5.94c1.12,0.34,1.99,1.73,2.66-0.33 c0.65-2-0.45-3.09-2.17-3.37c-3.43-0.59-6.1,1.01-8.07,3.64c-2.02,2.7-4.81,4.26-7.85,6.31c0.34-2.27,0.42-4.15,0.95-5.91 c0.91-2.99,0.44-7.13,5.91-6.41c2.19,0.29,1.87-2.97,1.01-3.37c-1.86-0.85-4.68,0.02-4.04-3.71c0.09-0.54-1.58-0.46-1.81,0.26 c-1.07,3.34-3.52,3.42-6.32,3.02c-1.3-0.2-2.1,0.48-2.25,1.78c-0.15,1.34,0.56,1.96,1.87,2.12c0.8,0.1,1.85-0.4,2.46,0.88 c-2.03,3.11-4.38,5.97-7.62,7.98c-1.31,0.85-2.3,1.22-2.91-1.06c-1.68-6.15-1.82-6.1-6.17-1.56c-0.54,0.56-1.01,1.25-1.66,1.63 c-1.12,0.68-1.48,3.27-3.58,1.63c-1.8-1.4-1.78-3.04-0.56-4.91c1.34-2.09,2.9-4.07,3.53-6.55c0.24-0.93,0.37-2-0.68-2.44 c-1.19-0.5-1.57,0.68-1.99,1.42c-1.81,3.21-3.09,6.86-7.18,8.33c0.44-3.64,1.9-6.86,3.33-10.12c1.49-3.41,3.27-6.76,3.26-10.63 c0-1.25,0.07-2.75-1.4-3.16c-1.68-0.46-1.97,1.19-2.43,2.26C93.27,37,90.37,46.51,88.8,56.39c-0.28,1.71-1.11,4.1,1.08,5.05 c2.19,0.96,3.26-1.31,4.39-2.65c1.6-1.87,2.74-4.34,5.49-1.2c1.32,1.5,2.91,0.61,4.18-0.39c1.45-1.16,2.75-2.49,4.28-3.89 c0.33,0.63,0.68,1.14,0.87,1.7c1.74,4.89,3.32,5.43,7.33,2.36c1.94-1.48,3.76-3.13,5.73-4.79c0.88,2.91-2.02,6.59,0.9,8.09 c3.57,1.85,5.27-2.98,8.55-4.1c0.34,4.36,3.04,5.34,6.76,4.36c3.2-0.85,5.32-3.51,8.32-5.6c0,1.66-0.08,2.86,0.02,4.03 c0.16,1.88,2.02,2.82,2.81,1.65c2.48-3.66,5.83-3.88,9.59-3.66c0.68,0.03,1.41-0.57,2.1-0.94c0.65-0.34,1.22-0.99,1.97-0.14 c3.68,4.13,6.79,2.18,9.78-0.95c2.13-0.29,1.57,0.91,1.11,2.03c0.11,1.19-0.73,2.82,0.53,3.45c1.53,0.78,2.49-0.75,3.42-1.77 c0.53-0.57,1.02-1.17,1.54-1.76c2.07-2.3,4.13-5.43,5.68,0.44c0.42,1.62,1.93,2.04,3.41,1.24C189.49,58.5,190.99,57.11,190.27,56.68 z M157.84,36.44c-0.13,2.16-0.44,3.5-2.35,4.23C154.96,38.62,155.87,37.59,157.84,36.44z"/></svg>