<svg class="portfolio-client" xmlns="http://www.w3.org/2000/svg" viewBox="0 0 200 100">
<g transform="translate(-133.118,258.312)"><path fill="#007B82" d="M136.24-232.79c2.4-0.4,5.3-0.6,8.39-0.6c5.6,0,9.59,1.3,12.29,3.7c2.7,2.5,4.3,6,4.3,10.89 	c0,4.9-1.6,8.99-4.4,11.79c-2.9,2.8-7.59,4.4-13.39,4.4c-2.8,0-5.1-0.1-7.09-0.4v-29.78H136.24z M140.24-206.01 	c1,0.2,2.4,0.2,4,0.2c8.39,0,12.89-4.7,12.89-12.89c0-7.19-4-11.69-12.29-11.69c-2,0-3.6,0.2-4.6,0.4L140.24-206.01L140.24-206.01z 	 M168.62-213.11c0.1,5.4,3.5,7.59,7.39,7.59c2.8,0,4.6-0.5,6-1.1l0.7,2.8c-1.4,0.6-3.8,1.4-7.29,1.4c-6.7,0-10.69-4.5-10.69-10.99 	c0-6.6,3.9-11.79,10.29-11.79c7.09,0,8.89,6.3,8.89,10.29c0,0.8,0,1.4-0.1,1.9L168.62-213.11z M180.21-216.01c0-2.5-1-6.4-5.4-6.4 	c-4,0-5.8,3.7-6.1,6.4H180.21z M190.3-224.7l4.3,12.19c0.7,2,1.3,3.8,1.8,5.6h0.1c0.5-1.8,1.1-3.6,1.8-5.6l4.2-12.19h4.1 	l-8.49,21.78h-3.8l-8.29-21.78H190.3L190.3-224.7z M218.78-202.42c-5.8,0-10.39-4.3-10.39-11.19c0-7.29,4.8-11.59,10.79-11.59 	c6.2,0,10.49,4.5,10.49,11.19C229.57-206.01,223.98-202.42,218.78-202.42L218.78-202.42L218.78-202.42z M218.88-205.41 	c3.8,0,6.6-3.6,6.6-8.49c0-3.7-1.8-8.29-6.5-8.29c-4.6,0-6.7,4.3-6.7,8.49C212.39-209.01,215.08-205.41,218.88-205.41 	L218.88-205.41z M234.57-218.8c0-2.3,0-4.1-0.2-5.9h3.5l0.2,3.6h0.1c1.1-2,3.6-4,7.19-4c3,0,7.69,1.8,7.69,9.29v12.99h-4v-12.49 	c0-3.5-1.3-6.5-5-6.5c-2.6,0-4.6,1.8-5.3,4c-0.2,0.5-0.3,1.2-0.3,1.8v13.09h-4L234.57-218.8L234.57-218.8z M145.04-184.33 	c-0.6,0.3-1.8,0.6-3.3,0.6c-3.5,0-6.2-2.2-6.2-6.4c0-4,2.7-6.6,6.6-6.6c1.5,0,2.6,0.3,3,0.6l-0.4,1.3c-0.6-0.3-1.5-0.5-2.5-0.5 	c-2.9,0-4.9,1.9-4.9,5.2c0,3.1,1.8,5.1,4.8,5.1c1,0,2-0.2,2.7-0.5L145.04-184.33z M150.43-183.73c-2.4,0-4.3-1.8-4.3-4.6 	c0-3,2-4.8,4.5-4.8c2.6,0,4.3,1.9,4.3,4.6C154.93-185.23,152.63-183.73,150.43-183.73L150.43-183.73L150.43-183.73z M150.43-185.03 	c1.6,0,2.7-1.5,2.7-3.5c0-1.5-0.8-3.4-2.7-3.4s-2.8,1.8-2.8,3.5C147.73-186.53,148.83-185.03,150.43-185.03L150.43-185.03z 	 M164.52-186.43c0,0.9,0,1.8,0.1,2.5h-1.5l-0.1-1.5l0,0c-0.4,0.7-1.4,1.7-3,1.7c-1.4,0-3.1-0.8-3.1-4v-5.3h1.6v5 	c0,1.7,0.5,2.9,2,2.9c1.1,0,1.9-0.8,2.2-1.5c0.1-0.2,0.2-0.5,0.2-0.8v-5.5h1.6V-186.43z M167.22-190.52c0-1,0-1.7-0.1-2.4h1.5 	l0.1,1.5l0,0c0.4-0.8,1.5-1.7,3-1.7c1.2,0,3.2,0.7,3.2,3.8v5.4h-1.6v-5.2c0-1.5-0.5-2.7-2.1-2.7c-1.1,0-1.9,0.8-2.2,1.7 	c-0.1,0.2-0.1,0.5-0.1,0.8v5.4h-1.6L167.22-190.52L167.22-190.52z M179.51-195.12v2.2h2.3v1.2h-2.3v4.9c0,1.1,0.3,1.8,1.2,1.8 	c0.4,0,0.7,0,1-0.1l0.1,1.2c-0.3,0.1-0.8,0.2-1.5,0.2c-0.8,0-1.4-0.3-1.8-0.7c-0.4-0.5-0.6-1.3-0.6-2.4v-4.9h-1.4v-1.2h1.4v-1.7 	L179.51-195.12z M184.41-193.02l2,5.3c0.2,0.6,0.4,1.3,0.6,1.8l0,0c0.2-0.5,0.4-1.2,0.6-1.9l1.8-5.3h1.7l-2.5,6.4 	c-1.2,3.1-2,4.7-3.1,5.7c-0.8,0.7-1.6,1-2,1l-0.4-1.4c0.4-0.1,1-0.4,1.4-0.8c0.4-0.4,1-1,1.4-1.8c0.1-0.2,0.1-0.3,0.1-0.4 	c0-0.1,0-0.2-0.1-0.4l-3.3-8.29h1.8V-193.02z M205.39-184.33c-0.6,0.3-1.8,0.6-3.3,0.6c-3.5,0-6.2-2.2-6.2-6.4c0-4,2.7-6.6,6.6-6.6 	c1.5,0,2.6,0.3,3,0.6l-0.4,1.3c-0.6-0.3-1.5-0.5-2.5-0.5c-2.9,0-4.9,1.9-4.9,5.2c0,3.1,1.8,5.1,4.8,5.1c1,0,2-0.2,2.7-0.5 	L205.39-184.33z M210.79-183.73c-2.4,0-4.3-1.8-4.3-4.6c0-3,2-4.8,4.5-4.8c2.6,0,4.3,1.9,4.3,4.6 	C215.28-185.23,212.99-183.73,210.79-183.73L210.79-183.73L210.79-183.73z M210.89-185.03c1.6,0,2.7-1.5,2.7-3.5 	c0-1.5-0.8-3.4-2.7-3.4s-2.8,1.8-2.8,3.5C208.09-186.53,209.29-185.03,210.89-185.03L210.89-185.03z M224.88-186.43 	c0,0.9,0,1.8,0.1,2.5h-1.5l-0.1-1.5l0,0c-0.4,0.7-1.4,1.7-3,1.7c-1.4,0-3.1-0.8-3.1-4v-5.3h1.6v5c0,1.7,0.5,2.9,2,2.9 	c1.1,0,1.9-0.8,2.2-1.5c0.1-0.2,0.1-0.5,0.1-0.8v-5.5h1.6v6.5H224.88z M227.58-190.52c0-1,0-1.7-0.1-2.4h1.5l0.1,1.5l0,0 	c0.4-0.8,1.5-1.7,3-1.7c1.2,0,3.2,0.7,3.2,3.8v5.4h-1.6v-5.2c0-1.5-0.5-2.7-2.1-2.7c-1.1,0-1.9,0.8-2.2,1.7 	c-0.1,0.2-0.1,0.5-0.1,0.8v5.4h-1.6v-6.6H227.58z M244.36-184.33c-0.4,0.2-1.4,0.5-2.6,0.5c-2.7,0-4.5-1.8-4.5-4.6 	c0-2.8,1.9-4.8,4.8-4.8c1,0,1.8,0.2,2.3,0.5l-0.4,1.2c-0.4-0.2-1-0.4-1.9-0.4c-2.1,0-3.2,1.5-3.2,3.4c0,2.1,1.3,3.4,3.1,3.4 	c0.9,0,1.5-0.2,2-0.4L244.36-184.33z M247.06-194.62c-0.6,0-1-0.5-1-1.1s0.4-1,1.1-1s1,0.5,1,1 	C248.16-195.12,247.76-194.62,247.06-194.62L247.06-194.62z M246.26-183.93v-8.99h1.6v8.99H246.26z M250.66-197.22h1.6v13.19h-1.6 	V-197.22z M263.05-196.22c0,1.8-0.1,4.8,0.4,7.19c0.7-1.2,1.4-2.3,2-3.2c-0.3-1.6-0.7-4.3-0.7-6.5c0-5.9,2.4-11.69,5.1-15.99 	c2.1-3.3,4.7-5.5,7.69-7.49c1.7-1.5,3.6-2.7,5.3-3.4c3.3-1.3,6.4-2.3,9.49-2.7c0.9-3.1,3-6.7,4.1-8.29c1.2-1.7,4.6-4.9,6.99-6.4 	c-1.2-0.3-4.5-0.7-6.99-0.7c-4.6,0-11.89,0.8-18.49,3.2c-2.9,1.1-6.99,3.3-10.49,7.19c-3.5,3.9-5.9,11.39-5.9,15.39 	c0,3.9,1.2,10.89,3,13.49C263.85-201.62,263.05-198.32,263.05-196.22z"/><path id="path49" fill="#68BF8A" d="M296.92-228.7c7.19,0,12.89,2.6,18.29,4.1c5.4,1.4,11.99,3,15.49,3.3 	c-3.8,1.2-11.59,4.2-14.29,6.4c-2.8,2.2-6.7,6.4-8.69,9.29c-2,2.9-5,7.59-7.89,9.59c-2.9,2-5.9,3.8-11.99,3.8 	c-6,0-12.09-2.8-13.79-3.7c2.4-4.7,10.39-10.89,17.99-15.49c-5.8,1.2-11.29,4.1-14.19,6.6c-2.9,2.5-6.7,6.2-9.19,10.19 	c-2.5,4.1-6.2,12.19-6.79,17.59l-3.4,2.1c0.9-9.49,7.59-18.69,9.49-20.78c-0.8-4.6-0.3-11.59,2.2-16.89 	c2.5-5.4,7.89-11.19,12.69-13.09C287.73-227.6,292.13-228.7,296.92-228.7z"/></g></svg>