<svg class="portfolio-client" xmlns="http://www.w3.org/2000/svg" viewBox="0 0 200 100"><path d="M68.16,36.34c-1.47,0-2.56,0.49-3.44,1.47c-0.88,0.98-1.38,2.26-1.38,3.83c0,1.47,0.49,2.75,1.28,3.83 c0.88,0.98,1.97,1.47,3.44,1.47s2.56-0.49,3.44-1.47c0.88-0.98,1.28-2.26,1.28-3.83s-0.39-2.85-1.28-3.83 C70.72,36.83,69.63,36.34,68.16,36.34z M88.8,36.63h-2.65v10.03h2.75c0.98,0,1.97-0.2,2.65-0.69c0.69-0.49,1.28-1.08,1.67-1.87 c0.39-0.79,0.59-1.57,0.59-2.56c0-1.47-0.39-2.65-1.28-3.64C91.65,37.12,90.38,36.63,88.8,36.63z M77.01,63.07h-0.98v1.08h0.98 c0.2,0,0.29,0,0.39-0.1c0.2-0.1,0.2-0.29,0.2-0.39s0-0.29-0.2-0.39C77.3,63.17,77.2,63.07,77.01,63.07z M84.48,63.07H83.5v1.08h0.98 c0.2,0,0.29,0,0.39-0.1c0.2-0.1,0.2-0.29,0.2-0.39s0-0.29-0.2-0.39C84.77,63.17,84.67,63.07,84.48,63.07z M46.04,36.34 c-1.47,0-2.56,0.49-3.44,1.47s-1.28,2.26-1.28,3.83s0.49,2.75,1.28,3.83c0.88,0.98,1.97,1.47,3.44,1.47s2.56-0.49,3.44-1.47 c0.88-0.98,1.28-2.26,1.28-3.83s-0.49-2.85-1.28-3.83C48.6,36.83,47.52,36.34,46.04,36.34z M41.91,63.76c0,0,0.1-0.1,0.1-0.29 c0-0.2-0.1-0.2-0.1-0.29c0,0-0.2-0.1-0.29-0.1h-1.18v0.79h1.18C41.72,63.86,41.82,63.86,41.91,63.76z M41.62,65.24h-1.18v0.88h1.18 c0.2,0,0.29,0,0.39-0.1s0.1-0.2,0.1-0.29s0-0.2-0.1-0.29C41.91,65.24,41.82,65.24,41.62,65.24z M1.61,15.59v68.81h196.8V15.59H1.61z  M181.99,33.68l-0.39,11.4h-2.65l-0.29-11.4C178.65,33.68,181.99,33.68,181.99,33.68z M31.89,46.95L31.89,46.95 c-0.88,0.98-1.87,1.67-2.95,2.16c-1.08,0.49-2.36,0.79-3.64,0.79c-1.57,0-2.95-0.29-4.13-0.98c-1.28-0.69-2.26-1.67-3.05-2.95 c-0.79-1.28-1.18-2.75-1.18-4.33c0-1.18,0.2-2.36,0.69-3.34c0.39-0.98,1.08-1.87,1.77-2.56c0.69-0.69,1.67-1.28,2.65-1.67 s2.06-0.59,3.24-0.59c2.75,0,4.82,1.08,6.39,3.34l0.2,0.29l-2.75,1.38l-0.1-0.2c-0.39-0.59-0.98-0.98-1.57-1.38 c-0.69-0.39-1.38-0.59-2.16-0.59c-1.47,0-2.65,0.49-3.54,1.47c-0.98,1.08-1.47,2.26-1.47,3.83c0,1.57,0.49,2.85,1.47,3.83 s2.16,1.47,3.54,1.47c0.69,0,1.28-0.1,1.97-0.39c0.59-0.29,0.98-0.49,1.38-0.88v-1.97h-4.62v-2.95h7.86V46.95z M43.09,67.01 c-0.29,0.29-0.69,0.39-1.28,0.39h-2.85v-5.6h2.75c0.49,0,0.98,0.2,1.28,0.49c0.29,0.29,0.49,0.69,0.49,1.18 c0,0.39-0.1,0.69-0.29,0.98c0-0.1-0.1,0-0.2,0.1c0.1,0,0.2,0.1,0.29,0.2c0.2,0.29,0.39,0.59,0.39,0.98 C43.58,66.22,43.49,66.71,43.09,67.01z M49.29,65.14v2.36h-1.47v-2.36l-2.16-3.34h1.67l1.28,1.97l1.18-1.97h1.67L49.29,65.14z  M53.51,44.89c-0.39,0.98-0.98,1.87-1.67,2.56c-0.69,0.69-1.47,1.38-2.56,1.77c-0.98,0.39-2.06,0.59-3.24,0.59 c-1.57,0-2.95-0.39-4.23-1.08c-1.18-0.69-2.16-1.67-2.85-2.85c-0.69-1.28-0.98-2.65-0.98-4.23s0.39-2.95,0.98-4.23 c0.69-1.28,1.67-2.26,2.85-2.95s2.65-1.08,4.23-1.08c1.18,0,2.26,0.2,3.24,0.59c0.98,0.39,1.87,0.98,2.56,1.67 c0.69,0.69,1.28,1.57,1.67,2.56c0.39,0.98,0.59,2.06,0.59,3.24C54.2,42.82,53.91,43.91,53.51,44.89z M63.64,67.4h-1.47v-2.16H60.1 v2.26h-1.47v-5.7h1.47v2.06h2.06V61.8h1.47C63.64,61.8,63.64,67.4,63.64,67.4z M70.42,67.4l-0.39-0.98h-1.97l-0.39,0.98H66.1 l2.26-5.6h1.47l2.26,5.7h-1.67V67.4z M71.4,49.21c-0.98,0.39-2.06,0.59-3.24,0.59c-1.57,0-2.95-0.39-4.23-1.08 c-1.18-0.69-2.16-1.67-2.85-2.85c-0.69-1.28-0.98-2.65-0.98-4.23s0.39-2.95,0.98-4.23c0.69-1.28,1.67-2.26,2.85-2.95 s2.65-1.08,4.23-1.08c1.18,0,2.26,0.29,3.24,0.69c0.98,0.39,1.87,0.98,2.56,1.67c0.69,0.69,1.28,1.57,1.67,2.56 c0.39,1.08,0.69,2.16,0.69,3.34s-0.2,2.26-0.59,3.24c-0.39,0.98-0.98,1.87-1.67,2.56C73.27,48.23,72.49,48.82,71.4,49.21z  M77.6,67.4l-1.08-1.87h-0.49v1.87h-1.38v-5.6h2.56c0.59,0,1.08,0.2,1.38,0.49c0.39,0.39,0.59,0.79,0.59,1.38 c0,0.29,0,0.49-0.1,0.69c-0.2,0.2-0.29,0.39-0.49,0.59c-0.1,0.1-0.2,0.2-0.39,0.29c0,0-0.1,0-0.2,0.1l1.28,2.16H77.6V67.4z  M85.17,67.4l-1.18-1.87h-0.39v1.87h-1.47v-5.6h2.56c0.59,0,1.08,0.2,1.38,0.49c0.39,0.39,0.59,0.79,0.59,1.38 c0,0.29,0,0.49-0.1,0.69c-0.2,0.2-0.29,0.39-0.39,0.59c-0.2,0.1-0.29,0.2-0.49,0.29c0,0-0.1,0-0.1,0.1l1.28,2.16h-1.67V67.4z  M92.34,65.14v2.36h-1.47v-2.36l-2.26-3.34h1.67l1.28,1.97l1.28-1.97h1.67L92.34,65.14z M93.13,48.53 c-1.28,0.69-2.75,0.98-4.33,0.98h-6V33.68h6c1.57,0,3.05,0.29,4.33,0.98c1.28,0.69,2.26,1.67,2.95,2.85 c0.69,1.18,1.08,2.56,1.08,4.13s-0.39,2.95-1.08,4.13S94.41,47.84,93.13,48.53z M98.24,63.57c-0.1,0.2-0.29,0.49-0.59,0.59l-0.2,0.2 l-0.79-0.69l0.39-0.2c0.1,0,0.2-0.1,0.29-0.2c-0.1,0-0.2-0.1-0.2-0.2c-0.29-0.2-0.29-0.39-0.29-0.59s0.1-0.39,0.2-0.59 c0.29-0.29,0.88-0.29,1.18,0c0.2,0.2,0.29,0.39,0.29,0.69C98.54,62.98,98.44,63.27,98.24,63.57z M105.71,66.32 c-0.1,0.2-0.2,0.39-0.39,0.59c-0.2,0.2-0.39,0.29-0.69,0.39c-0.29,0.1-0.59,0.1-0.98,0.1c-0.98,0-1.67-0.29-2.26-0.88l-0.2-0.2 l0.88-1.18l0.2,0.29c0.2,0.2,0.39,0.29,0.59,0.49c0.49,0.2,1.18,0.2,1.38,0c0.1-0.1,0.1-0.2,0.1-0.29s0-0.1,0-0.1s-0.1-0.1-0.2-0.1 c-0.1,0-0.2-0.1-0.39-0.1l-0.98-0.29c-0.2,0-0.39-0.1-0.49-0.2c-0.1-0.1-0.29-0.1-0.39-0.29c-0.1-0.1-0.29-0.29-0.39-0.49 c-0.1-0.2-0.1-0.39-0.1-0.69c0-0.49,0.2-0.98,0.59-1.28c0.39-0.29,0.88-0.49,1.47-0.49c0.88,0,1.57,0.29,2.16,0.79l0.2,0.2 l-0.88,1.18l-0.2-0.2c-0.2-0.2-0.39-0.29-0.59-0.39c-0.39-0.2-0.88-0.2-1.18,0c-0.1,0-0.1,0.1-0.1,0.2v0.1c0,0,0.1,0.1,0.2,0.1 s0.2,0.1,0.39,0.1l0.98,0.29c0.2,0.1,0.39,0.1,0.49,0.2c0.2,0.1,0.29,0.2,0.49,0.29c0.1,0.1,0.29,0.29,0.29,0.49 c0.1,0.2,0.1,0.39,0.1,0.69C105.81,65.92,105.81,66.12,105.71,66.32z M106.99,49.61h-3.24V33.68h3.15l7.37,10.03V33.68h3.24v15.83 h-3.05l-7.47-10.32V49.61z M116.62,67.4l-1.57-1.97l-0.1,0.2v1.77h-1.47v-5.6h1.47v1.97l1.57-1.97h1.87l-2.36,2.65l2.46,2.95H116.62 z M122.23,67.4h-1.47v-5.6h1.47V67.4z M124.78,33.68h11.01v2.95h-7.77v3.44h7.67v2.95h-7.67v3.64h7.77v2.95h-11.01V33.68z  M129.7,63.07h-1.57v4.33h-1.47v-4.33h-1.57V61.8h4.52v1.28H129.7z M134.02,65.73c0.29,0.29,0.59,0.39,1.08,0.39 c0.2,0,0.39-0.1,0.59-0.2c0.2-0.1,0.29-0.29,0.39-0.39l0.1-0.2l1.28,0.69l-0.2,0.29c-0.49,0.88-1.28,1.28-2.26,1.28 c-0.39,0-0.79-0.1-1.18-0.2c-0.39-0.1-0.69-0.29-0.98-0.59s-0.49-0.59-0.59-0.88c-0.1-0.39-0.2-0.79-0.2-1.18 c0-0.39,0.1-0.79,0.2-1.18c0.2-0.39,0.39-0.69,0.59-0.88c0.29-0.29,0.59-0.49,0.98-0.59c0.39-0.1,0.79-0.2,1.18-0.2 c0.98,0,1.77,0.39,2.26,1.28l0.2,0.29l-1.18,0.39l-0.1-0.2c-0.1-0.2-0.29-0.29-0.39-0.39c-0.2-0.1-0.39-0.2-0.59-0.2 c-0.39,0-0.79,0.1-1.08,0.39c-0.29,0.29-0.39,0.69-0.39,1.18C133.63,65.04,133.73,65.43,134.02,65.73z M145.23,67.4h-1.47v-2.16 h-2.06v2.26h-1.47v-5.7h1.47v2.06h2.06V61.8h1.47V67.4z M152.5,63.07h-2.56v0.79h2.56v1.38h-2.56v0.88h2.56v1.38h-4.03v-5.7h4.03 V63.07z M153.98,46.76c-0.29,0.59-0.59,1.18-1.08,1.57c-0.49,0.49-1.18,0.88-1.97,1.08c-0.79,0.29-1.77,0.39-2.75,0.39 c-2.65,0-4.82-0.88-6.39-2.56l-0.2-0.2l1.87-2.56l0.2,0.29c0.59,0.59,1.28,1.08,2.06,1.47c0.79,0.39,1.67,0.59,2.65,0.59 s1.67-0.2,2.16-0.59s0.69-0.79,0.69-1.28c0-0.29-0.1-0.49-0.29-0.69c-0.2-0.2-0.39-0.39-0.69-0.59c-0.29-0.1-0.69-0.29-1.18-0.39 l-2.85-0.79c-0.49-0.1-0.98-0.29-1.47-0.59c-0.49-0.2-0.88-0.49-1.28-0.88c-0.39-0.29-0.69-0.79-0.88-1.28 c-0.2-0.49-0.29-1.08-0.29-1.77c0-1.38,0.59-2.46,1.67-3.44c1.08-0.88,2.46-1.38,4.23-1.38c2.46,0,4.42,0.69,6,2.16l0.2,0.2 l-1.87,2.46l-0.2-0.2c-0.59-0.59-1.18-0.98-1.97-1.28c-0.69-0.29-1.47-0.39-2.26-0.39c-0.69,0-1.28,0.2-1.67,0.49 s-0.59,0.69-0.59,1.18c0,0.2,0.1,0.39,0.2,0.59c0.2,0.2,0.39,0.39,0.69,0.49c0.29,0.1,0.69,0.29,1.18,0.39l2.85,0.79 c0.49,0.1,0.98,0.29,1.47,0.59s0.88,0.59,1.28,0.88c0.39,0.29,0.69,0.79,0.88,1.28s0.29,1.08,0.29,1.77 C154.27,45.48,154.17,46.17,153.98,46.76z M160.56,67.4h-1.28l-2.26-3.05v3.05h-1.47v-5.6h1.38l2.16,2.95V61.8h1.47 C160.56,61.8,160.56,67.4,160.56,67.4z M172.16,46.76c-0.29,0.59-0.59,1.18-1.08,1.57c-0.49,0.49-1.18,0.88-1.97,1.08 c-0.79,0.29-1.77,0.39-2.75,0.39c-2.65,0-4.82-0.88-6.39-2.56l-0.2-0.2l1.87-2.56l0.2,0.29c0.59,0.59,1.28,1.08,2.06,1.47 c0.79,0.39,1.67,0.59,2.65,0.59c0.98,0,1.67-0.2,2.16-0.59s0.69-0.79,0.69-1.28c0-0.29-0.1-0.49-0.29-0.69 c-0.2-0.2-0.39-0.39-0.69-0.59c-0.29-0.1-0.69-0.29-1.18-0.39l-2.85-0.79c-0.49-0.1-0.98-0.29-1.47-0.59 c-0.49-0.2-0.88-0.49-1.28-0.88c-0.39-0.29-0.69-0.79-0.88-1.28c-0.2-0.49-0.29-1.08-0.29-1.77c0-1.38,0.59-2.46,1.67-3.44 c1.08-0.88,2.46-1.38,4.23-1.38c2.46,0,4.42,0.69,6,2.16l0.2,0.2l-1.87,2.46l-0.2-0.2c-0.59-0.59-1.18-0.98-1.97-1.28 c-0.79-0.29-1.47-0.39-2.26-0.39c-0.69,0-1.28,0.2-1.67,0.49S164,37.32,164,37.81c0,0.2,0.1,0.39,0.2,0.59 c0.2,0.2,0.39,0.39,0.69,0.49c0.29,0.1,0.69,0.29,1.18,0.39l2.85,0.79c0.49,0.1,0.98,0.29,1.47,0.59c0.49,0.29,0.88,0.59,1.28,0.88 c0.39,0.29,0.69,0.79,0.88,1.28s0.29,1.08,0.29,1.77C172.56,45.48,172.36,46.17,172.16,46.76z M181.6,49.21 c-0.39,0.39-0.79,0.49-1.28,0.49s-0.98-0.2-1.28-0.49s-0.49-0.69-0.49-1.18c0-0.49,0.2-0.88,0.49-1.28s0.69-0.49,1.28-0.49 c0.49,0,0.98,0.2,1.28,0.49c0.39,0.39,0.59,0.79,0.59,1.28C182.09,48.53,181.99,48.92,181.6,49.21z"/></svg>