<svg class="portfolio-client" xmlns="http://www.w3.org/2000/svg" viewBox="0 0 200 100"><path fill="#E64C22" d="M2.06,67.31c0.4-0.59,0.73-1.27,1.23-1.75c0.83-0.8,0.94-1.48,0.38-2.56c-0.98-1.84-0.01-3.4,1.19-4.78 c0.54-0.62,0.97-1.06,0.22-1.95C2.31,53,2.08,49.3,4.17,45.7c2.06-3.57,5.75-4.58,9.52-4.13c3.46,0.43,6.88,0.61,10.33,0.55 c1.54-0.02,2.11,0.6,2.03,2.1c-0.07,1.34,0.41,2.92-1.88,2.71c-1.3-0.12-1.65,0.48-1.46,1.8c0.82,5.99-2.92,10.3-8.98,10.44 c-1.23,0.02-2.48-0.07-3.71-0.13c-0.39-0.02-0.84-0.12-0.98,0.37c-0.13,0.43,0.17,0.75,0.48,0.99c0.85,0.68,1.89,0.82,2.93,0.94 c2.2,0.27,4.43,0.4,6.59,0.83c5.96,1.16,7.87,6.95,3.81,11.55c-3.4,3.86-7.95,4.07-12.63,3.65c-3.83-0.33-6.64-2.17-8.17-5.77 C2.06,70.18,2.06,68.74,2.06,67.31z M16.92,50.39c0-2.74-1.39-4.24-3.94-4.25c-2.6-0.01-4.19,1.61-4.18,4.3 c0.01,2.62,1.52,4.23,4.02,4.26C15.46,54.74,16.92,53.19,16.92,50.39z M13.42,72.37c2.85-0.01,4.61-1.43,4.61-3.68 c0-0.82-0.23-1.31-1.14-0.91c-2.27,0.99-4.55,0.96-6.85,0.13c-0.98-0.36-1.28,0.01-1.29,0.97C8.69,71.1,10.38,72.38,13.42,72.37z  M100.01,43.89c0,4.63,0.02,9.27-0.01,13.9c-0.01,1.31,0.29,2.07,1.82,2.12c2.65,0.09,1.28,2.2,1.53,3.43 c0.28,1.34-0.65,1.65-1.79,1.64c-1.83-0.02-3.65,0.01-5.49-0.01c-0.45,0-1.19,0.01-1.3-0.22c-1.09-2.22-2.2-0.59-3.31-0.07 c-5.09,2.36-11.01-0.08-13.21-5.58c-1.41-3.51-1.41-7.11-0.18-10.73c2.24-6.65,9.25-8.06,13.68-6.18c1.75,0.75,1.99,0.17,1.92-1.38 c-0.08-1.96-0.08-3.92,0-5.88c0.06-1.45-0.4-2.29-1.99-2.11c-2.24,0.27-2.32-1.09-2.35-2.79c-0.03-1.79,0.6-2.48,2.4-2.36 c1.95,0.12,3.92,0.13,5.87,0c1.94-0.13,2.47,0.69,2.43,2.52C99.95,34.76,100.01,39.32,100.01,43.89z M93.66,53.39L93.66,53.39 c-0.01-1.37-0.01-2.74-0.01-4.11c0-0.8-0.08-1.54-0.83-2.07c-2.59-1.84-7-0.85-8.32,2.04c-1.35,2.95-1.28,5.98,0.24,8.89 c1.04,1.98,3.55,2.86,5.96,2.22c2.58-0.67,2.95-1.23,2.96-4.41C93.66,55.1,93.66,54.24,93.66,53.39z M26.26,53.39 c0.01-7.36,4.62-11.96,12-11.95c7.27,0,12.04,4.76,12.04,12c0,7.39-4.71,12.02-12.19,12.01C30.69,65.41,26.23,60.88,26.26,53.39z  M32.64,53.92c-0.05,0.75,0.17,2.03,0.66,3.25c1.52,3.92,6.34,4.69,9.03,1.46c2.13-2.56,1.91-8.4-0.41-10.77 c-2.37-2.43-5.93-2.1-7.93,0.67C32.95,50,32.7,51.63,32.64,53.92z M63.69,65.43c-7.55-0.01-12-4.52-11.96-12.13 c0.02-7.35,4.67-11.89,12.09-11.87c7.29,0.03,11.96,4.77,11.92,12.09C75.68,60.93,71.11,65.44,63.69,65.43z M58.16,53.62 c-0.15,1.54,0.22,3.24,1.21,4.76c1.16,1.79,2.93,2.32,4.92,2.14c1.86-0.16,3.41-1.01,4.14-2.81c1.08-2.69,1.14-5.46,0.12-8.18 c-0.77-2.04-2.42-3.04-4.49-3.24c-2.04-0.18-3.66,0.7-4.82,2.4C58.25,50.09,58.11,51.71,58.16,53.62z"/><path fill="#F17724" d="M197.91,64.96c-1.76,0.01-3.53-0.05-5.28,0.06c-1.91,0.12-3.46-0.07-3.09-2.59 c-0.25,0.03-0.44,0.01-0.5,0.08c-4.91,5.95-14.06,2.79-16.58-4.24c-1.84-5.13-0.44-10.66,3.65-14.24c3.09-2.7,9.08-3.72,12.35,0.73 c0.23,0.31,0.5,0.59,1.14,1.35c0-2.24,0-3.95,0-5.67c0-2.8-0.07-5.61,0.02-8.41c0.05-1.61-0.39-2.52-2.18-2.33 c-0.38,0.05-0.78-0.01-1.16-0.07c-0.48-0.08-0.86-0.32-0.81-0.91c0.06-0.56,0.48-0.8,0.97-0.77c2.48,0.14,4.94,0.28,7.29-0.85 c0.5-0.24,0.67,0.23,0.69,0.66c0.02,0.52,0.02,1.04,0.02,1.57c0,10.18,0,20.35,0,30.52c0,3.43,0,3.43,3.47,3.57 C197.91,63.91,197.91,64.43,197.91,64.96z M177.28,54.01c0,1.37-0.03,2.73,0.01,4.1c0.02,0.65,0.18,1.29,0.33,1.92 c0.66,2.78,2.83,4.33,5.61,4c3.41-0.4,6.23-3.42,6.34-6.87c0.06-1.95,0.06-3.91,0-5.87c-0.09-2.67-1.13-4.94-3.23-6.64 c-3.62-2.92-8-1.22-8.79,3.31C177.21,49.99,177.19,52,177.28,54.01z M120.86,28.96c-2.48-1.21-4.45-0.45-5.22,1.86 c-1,2.97-0.69,6.06-0.65,9.13c0.01,0.83,0.61,1.08,1.34,1.12c0.78,0.02,1.57,0.01,2.35,0.06c0.61,0.03,1.26,0.17,1.22,0.96 c-0.02,0.78-0.69,0.82-1.29,0.9c-3.66,0.48-3.66,0.48-3.66,4.15c0,4.51,0.09,9.01-0.05,13.51c-0.07,2.07,0.75,2.88,2.7,2.83 c0.32-0.01,0.66,0.03,0.98,0.06c0.52,0.03,1.15,0.02,1.15,0.74c-0.01,0.73-0.66,0.71-1.18,0.73c-2.48,0.02-4.96,0.02-7.43,0.02 c-1.5,0-3,0-4.51-0.02c-0.45-0.01-1.01,0.01-1.12-0.55c-0.12-0.63,0.46-0.66,0.89-0.8c1.09-0.37,2.54,0.18,3.28-0.91 c0.86-1.26,0.39-2.8,0.4-4.21c0.05-4.37-0.05-8.75,0.05-13.11c0.03-1.74-0.46-2.54-2.32-2.43c-0.86,0.05-2.39,0.45-2.41-0.85 c-0.02-1.54,1.58-1,2.48-0.97c1.74,0.06,2.33-0.65,2.22-2.32c-0.13-2.15,0-4.3,0.75-6.37c1.42-3.91,4.28-5.83,8.23-5.52 c2.54,0.21,4.25,1.76,4.64,4.25c0.25,1.61-0.28,2.89-1.84,3.47c-1.2,0.44-2.42,0.17-3.03-1.06c-0.76-1.53-0.41-2.92,1-3.96 C120.11,29.42,120.38,29.26,120.86,28.96z M144.35,53.37c0.01,6.6-5.46,12.08-12.08,12.08c-6.49,0-12.3-5.64-12.34-11.96 c-0.03-6.34,5.76-12.08,12.23-12.1C138.79,41.37,144.34,46.83,144.35,53.37z M138.73,53.34c0.05-2.15,0.01-4.29-0.71-6.36 c-0.96-2.78-2.54-3.94-5.52-3.99c-3.38-0.05-5.11,0.96-6,3.85c-1.3,4.19-1.33,8.48-0.14,12.7c0.93,3.32,2.94,4.68,6.14,4.55 c3.05-0.13,5-1.87,5.76-5.12C138.71,57.11,138.8,55.23,138.73,53.34z M170.17,53.37c-0.01,6.64-5.42,12.07-12.03,12.08 c-6.64,0.01-12.42-5.69-12.33-12.15c0.08-6.33,5.77-11.9,12.19-11.92C164.57,41.37,170.18,46.89,170.17,53.37z M164.56,53.3 c0.08-2.32-0.06-4.52-0.8-6.64c-0.92-2.63-2.49-3.63-5.55-3.66c-3.33-0.03-4.93,0.81-5.73,3.58c-1.26,4.38-1.53,8.85-0.15,13.26 c0.98,3.15,3.01,4.41,6.2,4.23c3.03-0.18,4.94-1.88,5.58-5.04C164.48,57.12,164.69,55.18,164.56,53.3z"/><linearGradient id="bbc" gradientUnits="userSpaceOnUse" x1="-720.7434" y1="90.4609" x2="-477.9873" y2="279.9008" gradientTransform="matrix(0.1151 0 0 -0.1151 79.6409 53.3753)"><stop  offset="0" style="stop-color:#000000"/><stop  offset="1" style="stop-color:#000000"/></linearGradient><rect x="2.82" y="20.39" fill="url(#bbc)" width="23.27" height="17.42"/><path fill="#FFFFFF" d="M18.27,26.03c1.97,0,3.95,0,5.92,0c0,0.06,0.01,0.12,0.01,0.18c0,1.73,0,3.46,0,5.19 c0,0.24,0,0.24-0.25,0.24c-1.81,0-3.63,0-5.44,0c-0.25,0-0.25,0-0.25-0.25c0-1.72,0-3.43,0-5.15 C18.26,26.16,18.27,26.09,18.27,26.03z M21.54,26.79c-0.59,0-1,0.1-1.42,0.36c-0.69,0.44-1.01,1.08-0.92,1.89s0.55,1.37,1.33,1.66 c0.7,0.25,1.42,0.21,2.11-0.05C23,30.53,23,30.51,23,30.13c0-0.05,0-0.09,0-0.13c0-0.22,0-0.22-0.18-0.12 c-0.51,0.27-1.04,0.44-1.62,0.35c-0.74-0.12-1.27-0.65-1.29-1.33c-0.03-1.19,0.97-1.59,1.73-1.53c0.44,0.03,0.84,0.17,1.23,0.37 c0.09,0.05,0.13,0.03,0.13-0.08c0-0.14,0-0.29,0-0.43c0-0.1-0.05-0.15-0.13-0.18C22.42,26.91,21.99,26.77,21.54,26.79z M11.44,26.03 c1.98,0,3.96,0,5.96,0c0,0.03,0.01,0.07,0.01,0.09c0,1.76,0,3.53,0,5.29c0,0.2-0.01,0.21-0.24,0.21c-1.82,0-3.65,0-5.47,0 c-0.25,0-0.25,0-0.25-0.25c0-1.35,0-2.7,0-4.06C11.44,26.88,11.44,26.46,11.44,26.03z M13.04,28.8c0,0.6,0,1.19,0,1.79 c0,0.2,0.02,0.22,0.21,0.22c0.46,0,0.92,0,1.39,0c0.23,0,0.45-0.05,0.67-0.14c0.29-0.13,0.51-0.33,0.6-0.65 c0.15-0.53-0.1-1.03-0.63-1.23c-0.18-0.07-0.18-0.07-0.02-0.2c0.3-0.24,0.39-0.55,0.31-0.92c-0.12-0.5-0.5-0.7-0.96-0.8 c-0.15-0.02-0.29-0.05-0.44-0.03c-0.36,0.02-0.73-0.05-1.08,0.03c-0.09,0.37-0.02,0.74-0.03,1.11 C13.03,28.23,13.04,28.52,13.04,28.8z M4.64,31.62c0-1.82,0-3.65,0-5.47c0-0.1,0.02-0.13,0.13-0.13c1.94,0,3.86,0,5.8,0 c0,0.07,0.01,0.13,0.01,0.2c0,1.72,0,3.43,0,5.15c0,0.25,0,0.27-0.27,0.27c-1.74,0-3.48,0-5.23,0C4.93,31.63,4.79,31.62,4.64,31.62z  M6.22,28.81c0,0.6,0,1.2,0,1.8c0,0.14,0.05,0.2,0.2,0.2c0.48-0.01,0.97,0,1.45,0c0.2,0,0.39-0.05,0.58-0.12 c0.46-0.18,0.7-0.53,0.69-0.98c0-0.41-0.27-0.76-0.7-0.93c-0.05-0.02-0.12-0.01-0.12-0.07c-0.01-0.06,0.06-0.07,0.09-0.1 c0.44-0.35,0.48-0.98,0.1-1.38c-0.21-0.21-0.46-0.31-0.74-0.35c-0.44-0.07-0.88-0.02-1.33-0.03c-0.22,0-0.22,0-0.22,0.22 C6.22,27.63,6.22,28.22,6.22,28.81z M13.72,29.66c0-0.15,0-0.29,0-0.44c0-0.07,0.01-0.13,0.09-0.13c0.32,0,0.65-0.03,0.96,0.02 c0.31,0.07,0.47,0.27,0.47,0.53c0,0.28-0.18,0.47-0.48,0.53c-0.31,0.07-0.62,0.02-0.92,0.03c-0.09,0-0.12-0.06-0.12-0.14 C13.72,29.94,13.72,29.8,13.72,29.66z M14.12,27.43c0.13,0,0.27-0.01,0.39,0.02c0.2,0.06,0.33,0.17,0.37,0.39 c0.03,0.23-0.06,0.43-0.25,0.54c-0.27,0.15-0.54,0.12-0.83,0.1c-0.07,0-0.08-0.06-0.08-0.12c0-0.28,0-0.54,0-0.82 c0-0.09,0.03-0.13,0.13-0.13S14.03,27.43,14.12,27.43z M6.88,29.64c0-0.14,0-0.28,0-0.4c0-0.09,0.03-0.14,0.14-0.14 c0.28,0,0.54,0,0.82,0c0.01,0,0.02,0,0.03,0c0.35,0.05,0.56,0.25,0.56,0.53c0.01,0.29-0.2,0.51-0.55,0.56 c-0.29,0.06-0.59,0.02-0.88,0.02c-0.09,0-0.13-0.06-0.13-0.14C6.88,29.94,6.88,29.79,6.88,29.64z M6.88,27.96c0-0.14,0-0.28,0-0.4 c0-0.09,0.05-0.13,0.13-0.13c0.18,0,0.37-0.01,0.55,0.01c0.28,0.02,0.47,0.21,0.51,0.45c0.02,0.23-0.13,0.45-0.38,0.55 c-0.23,0.09-0.47,0.06-0.71,0.06c-0.09,0-0.1-0.07-0.1-0.14C6.88,28.22,6.88,28.08,6.88,27.96L6.88,27.96z"/></svg>