<svg xmlns="http://www.w3.org/2000/svg" viewBox="0 0 173.76 61.35" class="portfolio-client"><path fill="#E64C22" d="M1.79,46.25c0.35-0.51,0.63-1.1,1.07-1.52c0.72-0.69,0.82-1.28,0.33-2.22c-0.85-1.6-0.01-2.95,1.03-4.15 c0.47-0.54,0.84-0.92,0.19-1.69c-2.4-2.84-2.6-6.05-0.79-9.17c1.79-3.1,4.99-3.97,8.26-3.58c3,0.37,5.97,0.53,8.96,0.48 c1.34-0.02,1.83,0.52,1.76,1.82c-0.06,1.16,0.36,2.53-1.63,2.35c-1.13-0.1-1.43,0.42-1.27,1.56c0.71,5.2-2.53,8.94-7.79,9.06 c-1.07,0.02-2.15-0.06-3.22-0.11c-0.34-0.02-0.73-0.1-0.85,0.32c-0.11,0.37,0.15,0.65,0.42,0.86C9,40.85,9.9,40.97,10.8,41.08 c1.91,0.23,3.84,0.35,5.72,0.72c5.17,1.01,6.83,6.03,3.31,10.02c-2.95,3.35-6.9,3.53-10.96,3.17c-3.32-0.29-5.76-1.88-7.09-5.01 C1.79,48.74,1.79,47.49,1.79,46.25z M14.69,31.57c0-2.38-1.21-3.68-3.42-3.69c-2.26-0.01-3.64,1.4-3.63,3.73 c0.01,2.27,1.32,3.67,3.49,3.7C13.42,35.34,14.69,34,14.69,31.57z M11.65,50.64c2.47-0.01,4-1.24,4-3.19c0-0.71-0.2-1.14-0.99-0.79 c-1.97,0.86-3.95,0.83-5.94,0.11c-0.85-0.31-1.11,0.01-1.12,0.84C7.55,49.54,9.01,50.65,11.65,50.64z M86.79,25.93c0,4.02,0.02,8.04-0.01,12.06c-0.01,1.14,0.25,1.8,1.58,1.84c2.3,0.08,1.11,1.91,1.33,2.98 c0.24,1.16-0.56,1.43-1.55,1.42c-1.59-0.02-3.17,0.01-4.76-0.01c-0.39,0-1.03,0.01-1.13-0.19c-0.95-1.93-1.91-0.51-2.87-0.06 c-4.42,2.05-9.55-0.07-11.46-4.84c-1.22-3.05-1.22-6.17-0.16-9.31c1.94-5.77,8.03-6.99,11.87-5.36c1.52,0.65,1.73,0.15,1.67-1.2 c-0.07-1.7-0.07-3.4,0-5.1c0.05-1.26-0.35-1.99-1.73-1.83c-1.94,0.23-2.01-0.95-2.04-2.42c-0.03-1.55,0.52-2.15,2.08-2.05 c1.69,0.1,3.4,0.11,5.09,0c1.68-0.11,2.14,0.6,2.11,2.19C86.74,18,86.79,21.96,86.79,25.93z M81.28,34.17 C81.28,34.17,81.28,34.17,81.28,34.17c-0.01-1.19-0.01-2.38-0.01-3.57c0-0.69-0.07-1.34-0.72-1.8c-2.25-1.6-6.07-0.74-7.22,1.77 c-1.17,2.56-1.11,5.19,0.21,7.71c0.9,1.72,3.08,2.48,5.17,1.93c2.24-0.58,2.56-1.07,2.57-3.83C81.28,35.65,81.28,34.91,81.28,34.17z M22.79,34.17c0.01-6.39,4.01-10.38,10.41-10.37c6.31,0,10.45,4.13,10.45,10.41 c0,6.41-4.09,10.43-10.58,10.42C26.64,44.6,22.77,40.67,22.79,34.17z M28.33,34.63c-0.04,0.65,0.15,1.76,0.57,2.82 c1.32,3.4,5.5,4.07,7.84,1.27c1.85-2.22,1.66-7.29-0.36-9.35c-2.06-2.11-5.15-1.82-6.88,0.58C28.6,31.23,28.38,32.64,28.33,34.63z M55.27,44.62c-6.55-0.01-10.41-3.92-10.38-10.53c0.02-6.38,4.05-10.32,10.49-10.3 c6.33,0.03,10.38,4.14,10.34,10.49C65.68,40.71,61.71,44.63,55.27,44.62z M50.47,34.37c-0.13,1.34,0.19,2.81,1.05,4.13 c1.01,1.55,2.54,2.01,4.27,1.86c1.61-0.14,2.96-0.88,3.59-2.44c0.94-2.33,0.99-4.74,0.1-7.1c-0.67-1.77-2.1-2.64-3.9-2.81 c-1.77-0.16-3.18,0.61-4.18,2.08C50.55,31.31,50.43,32.71,50.47,34.37z"/><path fill="#F17724" d="M171.74,44.21c-1.53,0.01-3.06-0.04-4.58,0.05c-1.66,0.1-3-0.06-2.68-2.25c-0.22,0.03-0.38,0.01-0.43,0.07 c-4.26,5.16-12.2,2.42-14.39-3.68c-1.6-4.45-0.38-9.25,3.17-12.36c2.68-2.34,7.88-3.23,10.72,0.63c0.2,0.27,0.43,0.51,0.99,1.17 c0-1.94,0-3.43,0-4.92c0-2.43-0.06-4.87,0.02-7.3c0.04-1.4-0.34-2.19-1.89-2.02c-0.33,0.04-0.68-0.01-1.01-0.06 c-0.42-0.07-0.75-0.28-0.7-0.79c0.05-0.49,0.42-0.69,0.84-0.67c2.15,0.12,4.29,0.24,6.33-0.74c0.43-0.21,0.58,0.2,0.6,0.57 c0.02,0.45,0.02,0.9,0.02,1.36c0,8.83,0,17.66,0,26.48c0,2.98,0,2.98,3.01,3.1C171.74,43.3,171.74,43.75,171.74,44.21z  M153.84,34.71c0,1.19-0.03,2.37,0.01,3.56c0.02,0.56,0.16,1.12,0.29,1.67c0.57,2.41,2.46,3.76,4.87,3.47 c2.96-0.35,5.41-2.97,5.5-5.96c0.05-1.69,0.05-3.39,0-5.09c-0.08-2.32-0.98-4.29-2.8-5.76c-3.14-2.53-6.94-1.06-7.63,2.87 C153.78,31.22,153.76,32.96,153.84,34.71z M104.88,12.97c-2.15-1.05-3.86-0.39-4.53,1.61c-0.87,2.58-0.6,5.26-0.56,7.92c0.01,0.72,0.53,0.94,1.16,0.97 c0.68,0.02,1.36,0.01,2.04,0.05c0.53,0.03,1.09,0.15,1.06,0.83c-0.02,0.68-0.6,0.71-1.12,0.78c-3.18,0.42-3.18,0.42-3.18,3.6 c0,3.91,0.08,7.82-0.04,11.72c-0.06,1.8,0.65,2.5,2.34,2.46c0.28-0.01,0.57,0.03,0.85,0.05c0.45,0.03,1,0.02,1,0.64 c-0.01,0.63-0.57,0.62-1.02,0.63c-2.15,0.02-4.3,0.02-6.45,0.02c-1.3,0-2.6,0-3.91-0.02c-0.39-0.01-0.88,0.01-0.97-0.48 c-0.1-0.55,0.4-0.57,0.77-0.69c0.95-0.32,2.2,0.16,2.85-0.79c0.75-1.09,0.34-2.43,0.35-3.65c0.04-3.79-0.04-7.59,0.04-11.38 c0.03-1.51-0.4-2.2-2.01-2.11c-0.75,0.04-2.07,0.39-2.09-0.74c-0.02-1.34,1.37-0.87,2.15-0.84c1.51,0.05,2.02-0.56,1.93-2.01 c-0.11-1.87,0-3.73,0.65-5.53c1.23-3.39,3.71-5.06,7.14-4.79c2.2,0.18,3.69,1.53,4.03,3.69c0.22,1.4-0.24,2.51-1.6,3.01 c-1.04,0.38-2.1,0.15-2.63-0.92c-0.66-1.33-0.36-2.53,0.87-3.44C104.23,13.37,104.47,13.23,104.88,12.97z M125.27,34.15c0.01,5.73-4.74,10.48-10.48,10.48c-5.63,0-10.67-4.89-10.71-10.38 c-0.03-5.5,5-10.48,10.61-10.5C120.44,23.74,125.26,28.48,125.27,34.15z M120.39,34.13c0.04-1.87,0.01-3.72-0.62-5.52 c-0.83-2.41-2.2-3.42-4.79-3.46c-2.93-0.04-4.43,0.83-5.21,3.34c-1.13,3.64-1.15,7.36-0.12,11.02c0.81,2.88,2.55,4.06,5.33,3.95 c2.65-0.11,4.34-1.62,5-4.44C120.37,37.4,120.45,35.77,120.39,34.13z M147.67,34.15c-0.01,5.76-4.7,10.47-10.44,10.48c-5.76,0.01-10.78-4.94-10.7-10.54 c0.07-5.49,5.01-10.33,10.58-10.34C142.81,23.74,147.68,28.53,147.67,34.15z M142.8,34.09c0.07-2.01-0.05-3.92-0.69-5.76 c-0.8-2.28-2.16-3.15-4.82-3.18c-2.89-0.03-4.28,0.7-4.97,3.11c-1.09,3.8-1.33,7.68-0.13,11.51c0.85,2.73,2.61,3.83,5.38,3.67 c2.63-0.16,4.29-1.63,4.84-4.37C142.73,37.41,142.92,35.72,142.8,34.09z"/><linearGradient id="gf" gradientUnits="userSpaceOnUse" x1="-2.8767" y1="25.1177" x2="21.3697" y2="6.1965"><stop offset="0" id="gf0"/><stop offset="1" id="gf1"/></linearGradient><rect x="2.45" y="5.53" fill="url(#gf)" width="20.19" height="15.12"/><path fill="#FFF" d="M15.86,10.43c1.71,0,3.43,0,5.14,0c0,0.05,0.01,0.1,0.01,0.16c0,1.5,0,3,0,4.5c0,0.21,0,0.21-0.22,0.21 c-1.57,0-3.15,0-4.72,0c-0.22,0-0.22,0-0.22-0.22c0-1.49,0-2.98,0-4.47C15.85,10.54,15.86,10.48,15.86,10.43z M18.7,11.09 c-0.51,0-0.87,0.09-1.23,0.31c-0.6,0.38-0.88,0.94-0.8,1.64c0.08,0.7,0.48,1.19,1.15,1.44c0.61,0.22,1.23,0.18,1.83-0.04 c0.31-0.11,0.31-0.12,0.31-0.45c0-0.04,0-0.08,0-0.11c0-0.19,0-0.19-0.16-0.1c-0.44,0.23-0.9,0.38-1.41,0.3 c-0.64-0.1-1.1-0.56-1.12-1.15c-0.03-1.03,0.84-1.38,1.5-1.33c0.38,0.03,0.73,0.15,1.07,0.32c0.08,0.04,0.11,0.03,0.11-0.07 c0-0.12,0-0.25,0-0.37c0-0.09-0.04-0.13-0.11-0.16C19.46,11.19,19.09,11.07,18.7,11.09z M9.93,10.43c1.72,0,3.44,0,5.17,0c0,0.03,0.01,0.06,0.01,0.08c0,1.53,0,3.06,0,4.59 c0,0.17-0.01,0.18-0.21,0.18c-1.58,0-3.17,0-4.75,0c-0.22,0-0.22,0-0.22-0.22c0-1.17,0-2.34,0-3.52 C9.93,11.17,9.93,10.8,9.93,10.43z M11.32,12.83c0,0.52,0,1.03,0,1.55c0,0.17,0.02,0.19,0.18,0.19c0.4,0,0.8,0,1.21,0 c0.2,0,0.39-0.04,0.58-0.12c0.25-0.11,0.44-0.29,0.52-0.56c0.13-0.46-0.09-0.89-0.55-1.07c-0.16-0.06-0.16-0.06-0.02-0.17 c0.26-0.21,0.34-0.48,0.27-0.8c-0.1-0.43-0.43-0.61-0.83-0.69c-0.13-0.02-0.25-0.04-0.38-0.03c-0.31,0.02-0.63-0.04-0.94,0.03 c-0.08,0.32-0.02,0.64-0.03,0.96C11.31,12.34,11.32,12.59,11.32,12.83z M4.03,15.28c0-1.58,0-3.17,0-4.75c0-0.09,0.02-0.11,0.11-0.11c1.68,0,3.35,0,5.03,0 c0,0.06,0.01,0.11,0.01,0.17c0,1.49,0,2.98,0,4.47c0,0.22,0,0.23-0.23,0.23c-1.51,0-3.02,0-4.54,0 C4.28,15.29,4.16,15.28,4.03,15.28z M5.4,12.84c0,0.52,0,1.04,0,1.56c0,0.12,0.04,0.17,0.17,0.17c0.42-0.01,0.84,0,1.26,0 c0.17,0,0.34-0.04,0.5-0.1c0.4-0.16,0.61-0.46,0.6-0.85c0-0.36-0.23-0.66-0.61-0.81c-0.04-0.02-0.1-0.01-0.1-0.06 c-0.01-0.05,0.05-0.06,0.08-0.09c0.38-0.3,0.42-0.85,0.09-1.2c-0.18-0.18-0.4-0.27-0.64-0.3c-0.38-0.06-0.76-0.02-1.15-0.03 c-0.19,0-0.19,0-0.19,0.19C5.4,11.82,5.4,12.33,5.4,12.84z M11.91,13.58c0-0.13,0-0.25,0-0.38c0-0.06,0.01-0.11,0.08-0.11c0.28,0,0.56-0.03,0.83,0.02 c0.27,0.06,0.41,0.23,0.41,0.46c0,0.24-0.16,0.41-0.42,0.46c-0.27,0.06-0.54,0.02-0.8,0.03c-0.08,0-0.1-0.05-0.1-0.12 C11.91,13.82,11.91,13.7,11.91,13.58z M12.26,11.64c0.11,0,0.23-0.01,0.34,0.02c0.17,0.05,0.29,0.15,0.32,0.34c0.03,0.2-0.05,0.37-0.22,0.47 c-0.23,0.13-0.47,0.1-0.72,0.09c-0.06,0-0.07-0.05-0.07-0.1c0-0.24,0-0.47,0-0.71c0-0.08,0.03-0.11,0.11-0.11 C12.1,11.64,12.18,11.64,12.26,11.64z M5.98,13.56c0-0.12,0-0.24,0-0.35c0-0.08,0.03-0.12,0.12-0.12c0.24,0,0.47,0,0.71,0c0.01,0,0.02,0,0.03,0 c0.3,0.04,0.49,0.22,0.49,0.46c0.01,0.25-0.17,0.44-0.48,0.49c-0.25,0.05-0.51,0.02-0.76,0.02c-0.08,0-0.11-0.05-0.11-0.12 C5.98,13.82,5.98,13.69,5.98,13.56z M5.98,12.1c0-0.12,0-0.24,0-0.35c0-0.08,0.04-0.11,0.11-0.11c0.16,0,0.32-0.01,0.48,0.01 c0.24,0.02,0.41,0.18,0.44,0.39c0.02,0.2-0.11,0.39-0.33,0.48c-0.2,0.08-0.41,0.05-0.62,0.05c-0.08,0-0.09-0.06-0.09-0.12 C5.98,12.33,5.98,12.21,5.98,12.1C5.98,12.1,5.98,12.1,5.98,12.1z"/></svg>