<svg xmlns:svg="http://www.w3.org/2000/svg" viewBox="0 0 20 10" class="portfolio-client"><polygon points="6.81,6.54 6.92,6.54 6.87,6.4"/><path d="M6.77,3.61c-0.15,0-0.26,0.05-0.35,0.15S6.28,3.99,6.28,4.15c0,0.15,0.05,0.28,0.13,0.39c0.09,0.1,0.2,0.15,0.35,0.15 s0.26-0.05,0.35-0.15c0.09-0.1,0.13-0.23,0.13-0.39c0-0.16-0.04-0.29-0.13-0.39C7.03,3.66,6.92,3.61,6.77,3.61z M8.87,3.64H8.6v1.02h0.28c0.1,0,0.2-0.02,0.27-0.07C9.22,4.54,9.28,4.48,9.32,4.4c0.04-0.08,0.06-0.16,0.06-0.26 c0-0.15-0.04-0.27-0.13-0.37C9.16,3.69,9.03,3.64,8.87,3.64z M7.67,6.33h-0.1v0.11h0.1c0.02,0,0.03,0,0.04-0.01C7.73,6.42,7.73,6.4,7.73,6.39s0-0.03-0.02-0.04 C7.7,6.34,7.69,6.33,7.67,6.33z M8.43,6.33h-0.1v0.11h0.1c0.02,0,0.03,0,0.04-0.01C8.49,6.42,8.49,6.4,8.49,6.39S8.49,6.36,8.47,6.35 C8.46,6.34,8.45,6.33,8.43,6.33z M4.52,3.61c-0.15,0-0.26,0.05-0.35,0.15S4.04,3.99,4.04,4.15c0,0.16,0.05,0.28,0.13,0.39c0.09,0.1,0.2,0.15,0.35,0.15 s0.26-0.05,0.35-0.15c0.09-0.1,0.13-0.23,0.13-0.39c0-0.16-0.05-0.29-0.13-0.39C4.78,3.66,4.67,3.61,4.52,3.61z M4.1,6.4c0,0,0.01-0.01,0.01-0.03c0-0.02-0.01-0.02-0.01-0.03C4.1,6.34,4.08,6.33,4.07,6.33H3.95v0.08h0.12 C4.08,6.41,4.09,6.41,4.1,6.4z M4.07,6.55H3.95v0.09h0.12c0.02,0,0.03,0,0.04-0.01c0.01-0.01,0.01-0.02,0.01-0.03c0-0.01,0-0.02-0.01-0.03 C4.1,6.55,4.09,6.55,4.07,6.55z M0,1.5v7h20.02v-7H0z M18.35,3.34L18.31,4.5h-0.27l-0.03-1.16H18.35z M3.08,4.69L3.08,4.69c-0.09,0.1-0.19,0.17-0.3,0.22 C2.67,4.96,2.54,4.99,2.41,4.99c-0.16,0-0.3-0.03-0.42-0.1c-0.13-0.07-0.23-0.17-0.31-0.3C1.6,4.46,1.56,4.31,1.56,4.15 c0-0.12,0.02-0.24,0.07-0.34c0.04-0.1,0.11-0.19,0.18-0.26s0.17-0.13,0.27-0.17c0.1-0.04,0.21-0.06,0.33-0.06 c0.28,0,0.49,0.11,0.65,0.34l0.02,0.03L2.8,3.83L2.79,3.81C2.75,3.75,2.69,3.71,2.63,3.67C2.56,3.63,2.49,3.61,2.41,3.61 c-0.15,0-0.27,0.05-0.36,0.15C1.95,3.87,1.9,3.99,1.9,4.15s0.05,0.29,0.15,0.39c0.1,0.1,0.22,0.15,0.36,0.15 c0.07,0,0.13-0.01,0.2-0.04c0.06-0.03,0.1-0.05,0.14-0.09v-0.2H2.28v-0.3h0.8V4.69z M4.22,6.73C4.19,6.76,4.15,6.77,4.09,6.77H3.8 V6.2h0.28c0.05,0,0.1,0.02,0.13,0.05c0.03,0.03,0.05,0.07,0.05,0.12c0,0.04-0.01,0.07-0.03,0.1C4.23,6.46,4.22,6.47,4.21,6.48 C4.22,6.48,4.23,6.49,4.24,6.5c0.02,0.03,0.04,0.06,0.04,0.1C4.27,6.65,4.26,6.7,4.22,6.73z M4.85,6.54v0.24H4.7V6.54L4.48,6.2 h0.17l0.13,0.2L4.9,6.2h0.17L4.85,6.54z M5.28,4.48c-0.04,0.1-0.1,0.19-0.17,0.26S4.96,4.88,4.85,4.92 c-0.1,0.04-0.21,0.06-0.33,0.06c-0.16,0-0.3-0.04-0.43-0.11C3.97,4.8,3.87,4.7,3.8,4.58C3.73,4.45,3.7,4.31,3.7,4.15 c0-0.16,0.04-0.3,0.1-0.43c0.07-0.13,0.17-0.23,0.29-0.3c0.12-0.07,0.27-0.11,0.43-0.11c0.12,0,0.23,0.02,0.33,0.06 c0.1,0.04,0.19,0.1,0.26,0.17c0.07,0.07,0.13,0.16,0.17,0.26c0.04,0.1,0.06,0.21,0.06,0.33C5.35,4.27,5.32,4.38,5.28,4.48z  M6.31,6.77H6.16V6.55H5.95v0.23H5.8V6.2h0.15v0.21h0.21V6.2h0.15V6.77z M7,6.77l-0.04-0.1h-0.2l-0.04,0.1H6.56L6.79,6.2h0.15 l0.23,0.58H7z M7.1,4.92C7,4.96,6.89,4.98,6.77,4.98c-0.16,0-0.3-0.04-0.43-0.11C6.22,4.8,6.12,4.7,6.05,4.58 c-0.07-0.13-0.1-0.27-0.1-0.43c0-0.16,0.04-0.3,0.1-0.43c0.07-0.13,0.17-0.23,0.29-0.3c0.12-0.07,0.27-0.11,0.43-0.11 C6.89,3.31,7,3.34,7.1,3.38s0.19,0.1,0.26,0.17c0.07,0.07,0.13,0.16,0.17,0.26C7.57,3.92,7.6,4.03,7.6,4.15 c0,0.12-0.02,0.23-0.06,0.33c-0.04,0.1-0.1,0.19-0.17,0.26C7.29,4.82,7.21,4.88,7.1,4.92z M7.73,6.77L7.62,6.58H7.57v0.19H7.43V6.2 h0.26c0.06,0,0.11,0.02,0.14,0.05c0.04,0.04,0.06,0.08,0.06,0.14c0,0.03,0,0.05-0.01,0.07C7.86,6.48,7.85,6.5,7.83,6.52 C7.82,6.53,7.81,6.54,7.79,6.55c0,0-0.01,0-0.02,0.01l0.13,0.22H7.73z M8.5,6.77L8.38,6.58H8.34v0.19H8.19V6.2h0.26 c0.06,0,0.11,0.02,0.14,0.05c0.04,0.04,0.06,0.08,0.06,0.14c0,0.03,0,0.05-0.01,0.07C8.62,6.48,8.61,6.5,8.6,6.52 C8.58,6.53,8.57,6.54,8.55,6.55c0,0-0.01,0-0.01,0.01l0.13,0.22H8.5z M9.23,6.54v0.24H9.08V6.54L8.85,6.2h0.17l0.13,0.2l0.13-0.2 h0.17L9.23,6.54z M9.31,4.85c-0.13,0.07-0.28,0.1-0.44,0.1H8.26V3.34h0.61c0.16,0,0.31,0.03,0.44,0.1c0.13,0.07,0.23,0.17,0.3,0.29 s0.11,0.26,0.11,0.42c0,0.16-0.04,0.3-0.11,0.42S9.44,4.78,9.31,4.85z M9.83,6.38C9.82,6.4,9.8,6.43,9.77,6.44L9.75,6.46L9.67,6.39 l0.04-0.02c0.01,0,0.02-0.01,0.03-0.02c-0.01,0-0.02-0.01-0.02-0.02C9.69,6.31,9.69,6.29,9.69,6.27S9.7,6.23,9.71,6.21 c0.03-0.03,0.09-0.03,0.12,0c0.02,0.02,0.03,0.04,0.03,0.07C9.86,6.32,9.85,6.35,9.83,6.38z M10.59,6.66 c-0.01,0.02-0.02,0.04-0.04,0.06s-0.04,0.03-0.07,0.04c-0.03,0.01-0.06,0.01-0.1,0.01c-0.1,0-0.17-0.03-0.23-0.09l-0.02-0.02 l0.09-0.12l0.02,0.03c0.02,0.02,0.04,0.03,0.06,0.05c0.05,0.02,0.12,0.02,0.14,0c0.01-0.01,0.01-0.02,0.01-0.03 c0-0.01,0-0.01,0-0.01c0,0-0.01-0.01-0.02-0.01c-0.01,0-0.02-0.01-0.04-0.01l-0.1-0.03c-0.02,0-0.04-0.01-0.05-0.02 S10.21,6.5,10.2,6.48c-0.01-0.01-0.03-0.03-0.04-0.05c-0.01-0.02-0.01-0.04-0.01-0.07c0-0.05,0.02-0.1,0.06-0.13 c0.04-0.03,0.09-0.05,0.15-0.05c0.09,0,0.16,0.03,0.22,0.08l0.02,0.02L10.51,6.4l-0.02-0.02c-0.02-0.02-0.04-0.03-0.06-0.04 c-0.04-0.02-0.09-0.02-0.12,0C10.3,6.34,10.3,6.35,10.3,6.36c0,0,0,0.01,0,0.01c0,0,0.01,0.01,0.02,0.01 c0.01,0,0.02,0.01,0.04,0.01l0.1,0.03c0.02,0.01,0.04,0.01,0.05,0.02c0.02,0.01,0.03,0.02,0.05,0.03c0.01,0.01,0.03,0.03,0.03,0.05 c0.01,0.02,0.01,0.04,0.01,0.07C10.6,6.62,10.6,6.64,10.59,6.66z M10.72,4.96h-0.33V3.34h0.32l0.75,1.02V3.34h0.33v1.61h-0.31 L10.72,3.9V4.96z M11.7,6.77l-0.16-0.2l-0.01,0.02v0.18h-0.15V6.2h0.15v0.2l0.16-0.2h0.19l-0.24,0.27l0.25,0.3H11.7z M12.27,6.77 h-0.15V6.2h0.15V6.77z M12.53,3.34h1.12v0.3h-0.79v0.35h0.78v0.3h-0.78v0.37h0.79v0.3h-1.12V3.34z M13.03,6.33h-0.16v0.44h-0.15 V6.33h-0.16V6.2h0.46V6.33z M13.47,6.6c0.03,0.03,0.06,0.04,0.11,0.04c0.02,0,0.04-0.01,0.06-0.02c0.02-0.01,0.03-0.03,0.04-0.04 l0.01-0.02l0.13,0.07l-0.02,0.03c-0.05,0.09-0.13,0.13-0.23,0.13c-0.04,0-0.08-0.01-0.12-0.02c-0.04-0.01-0.07-0.03-0.1-0.06 c-0.03-0.03-0.05-0.06-0.06-0.09c-0.01-0.04-0.02-0.08-0.02-0.12s0.01-0.08,0.02-0.12c0.02-0.04,0.04-0.07,0.06-0.09 c0.03-0.03,0.06-0.05,0.1-0.06c0.04-0.01,0.08-0.02,0.12-0.02c0.1,0,0.18,0.04,0.23,0.13l0.02,0.03L13.7,6.41l-0.01-0.02 c-0.01-0.02-0.03-0.03-0.04-0.04c-0.02-0.01-0.04-0.02-0.06-0.02c-0.04,0-0.08,0.01-0.11,0.04c-0.03,0.03-0.04,0.07-0.04,0.12 C13.43,6.53,13.44,6.57,13.47,6.6z M14.61,6.77h-0.15V6.55h-0.21v0.23H14.1V6.2h0.15v0.21h0.21V6.2h0.15V6.77z M15.35,6.33h-0.26 v0.08h0.26v0.14h-0.26v0.09h0.26v0.14h-0.41V6.2h0.41V6.33z M15.5,4.67c-0.03,0.06-0.06,0.12-0.11,0.16 c-0.05,0.05-0.12,0.09-0.2,0.11c-0.08,0.03-0.18,0.04-0.28,0.04c-0.27,0-0.49-0.09-0.65-0.26l-0.02-0.02l0.19-0.26l0.02,0.03 c0.06,0.06,0.13,0.11,0.21,0.15c0.08,0.04,0.17,0.06,0.27,0.06c0.1,0,0.17-0.02,0.22-0.06c0.05-0.04,0.07-0.08,0.07-0.13 c0-0.03-0.01-0.05-0.03-0.07c-0.02-0.02-0.04-0.04-0.07-0.06c-0.03-0.01-0.07-0.03-0.12-0.04l-0.29-0.08 c-0.05-0.01-0.1-0.03-0.15-0.06c-0.05-0.02-0.09-0.05-0.13-0.09c-0.04-0.03-0.07-0.08-0.09-0.13c-0.02-0.05-0.03-0.11-0.03-0.18 c0-0.14,0.06-0.25,0.17-0.35c0.11-0.09,0.25-0.14,0.43-0.14c0.25,0,0.45,0.07,0.61,0.22l0.02,0.02l-0.19,0.25l-0.02-0.02 c-0.06-0.06-0.12-0.1-0.2-0.13c-0.07-0.03-0.15-0.04-0.23-0.04c-0.07,0-0.13,0.02-0.17,0.05c-0.04,0.03-0.06,0.07-0.06,0.12 c0,0.02,0.01,0.04,0.02,0.06c0.02,0.02,0.04,0.04,0.07,0.05c0.03,0.01,0.07,0.03,0.12,0.04l0.29,0.08c0.05,0.01,0.1,0.03,0.15,0.06 s0.09,0.06,0.13,0.09c0.04,0.03,0.07,0.08,0.09,0.13c0.02,0.05,0.03,0.11,0.03,0.18C15.53,4.54,15.52,4.61,15.5,4.67z M16.17,6.77 h-0.13l-0.23-0.31v0.31h-0.15V6.2h0.14l0.22,0.3V6.2h0.15V6.77z M17.35,4.67c-0.03,0.06-0.06,0.12-0.11,0.16 c-0.05,0.05-0.12,0.09-0.2,0.11c-0.08,0.03-0.18,0.04-0.28,0.04c-0.27,0-0.49-0.09-0.65-0.26l-0.02-0.02l0.19-0.26l0.02,0.03 c0.06,0.06,0.13,0.11,0.21,0.15c0.08,0.04,0.17,0.06,0.27,0.06c0.1,0,0.17-0.02,0.22-0.06c0.05-0.04,0.07-0.08,0.07-0.13 c0-0.03-0.01-0.05-0.03-0.07c-0.02-0.02-0.04-0.04-0.07-0.06c-0.03-0.01-0.07-0.03-0.12-0.04l-0.29-0.08 c-0.05-0.01-0.1-0.03-0.15-0.06c-0.05-0.02-0.09-0.05-0.13-0.09c-0.04-0.03-0.07-0.08-0.09-0.13c-0.02-0.05-0.03-0.11-0.03-0.18 c0-0.14,0.06-0.25,0.17-0.35c0.11-0.09,0.25-0.14,0.43-0.14c0.25,0,0.45,0.07,0.61,0.22l0.02,0.02l-0.19,0.25l-0.02-0.02 c-0.06-0.06-0.12-0.1-0.2-0.13c-0.08-0.03-0.15-0.04-0.23-0.04c-0.07,0-0.13,0.02-0.17,0.05c-0.04,0.03-0.06,0.07-0.06,0.12 c0,0.02,0.01,0.04,0.02,0.06c0.02,0.02,0.04,0.04,0.07,0.05c0.03,0.01,0.07,0.03,0.12,0.04l0.29,0.08c0.05,0.01,0.1,0.03,0.15,0.06 c0.05,0.03,0.09,0.06,0.13,0.09c0.04,0.03,0.07,0.08,0.09,0.13c0.02,0.05,0.03,0.11,0.03,0.18C17.39,4.54,17.37,4.61,17.35,4.67z  M18.31,4.92c-0.04,0.04-0.08,0.05-0.13,0.05c-0.05,0-0.1-0.02-0.13-0.05S18,4.85,18,4.8s0.02-0.09,0.05-0.13s0.07-0.05,0.13-0.05 c0.05,0,0.1,0.02,0.13,0.05c0.04,0.04,0.06,0.08,0.06,0.13C18.36,4.85,18.35,4.89,18.31,4.92z"/></svg> 