<svg version="1.1" id="Layer_1" xmlns="http://www.w3.org/2000/svg" xmlns:xlink="http://www.w3.org/1999/xlink" x="0px" y="0px"
	 viewBox="0 0 200 200" enable-background="new 0 0 200 200" xml:space="preserve" class="portfolio-client">
<path fill="#010101" d="M4.05,34.18h191.62c0,0-88.25,97.7-132.37,146.23c1.89-3.78,3.15-6.93,5.67-10.09
	c-1.89,0-4.41-8.19-6.3-11.98l-7.56,3.78c-1.26,1.26-3.78,0.63-5.04-0.63c0-0.63-0.63-0.63-0.63-1.26
	c-1.26-2.52-1.89-5.04-3.15-8.19c-3.15,1.89-6.3,3.15-9.45,4.41L5.94,143.22H28l10.09,8.19c2.52-2.52,4.41-6.3,6.3-8.19h5.67
	c1.89,1.89,3.78,5.67,6.3,8.19c2.52-2.52,5.04-5.67,7.56-7.56h3.78c1.89,1.89,4.41,5.04,6.3,6.93h0.63c0,0,3.78-5.04,5.67-6.93h4.41
	c0,0,56.73-85.09,56.73-85.72C96.08,49.93,4.05,34.18,4.05,34.18"/>
<polygon fill="#010101" points="60.15,84.6 28.63,66.95 84.73,80.19 "/>
</svg>
