<svg xmlns="http://www.w3.org/2000/svg" viewBox="0 0 20 20" class="portfolio-client"><path fill="#010101" d="M0.12,2.83h19.74c0,0-9.09,10.06-13.63,15.06c0.19-0.39,0.32-0.71,0.58-1.04c-0.19,0-0.45-0.84-0.65-1.23 l-0.78,0.39c-0.13,0.13-0.39,0.06-0.52-0.06c0-0.06-0.06-0.06-0.06-0.13c-0.13-0.26-0.19-0.52-0.32-0.84 c-0.32,0.19-0.65,0.32-0.97,0.45l-3.18-1.36h2.27l1.04,0.84c0.26-0.26,0.45-0.65,0.65-0.84h0.58c0.19,0.19,0.39,0.58,0.65,0.84 c0.26-0.26,0.52-0.58,0.78-0.78h0.39c0.19,0.19,0.45,0.52,0.65,0.71h0.06c0,0,0.39-0.52,0.58-0.71h0.45c0,0,5.84-8.76,5.84-8.83 C9.6,4.46,0.12,2.83,0.12,2.83"/><polygon fill="#010101" points="5.9,8.03 2.66,6.21 8.43,7.57"/></svg>