<svg xmlns="http://www.w3.org/2000/svg" xmlns:xlink="http://www.w3.org/1999/xlink" x="0px" y="0px" viewBox="0 0 200 200" enable-background="new 0 0 200 200" xml:space="preserve" class="portfolio-client">
	<path fill="#7C0808" d="M111.86,195.18c-0.88,0-1.75,0-2.63,0c-1.57-0.93-3.12-1.91-4.73-2.77c-1.03-0.55-2.12-1.2-3.24-1.32 c-2.81-0.3-5.66-0.41-8.49-0.41c-1.28,0-2.61,0.29-3.81,0.74c-1.58,0.6-3.06,1.48-4.58,2.24c-0.72,0.36-1.52,0.62-2.23,0.13 c-1.38-0.96-3.07-1.4-4.05-3.05c-1.78-3.01-5.08-3.95-8.04-5.28c-0.26-0.12-0.62,0-0.93-0.06c-0.97-0.19-1.99-0.28-2.88-0.66 c-2.08-0.88-4.09-1.04-6.24-0.18c-1.12,0.45-2.41,0.54-3.63,0.64c-0.37,0.03-0.81-0.42-1.18-0.69c-0.48-0.36-0.94-0.75-1.38-1.15 c-0.37-0.33-0.85-0.63-1.05-1.06c-0.52-1.08-1.09-2.18-1.32-3.34c-0.29-1.49-0.86-2.63-2.18-3.42c-0.42-0.25-0.59-0.88-0.98-1.19 c-1.36-1.08-2.81-2.06-4.15-3.16c-2.22-1.81-4.59-3.02-7.6-2.62c-1.22,0.16-2.37-0.28-3.28-1.26c-0.43-0.46-1.08-0.71-1.59-1.1 c-0.31-0.24-0.72-0.52-0.81-0.85c-0.34-1.26-0.6-2.54-0.83-3.83c-0.44-2.53-0.96-5.02-2.78-7.01c-1.11-1.22-2.2-2.46-3.19-3.78 c-1.22-1.64-2.52-3.07-4.66-3.47c-0.51-0.1-1-0.34-1.48-0.58c-2.2-1.08-4.02-2.51-4.11-5.2c-0.04-1.2,0.14-2.42,0.35-3.61 c0.63-3.59,0.2-7-1.48-10.25c-0.17-0.33-0.37-0.67-0.42-1.03c-0.22-1.61-1.17-2.79-2.24-3.9c-1.38-1.44-2.73-2.9-4.17-4.27 c-1.59-1.51-1.2-4.2-0.35-5.72c1-1.77,1.77-3.68,2.64-5.53c0.08-0.16,0.13-0.35,0.14-0.54c0.1-2.26,0.16-4.53,0.29-6.79 c0.08-1.43-0.47-2.63-1.04-3.9c-0.96-2.12-2.9-3.68-3.38-6.06c0-0.94,0-1.88,0-2.81c0.87-1.92,2.13-3.58,3.7-4.96 c1.28-1.13,2.48-2.25,2.92-3.99c0.56-2.23,1.38-4.41,1.74-6.66c0.39-2.44-0.14-4.81-1.34-7.04c-1.29-2.4-0.77-4.45,1.44-6.04 c0.68-0.48,1.43-0.9,2.21-1.2c3.17-1.22,5.55-3.24,7-6.37c0.55-1.18,1.22-2.35,2.07-3.31c0.82-0.92,1.15-1.9,1.15-3.04 c-0.01-1.56-0.13-3.12-0.08-4.68c0.03-0.75,0.19-1.58,0.57-2.2c1.58-2.55,3.96-3.79,6.94-3.87c1.62-0.05,3.11-0.33,4.37-1.52 c1.37-1.3,2.99-2.36,4.3-3.72c1.39-1.45,2.67-3.04,3.74-4.73c0.73-1.16,0.95-2.62,1.5-3.91c0.65-1.51,1.59-2.85,3.43-2.88 c1.68-0.03,3.36,0.08,5.03,0.24c2.61,0.24,5.01-0.05,7.28-1.62c1.38-0.96,3.18-1.29,4.6-2.29c0.07-0.05,0.19-0.03,0.27-0.07 c0.24-0.12,0.53-0.21,0.69-0.4c1.6-1.82,3.18-3.66,4.77-5.5c1.21-1.4,3.13-1.64,4.72-0.68C78,7.11,78.9,7.47,79.77,7.88 c0.64,0.31,1.28,0.64,1.94,0.89c0.77,0.28,1.55,0.62,2.35,0.69c2.71,0.25,5.27-0.74,7.91-1.11c1.82-0.26,3.36-0.99,4.82-2.08 c1.54-1.15,3.16-2.17,4.75-3.25c0.63,0,1.25,0,1.88,0c1.13,0.86,2.42,1.57,3.36,2.6c1.71,1.87,3.87,2.83,6.2,3.42 c2.01,0.5,4.09,0.76,6.15,1c3.02,0.36,5.97-0.02,8.77-1.25c1.64-0.72,3.12-0.58,4.25,0.76c1.22,1.44,2.19,3.1,3.35,4.59 c1.73,2.2,3.64,4.18,6.58,4.72c0.26,0.05,0.53,0.19,0.74,0.36c0.98,0.84,2.13,1.32,3.39,1.42c2.26,0.19,4.54,0.25,6.8,0.43 c0.7,0.06,1.44,0.21,2.05,0.54c0.63,0.35,1.07,1.02,1.67,1.43c0.47,0.32,0.65,0.65,0.67,1.21c0.03,0.93,0.14,1.86,0.29,2.78 c0.46,2.81,2.26,4.95,3.68,7.28c0.14,0.23,0.42,0.37,0.63,0.54c0.52,0.42,1.05,0.83,1.55,1.27c0.49,0.42,0.96,0.87,1.42,1.33 c1.06,1.08,2.14,2.12,3.66,2.52c0.08,0.02,0.15,0.11,0.22,0.17c0.79,0.66,1.69,0.79,2.7,0.64c0.73-0.11,1.5-0.03,2.24,0 c1.12,0.05,1.37,1.17,2.08,1.72c1.27,0.98,1.54,2.39,1.39,3.76c-0.28,2.61-0.4,5.09,0.29,7.73c0.61,2.36,1.91,4.23,2.97,6.28 c1.45,2.8,3.7,4.52,6.78,5.24c0.9,0.21,1.59,0.82,1.86,1.8c0.09,0.32,0.25,0.65,0.46,0.92c1.14,1.44,0.84,2.8-0.11,4.21 c-0.38,0.57-0.71,1.28-0.79,1.95c-0.19,1.66-0.35,3.35-0.29,5.02c0.07,2.3,0.25,4.6,0.57,6.87c0.29,1.99,0.93,3.98,2.69,5.17 c1.99,1.36,3.39,3.06,4.02,5.39c0,0.38,0,0.75,0,1.13c-1.59,2.14-3.18,4.28-4.75,6.43c-0.21,0.29-0.38,0.64-0.46,0.99 c-0.4,1.85-0.82,3.7-1.12,5.57c-0.36,2.34-0.68,4.73,0.33,6.99c0.48,1.07,1.19,2.04,1.76,3.08c0.75,1.37,1.47,2.79,1.01,4.41 c-0.48,1.69-2.08,2.43-3.28,3.46c-1.23,1.06-2.66,1.89-3.99,2.84c-0.09,0.07-0.18,0.19-0.2,0.31c-0.23,1.16-0.81,2.12-1.57,3.02 c-0.23,0.28-0.2,0.76-0.34,1.14c-0.29,0.83-0.6,1.66-0.92,2.48c-0.24,0.6-0.73,1.18-0.73,1.77c0.02,2.51,0.18,5.02,0.29,7.52 c0.06,1.44,0.21,3.03-1.06,3.96c-1.96,1.43-3.95,3.02-6.67,2.65c-1.17-0.16-2.1,0.31-2.8,1.18c-2.03,2.55-4.02,5.14-6.01,7.73 c-0.19,0.25-0.26,0.63-0.28,0.96c-0.08,1.05-0.15,2.11-0.17,3.16c-0.03,1.64-0.89,2.94-1.7,4.27c-0.76,1.25-1.85,2.14-3.25,2.4 c-1.27,0.24-2.61,0.27-3.91,0.18c-1.85-0.13-3.6-0.16-4.95,1.4c-0.15,0.18-0.42,0.28-0.65,0.36c-2.23,0.67-3.85,2.25-5.55,3.69 c-1.96,1.66-3.35,3.75-4.47,6.05c-0.64,1.3-1.59,2.46-3.12,2.5c-1.11,0.02-2.22-0.47-3.34-0.71c-1.45-0.31-2.9-0.74-4.36-0.84 c-2.71-0.18-5.27,0.73-7.88,1.3c-3.08,0.67-5.28,2.52-7.25,4.79C113.63,193.87,113.03,194.85,111.86,195.18z M34.52,56.21 c0.09,0.07,0.18,0.15,0.26,0.22c-0.27,1.58-0.93,3.05-1.85,4.31c-1.89,2.59-2.92,5.6-4.19,8.47c-1.39,3.14-2.28,6.51-3.3,9.81 c-1.6,5.19-2.67,10.51-2.86,15.93c-0.15,4.18,0.05,8.37,0.13,12.55c0.03,1.62,0.05,3.26,0.29,4.85c0.61,3.94,1.45,7.83,2.9,11.56 c1.34,3.44,2.1,7.05,3.9,10.37c1.95,3.59,3.77,7.23,6.09,10.6c4.78,6.96,10.43,13.12,17.13,18.26c1.75,1.34,3.79,2.29,5.55,3.61 c2.97,2.24,6.26,3.82,9.69,5.18c1.56,0.62,3.1,1.29,4.66,1.92c0.8,0.33,1.61,0.65,2.43,0.93c1.26,0.44,2.52,0.83,3.78,1.25 c0.56,0.18,1.1,0.43,1.67,0.54c2.25,0.45,4.51,0.9,6.78,1.26c2.09,0.33,4.19,0.6,6.29,0.8c1.1,0.11,1.31-0.13,1.25-1.21 c-0.1-2.08-0.2-4.17-0.43-6.24c-0.21-1.86-0.74-3.65-2.48-4.7c-3.04-1.83-6.1-3.61-9.57-4.56c-1.67-0.46-3.28-1.15-4.96-1.62 c-1.31-0.36-2.67-0.53-4.01-0.81c-1.43-0.3-2.85-0.66-4.28-0.96c-1.79-0.38-3.62-0.59-5.37-1.11c-1.96-0.58-2.15-1.32-1.17-3.12 c0.87-1.59,0.67-2.36-0.94-3.27c-2.8-1.58-5.62-3.12-8.42-4.7c-1.67-0.94-3.31-1.94-4.97-2.91c-0.67-0.39-1.25-0.91-1.02-1.7 c0.14-0.47,0.65-0.94,1.11-1.18c2.62-1.36,3.17-3.1,1.7-5.65c-0.12-0.22-0.26-0.43-0.41-0.62c-2.14-2.83-4.27-5.66-6.41-8.49 c-1.12-1.49-2.35-2.91-3.35-4.47c-0.9-1.41-0.42-2.13,1.19-2.66c1.13-0.37,2.22-0.95,3.23-1.59c0.99-0.63,1.21-1.71,0.71-2.81 c-0.23-0.51-0.57-0.96-0.88-1.43c-2.02-3.07-4.08-6.1-6.04-9.21c-0.77-1.23-0.31-2,1.16-2.27c0.42-0.08,0.86-0.11,1.29-0.12 c1.64-0.02,2.66-0.6,3.09-2.18c0.45-1.67,0.82-3.4,0.9-5.12c0.14-3.03-0.06-6.07,0.08-9.1c0.08-1.62,0.5-3.24,0.93-4.82 c0.42-1.57,2.11-2.56,3.65-0.9c0.79,0.85,1.73,0.87,2.61,0.17c1.01-0.8,1.87-1.74,2.17-3.07c0.52-2.34,1-4.68,1.63-6.99 c0.34-1.24,0.94-2.41,1.41-3.62c0.21-0.55,0.39-1.1,0.59-1.65c0.27-0.72,0.48-1.46,0.83-2.14c0.4-0.77,0.93-1.47,1.37-2.22 c0.71-1.19,1.61-1.38,2.7-0.53c0.29,0.23,0.57,0.49,0.81,0.78c0.96,1.12,2.2,1.33,3.56,1.14c1.93-0.26,3-1.65,3.96-3.14 c1.13-1.75,2.24-3.51,3.32-5.3c0.82-1.35,1.57-2.75,2.36-4.12c0.29-0.51,0.56-1.05,0.9-1.53c0.75-1.07,1.98-1.13,2.84-0.14 c0.25,0.28,0.45,0.6,0.7,0.88c0.56,0.63,1.27,1.05,2.06,0.61c0.91-0.51,1.9-1.04,2.54-1.82c2.01-2.45,3.9-4.99,5.79-7.54 c2.23-3,4.44-6.02,7.36-8.42c2.75-2.26,5.32-2.41,8.03-0.15c1.71,1.42,3.26,3.08,4.65,4.82c2.52,3.16,4.82,6.51,7.32,9.69 c0.91,1.15,2.03,2.19,3.22,3.05c1.07,0.77,1.87,0.52,2.81-0.42c0.31-0.31,0.6-0.64,0.94-0.92c0.95-0.81,1.81-0.68,2.5,0.36 c0.17,0.26,0.31,0.54,0.47,0.81c1.15,1.96,2.3,3.91,3.46,5.87c0.35,0.59,0.77,1.15,1.03,1.78c0.77,1.87,2.13,3.27,3.57,4.61 c1.68,1.56,4.15,1.33,6.22-0.56c1.37-1.25,2.35-1.08,3.21,0.61c0.43,0.83,0.74,1.73,1.25,2.51c1.4,2.17,1.59,4.81,2.84,7.03 c0.04,0.07,0.02,0.18,0.02,0.28c0.06,2.74,1.6,5.07,2.16,7.69c0.4,1.86,2.45,2.45,4.06,1.42c0.29-0.18,0.59-0.36,0.89-0.51 c1.14-0.57,1.72-0.43,2.46,0.63c0.91,1.3,1.18,2.82,1.26,4.34c0.16,3.21,0.14,6.43,0.29,9.64c0.08,1.64,0.24,3.3,0.59,4.9 c0.58,2.63,1.5,3.17,4.14,2.78c0.03,0,0.06-0.01,0.09-0.02c0.85-0.13,1.44,0.21,1.84,0.96c0.39,0.73,0.49,1.37-0.22,2.01 c-0.33,0.3-0.48,0.78-0.71,1.18c-0.48,0.86-0.9,1.77-1.46,2.58c-1.38,2-2.87,3.92-4.23,5.93c-1.1,1.62-0.76,2.97,0.95,3.9 c0.84,0.45,1.77,0.74,2.69,1.01c1.63,0.48,2.06,1.33,1.34,2.86c-0.14,0.31-0.33,0.6-0.55,0.86c-0.71,0.86-1.5,1.67-2.17,2.56 c-1.93,2.56-3.81,5.15-5.73,7.71c-0.84,1.12-1.8,2.14-2.6,3.29c-1.04,1.49-0.76,2.7,0.8,3.71c0.65,0.43,1.34,0.79,2.04,1.15 c1.25,0.64,1.37,2.12,0.18,2.93c-1.23,0.84-2.46,1.69-3.77,2.38c-2.98,1.56-6.01,3.03-9.01,4.54c-0.58,0.29-1.18,0.58-1.72,0.95 c-0.95,0.66-1.16,1.58-0.67,2.62c0.24,0.51,0.52,1,0.74,1.51c0.4,0.93,0.27,1.45-0.63,1.93c-1.79,0.95-3.72,1.43-5.74,1.45 c-1.67,0.01-3.28,0.24-4.78,1.07c-0.55,0.31-1.23,0.48-1.86,0.54c-2.09,0.2-4.14,0.51-5.99,1.6c-0.16,0.09-0.35,0.17-0.53,0.18 c-1.75,0.08-3.27,0.79-4.83,1.51c-1.89,0.87-3.97,1.32-5.86,2.19c-3.52,1.61-5.99,4.42-7.99,7.65c-0.72,1.17-1.02,2.57-2.15,3.53 c-0.27,0.23-0.29,1.03-0.12,1.44c0.13,0.3,0.77,0.54,1.17,0.51c1.02-0.05,2.02-0.32,3.04-0.4c3.32-0.27,6.63-0.5,9.88-1.35 c2.36-0.62,4.87-0.69,7.08-1.92c0.47-0.26,1.07-0.3,1.61-0.43c0.78-0.2,1.61-0.28,2.34-0.6c1.98-0.87,3.89-1.93,5.88-2.75 c3.96-1.64,7.69-3.66,11.17-6.2c3.2-2.33,6.43-4.59,9.31-7.32c4.71-4.45,8.76-9.46,12.42-14.79c0.4-0.59,0.89-1.18,1.06-1.85 c0.47-1.84,2.29-2.97,2.46-4.93c0.01-0.07,0.13-0.13,0.18-0.21c0.45-0.71,0.98-1.38,1.31-2.14c1.13-2.63,2.18-5.29,3.25-7.94 c0.17-0.43,0.24-0.9,0.34-1.35c0.23-1.09,0.42-2.19,0.69-3.26c0.35-1.38,0.81-2.73,1.14-4.11c0.2-0.84,0.25-1.72,0.36-2.58 c0.46-3.7,1.14-7.39,1.33-11.1c0.28-5.48,0.11-10.97-1.04-16.38c-0.52-2.43-0.69-4.94-1.32-7.34c-0.89-3.38-1.95-6.73-3.16-10 c-0.58-1.57-1.41-3.05-2.06-4.61c-0.94-2.27-2.46-4.31-3.74-6.45c-3.05-5.07-6.56-9.79-10.81-13.9c-2.75-2.65-5.75-5.04-8.67-7.51 c-2.71-2.3-5.67-4.28-8.85-5.83c-1.76-0.86-3.23-2.37-5.33-2.52c-0.2-0.01-0.43-0.15-0.57-0.29c-1.03-1-2.3-1.44-3.68-1.63 c-0.24-0.03-0.5-0.1-0.7-0.23c-1.27-0.85-2.7-1.18-4.17-1.48c-1.01-0.21-1.93-0.9-2.94-1.13c-3.14-0.73-6.29-1.52-9.48-1.97 c-3.01-0.42-6.08-0.47-9.12-0.6c-6.14-0.27-12.22-0.09-18.28,1.36c-6.45,1.54-12.75,3.37-18.72,6.32c-1.94,0.96-4.03,1.63-6.07,2.4 c-0.31,0.12-0.68,0.07-1.03,0.11c-0.03-0.08-0.06-0.17-0.1-0.25c0.38-0.29,0.76-0.57,1.13-0.88c1.38-1.16,2.61-2.6,4.17-3.43 c3.19-1.71,6.19-3.86,9.84-4.63c0.41-0.09,0.78-0.37,1.17-0.56c0.5-0.25,0.98-0.58,1.5-0.73c3.97-1.14,7.89-2.49,12.04-2.89 c4.14-0.4,8.28-0.9,12.42-1.31c2.01-0.2,4.03-0.35,6.05-0.39c1.37-0.03,2.77-0.26,4.13,0.37c0.55,0.25,1.31,0.04,1.98,0.04 c0-0.16,0.01-0.31,0.01-0.47c-1.59-0.09-3.18-0.18-4.77-0.27c-0.31-0.02-0.62-0.08-0.92-0.12c-1.96-0.28-3.92-0.72-5.89-0.82 c-6.26-0.31-12.42,0.49-18.54,1.75c-5.66,1.17-11.2,2.67-16.61,4.7c-5.77,2.16-11.24,4.92-16.43,8.24 c-3.2,2.05-6.31,4.22-9.07,6.88c-3.07,2.96-5.57,6.38-8.02,9.84c-1.71,2.41-3.6,4.73-4.99,7.32c-1.76,3.27-3.09,6.77-4.6,10.17 c-1.6,3.59-3,7.25-4.06,11.04c-1.68,6.02-3.23,12.03-2.86,18.37c0.05,0.82-0.21,1.65-0.31,2.48c-0.08,0.67-0.33,1.4,0.52,1.94 c0.06-0.68,0.07-1.27,0.18-1.84c0.59-3.11,1.19-6.22,1.81-9.33c0.34-1.73,0.67-3.47,1.11-5.18c0.39-1.52,0.94-3.01,1.39-4.52 c0.2-0.68,0.25-1.43,0.52-2.08c1.54-3.61,2.96-7.29,4.76-10.76c1.13-2.18,2.83-4.08,4.37-6.03C32.68,57.76,33.66,57.03,34.52,56.21 z M92.23,84.7c0,1.53,0.08,3.06-0.02,4.58c-0.21,3.17-0.66,6.31-1.77,9.32c-0.76,2.04-2.07,3.52-4.18,4.23 c-2,0.67-3.05,0.1-3.62-1.94c-1.14-4.14-0.98-8.34-0.48-12.53c0.55-4.58,1.59-9.06,3.14-13.42c0.1-0.27-0.07-0.91-0.21-0.94 c-0.37-0.08-0.88-0.04-1.17,0.18c-0.35,0.26-0.52,0.76-0.81,1.13c-0.91,1.16-1.8,2.31-3.39,2.62c-1.38,0.27-1.85,0.71-1.9,2.12 c-0.11,3.17-0.33,6.36-0.11,9.51c0.28,4.08,0.94,8.14,1.45,12.2c0.29,2.36,0.18,2.74-1.86,3.51c-1.06,0.4-1.89,1.14-2.17,2.28 c-0.1,0.39-0.02,1.07,0.23,1.23c0.28,0.18,0.87-0.01,1.27-0.16c0.63-0.24,1.19-0.69,1.83-0.89c1.84-0.55,3.69-1.14,5.58-1.49 c4.83-0.89,8.02-3.7,10.07-8.05c2.28-4.82,3.2-9.94,3.32-15.21c0.08-3.78-0.47-7.52-1.67-11.13c-1.01-3.06-2.15-6.06-4.65-8.3 c-2.7-2.4-5.73-3.13-9.15-1.85c-2.56,0.96-4.52,2.75-6.3,4.73c-2.07,2.3-3.54,4.97-4.39,7.95c-0.26,0.92-0.02,1.18,0.87,1.07 c1.44-0.19,2.89-0.36,4.34-0.51c1.48-0.15,2.26-0.94,2.32-2.41c0.03-0.62,0.07-1.24,0.11-1.86c0.17-2.3,1.09-4.19,2.96-5.58 c2.02-1.5,4.01-1.36,5.8,0.41c1.34,1.33,2.19,2.95,2.77,4.71C92,74.93,92.34,79.79,92.23,84.7z M104.2,65.8 C104.21,65.8,104.21,65.8,104.2,65.8c0-2.41-0.02-4.82,0.01-7.22c0.03-2.38,1.09-3.3,3.39-2.7c1.76,0.46,3.49,1.14,5.12,1.95 c1.8,0.9,3.16,2.32,3.77,4.32c0.22,0.71,0.35,1.46,0.65,2.13c0.18,0.4,0.6,0.69,0.91,1.03c0.3-0.39,0.69-0.73,0.86-1.17 c0.12-0.31,0.02-0.75-0.1-1.09c-0.35-1.01-0.22-1.88,0.55-2.66c0.6-0.61,0.53-1.3,0.01-1.93c-0.21-0.26-0.46-0.53-0.75-0.7 c-1.84-1.11-3.63-2.35-5.56-3.25c-5-2.33-10.27-2.87-15.69-1.95c-0.52,0.09-1.13,0.22-1.15,1c-0.01,0.77,0.59,0.79,1.09,0.89 c1.78,0.38,2.49,1.24,2.49,3.06c0,13.89,0,27.77,0,41.66c0,1.69-0.11,1.9-1.71,2.45c-0.81,0.28-0.89,0.89-0.84,1.56 c0.06,0.71,0.48,0.98,1.21,0.98c3.69,0.02,7.37,0.06,11.06,0.14c0.96,0.02,1.92,0.18,2.87,0.31c1.41,0.2,2.82,0.5,4.24,0.62 c1.11,0.09,1.57-0.45,1.6-1.58c0.01-0.5,0.04-1-0.01-1.5c-0.09-1.06,0.29-1.87,1.15-2.51c0.26-0.19,0.6-0.5,0.61-0.77 c0.03-0.55-0.14-1.1-0.23-1.65c-0.48,0.08-1.03,0.04-1.44,0.26c-0.76,0.41-1.41,1.03-2.15,1.47c-2.4,1.43-4.93,2.38-7.79,2.26 c-2.78-0.11-4.15-1.38-4.17-4.07c-0.04-4.16-0.05-8.32,0-12.48c0.04-2.98,2.77-4.91,5.53-3.91c1.29,0.47,2.29,1.35,2.91,2.62 c0.3,0.62,0.77,0.98,1.52,0.71c0.82-0.29,0.83-0.92,0.67-1.61c-0.05-0.21-0.15-0.41-0.24-0.61c-0.57-1.38-0.85-2.79-0.52-4.28 c0.28-1.24,0.54-2.49,0.77-3.74c0.15-0.82-0.23-1.16-1.05-1.06c-0.78,0.1-0.94,0.74-1.2,1.29c-0.31,0.64-0.46,1.4-0.91,1.91 c-1.39,1.59-3.36,1.74-5.18,1.32c-1.46-0.33-1.85-1.91-2.14-3.27c-0.13-0.6-0.16-1.23-0.17-1.85 C104.19,70.06,104.2,67.93,104.2,65.8z M75.55,94.6c-0.1-1.46-0.15-2.93-0.33-4.38c-0.34-2.86-0.97-5.63-2.77-8.01 c-1.72-2.28-5.18-2.86-7.31-1.08c-1.16,0.97-2.28,2.05-3.18,3.27c-4.24,5.77-5.64,12.32-4.88,19.34c0.27,2.5,1.27,4.76,3.24,6.45 c1.41,1.21,2.93,2.08,4.93,1.66c3.72-0.77,6.14-3.14,7.88-6.33C74.98,102.13,75.5,98.42,75.55,94.6z M132.24,103.97 c-2.62-0.05-4.35-1.65-4.39-4.24c-0.06-3.37-0.09-6.74-0.13-10.12c-0.03-2.03-0.1-4.06-0.11-6.08c-0.02-4.69,0-9.38-0.01-14.07 c0-1.59,0.75-2.69,2.19-3.25c0.78-0.31,0.76-0.71,0.42-1.28c-0.17-0.29-0.35-0.61-0.61-0.82c-1.89-1.51-3.77-3.02-5.72-4.45 c-0.57-0.42-1.1-0.05-1.13,0.66c-0.01,0.37,0.04,0.74,0.1,1.11c0.19,1.16,0.52,2.32,0.57,3.48c0.19,4.64,0.36,9.29,0.41,13.93 c0.04,3.81-0.08,7.61-0.14,11.42c-0.04,3.09-0.05,6.18-0.16,9.27c-0.07,1.98-0.74,3.71-2.53,4.83c-0.64,0.4-0.62,1.03,0.1,1.23 c0.66,0.18,1.4,0.09,2.1,0.08c0.86-0.01,1.74-0.17,2.59-0.06c3.02,0.37,5.83,1.51,8.65,2.58c0.51,0.19,1.09,0.31,1.63,0.31 c0.62,0,1.1-0.32,0.97-1.06c-0.29-1.57,0.2-3.02,0.58-4.5c0.21-0.79-0.23-1.2-1.01-0.92c-0.37,0.13-0.69,0.42-1.06,0.58 C134.46,103.06,133.35,103.51,132.24,103.97z M138.05,109.31c0.5,0.87,1.19,0.66,1.82,0.71c1.2,0.1,2.44,0.09,3.57,0.43 c1.63,0.5,3.18,1.27,4.75,1.94c1,0.42,1.98,0.94,3.01,1.27c1.02,0.33,1.47-0.18,1.37-1.21c-0.1-0.98-0.12-1.98-0.1-2.97 c0.01-0.8-0.35-1.16-1.01-0.73c-1.8,1.19-3.61,0.85-5.47,0.29c-1.17-0.35-1.83-1.15-1.89-2.37c-0.06-1.24-0.12-2.49-0.14-3.73 c-0.06-3.75-0.14-7.49-0.15-11.24c-0.01-2.21,0-4.43,0.19-6.63c0.07-0.82,0.54-1.75,1.13-2.33c0.61-0.6,0.65-1.03,0.35-1.7 c-0.99-2.22-2.67-3.89-4.38-5.54c-0.23-0.22-0.63-0.26-0.96-0.38c-0.11,0.36-0.38,0.77-0.29,1.08c0.82,3.03,0.63,6.14,0.71,9.2 c0.13,5.22,0.05,10.44,0.03,15.67c0,1.4-0.04,2.81-0.13,4.21C140.35,106.99,139.6,108.38,138.05,109.31z M105.88,118.74 c0.32,0.44,0.5,0.62,0.59,0.83c1.38,3.2,2.75,6.41,4.13,9.62c0.23,0.54,0.24,1.46,1.04,1.26c0.37-0.09,0.7-0.95,0.79-1.5 c0.52-3.16,0.88-6.34,1.44-9.48c0.52-2.95,0.76-5.99,2.19-8.73c0.08-0.16-0.01-0.61-0.09-0.62c-0.97-0.21-1.95-0.37-2.83-0.52 c0.41,5.25-0.44,10.14-1.86,14.99c-0.3-0.22-0.46-0.45-0.58-0.69c-0.86-1.83-1.71-3.67-2.58-5.5c-0.43-0.89-0.79-1.73-0.16-2.72 c0.43-0.68,0-1.36-0.5-1.73c-0.44-0.33-1.21-0.61-1.66-0.44c-0.42,0.16-0.67,0.91-0.88,1.45c-0.12,0.3-0.06,0.68-0.02,1.02 c0.37,2.73-1.23,4.82-2.27,7.13c-0.32-0.83-0.54-1.65-0.71-2.49c-0.66-3.32-1.32-6.63-1.95-9.96c-0.11-0.57-0.38-0.7-0.9-0.66 c-0.64,0.05-1.29,0.06-1.93,0.04c-0.69-0.02-0.9,0.25-0.67,0.91c0.65,1.91,1.4,3.8,1.91,5.76c1.11,4.3,2.09,8.63,3.14,12.94 c0.07,0.3,0.32,0.56,0.48,0.83c0.22-0.22,0.55-0.41,0.64-0.68c0.53-1.52,1.04-3.06,1.49-4.61 C104.72,123.16,105.24,121.09,105.88,118.74z M77.22,124.18c1.4-0.09,2.63,0.33,3.72,1.63c1.67,2,3.17,4.14,4.75,6.22 c0.64,0.84,1.28,1.68,1.96,2.48c0.15,0.17,0.5,0.22,0.76,0.21c0.07,0,0.16-0.39,0.2-0.61c0.09-0.45,0.21-0.9,0.22-1.35 c0.01-0.35-0.05-0.93-0.23-1c-1.2-0.46-1.7-1.51-2.26-2.51c-0.93-1.66-1.86-3.33-3.47-4.45c-0.86-0.6-1.8-1.08-2.8-1.68 c1.43-1.04,2.17-2.52,2.38-4.24c0.23-1.92-0.31-3.61-1.95-4.76c-1.59-1.11-3.22-0.96-4.79,0.12c-1.06,0.74-2.24,1.03-3.53,1.03 c-0.36,0-0.72,0.32-1.08,0.5c0.28,0.29,0.51,0.69,0.85,0.86c0.69,0.34,1.1,0.79,1.32,1.56c0.73,2.58,1.62,5.11,2.3,7.69 c0.54,2.05,0.85,4.17,1.32,6.25c0.04,0.19,0.55,0.4,0.81,0.37c0.57-0.06,1.14-0.26,1.69-0.44c0.18-0.06,0.41-0.21,0.45-0.37 c0.04-0.15-0.1-0.38-0.22-0.53c-0.23-0.28-0.65-0.49-0.74-0.8C78.3,128.34,77.78,126.3,77.22,124.18z M132.27,127.16 c-0.23-0.59-0.5-1.17-0.7-1.78c-0.78-2.46-1.54-4.93-2.29-7.4c-0.44-1.44-1.29-2.78-1.11-4.39c0.02-0.18-0.41-0.54-0.68-0.61 c-0.72-0.18-1.46-0.27-2.2-0.35c-0.63-0.07-0.94,0.21-0.83,0.88c0.08,0.49,0.15,0.99,0.17,1.48c0.14,3.08-0.37,6.1-1.18,9.04 c-0.58,2.08-1.42,4.11-2.34,6.07c-0.38,0.82-0.84,1.36,0.17,1.95c0.17,0.1,0.26,0.34,0.41,0.5c0.21,0.23,0.43,0.45,0.65,0.68 c0.19-0.26,0.41-0.52,0.57-0.8c0.11-0.18,0.17-0.4,0.22-0.61c0.94-3.96,1.88-7.92,2.82-11.89c0.22-0.92,0.44-1.83,0.71-2.94 c0.2,0.34,0.31,0.48,0.37,0.64c0.95,2.97,1.9,5.93,2.85,8.9c0.57,1.78,1.12,3.57,1.74,5.33c0.14,0.39,0.58,0.66,0.88,0.99 c0.23-0.36,0.58-0.7,0.67-1.09c0.45-1.9,0.77-3.84,1.25-5.73c0.83-3.25,1.35-6.6,2.91-9.63c0.27-0.53,0.04-0.71-0.5-0.78 c-0.53-0.08-1.04-0.28-1.56-0.42c-0.25-0.07-0.49-0.15-0.79-0.23c-0.18,2.18-0.25,4.23-0.55,6.25 C133.65,123.22,133.37,125.26,132.27,127.16z M58.81,120.64c-0.09,0.08-0.17,0.16-0.26,0.23c0.27,0.35,0.49,0.95,0.82,1.01 c1.45,0.28,1.93,1.42,2.34,2.55c1.02,2.77,1.89,5.61,2.97,8.36c0.53,1.35,0.79,2.58,0.08,3.91c-0.1,0.2,0,0.5,0.01,0.76 c0.31-0.07,0.66-0.06,0.91-0.21c0.92-0.56,1.78-1.23,2.72-1.76c0.81-0.45,1.7-0.76,2.56-1.13c1.79-0.75,3.41-3.48,3.16-5.34 c-0.42-3.15-2.66-4.91-6.01-4.52c0.1-0.63,0.17-1.21,0.29-1.79c0.4-1.97-0.11-3.47-1.55-4.34c-1.51-0.92-2.7-0.1-3.81,0.81 C61.8,120.22,60.39,120.65,58.81,120.64z M149.62,130.61c0.07-0.09,0.15-0.17,0.22-0.26c-0.36-0.38-0.67-0.84-1.09-1.13 c-1.61-1.09-3.49-1.23-5.35-1.43c-0.18-0.02-0.38,0.21-0.57,0.32c0.13,0.19,0.23,0.43,0.4,0.55c0.19,0.14,0.47,0.17,0.7,0.26 c1.68,0.64,1.97,1.17,1.58,2.91c-0.05,0.24-0.14,0.48-0.21,0.72c-0.49,1.85-2.1,2.05-3.39,1.67c-1.39-0.41-2.13-1.41-2.36-2.75 c-0.17-0.98-0.21-2-0.13-2.98c0.22-2.77,1.05-5.32,3.08-7.33c1.18-1.17,3.29-1.39,4.6-0.55c1.34,0.87,1.91,2.84,1.34,4.45 c-0.08,0.23,0.06,0.54,0.11,0.81c0.26-0.11,0.58-0.16,0.75-0.34c0.34-0.36,0.51-0.96,0.91-1.16c1.11-0.57,1.34-0.97,0.16-1.79 c-0.62-0.44-0.9-1.33-1.44-1.93c-2.08-2.28-4.57-3.03-7.33-1.24c-1.29,0.83-2.24,1.96-2.99,3.28c-1.07,1.89-1.5,3.97-1.57,6.09 c-0.04,1.23,0.13,2.49,0.41,3.69c0.66,2.85,2.69,4.04,5.61,3.54c0.98-0.17,2.02-0.05,3.02-0.05c0.37,0,0.75,0.03,1.12,0.05 c-0.07-0.37-0.05-0.78-0.21-1.1c-0.75-1.42,0.07-2.58,0.56-3.8c0.36-0.9,1.1-0.43,1.7-0.46 C149.38,130.65,149.5,130.62,149.62,130.61z M100.61,138.38c-0.03,0.09-0.06,0.17-0.09,0.26c-1.64-0.05-3.15,0.27-4.37,1.49 c-2.13,2.14-2.84,4.72-2.55,7.67c0.33,3.39,2.06,5.69,5.23,6.84c1.81,0.66,3.66,0.94,5.5-0.12c0.54-0.31,1.3-0.21,1.95-0.33 c0.25-0.05,0.64-0.15,0.69-0.32c0.08-0.23,0-0.71-0.17-0.81c-0.79-0.47-0.88-1.11-0.7-1.92c0.05-0.23-0.18-0.53-0.28-0.8 c-0.27,0.2-0.58,0.36-0.81,0.6c-0.14,0.14-0.14,0.41-0.23,0.61c-0.59,1.4-1.54,2.08-2.96,1.93c-1.53-0.16-2.78-0.98-3.66-2.19 c-2.24-3.07-1.81-6.34-0.42-9.56c0.91-2.1,3.74-2.13,5.26-0.73c0.69,0.64,0.68,1.3-0.01,1.91c-0.23,0.2-0.53,0.33-0.75,0.54 c-0.16,0.16-0.23,0.4-0.34,0.6c0.19,0.08,0.37,0.19,0.57,0.24c0.5,0.13,1,0.27,1.51,0.33c0.2,0.03,0.53-0.07,0.61-0.22 c0.65-1.21,0.89-4.08-0.89-4.94C102.73,139,101.65,138.74,100.61,138.38z M96.97,123.8c-0.31,0.49-0.49,0.7-0.59,0.95 c-1.03,2.61-3.04,2.89-4.86,2.68c-0.82-0.1-1.11-0.51-1.2-1.25c-0.16-1.36-0.37-2.71-0.54-4.06c-0.18-1.43,1.09-2.33,2.46-1.75 c0.23,0.1,0.42,0.26,0.65,0.37c0.68,0.34,1.01,0.12,1-0.62c-0.01-0.95,0.04-1.9-0.03-2.84c-0.02-0.31-0.32-0.6-0.5-0.91 c-0.21,0.19-0.45,0.36-0.62,0.59c-0.22,0.29-0.33,0.71-0.61,0.92c-0.41,0.31-0.94,0.69-1.4,0.68c-0.68-0.02-1.36-0.42-1.49-1.2 c-0.23-1.38-0.41-2.77-0.53-4.16c-0.02-0.24,0.34-0.72,0.58-0.75c1.07-0.17,2.17-0.22,3.13,0.45c0.38,0.27,0.72,0.61,1.13,0.82 c0.2,0.1,0.63,0.08,0.77-0.07c0.31-0.31-0.57-2.78-1-2.91c-0.12-0.04-0.25-0.04-0.37-0.02c-2.23,0.39-4.47,0.76-6.69,1.2 c-0.73,0.15-0.76,0.58-0.29,1.15c0.3,0.36,0.59,0.79,0.67,1.23c0.43,2.38,0.87,4.77,1.16,7.17c0.29,2.43,0.87,4.84,0.45,7.32 c-0.12,0.69,0.35,0.97,1.08,0.86c2.15-0.32,4.3-0.58,6.45-0.93c0.44-0.07,1.14-0.33,1.2-0.62c0.24-1.08,0.28-2.21,0.35-3.32 C97.35,124.55,97.17,124.3,96.97,123.8z M111.78,140.16c-1.53-0.01-2.64,0.66-3.15,2.02c-0.8,2.13-0.82,4.25,0.27,6.31 c1.14,2.15,3.75,2.54,5.49,0.82c1.07-1.06,1.55-2.36,1.69-3.84C116.38,142.39,114.58,140.14,111.78,140.16z M119.09,111.31 c-0.21,2.36-0.33,4.66-0.63,6.92c-0.44,3.37-0.6,6.81-1.95,10.01c-0.09,0.21,0.16,0.73,0.39,0.86c0.42,0.23,0.95,0.27,1.43,0.4 c0.55,0.15,0.7-0.09,0.74-0.62c0.12-1.92,0.19-3.85,0.44-5.75c0.42-3.16,0.98-6.31,1.43-9.46c0.09-0.63,1.08-1.21,0.34-1.82 c-0.47-0.39-1.27-0.4-1.93-0.56C119.26,111.27,119.16,111.3,119.09,111.31z M73.07,144.6c-0.03,0.1-0.06,0.2-0.08,0.3 c0.26,0.18,0.49,0.45,0.78,0.53c1.13,0.32,2.27,0.65,3.42,0.86c3.3,0.6,6.6,1.19,9.92,1.69c1.97,0.3,2.11,0.11,1.84-1.77 c-0.03-0.22-0.31-0.48-0.54-0.57c-0.34-0.13-0.73-0.16-1.1-0.16c-4.12,0.07-8.21-0.24-12.29-0.8 C74.38,144.61,73.72,144.63,73.07,144.6z M135.93,144.32c-0.03-0.12-0.07-0.25-0.1-0.37c-0.32,0-0.63-0.02-0.95,0 c-4.15,0.29-8.31,0.58-12.46,0.89c-0.55,0.04-1.13,0.08-1.61,0.31c-0.15,0.07,0.06,0.78,0.02,1.18c-0.06,0.64,0.28,0.75,0.79,0.7 c0.83-0.09,1.67-0.24,2.5-0.25c3.64-0.05,7.18-0.65,10.61-1.88C135.15,144.76,135.54,144.52,135.93,144.32z M81.56,137.58 c-0.07,0.1-0.14,0.2-0.22,0.29c0.22,0.35,0.35,0.81,0.66,1.03c2.36,1.65,4.74,3.27,7.14,4.86c0.62,0.41,0.94,0.02,1.19-0.55 c0.25-0.58,0.12-0.85-0.45-1.16c-2.37-1.29-4.7-2.66-7.05-3.97C82.44,137.86,81.98,137.75,81.56,137.58z M82.55,155.63 c0.05,0.08,0.11,0.17,0.16,0.25c0.43-0.1,0.89-0.14,1.28-0.31c1.8-0.78,3.58-1.59,5.36-2.4c0.77-0.35,1.53-0.69,2.28-1.07 c0.2-0.1,0.44-0.31,0.47-0.5c0.07-0.57-1.14-1.35-1.63-1.06c-2.49,1.46-4.98,2.94-7.45,4.44C82.81,155.11,82.7,155.41,82.55,155.63 z M128.12,155.09c0.08-0.13,0.15-0.25,0.23-0.38c-0.39-0.34-0.74-0.75-1.17-1.02c-2.08-1.3-4.18-2.56-6.28-3.83 c-0.84-0.51-1.28-0.39-1.84,0.58c-0.46,0.8,0.47,0.76,0.76,1.1c0.11,0.12,0.34,0.14,0.51,0.21c2.18,0.89,4.45,1.57,6.41,2.95 C127.12,154.97,127.66,154.97,128.12,155.09z M119.77,141.84c0.14,0.31,0.27,0.53,0.32,0.77c0.18,0.73,0.61,0.7,1.12,0.38 c2.16-1.35,3.95-3.12,5.66-4.98c0.15-0.16,0.12-0.49,0.18-0.74c-0.25,0.03-0.56-0.02-0.75,0.1 C124.14,138.84,121.99,140.32,119.77,141.84z M116.01,152.41c-1.26,0.64-2.48,0.5-3.71,0.12c-1.02-0.32-1.89,0.05-2.66,0.68 c-0.29,0.24-0.47,0.6-0.82,1.06c0.48,0,0.7,0.07,0.84-0.01c0.82-0.49,1.62-0.4,2.49-0.11c0.54,0.17,1.2,0.16,1.75,0.02 C114.83,153.95,115.73,153.58,116.01,152.41z M71.67,94.03c-0.07,4.18-0.51,7.95-2.38,11.37c-0.58,1.06-1.41,2.07-2.35,2.83 c-1.16,0.95-2.18,0.73-3.25-0.32c-1.65-1.62-2.23-3.73-2.47-5.91c-0.56-5.04,0.49-9.84,2.59-14.41c0.52-1.14,1.29-2.2,2.09-3.18 c1.45-1.79,2.88-1.21,3.91,0.55c1.08,1.84,1.42,3.9,1.67,5.97C71.62,92.06,71.62,93.22,71.67,94.03z M106.18,114.61c0.86,0.78,0.79,1.31-0.18,1.96C106.06,115.91,106.11,115.36,106.18,114.61z M80.36,118.02c0.05,2.22-1.8,4.05-3.31,3.65c-0.32-0.09-0.73-0.41-0.83-0.71 c-0.31-1.01-0.54-2.04-0.71-3.08c-0.12-0.71,0.82-1.82,1.67-2.19c0.86-0.38,1.61-0.21,2.14,0.53 C79.8,116.87,80.14,117.63,80.36,118.02z M71.63,129.97c0.01,1.38-1.55,3.38-2.87,3.66c-0.58,0.12-1.14,0.07-1.42-0.57 c-0.53-1.19-1.13-2.35-1.54-3.58c-0.36-1.09,0.46-2.34,1.74-2.97c1.11-0.55,2.18-0.4,2.89,0.61c0.59,0.84,0.98,1.81,1.45,2.73 C71.79,129.88,71.71,129.92,71.63,129.97z M63,122.34c-0.02-1.61,0.7-2.38,1.93-2.52c0.95-0.11,1.76,0.6,1.88,1.75c0.14,1.34-0.15,2.59-1.07,3.61 c-0.79,0.88-1.53,0.75-1.94-0.33C63.45,123.89,63.18,122.91,63,122.34z M112.18,141.67c0.92,0.14,1.33,0.67,1.55,1.29c0.64,1.76,0.61,3.52-0.23,5.22 c-0.32,0.65-0.81,1.36-1.61,1.14c-0.53-0.14-1.12-0.66-1.36-1.17c-0.87-1.85-0.82-3.75,0.3-5.49 C111.12,142.22,111.72,141.99,112.18,141.67z"/>
</svg>
