<svg xmlns="http://www.w3.org/2000/svg" viewBox="0 0 20 20" class="portfolio-client"><path fill="#7C0808" d="M11.23,19.85c-0.09,0-0.18,0-0.27,0c-0.16-0.1-0.32-0.2-0.49-0.29c-0.11-0.06-0.22-0.12-0.33-0.14 c-0.29-0.03-0.58-0.04-0.87-0.04c-0.13,0-0.27,0.03-0.39,0.08c-0.16,0.06-0.32,0.15-0.47,0.23c-0.07,0.04-0.16,0.06-0.23,0.01 c-0.14-0.1-0.32-0.14-0.42-0.31c-0.18-0.31-0.52-0.41-0.83-0.54c-0.03-0.01-0.06,0-0.1-0.01c-0.1-0.02-0.21-0.03-0.3-0.07 c-0.21-0.09-0.42-0.11-0.64-0.02c-0.12,0.05-0.25,0.06-0.37,0.07c-0.04,0-0.08-0.04-0.12-0.07c-0.05-0.04-0.1-0.08-0.14-0.12 c-0.04-0.03-0.09-0.06-0.11-0.11C5.08,18.42,5.03,18.3,5,18.18c-0.03-0.15-0.09-0.27-0.22-0.35c-0.04-0.03-0.06-0.09-0.1-0.12 c-0.14-0.11-0.29-0.21-0.43-0.33c-0.23-0.19-0.47-0.31-0.78-0.27c-0.13,0.02-0.24-0.03-0.34-0.13c-0.04-0.05-0.11-0.07-0.16-0.11 c-0.03-0.02-0.07-0.05-0.08-0.09c-0.04-0.13-0.06-0.26-0.09-0.39c-0.05-0.26-0.1-0.52-0.29-0.72c-0.11-0.13-0.23-0.25-0.33-0.39 c-0.13-0.17-0.26-0.32-0.48-0.36c-0.05-0.01-0.1-0.04-0.15-0.06c-0.23-0.11-0.41-0.26-0.42-0.54c0-0.12,0.01-0.25,0.04-0.37 c0.06-0.37,0.02-0.72-0.15-1.06c-0.02-0.03-0.04-0.07-0.04-0.11c-0.02-0.17-0.12-0.29-0.23-0.4c-0.14-0.15-0.28-0.3-0.43-0.44 c-0.16-0.16-0.12-0.43-0.04-0.59c0.1-0.18,0.18-0.38,0.27-0.57c0.01-0.02,0.01-0.04,0.01-0.06c0.01-0.23,0.02-0.47,0.03-0.7 c0.01-0.15-0.05-0.27-0.11-0.4c-0.1-0.22-0.3-0.38-0.35-0.62c0-0.1,0-0.19,0-0.29c0.09-0.2,0.22-0.37,0.38-0.51 c0.13-0.12,0.26-0.23,0.3-0.41c0.06-0.23,0.14-0.45,0.18-0.69c0.04-0.25-0.01-0.5-0.14-0.73C0.72,6.14,0.77,5.92,1,5.76 c0.07-0.05,0.15-0.09,0.23-0.12C1.55,5.51,1.8,5.3,1.95,4.98c0.06-0.12,0.13-0.24,0.21-0.34c0.08-0.09,0.12-0.2,0.12-0.31 c0-0.16-0.01-0.32-0.01-0.48c0-0.08,0.02-0.16,0.06-0.23c0.16-0.26,0.41-0.39,0.71-0.4C3.21,3.21,3.37,3.19,3.5,3.06 C3.64,2.93,3.8,2.82,3.94,2.68c0.14-0.15,0.28-0.31,0.39-0.49c0.08-0.12,0.1-0.27,0.15-0.4c0.07-0.16,0.16-0.29,0.35-0.3 c0.17,0,0.35,0.01,0.52,0.02C5.62,1.54,5.87,1.51,6.1,1.35c0.14-0.1,0.33-0.13,0.47-0.24c0.01-0.01,0.02,0,0.03-0.01 c0.02-0.01,0.05-0.02,0.07-0.04C6.84,0.88,7,0.69,7.17,0.5c0.12-0.14,0.32-0.17,0.49-0.07c0.09,0.05,0.18,0.09,0.27,0.13 c0.07,0.03,0.13,0.07,0.2,0.09C8.2,0.68,8.28,0.71,8.36,0.72C8.64,0.75,8.9,0.64,9.18,0.61c0.19-0.03,0.35-0.1,0.5-0.21 C9.83,0.27,10,0.17,10.16,0.06c0.06,0,0.13,0,0.19,0c0.12,0.09,0.25,0.16,0.35,0.27c0.18,0.19,0.4,0.29,0.64,0.35 c0.21,0.05,0.42,0.08,0.63,0.1c0.31,0.04,0.62,0,0.9-0.13c0.17-0.07,0.32-0.06,0.44,0.08c0.13,0.15,0.23,0.32,0.35,0.47 c0.18,0.23,0.38,0.43,0.68,0.49c0.03,0.01,0.05,0.02,0.08,0.04c0.1,0.09,0.22,0.14,0.35,0.15c0.23,0.02,0.47,0.03,0.7,0.04 c0.07,0.01,0.15,0.02,0.21,0.06c0.06,0.04,0.11,0.11,0.17,0.15c0.05,0.03,0.07,0.07,0.07,0.12c0,0.1,0.01,0.19,0.03,0.29 c0.05,0.29,0.23,0.51,0.38,0.75c0.01,0.02,0.04,0.04,0.06,0.06c0.05,0.04,0.11,0.09,0.16,0.13c0.05,0.04,0.1,0.09,0.15,0.14 c0.11,0.11,0.22,0.22,0.38,0.26c0.01,0,0.02,0.01,0.02,0.02c0.08,0.07,0.17,0.08,0.28,0.07c0.08-0.01,0.15,0,0.23,0 c0.12,0.01,0.14,0.12,0.21,0.18c0.13,0.1,0.16,0.25,0.14,0.39c-0.03,0.27-0.04,0.52,0.03,0.8c0.06,0.24,0.2,0.44,0.31,0.65 c0.15,0.29,0.38,0.47,0.7,0.54c0.09,0.02,0.16,0.08,0.19,0.19c0.01,0.03,0.03,0.07,0.05,0.09c0.12,0.15,0.09,0.29-0.01,0.43 c-0.04,0.06-0.07,0.13-0.08,0.2c-0.02,0.17-0.04,0.35-0.03,0.52c0.01,0.24,0.03,0.47,0.06,0.71c0.03,0.21,0.1,0.41,0.28,0.53 c0.21,0.14,0.35,0.32,0.41,0.56c0,0.04,0,0.08,0,0.12c-0.16,0.22-0.33,0.44-0.49,0.66c-0.02,0.03-0.04,0.07-0.05,0.1 c-0.04,0.19-0.08,0.38-0.12,0.57c-0.04,0.24-0.07,0.49,0.03,0.72c0.05,0.11,0.12,0.21,0.18,0.32c0.08,0.14,0.15,0.29,0.1,0.45 c-0.05,0.17-0.21,0.25-0.34,0.36c-0.13,0.11-0.27,0.19-0.41,0.29c-0.01,0.01-0.02,0.02-0.02,0.03c-0.02,0.12-0.08,0.22-0.16,0.31 c-0.02,0.03-0.02,0.08-0.04,0.12c-0.03,0.09-0.06,0.17-0.09,0.26c-0.02,0.06-0.08,0.12-0.08,0.18c0,0.26,0.02,0.52,0.03,0.77 c0.01,0.15,0.02,0.31-0.11,0.41c-0.2,0.15-0.41,0.31-0.69,0.27c-0.12-0.02-0.22,0.03-0.29,0.12c-0.21,0.26-0.41,0.53-0.62,0.8 c-0.02,0.03-0.03,0.06-0.03,0.1c-0.01,0.11-0.02,0.22-0.02,0.33c0,0.17-0.09,0.3-0.18,0.44c-0.08,0.13-0.19,0.22-0.33,0.25 c-0.13,0.02-0.27,0.03-0.4,0.02c-0.19-0.01-0.37-0.02-0.51,0.14c-0.02,0.02-0.04,0.03-0.07,0.04c-0.23,0.07-0.4,0.23-0.57,0.38 c-0.2,0.17-0.35,0.39-0.46,0.62c-0.07,0.13-0.16,0.25-0.32,0.26c-0.11,0-0.23-0.05-0.34-0.07c-0.15-0.03-0.3-0.08-0.45-0.09 c-0.28-0.02-0.54,0.08-0.81,0.13c-0.32,0.07-0.54,0.26-0.75,0.49C11.41,19.72,11.35,19.82,11.23,19.85z M3.26,5.54 c0.01,0.01,0.02,0.02,0.03,0.02C3.26,5.72,3.19,5.87,3.09,6C2.9,6.27,2.79,6.58,2.66,6.88C2.52,7.2,2.43,7.55,2.32,7.89 C2.16,8.42,2.05,8.97,2.03,9.53c-0.02,0.43,0.01,0.86,0.01,1.29c0,0.17,0.01,0.34,0.03,0.5c0.06,0.41,0.15,0.81,0.3,1.19 c0.14,0.35,0.22,0.73,0.4,1.07c0.2,0.37,0.39,0.74,0.63,1.09c0.49,0.72,1.07,1.35,1.76,1.88c0.18,0.14,0.39,0.24,0.57,0.37 c0.31,0.23,0.64,0.39,1,0.53c0.16,0.06,0.32,0.13,0.48,0.2c0.08,0.03,0.17,0.07,0.25,0.1c0.13,0.05,0.26,0.09,0.39,0.13 c0.06,0.02,0.11,0.04,0.17,0.06c0.23,0.05,0.46,0.09,0.7,0.13c0.22,0.03,0.43,0.06,0.65,0.08c0.11,0.01,0.13-0.01,0.13-0.12 c-0.01-0.21-0.02-0.43-0.04-0.64C9.44,17.19,9.38,17,9.2,16.9c-0.31-0.19-0.63-0.37-0.99-0.47c-0.17-0.05-0.34-0.12-0.51-0.17 c-0.13-0.04-0.28-0.05-0.41-0.08c-0.15-0.03-0.29-0.07-0.44-0.1c-0.18-0.04-0.37-0.06-0.55-0.11c-0.2-0.06-0.22-0.14-0.12-0.32 c0.09-0.16,0.07-0.24-0.1-0.34c-0.29-0.16-0.58-0.32-0.87-0.48c-0.17-0.1-0.34-0.2-0.51-0.3c-0.07-0.04-0.13-0.09-0.11-0.18 c0.01-0.05,0.07-0.1,0.11-0.12c0.27-0.14,0.33-0.32,0.18-0.58c-0.01-0.02-0.03-0.04-0.04-0.06C4.62,13.29,4.4,13,4.18,12.7 c-0.12-0.15-0.24-0.3-0.35-0.46c-0.09-0.15-0.04-0.22,0.12-0.27c0.12-0.04,0.23-0.1,0.33-0.16c0.1-0.06,0.12-0.18,0.07-0.29 c-0.02-0.05-0.06-0.1-0.09-0.15c-0.21-0.32-0.42-0.63-0.62-0.95c-0.08-0.13-0.03-0.21,0.12-0.23c0.04-0.01,0.09-0.01,0.13-0.01 c0.17,0,0.27-0.06,0.32-0.22C4.27,9.78,4.31,9.6,4.32,9.42C4.33,9.11,4.31,8.8,4.32,8.48c0.01-0.17,0.05-0.33,0.1-0.5 C4.46,7.83,4.64,7.72,4.8,7.89c0.08,0.09,0.18,0.09,0.27,0.02c0.1-0.08,0.19-0.18,0.22-0.32c0.05-0.24,0.1-0.48,0.17-0.72 C5.49,6.75,5.55,6.63,5.6,6.5c0.02-0.06,0.04-0.11,0.06-0.17c0.03-0.07,0.05-0.15,0.09-0.22c0.04-0.08,0.1-0.15,0.14-0.23 c0.07-0.12,0.17-0.14,0.28-0.05C6.2,5.85,6.23,5.88,6.25,5.91c0.1,0.12,0.23,0.14,0.37,0.12C6.82,6,6.93,5.86,7.03,5.7 c0.12-0.18,0.23-0.36,0.34-0.55c0.08-0.14,0.16-0.28,0.24-0.42C7.64,4.68,7.67,4.62,7.7,4.58C7.78,4.46,7.91,4.46,8,4.56 c0.03,0.03,0.05,0.06,0.07,0.09C8.13,4.72,8.2,4.76,8.28,4.71c0.09-0.05,0.2-0.11,0.26-0.19c0.21-0.25,0.4-0.51,0.6-0.78 C9.37,3.44,9.6,3.13,9.9,2.88c0.28-0.23,0.55-0.25,0.83-0.02c0.18,0.15,0.34,0.32,0.48,0.5c0.26,0.33,0.5,0.67,0.75,1 c0.09,0.12,0.21,0.23,0.33,0.31c0.11,0.08,0.19,0.05,0.29-0.04c0.03-0.03,0.06-0.07,0.1-0.09c0.1-0.08,0.19-0.07,0.26,0.04 c0.02,0.03,0.03,0.06,0.05,0.08c0.12,0.2,0.24,0.4,0.36,0.6c0.04,0.06,0.08,0.12,0.11,0.18c0.08,0.19,0.22,0.34,0.37,0.47 c0.17,0.16,0.43,0.14,0.64-0.06c0.14-0.13,0.24-0.11,0.33,0.06c0.04,0.09,0.08,0.18,0.13,0.26c0.14,0.22,0.16,0.5,0.29,0.72 c0,0.01,0,0.02,0,0.03c0.01,0.28,0.16,0.52,0.22,0.79c0.04,0.19,0.25,0.25,0.42,0.15c0.03-0.02,0.06-0.04,0.09-0.05 c0.12-0.06,0.18-0.04,0.25,0.06c0.09,0.13,0.12,0.29,0.13,0.45c0.02,0.33,0.01,0.66,0.03,0.99c0.01,0.17,0.02,0.34,0.06,0.5 c0.06,0.27,0.15,0.33,0.43,0.29c0,0,0.01,0,0.01,0c0.09-0.01,0.15,0.02,0.19,0.1c0.04,0.08,0.05,0.14-0.02,0.21 c-0.03,0.03-0.05,0.08-0.07,0.12c-0.05,0.09-0.09,0.18-0.15,0.27c-0.14,0.21-0.3,0.4-0.44,0.61c-0.11,0.17-0.08,0.31,0.1,0.4 c0.09,0.05,0.18,0.08,0.28,0.1c0.17,0.05,0.21,0.14,0.14,0.29c-0.01,0.03-0.03,0.06-0.06,0.09c-0.07,0.09-0.15,0.17-0.22,0.26 c-0.2,0.26-0.39,0.53-0.59,0.79c-0.09,0.12-0.19,0.22-0.27,0.34c-0.11,0.15-0.08,0.28,0.08,0.38c0.07,0.04,0.14,0.08,0.21,0.12 c0.13,0.07,0.14,0.22,0.02,0.3c-0.13,0.09-0.25,0.17-0.39,0.25c-0.31,0.16-0.62,0.31-0.93,0.47c-0.06,0.03-0.12,0.06-0.18,0.1 c-0.1,0.07-0.12,0.16-0.07,0.27c0.02,0.05,0.05,0.1,0.08,0.16c0.04,0.1,0.03,0.15-0.06,0.2c-0.18,0.1-0.38,0.15-0.59,0.15 c-0.17,0-0.34,0.02-0.49,0.11c-0.06,0.03-0.13,0.05-0.19,0.06c-0.22,0.02-0.43,0.05-0.62,0.16c-0.02,0.01-0.04,0.02-0.05,0.02 c-0.18,0.01-0.34,0.08-0.5,0.16c-0.19,0.09-0.41,0.14-0.6,0.23c-0.36,0.17-0.62,0.46-0.82,0.79c-0.07,0.12-0.11,0.26-0.22,0.36 c-0.03,0.02-0.03,0.11-0.01,0.15c0.01,0.03,0.08,0.06,0.12,0.05c0.11-0.01,0.21-0.03,0.31-0.04c0.34-0.03,0.68-0.05,1.02-0.14 c0.24-0.06,0.5-0.07,0.73-0.2c0.05-0.03,0.11-0.03,0.17-0.04c0.08-0.02,0.17-0.03,0.24-0.06c0.2-0.09,0.4-0.2,0.61-0.28 c0.41-0.17,0.79-0.38,1.15-0.64c0.33-0.24,0.66-0.47,0.96-0.75c0.49-0.46,0.9-0.97,1.28-1.52c0.04-0.06,0.09-0.12,0.11-0.19 c0.05-0.19,0.24-0.31,0.25-0.51c0-0.01,0.01-0.01,0.02-0.02c0.05-0.07,0.1-0.14,0.13-0.22c0.12-0.27,0.22-0.54,0.33-0.82 c0.02-0.04,0.02-0.09,0.04-0.14c0.02-0.11,0.04-0.23,0.07-0.34c0.04-0.14,0.08-0.28,0.12-0.42c0.02-0.09,0.03-0.18,0.04-0.27 c0.05-0.38,0.12-0.76,0.14-1.14c0.03-0.56,0.01-1.13-0.11-1.69c-0.05-0.25-0.07-0.51-0.14-0.76c-0.09-0.35-0.2-0.69-0.33-1.03 c-0.06-0.16-0.15-0.31-0.21-0.47c-0.1-0.23-0.25-0.44-0.39-0.66c-0.31-0.52-0.68-1.01-1.11-1.43c-0.28-0.27-0.59-0.52-0.89-0.77 c-0.28-0.24-0.58-0.44-0.91-0.6c-0.18-0.09-0.33-0.24-0.55-0.26c-0.02,0-0.04-0.02-0.06-0.03c-0.11-0.1-0.24-0.15-0.38-0.17 c-0.02,0-0.05-0.01-0.07-0.02c-0.13-0.09-0.28-0.12-0.43-0.15c-0.1-0.02-0.2-0.09-0.3-0.12c-0.32-0.08-0.65-0.16-0.98-0.2 c-0.31-0.04-0.63-0.05-0.94-0.06C9.79,1.97,9.17,1.99,8.54,2.13C7.88,2.29,7.23,2.48,6.61,2.79c-0.2,0.1-0.42,0.17-0.63,0.25 C5.95,3.05,5.92,3.04,5.88,3.04c0-0.01-0.01-0.02-0.01-0.03c0.04-0.03,0.08-0.06,0.12-0.09c0.14-0.12,0.27-0.27,0.43-0.35 C6.75,2.4,7.05,2.18,7.43,2.1c0.04-0.01,0.08-0.04,0.12-0.06c0.05-0.03,0.1-0.06,0.15-0.08c0.41-0.12,0.81-0.26,1.24-0.3 c0.43-0.04,0.85-0.09,1.28-0.13c0.21-0.02,0.42-0.04,0.62-0.04c0.14,0,0.29-0.03,0.43,0.04c0.06,0.03,0.13,0,0.2,0 c0-0.02,0-0.03,0-0.05c-0.16-0.01-0.33-0.02-0.49-0.03c-0.03,0-0.06-0.01-0.09-0.01c-0.2-0.03-0.4-0.07-0.61-0.08 C9.64,1.33,9.01,1.41,8.38,1.54C7.79,1.66,7.22,1.82,6.66,2.03C6.07,2.25,5.51,2.53,4.97,2.87C4.64,3.09,4.32,3.31,4.04,3.58 C3.72,3.89,3.46,4.24,3.21,4.6C3.04,4.85,2.84,5.08,2.7,5.35C2.52,5.69,2.38,6.05,2.22,6.4C2.06,6.77,1.91,7.15,1.81,7.54 C1.63,8.16,1.47,8.78,1.51,9.43C1.52,9.51,1.49,9.6,1.48,9.68c-0.01,0.07-0.03,0.14,0.05,0.2c0.01-0.07,0.01-0.13,0.02-0.19 c0.06-0.32,0.12-0.64,0.19-0.96C1.77,8.55,1.81,8.38,1.85,8.2c0.04-0.16,0.1-0.31,0.14-0.47c0.02-0.07,0.03-0.15,0.05-0.21 c0.16-0.37,0.3-0.75,0.49-1.11c0.12-0.22,0.29-0.42,0.45-0.62C3.07,5.7,3.17,5.62,3.26,5.54z M9.2,8.47c0,0.16,0.01,0.32,0,0.47 C9.18,9.27,9.13,9.59,9.02,9.9c-0.08,0.21-0.21,0.36-0.43,0.44c-0.21,0.07-0.31,0.01-0.37-0.2C8.1,9.71,8.11,9.28,8.17,8.85 c0.06-0.47,0.16-0.93,0.32-1.38c0.01-0.03-0.01-0.09-0.02-0.1c-0.04-0.01-0.09,0-0.12,0.02C8.31,7.41,8.29,7.47,8.26,7.5 C8.17,7.62,8.08,7.74,7.91,7.77C7.77,7.8,7.72,7.85,7.72,7.99C7.71,8.32,7.68,8.65,7.71,8.97c0.03,0.42,0.1,0.84,0.15,1.26 c0.03,0.24,0.02,0.28-0.19,0.36c-0.11,0.04-0.19,0.12-0.22,0.23c-0.01,0.04,0,0.11,0.02,0.13c0.03,0.02,0.09,0,0.13-0.02 c0.06-0.02,0.12-0.07,0.19-0.09c0.19-0.06,0.38-0.12,0.57-0.15c0.5-0.09,0.83-0.38,1.04-0.83c0.23-0.5,0.33-1.02,0.34-1.57 C9.75,7.9,9.69,7.52,9.57,7.15c-0.1-0.32-0.22-0.62-0.48-0.86C8.81,6.05,8.5,5.97,8.15,6.1C7.88,6.2,7.68,6.39,7.5,6.59 C7.28,6.83,7.13,7.1,7.04,7.41c-0.03,0.09,0,0.12,0.09,0.11c0.15-0.02,0.3-0.04,0.45-0.05c0.15-0.02,0.23-0.1,0.24-0.25 c0-0.06,0.01-0.13,0.01-0.19c0.02-0.24,0.11-0.43,0.3-0.57c0.21-0.15,0.41-0.14,0.6,0.04c0.14,0.14,0.23,0.3,0.29,0.49 C9.18,7.46,9.21,7.97,9.2,8.47z M10.44,6.52C10.44,6.52,10.44,6.52,10.44,6.52c0-0.25,0-0.5,0-0.74c0-0.25,0.11-0.34,0.35-0.28 c0.18,0.05,0.36,0.12,0.53,0.2c0.19,0.09,0.33,0.24,0.39,0.45c0.02,0.07,0.04,0.15,0.07,0.22c0.02,0.04,0.06,0.07,0.09,0.11 c0.03-0.04,0.07-0.08,0.09-0.12c0.01-0.03,0-0.08-0.01-0.11c-0.04-0.1-0.02-0.19,0.06-0.27c0.06-0.06,0.05-0.13,0-0.2 c-0.02-0.03-0.05-0.05-0.08-0.07c-0.19-0.11-0.37-0.24-0.57-0.33c-0.52-0.24-1.06-0.3-1.62-0.2c-0.05,0.01-0.12,0.02-0.12,0.1 c0,0.08,0.06,0.08,0.11,0.09c0.18,0.04,0.26,0.13,0.26,0.32c0,1.43,0,2.86,0,4.29c0,0.17-0.01,0.2-0.18,0.25 c-0.08,0.03-0.09,0.09-0.09,0.16c0.01,0.07,0.05,0.1,0.12,0.1c0.38,0,0.76,0.01,1.14,0.01c0.1,0,0.2,0.02,0.3,0.03 c0.15,0.02,0.29,0.05,0.44,0.06c0.11,0.01,0.16-0.05,0.16-0.16c0-0.05,0-0.1,0-0.15c-0.01-0.11,0.03-0.19,0.12-0.26 c0.03-0.02,0.06-0.05,0.06-0.08c0-0.06-0.01-0.11-0.02-0.17c-0.05,0.01-0.11,0-0.15,0.03c-0.08,0.04-0.15,0.11-0.22,0.15 c-0.25,0.15-0.51,0.25-0.8,0.23c-0.29-0.01-0.43-0.14-0.43-0.42c0-0.43-0.01-0.86,0-1.29c0-0.31,0.29-0.51,0.57-0.4 c0.13,0.05,0.24,0.14,0.3,0.27c0.03,0.06,0.08,0.1,0.16,0.07c0.08-0.03,0.09-0.09,0.07-0.17c-0.01-0.02-0.02-0.04-0.02-0.06 c-0.06-0.14-0.09-0.29-0.05-0.44c0.03-0.13,0.06-0.26,0.08-0.39c0.02-0.08-0.02-0.12-0.11-0.11c-0.08,0.01-0.1,0.08-0.12,0.13 c-0.03,0.07-0.05,0.14-0.09,0.2c-0.14,0.16-0.35,0.18-0.53,0.14c-0.15-0.03-0.19-0.2-0.22-0.34c-0.01-0.06-0.02-0.13-0.02-0.19 C10.44,6.96,10.44,6.74,10.44,6.52z M7.48,9.49c-0.01-0.15-0.02-0.3-0.03-0.45c-0.04-0.29-0.1-0.58-0.29-0.83 C6.99,7.98,6.63,7.92,6.41,8.1C6.29,8.2,6.18,8.31,6.08,8.44c-0.44,0.59-0.58,1.27-0.5,1.99c0.03,0.26,0.13,0.49,0.33,0.66 c0.15,0.12,0.3,0.21,0.51,0.17c0.38-0.08,0.63-0.32,0.81-0.65C7.43,10.27,7.48,9.88,7.48,9.49z M13.33,10.46 c-0.27-0.01-0.45-0.17-0.45-0.44c-0.01-0.35-0.01-0.69-0.01-1.04c0-0.21-0.01-0.42-0.01-0.63c0-0.48,0-0.97,0-1.45 c0-0.16,0.08-0.28,0.23-0.33c0.08-0.03,0.08-0.07,0.04-0.13c-0.02-0.03-0.04-0.06-0.06-0.08c-0.19-0.16-0.39-0.31-0.59-0.46 c-0.06-0.04-0.11-0.01-0.12,0.07c0,0.04,0,0.08,0.01,0.11c0.02,0.12,0.05,0.24,0.06,0.36c0.02,0.48,0.04,0.96,0.04,1.44 c0,0.39-0.01,0.78-0.01,1.18c0,0.32-0.01,0.64-0.02,0.96c-0.01,0.2-0.08,0.38-0.26,0.5c-0.07,0.04-0.06,0.11,0.01,0.13 c0.07,0.02,0.14,0.01,0.22,0.01c0.09,0,0.18-0.02,0.27-0.01c0.31,0.04,0.6,0.16,0.89,0.27c0.05,0.02,0.11,0.03,0.17,0.03 c0.06,0,0.11-0.03,0.1-0.11c-0.03-0.16,0.02-0.31,0.06-0.46c0.02-0.08-0.02-0.12-0.1-0.09c-0.04,0.01-0.07,0.04-0.11,0.06 C13.55,10.36,13.44,10.41,13.33,10.46z M13.92,11.01c0.05,0.09,0.12,0.07,0.19,0.07c0.12,0.01,0.25,0.01,0.37,0.04 c0.17,0.05,0.33,0.13,0.49,0.2c0.1,0.04,0.2,0.1,0.31,0.13c0.11,0.03,0.15-0.02,0.14-0.12c-0.01-0.1-0.01-0.2-0.01-0.31 c0-0.08-0.04-0.12-0.1-0.08c-0.19,0.12-0.37,0.09-0.56,0.03c-0.12-0.04-0.19-0.12-0.19-0.24c-0.01-0.13-0.01-0.26-0.01-0.38 c-0.01-0.39-0.01-0.77-0.02-1.16c0-0.23,0-0.46,0.02-0.68c0.01-0.08,0.06-0.18,0.12-0.24c0.06-0.06,0.07-0.11,0.04-0.18 c-0.1-0.23-0.28-0.4-0.45-0.57c-0.02-0.02-0.06-0.03-0.1-0.04c-0.01,0.04-0.04,0.08-0.03,0.11c0.08,0.31,0.06,0.63,0.07,0.95 c0.01,0.54,0.01,1.08,0,1.61c0,0.14,0,0.29-0.01,0.43C14.16,10.77,14.08,10.91,13.92,11.01z M10.61,11.98 c0.03,0.05,0.05,0.06,0.06,0.09c0.14,0.33,0.28,0.66,0.43,0.99c0.02,0.06,0.02,0.15,0.11,0.13c0.04-0.01,0.07-0.1,0.08-0.15 c0.05-0.33,0.09-0.65,0.15-0.98c0.05-0.3,0.08-0.62,0.23-0.9c0.01-0.02,0-0.06-0.01-0.06c-0.1-0.02-0.2-0.04-0.29-0.05 c0.04,0.54-0.05,1.04-0.19,1.54c-0.03-0.02-0.05-0.05-0.06-0.07c-0.09-0.19-0.18-0.38-0.27-0.57c-0.04-0.09-0.08-0.18-0.02-0.28 c0.04-0.07,0-0.14-0.05-0.18c-0.05-0.03-0.12-0.06-0.17-0.05c-0.04,0.02-0.07,0.09-0.09,0.15c-0.01,0.03-0.01,0.07,0,0.11 c0.04,0.28-0.13,0.5-0.23,0.73c-0.03-0.09-0.06-0.17-0.07-0.26c-0.07-0.34-0.14-0.68-0.2-1.03c-0.01-0.06-0.04-0.07-0.09-0.07 c-0.07,0.01-0.13,0.01-0.2,0c-0.07,0-0.09,0.03-0.07,0.09c0.07,0.2,0.14,0.39,0.2,0.59c0.11,0.44,0.22,0.89,0.32,1.33 c0.01,0.03,0.03,0.06,0.05,0.09c0.02-0.02,0.06-0.04,0.07-0.07c0.05-0.16,0.11-0.32,0.15-0.47C10.49,12.43,10.54,12.22,10.61,11.98z  M7.66,12.54c0.14-0.01,0.27,0.03,0.38,0.17c0.17,0.21,0.33,0.43,0.49,0.64c0.07,0.09,0.13,0.17,0.2,0.26 c0.02,0.02,0.05,0.02,0.08,0.02c0.01,0,0.02-0.04,0.02-0.06c0.01-0.05,0.02-0.09,0.02-0.14c0-0.04-0.01-0.1-0.02-0.1 c-0.12-0.05-0.18-0.16-0.23-0.26c-0.1-0.17-0.19-0.34-0.36-0.46c-0.09-0.06-0.19-0.11-0.29-0.17c0.15-0.11,0.22-0.26,0.25-0.44 c0.02-0.2-0.03-0.37-0.2-0.49c-0.16-0.11-0.33-0.1-0.49,0.01c-0.11,0.08-0.23,0.11-0.36,0.11c-0.04,0-0.07,0.03-0.11,0.05 c0.03,0.03,0.05,0.07,0.09,0.09c0.07,0.04,0.11,0.08,0.14,0.16c0.08,0.27,0.17,0.53,0.24,0.79c0.06,0.21,0.09,0.43,0.14,0.64 c0,0.02,0.06,0.04,0.08,0.04c0.06-0.01,0.12-0.03,0.17-0.05c0.02-0.01,0.04-0.02,0.05-0.04c0-0.02-0.01-0.04-0.02-0.05 c-0.02-0.03-0.07-0.05-0.08-0.08C7.77,12.97,7.71,12.76,7.66,12.54z M13.33,12.85c-0.02-0.06-0.05-0.12-0.07-0.18 c-0.08-0.25-0.16-0.51-0.24-0.76c-0.05-0.15-0.13-0.29-0.11-0.45c0-0.02-0.04-0.06-0.07-0.06c-0.07-0.02-0.15-0.03-0.23-0.04 c-0.06-0.01-0.1,0.02-0.09,0.09c0.01,0.05,0.02,0.1,0.02,0.15c0.01,0.32-0.04,0.63-0.12,0.93c-0.06,0.21-0.15,0.42-0.24,0.63 c-0.04,0.08-0.09,0.14,0.02,0.2c0.02,0.01,0.03,0.04,0.04,0.05c0.02,0.02,0.04,0.05,0.07,0.07c0.02-0.03,0.04-0.05,0.06-0.08 c0.01-0.02,0.02-0.04,0.02-0.06c0.1-0.41,0.19-0.82,0.29-1.22c0.02-0.09,0.05-0.19,0.07-0.3c0.02,0.04,0.03,0.05,0.04,0.07 c0.1,0.31,0.2,0.61,0.29,0.92c0.06,0.18,0.12,0.37,0.18,0.55c0.01,0.04,0.06,0.07,0.09,0.1c0.02-0.04,0.06-0.07,0.07-0.11 c0.05-0.2,0.08-0.4,0.13-0.59c0.09-0.33,0.14-0.68,0.3-0.99c0.03-0.05,0-0.07-0.05-0.08c-0.05-0.01-0.11-0.03-0.16-0.04 c-0.03-0.01-0.05-0.02-0.08-0.02c-0.02,0.22-0.03,0.44-0.06,0.64C13.47,12.44,13.44,12.65,13.33,12.85z M5.76,12.17 c-0.01,0.01-0.02,0.02-0.03,0.02c0.03,0.04,0.05,0.1,0.08,0.1c0.15,0.03,0.2,0.15,0.24,0.26c0.11,0.29,0.19,0.58,0.31,0.86 c0.05,0.14,0.08,0.27,0.01,0.4c-0.01,0.02,0,0.05,0,0.08c0.03-0.01,0.07-0.01,0.09-0.02c0.09-0.06,0.18-0.13,0.28-0.18 c0.08-0.05,0.18-0.08,0.26-0.12c0.18-0.08,0.35-0.36,0.33-0.55c-0.04-0.32-0.27-0.51-0.62-0.47c0.01-0.06,0.02-0.12,0.03-0.18 c0.04-0.2-0.01-0.36-0.16-0.45c-0.16-0.09-0.28-0.01-0.39,0.08C6.07,12.13,5.92,12.18,5.76,12.17z M15.12,13.2 c0.01-0.01,0.02-0.02,0.02-0.03c-0.04-0.04-0.07-0.09-0.11-0.12c-0.17-0.11-0.36-0.13-0.55-0.15c-0.02,0-0.04,0.02-0.06,0.03 c0.01,0.02,0.02,0.04,0.04,0.06c0.02,0.01,0.05,0.02,0.07,0.03c0.17,0.07,0.2,0.12,0.16,0.3c-0.01,0.02-0.01,0.05-0.02,0.07 c-0.05,0.19-0.22,0.21-0.35,0.17c-0.14-0.04-0.22-0.15-0.24-0.28c-0.02-0.1-0.02-0.21-0.01-0.31c0.02-0.29,0.11-0.55,0.32-0.76 c0.12-0.12,0.34-0.14,0.47-0.06c0.14,0.09,0.2,0.29,0.14,0.46c-0.01,0.02,0.01,0.06,0.01,0.08c0.03-0.01,0.06-0.02,0.08-0.04 c0.04-0.04,0.05-0.1,0.09-0.12c0.11-0.06,0.14-0.1,0.02-0.18c-0.06-0.05-0.09-0.14-0.15-0.2c-0.21-0.23-0.47-0.31-0.76-0.13 c-0.13,0.09-0.23,0.2-0.31,0.34c-0.11,0.19-0.15,0.41-0.16,0.63c0,0.13,0.01,0.26,0.04,0.38c0.07,0.29,0.28,0.42,0.58,0.36 c0.1-0.02,0.21-0.01,0.31-0.01c0.04,0,0.08,0,0.12,0.01c-0.01-0.04-0.01-0.08-0.02-0.11c-0.08-0.15,0.01-0.27,0.06-0.39 c0.04-0.09,0.11-0.04,0.18-0.05C15.09,13.21,15.1,13.2,15.12,13.2z M10.07,14c0,0.01-0.01,0.02-0.01,0.03 c-0.17-0.01-0.32,0.03-0.45,0.15c-0.22,0.22-0.29,0.49-0.26,0.79c0.03,0.35,0.21,0.59,0.54,0.7c0.19,0.07,0.38,0.1,0.57-0.01 c0.06-0.03,0.13-0.02,0.2-0.03c0.03-0.01,0.07-0.02,0.07-0.03c0.01-0.02,0-0.07-0.02-0.08c-0.08-0.05-0.09-0.11-0.07-0.2 c0.01-0.02-0.02-0.05-0.03-0.08c-0.03,0.02-0.06,0.04-0.08,0.06c-0.01,0.01-0.01,0.04-0.02,0.06c-0.06,0.14-0.16,0.21-0.3,0.2 c-0.16-0.02-0.29-0.1-0.38-0.23c-0.23-0.32-0.19-0.65-0.04-0.98c0.09-0.22,0.39-0.22,0.54-0.08c0.07,0.07,0.07,0.13,0,0.2 c-0.02,0.02-0.05,0.03-0.08,0.06c-0.02,0.02-0.02,0.04-0.04,0.06c0.02,0.01,0.04,0.02,0.06,0.02c0.05,0.01,0.1,0.03,0.16,0.03 c0.02,0,0.05-0.01,0.06-0.02c0.07-0.12,0.09-0.42-0.09-0.51C10.28,14.07,10.17,14.04,10.07,14z M9.69,12.5 c-0.03,0.05-0.05,0.07-0.06,0.1c-0.11,0.27-0.31,0.3-0.5,0.28c-0.08-0.01-0.11-0.05-0.12-0.13c-0.02-0.14-0.04-0.28-0.06-0.42 c-0.02-0.15,0.11-0.24,0.25-0.18c0.02,0.01,0.04,0.03,0.07,0.04c0.07,0.04,0.1,0.01,0.1-0.06c0-0.1,0-0.2,0-0.29 c0-0.03-0.03-0.06-0.05-0.09c-0.02,0.02-0.05,0.04-0.06,0.06c-0.02,0.03-0.03,0.07-0.06,0.09c-0.04,0.03-0.1,0.07-0.14,0.07 c-0.07,0-0.14-0.04-0.15-0.12c-0.02-0.14-0.04-0.29-0.05-0.43c0-0.02,0.04-0.07,0.06-0.08c0.11-0.02,0.22-0.02,0.32,0.05 c0.04,0.03,0.07,0.06,0.12,0.08c0.02,0.01,0.06,0.01,0.08-0.01c0.03-0.03-0.06-0.29-0.1-0.3c-0.01,0-0.03,0-0.04,0 c-0.23,0.04-0.46,0.08-0.69,0.12c-0.08,0.02-0.08,0.06-0.03,0.12c0.03,0.04,0.06,0.08,0.07,0.13c0.04,0.25,0.09,0.49,0.12,0.74 c0.03,0.25,0.09,0.5,0.05,0.75c-0.01,0.07,0.04,0.1,0.11,0.09c0.22-0.03,0.44-0.06,0.66-0.1c0.05-0.01,0.12-0.03,0.12-0.06 c0.02-0.11,0.03-0.23,0.04-0.34C9.73,12.58,9.71,12.55,9.69,12.5z M11.22,14.19c-0.16,0-0.27,0.07-0.32,0.21 c-0.08,0.22-0.08,0.44,0.03,0.65c0.12,0.22,0.39,0.26,0.57,0.08c0.11-0.11,0.16-0.24,0.17-0.4C11.69,14.41,11.51,14.18,11.22,14.19z  M11.97,11.21c-0.02,0.24-0.03,0.48-0.06,0.71c-0.05,0.35-0.06,0.7-0.2,1.03c-0.01,0.02,0.02,0.08,0.04,0.09 c0.04,0.02,0.1,0.03,0.15,0.04c0.06,0.02,0.07-0.01,0.08-0.06c0.01-0.2,0.02-0.4,0.05-0.59c0.04-0.33,0.1-0.65,0.15-0.97 c0.01-0.06,0.11-0.12,0.04-0.19c-0.05-0.04-0.13-0.04-0.2-0.06C11.99,11.21,11.98,11.21,11.97,11.21z M7.23,14.64 c0,0.01-0.01,0.02-0.01,0.03c0.03,0.02,0.05,0.05,0.08,0.05c0.12,0.03,0.23,0.07,0.35,0.09c0.34,0.06,0.68,0.12,1.02,0.17 c0.2,0.03,0.22,0.01,0.19-0.18c0-0.02-0.03-0.05-0.06-0.06c-0.04-0.01-0.08-0.02-0.11-0.02c-0.42,0.01-0.85-0.02-1.27-0.08 C7.36,14.64,7.3,14.65,7.23,14.64z M13.71,14.61c0-0.01-0.01-0.03-0.01-0.04c-0.03,0-0.06,0-0.1,0c-0.43,0.03-0.86,0.06-1.28,0.09 c-0.06,0-0.12,0.01-0.17,0.03c-0.02,0.01,0.01,0.08,0,0.12c-0.01,0.07,0.03,0.08,0.08,0.07c0.09-0.01,0.17-0.02,0.26-0.03 c0.38-0.01,0.74-0.07,1.09-0.19C13.62,14.66,13.67,14.63,13.71,14.61z M8.1,13.92c-0.01,0.01-0.01,0.02-0.02,0.03 c0.02,0.04,0.04,0.08,0.07,0.11c0.24,0.17,0.49,0.34,0.74,0.5c0.06,0.04,0.1,0,0.12-0.06c0.03-0.06,0.01-0.09-0.05-0.12 c-0.24-0.13-0.48-0.27-0.73-0.41C8.19,13.95,8.15,13.94,8.1,13.92z M8.21,15.78c0.01,0.01,0.01,0.02,0.02,0.03 c0.04-0.01,0.09-0.01,0.13-0.03c0.19-0.08,0.37-0.16,0.55-0.25c0.08-0.04,0.16-0.07,0.23-0.11c0.02-0.01,0.05-0.03,0.05-0.05 c0.01-0.06-0.12-0.14-0.17-0.11c-0.26,0.15-0.51,0.3-0.77,0.46C8.23,15.73,8.22,15.76,8.21,15.78z M12.9,15.72 c0.01-0.01,0.02-0.03,0.02-0.04c-0.04-0.04-0.08-0.08-0.12-0.11c-0.21-0.13-0.43-0.26-0.65-0.39c-0.09-0.05-0.13-0.04-0.19,0.06 c-0.05,0.08,0.05,0.08,0.08,0.11c0.01,0.01,0.04,0.01,0.05,0.02c0.22,0.09,0.46,0.16,0.66,0.3C12.8,15.71,12.85,15.71,12.9,15.72z  M12.04,14.36c0.01,0.03,0.03,0.05,0.03,0.08c0.02,0.08,0.06,0.07,0.12,0.04c0.22-0.14,0.41-0.32,0.58-0.51 c0.02-0.02,0.01-0.05,0.02-0.08c-0.03,0-0.06,0-0.08,0.01C12.49,14.05,12.27,14.2,12.04,14.36z M11.65,15.45 c-0.13,0.07-0.26,0.05-0.38,0.01c-0.11-0.03-0.19,0.01-0.27,0.07c-0.03,0.02-0.05,0.06-0.08,0.11c0.05,0,0.07,0.01,0.09,0 c0.08-0.05,0.17-0.04,0.26-0.01c0.06,0.02,0.12,0.02,0.18,0C11.53,15.61,11.62,15.57,11.65,15.45z M7.09,9.43 c-0.01,0.43-0.05,0.82-0.25,1.17c-0.06,0.11-0.15,0.21-0.24,0.29c-0.12,0.1-0.22,0.08-0.33-0.03c-0.17-0.17-0.23-0.38-0.25-0.61 C5.95,9.73,6.06,9.24,6.28,8.77c0.05-0.12,0.13-0.23,0.22-0.33c0.15-0.18,0.3-0.12,0.4,0.06C7,8.69,7.04,8.9,7.07,9.11 C7.08,9.23,7.08,9.35,7.09,9.43z M10.64,11.55c0.09,0.08,0.08,0.13-0.02,0.2C10.63,11.69,10.63,11.63,10.64,11.55z M7.98,11.9 c0.01,0.23-0.19,0.42-0.34,0.38c-0.03-0.01-0.08-0.04-0.09-0.07C7.52,12.1,7.5,12,7.48,11.89c-0.01-0.07,0.08-0.19,0.17-0.23 c0.09-0.04,0.17-0.02,0.22,0.05C7.92,11.79,7.96,11.86,7.98,11.9z M7.08,13.14c0,0.14-0.16,0.35-0.3,0.38 c-0.06,0.01-0.12,0.01-0.15-0.06c-0.05-0.12-0.12-0.24-0.16-0.37c-0.04-0.11,0.05-0.24,0.18-0.31c0.11-0.06,0.22-0.04,0.3,0.06 c0.06,0.09,0.1,0.19,0.15,0.28C7.1,13.13,7.09,13.13,7.08,13.14z M6.19,12.35c0-0.17,0.07-0.25,0.2-0.26 c0.1-0.01,0.18,0.06,0.19,0.18c0.01,0.14-0.02,0.27-0.11,0.37c-0.08,0.09-0.16,0.08-0.2-0.03C6.24,12.51,6.21,12.41,6.19,12.35z  M11.26,14.34c0.09,0.01,0.14,0.07,0.16,0.13c0.07,0.18,0.06,0.36-0.02,0.54c-0.03,0.07-0.08,0.14-0.17,0.12 c-0.05-0.01-0.12-0.07-0.14-0.12C11,14.82,11,14.62,11.12,14.44C11.15,14.4,11.21,14.37,11.26,14.34z"/></svg>