<svg xmlns="http://www.w3.org/2000/svg" viewBox="0 0 20 20" class="portfolio-client"><path d="M4.95,7.9c-0.46,0-0.82,0.37-0.82,0.86c0,0.5,0.36,0.88,0.82,0.88c0.17,0,0.36-0.06,0.49-0.16L5.17,9.22l0.18-0.2 l0.26,0.26c0.1-0.14,0.16-0.33,0.16-0.52C5.78,8.27,5.42,7.9,4.95,7.9z M16.05,11.61c-0.28,0-0.44,0.2-0.44,0.53c0,0.33,0.18,0.56,0.47,0.56c0.22,0,0.42-0.13,0.42-0.55 C16.5,11.73,16.3,11.61,16.05,11.61z M11.12,1.52c-4.68,0-8.48,3.79-8.48,8.48s3.79,8.48,8.48,8.48s8.47-3.79,8.47-8.48S15.8,1.52,11.12,1.52z M5.51,11.02H4.75 v1.97H4.43v-1.97H3.66v-0.27h1.85V11.02z M4.95,9.93C4.3,9.93,3.8,9.42,3.8,8.76c0-0.65,0.5-1.14,1.15-1.14 c0.65,0,1.15,0.5,1.15,1.14C6.1,9.04,6,9.3,5.84,9.5l0.27,0.25l-0.18,0.2L5.66,9.69C5.47,9.85,5.22,9.93,4.95,9.93z M7.32,12.99 H7.01v-0.96c0-0.22-0.05-0.4-0.31-0.4c-0.24,0-0.44,0.16-0.51,0.4c-0.02,0.06-0.03,0.14-0.03,0.21v0.75H5.86v-2.24h0.31v0.82 c0,0.08-0.01,0.13-0.01,0.13h0.01c0.07-0.15,0.27-0.36,0.59-0.36c0.38,0,0.55,0.21,0.55,0.61L7.32,12.99L7.32,12.99z M7.65,9.57 C7.58,9.72,7.37,9.93,7.06,9.93c-0.36,0-0.55-0.19-0.55-0.62V8.29h0.31v0.96c0,0.22,0.04,0.4,0.3,0.4c0.33,0,0.52-0.29,0.52-0.61 V8.29h0.31v1.6h-0.3V9.68C7.65,9.62,7.65,9.57,7.65,9.57L7.65,9.57z M8.18,12.99H7.87v-1.61h0.31V12.99z M8.18,11.06H7.86v-0.31 h0.31V11.06z M8.74,9.89H8.43v-1.6h0.31V9.89z M8.74,7.97H8.43V7.66h0.31V7.97z M10.2,12.99H9.89v-0.96c0-0.22-0.05-0.4-0.31-0.4 c-0.24,0-0.44,0.16-0.51,0.39c-0.02,0.06-0.03,0.14-0.03,0.22v0.75H8.75v-1.61h0.3v0.21c0,0.06-0.01,0.12-0.01,0.12h0.01 c0.06-0.14,0.25-0.37,0.6-0.37c0.38,0,0.55,0.21,0.55,0.61L10.2,12.99L10.2,12.99z M9.96,9.93c-0.5,0-0.86-0.36-0.86-0.84 c0-0.48,0.36-0.84,0.86-0.84c0.4,0,0.6,0.23,0.6,0.23L10.42,8.7c0,0-0.17-0.18-0.44-0.18c-0.32,0-0.56,0.24-0.56,0.57 c0,0.33,0.23,0.58,0.57,0.58c0.3,0,0.49-0.22,0.49-0.22l0.12,0.22C10.61,9.68,10.38,9.93,9.96,9.93z M11.78,12.99l-0.48-0.76h-0.23 v0.76h-0.31v-2.24h0.31v1.22h0.23l0.44-0.59h0.35l-0.53,0.71v0.01l0.59,0.89L11.78,12.99L11.78,12.99z M11.98,9.89l-0.48-0.76 h-0.23v0.76h-0.31V7.65h0.31v1.23h0.23l0.44-0.59h0.35L11.74,9V9l0.59,0.89L11.98,9.89L11.98,9.89z M12.82,12.99h-0.31v-1.61h0.31 V12.99z M12.82,11.06h-0.31v-0.31h0.31V11.06z M14.85,12.99h-0.31v-0.96c0-0.22-0.05-0.4-0.31-0.4c-0.24,0-0.44,0.16-0.51,0.39 c-0.02,0.06-0.02,0.14-0.02,0.22v0.75H13.4v-1.61h0.3v0.21c0,0.06-0.01,0.12-0.01,0.12h0.01c0.06-0.14,0.25-0.37,0.6-0.37 c0.38,0,0.55,0.21,0.55,0.61L14.85,12.99L14.85,12.99z M16.8,12.92c0,0.53-0.4,0.73-0.81,0.73c-0.19,0-0.39-0.05-0.55-0.13 l0.1-0.24c0,0,0.2,0.11,0.44,0.11c0.28,0,0.51-0.12,0.51-0.45v-0.12c0-0.05,0-0.1,0-0.1h-0.01c-0.1,0.16-0.24,0.25-0.48,0.25 c-0.45,0-0.72-0.36-0.72-0.82c0-0.46,0.26-0.8,0.7-0.8c0.39,0,0.5,0.24,0.5,0.24h0.01c0,0,0-0.02,0-0.05v-0.15h0.29V12.92z"/><circle cx="2.65" cy="15.64" r="1.36"/><circle cx="0.92" cy="17" r="0.51"/></svg>