<svg xmlns="http://www.w3.org/2000/svg" viewBox="0 0 20 20" class="portfolio-client"><rect x="15.76" y="9.27" width="0.44" height="1.73"/><rect x="5.54" y="9.27" width="0.44" height="1.73"/><path d="M7.58,10.94c-0.14,0.03-0.3,0.05-0.48,0.05c-0.64,0-0.95-0.3-0.95-0.9c0-0.55,0.32-0.83,0.95-0.83 c0.17,0,0.33,0.02,0.48,0.05v0.34C7.44,9.62,7.29,9.61,7.14,9.61c-0.37,0-0.55,0.16-0.55,0.48c0,0.37,0.18,0.55,0.55,0.55 c0.15,0,0.3-0.02,0.44-0.05V10.94z M10.88,10.3H9.76c0,0.23,0.19,0.35,0.57,0.35c0.17,0,0.35-0.02,0.52-0.05v0.34 c-0.15,0.03-0.35,0.05-0.59,0.05c-0.63,0-0.94-0.3-0.94-0.88c0-0.56,0.29-0.84,0.86-0.84C10.75,9.27,10.99,9.61,10.88,10.3  M9.76,9.98h0.72c0.02-0.25-0.1-0.37-0.34-0.37C9.9,9.61,9.78,9.73,9.76,9.98 M11.07,8.99h0.32l0.07,0.28h0.4v0.34h-0.35v0.79 c0,0.16,0.07,0.24,0.21,0.24h0.14v0.34h-0.35c-0.29,0-0.44-0.16-0.44-0.47L11.07,8.99L11.07,8.99z M12.22,9.03h0.1l0.03,0.27h0.42 v0.14h-0.39v1.07c0,0.22,0.08,0.33,0.25,0.33h0.14V11h-0.14c-0.28,0-0.42-0.15-0.42-0.45L12.22,9.03L12.22,9.03L12.22,9.03z  M12.87,10.15c0-0.56,0.27-0.84,0.8-0.84c0.54,0,0.8,0.28,0.8,0.84c0,0.56-0.27,0.84-0.8,0.84C13.14,11,12.87,10.72,12.87,10.15  M13.67,10.85c0.42,0,0.64-0.23,0.64-0.71c0-0.46-0.21-0.69-0.64-0.69c-0.42,0-0.64,0.23-0.64,0.69 C13.04,10.62,13.25,10.85,13.67,10.85 M0.21,8.65V8.9c0,0.11,0.04,0.2,0.13,0.29c0.08,0.08,0.19,0.12,0.31,0.12h0.44v1.45H0.62l0,0 c-0.11,0-0.21,0.04-0.3,0.12c-0.08,0.08-0.12,0.18-0.12,0.29v0.25h1.12l0,0c0.11,0,0.21-0.04,0.29-0.12 c0.08-0.07,0.12-0.16,0.12-0.27l0,0V8.65C1.73,8.65,0.21,8.65,0.21,8.65z M3.42,8.65V8.9c0,0.11-0.04,0.2-0.13,0.29 C3.21,9.27,3.1,9.31,2.98,9.31H2.55v1.45h0.46l0,0c0.11,0,0.21,0.04,0.3,0.12c0.08,0.08,0.12,0.17,0.12,0.28v0.25H2.31l0,0 c-0.11,0-0.21-0.04-0.29-0.12c-0.08-0.07-0.12-0.16-0.12-0.27l0,0V8.65H3.42z M2.15,8.4c0,0.07-0.06,0.13-0.13,0.13h-0.4 c-0.07,0-0.13-0.06-0.13-0.13V8c0-0.07,0.06-0.13,0.13-0.13h0.4c0.07,0,0.13,0.06,0.13,0.13V8.4z M4.59,8.99h0.32l0.07,0.28h0.4 v0.34H5.02v0.79c0,0.16,0.07,0.24,0.21,0.24h0.14v0.34H5.02c-0.29,0-0.44-0.16-0.44-0.47C4.59,10.52,4.59,8.99,4.59,8.99z M5.6,8.93 C5.64,8.98,5.69,9,5.75,9h0.23V8.87c0-0.06-0.02-0.11-0.06-0.15C5.88,8.67,5.83,8.65,5.77,8.65H5.55v0.13 C5.54,8.84,5.56,8.89,5.6,8.93 M19.74,10.3h-1.13c0,0.23,0.19,0.35,0.57,0.35c0.17,0,0.35-0.02,0.52-0.05v0.34 c-0.15,0.03-0.35,0.05-0.59,0.05c-0.63,0-0.94-0.3-0.94-0.88c0-0.56,0.29-0.84,0.86-0.84C19.61,9.27,19.85,9.61,19.74,10.3  M18.61,9.98h0.72c0.02-0.25-0.1-0.37-0.34-0.37C18.76,9.61,18.64,9.73,18.61,9.98 M18.03,10.89c-0.27,0.07-0.53,0.1-0.81,0.1 c-0.58,0-0.87-0.3-0.87-0.9c0-0.55,0.28-0.83,0.84-0.83c0.15,0,0.28,0.03,0.41,0.08V8.64h0.44L18.03,10.89L18.03,10.89z M17.59,9.72 c-0.11-0.06-0.25-0.09-0.41-0.09c-0.27,0-0.41,0.15-0.41,0.45c0,0.36,0.13,0.54,0.41,0.54c0.16,0,0.29-0.02,0.41-0.07V9.72z  M14.72,10.99V9.27h0.33l0.05,0.22c0.15-0.15,0.31-0.22,0.48-0.22v0.35c-0.16,0-0.31,0.07-0.44,0.22v1.15 C15.15,10.99,14.72,10.99,14.72,10.99z M15.82,8.93C15.86,8.98,15.91,9,15.97,9h0.23V8.87c0-0.06-0.02-0.11-0.06-0.15 c-0.04-0.04-0.09-0.07-0.15-0.07h-0.22v0.13C15.76,8.84,15.78,8.89,15.82,8.93"/><polygon points="9.38,9.27 8.86,9.27 8.31,10 8.31,10.26 8.86,10.99 9.38,10.99 8.73,10.13 "/><rect x="7.79" y="8.64" width="0.44" height="2.35"/></svg>