<svg class="portfolio-client" xmlns="http://www.w3.org/2000/svg" viewBox="0 0 200 100"><rect x="158.11" y="45.87" width="4.43" height="17.41"/><rect x="55.28" y="45.87" width="4.43" height="17.41"/><path d="M75.81,62.67c-1.41,0.3-3.02,0.5-4.83,0.5c-6.44,0-9.56-3.02-9.56-9.05c0-5.53,3.22-8.35,9.56-8.35 c1.71,0,3.32,0.2,4.83,0.5v3.42c-1.41-0.3-2.92-0.4-4.43-0.4c-3.72,0-5.53,1.61-5.53,4.83c0,3.72,1.81,5.53,5.53,5.53 c1.51,0,3.02-0.2,4.43-0.5V62.67z M109.01,56.24H97.74c0,2.31,1.91,3.52,5.73,3.52c1.71,0,3.52-0.2,5.23-0.5v3.42 c-1.51,0.3-3.52,0.5-5.94,0.5c-6.34,0-9.46-3.02-9.46-8.85c0-5.63,2.92-8.45,8.65-8.45S110.11,49.29,109.01,56.24 M97.74,53.02h7.24 c0.2-2.52-1.01-3.72-3.42-3.72C99.15,49.29,97.94,50.5,97.74,53.02 M110.92,43.06h3.22l0.7,2.82h4.02v3.42h-3.52v7.95 c0,1.61,0.7,2.41,2.11,2.41h1.41v3.42h-3.52c-2.92,0-4.43-1.61-4.43-4.73L110.92,43.06L110.92,43.06z M122.49,43.46h1.01l0.3,2.72 h4.23v1.41h-3.92v10.77c0,2.21,0.8,3.32,2.52,3.32h1.41v1.61h-1.41c-2.82,0-4.23-1.51-4.23-4.53L122.49,43.46L122.49,43.46 L122.49,43.46z M129.03,54.73c0-5.63,2.72-8.45,8.05-8.45c5.43,0,8.05,2.82,8.05,8.45s-2.72,8.45-8.05,8.45 C131.75,63.28,129.03,60.46,129.03,54.73 M137.08,61.77c4.23,0,6.44-2.31,6.44-7.14c0-4.63-2.11-6.94-6.44-6.94 c-4.23,0-6.44,2.31-6.44,6.94C130.74,59.45,132.85,61.77,137.08,61.77 M1.66,39.63v2.52c0,1.11,0.4,2.01,1.31,2.92 c0.8,0.8,1.91,1.21,3.12,1.21h4.43v14.59H5.78l0,0c-1.11,0-2.11,0.4-3.02,1.21c-0.8,0.8-1.21,1.81-1.21,2.92v2.52h11.27l0,0 c1.11,0,2.11-0.4,2.92-1.21c0.8-0.7,1.21-1.61,1.21-2.72l0,0V39.63C16.95,39.63,1.66,39.63,1.66,39.63z M33.95,39.63v2.52 c0,1.11-0.4,2.01-1.31,2.92c-0.8,0.8-1.91,1.21-3.12,1.21H25.2v14.59h4.63l0,0c1.11,0,2.11,0.4,3.02,1.21 c0.8,0.8,1.21,1.71,1.21,2.82v2.52H22.78l0,0c-1.11,0-2.11-0.4-2.92-1.21c-0.8-0.7-1.21-1.61-1.21-2.72l0,0V39.63H33.95z  M21.17,37.12c0,0.7-0.6,1.31-1.31,1.31h-4.02c-0.7,0-1.31-0.6-1.31-1.31v-4.02c0-0.7,0.6-1.31,1.31-1.31h4.02 c0.7,0,1.31,0.6,1.31,1.31V37.12z M45.72,43.06h3.22l0.7,2.82h4.02v3.42h-3.62v7.95c0,1.61,0.7,2.41,2.11,2.41h1.41v3.42h-3.52 c-2.92,0-4.43-1.61-4.43-4.73C45.72,58.45,45.72,43.06,45.72,43.06z M55.89,42.45c0.4,0.5,0.91,0.7,1.51,0.7h2.31v-1.31 c0-0.6-0.2-1.11-0.6-1.51c-0.4-0.5-0.91-0.7-1.51-0.7h-2.21v1.31C55.28,41.55,55.48,42.05,55.89,42.45 M198.15,56.24h-11.37 c0,2.31,1.91,3.52,5.73,3.52c1.71,0,3.52-0.2,5.23-0.5v3.42c-1.51,0.3-3.52,0.5-5.94,0.5c-6.34,0-9.46-3.02-9.46-8.85 c0-5.63,2.92-8.45,8.65-8.45C196.84,45.87,199.26,49.29,198.15,56.24 M186.78,53.02h7.24c0.2-2.52-1.01-3.72-3.42-3.72 C188.29,49.29,187.08,50.5,186.78,53.02 M180.94,62.17c-2.72,0.7-5.33,1.01-8.15,1.01c-5.84,0-8.75-3.02-8.75-9.05 c0-5.53,2.82-8.35,8.45-8.35c1.51,0,2.82,0.3,4.13,0.8v-7.04h4.43L180.94,62.17L180.94,62.17z M176.52,50.4 c-1.11-0.6-2.52-0.91-4.13-0.91c-2.72,0-4.13,1.51-4.13,4.53c0,3.62,1.31,5.43,4.13,5.43c1.61,0,2.92-0.2,4.13-0.7V50.4z  M147.64,63.18V45.87h3.32l0.5,2.21c1.51-1.51,3.12-2.21,4.83-2.21v3.52c-1.61,0-3.12,0.7-4.43,2.21v11.57 C151.97,63.18,147.64,63.18,147.64,63.18z M158.71,42.45c0.4,0.5,0.91,0.7,1.51,0.7h2.31v-1.31c0-0.6-0.2-1.11-0.6-1.51 c-0.4-0.4-0.91-0.7-1.51-0.7h-2.21v1.31C158.11,41.55,158.31,42.05,158.71,42.45"/><polygon points="93.92,45.87 88.68,45.87 83.15,53.22 83.15,55.83 88.68,63.18 93.92,63.18 87.38,54.52 "/><rect x="77.92" y="39.53" width="4.43" height="23.64"/></svg>