<svg xmlns="http://www.w3.org/2000/svg" viewBox="0 0 20 20" class="portfolio-client"><path fill="#1766A6" d="M3.36,17.5c-0.03-0.09-0.11-0.3-0.14-0.46c-0.05-0.34,0.13-0.57,0.29-0.62c0.18-0.05,0.26,0.04,0.33,0.26 c0.09,0.33,0.1,0.76,0.07,1.38C3.87,18.9,3.45,19.92,2.4,19.9c-0.9-0.02-1.3-0.61-1.35-1.5c-0.02-0.42,0.01-0.84,0.18-1.44 c0.09-0.32,0.18-0.43,0.46-0.49c0.23-0.04,0.21,0.19,0.15,0.47c-0.11,0.62-0.16,0.91-0.12,1.61c0.04,0.74,0.38,1.03,0.75,1.03 c0.55,0.01,0.8-0.45,0.9-1.12C3.47,17.93,3.41,17.67,3.36,17.5z M15.18,18.23c0.22,0,0.28,0.26,0.23,0.41 c-0.05,0.15-0.24,0.33-0.52,0.38C14.82,18.87,14.79,18.23,15.18,18.23z M11.17,18.58c0-0.17-0.09-0.32-0.2-0.32 c-0.09,0-0.31,0.1-0.31,0.43c0,0.26,0.09,0.38,0.13,0.43C11.08,19.03,11.17,18.79,11.17,18.58z M7.97,16.49 c-0.01-0.16-0.14-0.28-0.32-0.28c-0.19,0-0.38,0.2-0.36,0.46c0.01,0.17,0.11,0.31,0.31,0.31C7.83,16.98,7.99,16.72,7.97,16.49z  M9.64,17.09c-0.02-0.29-0.09-0.42-0.24-0.41c-0.2,0.01-0.3,0.66-0.26,1.33c0.03,0.44,0.09,0.51,0.15,0.5 C9.41,18.51,9.68,17.73,9.64,17.09z M16.45,18.17c-0.13,0.53-0.51,1.3-1.09,1.3c-0.13,0-0.37-0.05-0.37-0.19 c0-0.14,0.9-0.16,0.9-0.85c0-0.26-0.24-0.62-0.59-0.62c-0.46,0-0.91,0.5-0.91,1.2c0,0.63,0.39,0.83,0.78,0.83 c0.68,0,1.09-0.55,1.3-1.02c0.1,0.31,0.16,1.02,0.42,1.02c0.1,0,0.17-0.05,0.3-0.33c0.31-0.69,0.61-1.48,1.02-1.48 c0.15,0,0.06,0.28,0.43,0.28c0.17,0,0.3-0.14,0.3-0.31c0-0.24-0.22-0.42-0.54-0.42c-0.97,0-1.17,1.45-1.32,1.45 c-0.26,0-0.17-1.16-0.36-1.16C16.56,17.88,16.48,18.08,16.45,18.17z M8.24,19.4c0.15,0,0.42-0.05,0.63-0.38 c-0.12-0.26-0.2-0.8-0.22-0.99c-0.06-1,0.32-1.93,0.74-1.96c0.31-0.02,0.55,0.27,0.58,0.74c0.08,1.24-0.34,1.76-0.54,2.2 c0.03,0.17,0.33,0.47,0.61,0.47c0.1,0,0.23-0.05,0.26-0.09c-0.02-0.07-0.04-0.16-0.04-0.3c0-0.72,0.46-1.32,0.86-1.32 c0.32,0,0.5,0.42,0.5,0.7c0,0.33-0.28,0.6-0.69,0.85c0.07,0.07,0.2,0.12,0.32,0.12c0.59,0,0.89-0.71,1.12-1.36 c0.04-0.12,0.11-0.3,0.26-0.3c0.25,0,0.35,1.62,0.76,1.62c0.18,0,0.32-0.36,0.32-0.64c0-0.21-0.07-0.23-0.07-0.52 c0-0.33,0.17-0.61,0.41-0.61c0.14,0,0.2,0.14,0.2,0.32c0,0.66-0.47,1.88-1.17,1.88c-0.52,0-0.48-0.9-0.67-0.9 c-0.21,0-0.49,0.91-1.51,0.91c-0.17,0-0.34-0.08-0.48-0.25c-0.25,0.16-0.45,0.24-0.69,0.24c-0.38,0-0.54-0.39-0.7-0.39 c-0.19,0-0.39,0.4-1.01,0.4c-0.49,0-0.57-0.66-0.75-0.66c-0.15,0-0.39,0.66-0.65,0.66c-0.43,0-0.52-1.14-0.9-1.14 c-0.3,0-1.24,1.16-1.49,1.13c-0.1-0.01-0.15-0.09-0.14-0.19c0.01-0.14,0.14-0.52,0.19-0.7c0.08-0.31,0.16-0.65,0.2-0.76 c0.04-0.11,0.16-0.19,0.25-0.18c0.05,0,0.06,0.09,0.07,0.16c0.05,0.25,0.12,0.51,0.21,0.51c0.14,0,0.62-0.91,0.9-0.91 c0.34,0,0.38,1.44,0.84,1.44c0.15,0,0.27-0.18,0.37-0.41c0.01-0.38,0.11-0.92,0.42-0.92c0.22,0,0.32,0.48,0.16,0.9 C7.69,19.28,8.02,19.4,8.24,19.4 M15.39,3.31c-0.08,0-0.19,0-0.25-0.12c-0.05-0.1-0.03-0.26-0.13-0.33c0.09,0.03,0.19,0.03,0.27,0.03 c0.25,0,0.48-0.17,0.66-0.17c0.12,0,0.16,0.08,0.16,0.15C16.1,3.11,15.62,3.31,15.39,3.31z M15.51,3.92c0.57,0,1.08-0.45,1.08-0.85 c0-0.19-0.09-0.34-0.31-0.37c0.04,0.05,0.05,0.09,0.05,0.17c0,0.3-0.46,0.63-0.95,0.63c-0.18,0-0.23,0.13-0.23,0.19 C15.15,3.86,15.3,3.92,15.51,3.92z M15.47,4.15c0.07,0.52,0.86,1.22,1.07,1.2c0.14-0.01,0.2-0.68,0.2-1.2c0-0.3,0.02-0.53-0.14-0.59 C16.34,4.07,15.68,4.17,15.47,4.15 M3.2,7.58c0.19,0,0.15-1.13,0.45-1.13c0.07,0,0.09,0.07,0.09,0.16c0,0.26-0.13,0.63-0.13,0.84 c0,0.1,0.03,0.14,0.08,0.14c0.13,0,0.36-1.25,0.58-1.25c0.07,0,0.1,0.07,0.1,0.14c0,0.26-0.33,1.01-0.33,1.23 c0,0.03,0.01,0.06,0.04,0.06c0.14,0,0.41-0.59,0.5-0.88C4.63,6.72,4.7,6.64,4.76,6.64c0.05,0,0.1,0.06,0.1,0.19 c0,0.29-0.27,0.99-0.51,1.45C4.16,8.64,3.87,9.15,3.87,9.44c0,0.15,0.03,0.3,0.24,0.48C3.76,9.9,3.62,9.87,3.49,9.6 C2.91,10.76,4.57,10.65,4,11.68c-0.1-0.18-0.92-0.38-0.92-1.45c0-0.93,0.82-1.48,0.82-1.86c0-0.08-0.03-0.14-0.1-0.2 C3.62,8,3.61,7.88,3.47,7.88c-0.1,0-0.23,0.24-0.1,0.45C3.42,8.4,3.45,8.44,3.45,8.51c0,0.15-0.24,0.56-0.41,0.56 c-0.17,0-0.3-0.42-0.3-1.09c0-0.6,0.14-1.2,0.3-1.2c0.05,0,0.07,0.03,0.07,0.08c0,0.07-0.02,0.21-0.02,0.45 C3.09,7.56,3.15,7.58,3.2,7.58 M4.59,9.17c0.23,0,0.42-0.17,0.42-0.54V8.07c0-0.21,0.02-0.45,0.16-0.62C5.15,7.52,5.15,7.6,5.15,7.67 c0,0.47,0.26,0.79,0.26,1.24c0,0.17-0.05,0.26-0.18,0.26c-0.13,0-0.11-0.11-0.14-0.11c-0.02,0-0.05,0.07-0.05,0.15 c0,0.11,0.08,0.29,0.31,0.29c0.2,0,0.35-0.18,0.35-0.38c0-0.49-0.38-1.04-0.38-1.56c0-0.23,0.06-0.38,0.11-0.5 c0,1.08,0.92,1.87,0.92,2.33c0,0.1-0.08,0.19-0.19,0.19c-0.13,0-0.19-0.1-0.19-0.17c0-0.04-0.01-0.05-0.02-0.05 c-0.03,0-0.13,0.11-0.13,0.25c0,0.18,0.15,0.4,0.42,0.4c0.31,0,0.48-0.26,0.48-0.5c0-0.57-1.12-1.44-1.12-2.36 c0-0.16,0.03-0.41,0.14-0.61C5.03,6.99,4.81,7.61,4.81,8.14c0,0.47-0.02,0.7-0.26,0.7c-0.13,0-0.16-0.11-0.2-0.11 c-0.03,0-0.05,0.1-0.05,0.13C4.3,9.06,4.45,9.17,4.59,9.17 M12.85,3.04c0.07-0.05,0.38,0.03,0.77-0.17c0.05-0.03,0.1-0.04,0.14-0.04c0.19,0,0.14,0.22,0.32,0.22 c0.14,0,0.31-0.11,0.41-0.11c0.16,0,0.4,0.51,0.4,0.75c0,0.28-0.42,0.45-0.91,0.45c-0.72,0-1.16-0.63-1.16-1.04 C12.81,3.06,12.83,3.05,12.85,3.04z M14.04,3.73c0.24,0,0.42-0.11,0.42-0.17c0-0.02-0.03-0.04-0.1-0.04c-0.07,0-0.21-0.01-0.48-0.05 c-0.23-0.04-0.4-0.13-0.47-0.13c-0.02,0-0.03,0.01-0.03,0.03C13.37,3.51,13.63,3.73,14.04,3.73 M4.71,11.23C4.53,11.27,4.24,11.56,4.24,12c0,0.53,0.57,1.36,1.51,1.36c0.8,0,0.99-0.55,0.99-0.92 c0-0.82-0.51-1.4-1.17-1.4c-0.36,0-0.68,0.26-0.68,0.65c0,0.36,0.27,0.9,0.92,0.9c0.31,0,0.48-0.22,0.48-0.47 c0-0.25-0.22-0.58-0.55-0.58c-0.1,0-0.17,0.06-0.17,0.17c0,0.13,0.18,0.26,0.4,0.26c0.05,0,0.1-0.01,0.12-0.02 c0.01,0.02,0.02,0.04,0.02,0.07c0,0.13-0.12,0.2-0.31,0.2c-0.28,0-0.54-0.21-0.54-0.53c0-0.2,0.17-0.34,0.41-0.34 c0.48,0,0.77,0.43,0.77,0.86c0,0.39-0.21,0.61-0.65,0.61C4.94,12.81,4.52,12.02,4.71,11.23 M10.93,14.42c0.26,0,0.25-0.02,0.33-0.02c0.08,0,0.09,0.05,0.09,0.08c0,0.12-0.27,0.27-0.74,0.27 c-0.28,0-0.45-0.15-0.5-0.31c-0.27,0.17-0.69,0.33-1.1,0.33c-1.12,0-1.4-0.49-1.75-0.64C7,14.01,6.59,14.24,6.01,13.6 c0.08,0.02,0.18,0.02,0.26,0.02c0.5,0,0.77-0.24,0.77-0.64c0-0.05-0.01-0.1-0.01-0.15c0.15,0.06,0.5,0.32,0.58,0.78 c0.01,0.05,0.23,0.1,0.38,0.1c0.2,0,0.45-0.08,0.48-0.4c0.65-0.05,1.1-0.44,1.19-0.93c0.23,0.08,0.5,0.29,0.57,0.4 c0.09-0.03,0.2-0.05,0.33-0.05c0.17,0,0.37,0.03,0.6,0.1c0.01-0.07,0.02-0.16,0.13-0.16c0.16,0,0.12,0.18,0.17,0.28 c0.03,0.05,0.16,0.09,0.16,0.2c0,0.1-0.09,0.14-0.14,0.14c-0.02,0-0.05-0.01-0.07-0.01c-0.11,0.04-0.11,0.82-0.57,0.82 c-0.34,0-0.65-0.28-0.78-0.63c-0.04-0.1-0.12-0.17-0.2-0.17c-0.09,0-0.14,0.02-0.24,0.13c-0.29,0.32-0.78,0.6-1.39,0.6 c-0.19,0-0.33-0.02-0.37-0.02c-0.02,0-0.02,0.01-0.02,0.01c0,0.04,0.19,0.19,0.59,0.19c0.96,0,1.19-0.54,1.35-0.54 c0.02,0,0.09,0,0.13,0.09C10.13,14.3,10.62,14.42,10.93,14.42z M10.5,13.33c0,0.12,0.1,0.22,0.22,0.22c0.12,0,0.22-0.1,0.22-0.22 c0-0.12-0.1-0.22-0.22-0.22C10.6,13.11,10.5,13.21,10.5,13.33 M14.82,10.61c-0.08,0-0.16,0.06-0.16,0.21c0,0.16,0.13,0.27,0.2,0.3c0.04,0.02,0.1,0.04,0.16,0.04 c0.16,0,0.28-0.04,0.28-0.17C15.3,10.82,15.05,10.61,14.82,10.61z M14.23,10.95c-0.11,0-0.75,0.84-1.16,0.84 c-0.1,0-0.18-0.19-0.18-0.33c0-0.08,0.05-0.13,0.22-0.17c0.94-0.21,0.73-0.92,1.53-0.92c0.44,0,0.93,0.3,0.93,0.98 c0,0.72-1.02,1.61-1.18,1.61c-0.13,0-0.26-0.18-0.26-0.3c0-0.04,0.02-0.09,0.13-0.13c0.52-0.21,0.82-0.69,0.82-0.93 c0-0.05-0.03-0.11-0.1-0.11c-0.09,0-0.49,0.9-0.93,0.9c-0.31,0-0.62-0.28-0.62-0.41c0-0.22,0.88-0.62,0.88-0.93 C14.33,10.96,14.27,10.95,14.23,10.95 M3.45,3.81c0,0-0.16,0.12-0.35,0.12c-0.23,0-0.42-0.17-0.42-0.42c0-0.17,0.09-0.34,0.29-0.43 C2.96,3.11,2.96,3.14,2.96,3.17C2.96,3.48,3.13,3.72,3.45,3.81z M4.61,4.85C4.49,5,4.37,5.24,4.37,5.48c0,0.29,0.18,0.54,0.46,0.54 c0.27,0,0.39-0.23,0.39-0.46C5.22,5.19,4.89,4.94,4.61,4.85z M2.81,5.07C2.8,5.09,2.79,5.11,2.79,5.13c0,0.05,0.05,0.1,0.1,0.1 c0.04,0,0.07-0.01,0.09-0.01c0.13,0,0.28,0.09,0.49,0.09c0.13,0,0.27-0.04,0.46-0.13c0.39-0.2,0.55-0.68,0.55-0.76 c0-0.1-0.08-0.09-0.15-0.19C4.26,4.14,4.28,4.06,4.24,4.01c-0.03-0.03-0.1-0.03-0.2-0.04C4,3.97,3.96,3.97,3.92,3.97 c-0.18,0-0.39,0.02-0.63,0.17C2.81,4.45,2.88,4.95,2.81,5.07z M4.09,4.4c0.04,0.05,0.14,0.11,0.14,0.15c0,0.08-0.04,0.17-0.13,0.17 c-0.19,0-0.34-0.29-0.34-0.45c0-0.1,0.06-0.11,0.14-0.11c0.04,0,0.05,0.01,0.08,0.02C4.03,4.21,4.03,4.31,4.09,4.4z M3.58,5.06 c-0.18,0-0.38-0.22-0.38-0.43c0-0.11,0.08-0.25,0.14-0.25c0.02,0,0.03,0.02,0.04,0.05c0.03,0.27,0.21,0.42,0.37,0.5 c0.02,0.01,0.03,0.02,0.03,0.03C3.79,5.01,3.68,5.06,3.58,5.06z M4.05,3.69C4.08,3.6,4.1,3.49,4.1,3.37c0-0.26-0.12-0.66-0.49-0.66 c-0.21,0-0.37,0.17-0.37,0.37C3.24,3.51,3.67,3.69,4.05,3.69z M2.64,5.87c0,0.41,0.13,0.61,0.35,0.61c0.17,0,0.41-0.13,0.69-0.37 C3.46,6.16,3.3,6.19,3.15,6.19C2.95,6.19,2.8,6.12,2.64,5.87z M2.83,5.38C2.82,5.41,2.82,5.44,2.82,5.46c0,0.26,0.14,0.4,0.32,0.4 c0.14,0,0.29-0.08,0.44-0.26c-0.06,0.01-0.13,0.02-0.2,0.02C3.18,5.62,2.96,5.56,2.83,5.38z M4.16,5.31 C4.04,5.34,3.78,5.49,3.78,5.76c0,0.2,0.15,0.32,0.34,0.32c0.1,0,0.17-0.02,0.21-0.05C4.18,5.88,4.12,5.72,4.12,5.56 C4.12,5.44,4.14,5.37,4.16,5.31z M4.36,3.81c0,0.12,0.1,0.22,0.22,0.22c0.12,0,0.22-0.1,0.22-0.22c0-0.12-0.1-0.22-0.22-0.22 C4.46,3.6,4.36,3.69,4.36,3.81z M4.64,4.3c0,0.12,0.1,0.22,0.22,0.22c0.12,0,0.22-0.1,0.22-0.22c0-0.12-0.1-0.22-0.22-0.22 C4.74,4.09,4.64,4.18,4.64,4.3 M13.14,6.98c0-0.11,0.1-0.2,0.21-0.2c0.12,0,0.21,0.09,0.21,0.2c0,0.13-0.09,0.21-0.21,0.21 C13.24,7.19,13.14,7.1,13.14,6.98z M11.23,5.3c0,0.12,0.1,0.22,0.22,0.22c0.12,0,0.22-0.1,0.22-0.22c0-0.12-0.1-0.22-0.22-0.22 C11.33,5.08,11.23,5.18,11.23,5.3z M11.04,6.07c0,0.17,0.14,0.31,0.31,0.31c0.17,0,0.31-0.14,0.31-0.31c0-0.17-0.14-0.31-0.31-0.31 C11.19,5.76,11.04,5.9,11.04,6.07z M11.73,5.72c0,0.19,0.15,0.33,0.33,0.33c0.19,0,0.33-0.15,0.33-0.33c0-0.19-0.15-0.33-0.33-0.33 C11.88,5.39,11.73,5.53,11.73,5.72z M11.76,5.01c0,0.11,0.09,0.21,0.21,0.21c0.11,0,0.21-0.09,0.21-0.21c0-0.11-0.09-0.21-0.21-0.21 C11.85,4.81,11.76,4.9,11.76,5.01z M12.74,4.49c0,0.11,0.09,0.21,0.21,0.21c0.11,0,0.21-0.09,0.21-0.21c0-0.11-0.09-0.21-0.21-0.21 C12.84,4.28,12.74,4.37,12.74,4.49z M12.33,5.16c0,0.19,0.16,0.35,0.35,0.35c0.19,0,0.35-0.16,0.35-0.35c0-0.19-0.16-0.35-0.35-0.35 C12.49,4.81,12.33,4.97,12.33,5.16z M11.77,6.43c0,0.12,0.1,0.22,0.22,0.22c0.12,0,0.22-0.1,0.22-0.22c0-0.12-0.1-0.22-0.22-0.22 C11.87,6.22,11.77,6.31,11.77,6.43z M12.49,6c0,0.12,0.1,0.22,0.22,0.22c0.12,0,0.22-0.1,0.22-0.22c0-0.12-0.1-0.22-0.22-0.22 C12.59,5.78,12.49,5.88,12.49,6z M12.29,6.77c0,0.21,0.17,0.38,0.38,0.38c0.21,0,0.38-0.17,0.38-0.38c0-0.21-0.17-0.38-0.38-0.38 C12.45,6.39,12.29,6.56,12.29,6.77z M13.07,6.3c0,0.14,0.11,0.26,0.26,0.26c0.14,0,0.26-0.11,0.26-0.26c0-0.14-0.11-0.26-0.26-0.26 C13.19,6.05,13.07,6.16,13.07,6.3z M13.05,5.62c0,0.13,0.1,0.23,0.23,0.23c0.13,0,0.23-0.1,0.23-0.23c0-0.13-0.1-0.23-0.23-0.23 C13.16,5.39,13.05,5.49,13.05,5.62 M13.61,12.77c-0.14,0.11-0.47,0.35-1.02,0.35c-0.29,0-0.43-0.09-0.47-0.09c-0.05,0-0.11,0.05-0.17,0.13 c-0.13,0.15-0.3,0.44-0.3,0.75c0,0.22,0.17,0.44,0.48,0.44c1.02,0,1.78-0.64,1.78-1.15C13.91,12.89,13.74,12.77,13.61,12.77z  M13.33,12.71c0.04-0.04,0.05-0.1,0.05-0.16v-0.13c0-0.16-0.24-0.25-0.57-0.25c-0.4,0-0.61,0.18-0.61,0.26v0.25 c0,0.1,0.24,0.21,0.53,0.21C12.97,12.89,13.19,12.83,13.33,12.71z M13.28,13.24c0.03,0,0.06,0.02,0.06,0.11 c0,0.12-0.05,0.28-0.25,0.4c-0.14,0.09-0.32,0.17-0.59,0.17c0.04-0.13,0.08-0.27,0.08-0.4c0-0.04-0.01-0.08-0.01-0.13h0.07 C13.07,13.41,13.25,13.24,13.28,13.24 M11.2,6.59c0.06,0.46,0.68,0.23,0.68,0.79c0,0.08-0.02,0.2-0.02,0.31c0,0.12,0.01,0.22,0.1,0.22 c0.09,0,0.11-0.07,0.11-0.15s-0.02-0.2-0.02-0.26c0-0.19,0.14-0.23,0.22-0.23c0.21,0,0.37,0.21,0.68,0.21 c-0.07,0.35-0.79,0.26-0.79,0.64c0,0.19,0.19,0.23,0.32,0.23c0.11,0,0.15-0.02,0.15-0.11c0-0.05-0.01-0.11-0.01-0.15 c0-0.02,0.02-0.04,0.04-0.04c0.12,0,0.71,0.45,0.71,0.58c0,0.13-0.62,0.25-0.8,0.25c-0.05,0-0.07-0.04-0.07-0.06 c0-0.04,0.09-0.15,0.09-0.22c0-0.05-0.08-0.08-0.3-0.08c-0.1,0-0.18,0.01-0.18,0.09c0,0.15,0.24,0.33,0.24,0.46 c0,0.11-0.07,0.17-0.24,0.17c-0.15,0-0.37-0.11-0.37-0.31c0-0.15,0.16-0.3,0.16-0.4c0-0.03-0.02-0.07-0.09-0.07 c-0.2,0-0.26,0.53-0.97,0.59c0.11-0.1,0.21-0.22,0.21-0.45c0-0.11-0.03-0.21-0.03-0.33c0-0.16,0.08-0.25,0.19-0.25 c0.2,0,0.3,0.28,0.43,0.28c0.07,0,0.15-0.07,0.15-0.16c0-0.41-0.8-0.35-0.8-0.94C11,7.06,11.05,6.86,11.2,6.59z M13.8,8.18 c0,0.14,0.04,0.29,0.18,0.29c0.11,0,0.21-0.17,0.21-0.36c0-0.22-0.04-0.39-0.04-0.47c0-0.04,0.02-0.05,0.04-0.05 c0.08,0.01,0.16,0.23,0.25,0.23c0.1,0,0.24-0.18,0.3-0.18c0.02,0,0.02,0.02,0.02,0.03c0,0.08-0.13,0.26-0.13,0.33 c0,0.06,0.32,0.07,0.32,0.13c0,0.08-0.33,0.08-0.49,0.15c-0.15,0.07-0.25,0.15-0.25,0.26c0,0.11,0.11,0.13,0.26,0.13 c0.36,0,0.62-0.2,0.7-0.2c0.02,0,0.03,0.01,0.03,0.03c0,0.05-0.19,0.23-0.19,0.32c0,0.09,0.34,0.2,0.33,0.26 c-0.01,0.02-0.03,0.02-0.07,0.02c-0.06,0-0.15-0.02-0.22-0.02c-0.04,0-0.08,0.01-0.1,0.03c-0.04,0.04,0.01,0.33-0.06,0.33 c-0.07,0-0.26-0.64-0.67-0.64c-0.06,0-0.1,0.05-0.1,0.13c0,0.22,0.21,0.47,0.41,0.59c0.09,0.06,0.24,0.12,0.24,0.15 c0,0.07-0.35,0.01-0.35,0.11c0,0.1,0.04,0.25,0.04,0.33c0,0.03-0.01,0.06-0.04,0.06c-0.07,0-0.22-0.3-0.3-0.3 c-0.07,0-0.21,0.18-0.27,0.18c-0.02,0-0.03-0.02-0.03-0.03c0-0.13,0.2-0.41,0.2-0.69c0-0.13-0.02-0.41-0.17-0.41 c-0.13,0-0.28,0.21-0.34,0.41c-0.04,0.12-0.01,0.58-0.1,0.58c-0.08,0-0.06-0.31-0.17-0.31c-0.08,0-0.25,0.15-0.31,0.15 c-0.01,0-0.02-0.01-0.02-0.02c0-0.07,0.16-0.28,0.16-0.32c0-0.08-0.36-0.09-0.36-0.16c0-0.04,0.14-0.07,0.27-0.09 c0.28-0.05,0.69-0.25,0.69-0.53c0-0.32-0.31-0.45-0.51-0.58c-0.1-0.07-0.22-0.12-0.22-0.16c0-0.04,0.13-0.04,0.19-0.04 c0.08,0,0.16-0.01,0.16-0.07c0-0.05-0.01-0.15-0.01-0.22c0-0.05,0.01-0.1,0.03-0.1c0.08,0,0.2,0.27,0.25,0.27 c0.09,0,0.21-0.22,0.29-0.22c0.03,0,0.04,0.02,0.04,0.07C13.9,7.76,13.8,7.99,13.8,8.18 M11.36,9.69c0.25,0.03,0.31,0.12,0.31,0.19c0,0.12-0.11,0.16-0.21,0.16c-0.08,0-0.16-0.02-0.26-0.02 c-0.12,0-0.24,0.03-0.34,0.14c0.07,0.01,0.17,0.06,0.17,0.17c0,0.32-0.88,0.05-0.88,0.87c0,0.43,0.45,0.9,1.12,0.9 c0.35,0,0.57-0.11,0.57-0.25c0-0.1-0.19-0.03-0.19-0.12c0-0.04,0.07-0.11,0.07-0.17c0-0.03-0.02-0.08-0.07-0.08 c-0.1,0-0.28,0.16-0.66,0.16c-0.29,0-0.58-0.17-0.58-0.4c0-0.05,0.02-0.08,0.05-0.08c0.03,0,0.08,0.02,0.11,0.02 c0.03,0,0.04-0.02,0.04-0.08c0-0.06,0-0.23,0.1-0.23c0.1,0,0.3,0.38,1.05,0.38c0.25,0,0.74-0.05,0.92-0.21 c-0.01,0.6-0.47,1.39-1.45,1.39c-1.02,0-1.56-0.82-1.56-1.57c0-0.83,0.68-1.59,1.61-1.59c0.24,0,0.44,0.08,0.44,0.19 C11.74,9.61,11.39,9.52,11.36,9.69z M13.03,9.98c0.04,0.06,0.05,0.12,0.05,0.17c0,0.15-0.1,0.29-0.1,0.45 c0,0.18,0.14,0.33,0.34,0.33c0.22,0,0.38-0.18,0.38-0.39C13.7,10.25,13.44,10.01,13.03,9.98z M11.23,10.33 c0.05,0.05,0.07,0.11,0.07,0.16c0,0.08-0.04,0.17-0.04,0.26c0,0.13,0.1,0.24,0.24,0.24c0.15,0,0.26-0.12,0.26-0.26 C11.76,10.53,11.54,10.33,11.23,10.33z M11.95,9.4c0.57,0.11,0.88,0.54,0.88,0.94c0,0.28-0.17,0.53-0.48,0.53 c-0.28,0-0.48-0.19-0.48-0.5c0-0.23,0.18-0.47,0.18-0.7C12.06,9.59,12.03,9.5,11.95,9.4z M12.24,10.13c0,0.08,0.05,0.14,0.13,0.14 c0.09,0,0.14-0.08,0.14-0.16c0-0.11-0.1-0.27-0.2-0.27c-0.04,0-0.03,0.07-0.04,0.14C12.26,10.02,12.24,10.08,12.24,10.13 M6.22,4.52c0.19,0,0.4-1,0.4-1.17c0-0.04-0.02-0.08-0.05-0.08c-0.17,0-0.4,0.95-0.4,1.17 C6.16,4.48,6.17,4.52,6.22,4.52z M7.56,4.82c0.14,0,0.29-0.52,0.29-0.85c0-0.07-0.01-0.15-0.04-0.15c-0.11,0-0.31,0.54-0.31,0.83 C7.5,4.77,7.52,4.82,7.56,4.82z M6.67,4.34c0.06,0,0.14-0.07,0.28-0.22C6.96,4.04,6.96,3.98,6.96,3.9c0-0.11-0.04-0.23-0.11-0.23 C6.68,3.67,6.6,4.1,6.6,4.22C6.6,4.28,6.64,4.34,6.67,4.34z M7.42,4.11C7.42,4.02,7.39,4,7.37,4c-0.05,0-0.11,0.07-0.2,0.21 c0.01,0.2,0.04,0.28,0.1,0.28C7.33,4.49,7.42,4.3,7.42,4.11z M7.83,3.47c0.36,0,0.52,0.31,0.52,0.66c0,0.15-0.04,0.38-0.11,0.38 c-0.07,0-0.06-0.13-0.07-0.24C8.16,4.12,8.13,4.09,8.09,4.09c-0.09,0-0.15,0.22-0.15,0.42c0,0.13,0.02,0.27,0.12,0.27 c0.05,0,0.1-0.03,0.14-0.06C8.17,4.96,7.98,5.18,7.72,5.18c-0.48,0-0.66-0.56-0.71-0.89C6.72,4.6,6.45,4.82,5.97,4.82 c-0.45,0-0.65-0.33-0.65-0.64c0-0.09,0.03-0.33,0.15-0.33c0.14,0,0.02,0.45,0.28,0.45C5.82,4.3,5.94,4.24,6,4.06 c0.04-0.11,0.06-0.22,0.06-0.32c0-0.15-0.03-0.24-0.14-0.24c-0.09,0-0.21,0.07-0.25,0.11c0.13-0.39,0.45-0.59,0.8-0.59 c0.43,0,0.66,0.38,0.66,0.81c0,0.06-0.01,0.13-0.02,0.19C7.3,3.7,7.56,3.47,7.83,3.47 M6.82,4.94c-0.23,0-0.25,0.28-0.25,0.86C6.4,5.42,6.11,5.01,5.77,5.01c-0.23,0-0.32,0.15-0.32,0.42 c0,0.05,0.01,0.14,0.02,0.19C5.5,5.52,5.58,5.49,5.69,5.49c0.23,0,0.52,0.18,0.7,0.43C6.18,5.87,5.98,5.83,5.8,5.83 c-0.11,0-0.21,0.01-0.29,0.05C5.36,5.95,5.14,6.19,5.14,6.54c0,0.05,0.01,0.11,0.02,0.18c0.19-0.43,0.7-0.62,1.02-0.62 c0.07,0,0.11,0.01,0.15,0.01c-0.17,0.15-0.21,0.42-0.22,0.6C6.11,6.8,6.08,6.81,6.02,6.81c0,0.18,0.14,0.45,0.14,0.58 c0,0.05-0.03,0.09-0.05,0.1c0,0.24,0.24,0.41,0.24,0.57c0,0.04-0.01,0.07-0.03,0.09C6.34,8.25,6.6,8.41,6.63,8.5 c0.04,0.1,0.09,0.12,0.12,0.12c0.09,0,0.24-0.11,0.24-0.21c0-0.03-0.03-0.07-0.05-0.09c-0.1-0.08-0.16-0.24-0.2-0.35 c-0.04,0-0.09-0.02-0.1-0.08C6.6,7.78,6.6,7.57,6.56,7.44c-0.07-0.02-0.1-0.04-0.1-0.19C6.46,7.18,6.5,6.9,6.5,6.8 c-0.03,0-0.08-0.02-0.08-0.09c0-0.17,0.17-0.31,0.22-0.53c0.31,0.23,0.39,0.46,0.39,0.67c0,0.11-0.02,0.21-0.04,0.31 c0.23-0.11,0.57-0.28,0.57-0.63c0-0.2-0.09-0.43-0.71-0.51c0.19-0.07,0.43-0.11,0.63-0.11c0.35,0,0.55,0.11,0.59,0.35 c0.07-0.11,0.13-0.23,0.13-0.35c0-0.27-0.22-0.44-0.51-0.44c-0.33,0-0.63,0.17-0.94,0.39C6.9,5.57,7,5.4,7.18,5.4 c0.03,0,0.05,0.01,0.08,0.01C7.19,5.17,6.95,4.94,6.82,4.94 M16,8.86c0.27,0,0.49,0.35,0.49,0.77c0,0.44-0.21,0.92-0.58,1.25C15.9,10.14,15,10.38,15,9.84 c0-0.23,0.16-0.38,0.36-0.38c0.17,0,0.31,0.05,0.41,0.15c-0.1-0.09-0.15-0.22-0.15-0.35C15.63,9.05,15.76,8.86,16,8.86 M11.13,3.69c0.14,0.14,0.27,0.2,0.42,0.2c0.06,0,0.13-0.02,0.17-0.02c0.05,0,0.08,0.02,0.08,0.06 c0,0.06-0.05,0.16-0.12,0.21c0.07,0.03,0.14,0.04,0.21,0.04c0.31,0,0.66-0.2,0.66-0.69c0.07,0.09,0.1,0.27,0.1,0.35 c0,0.59-0.44,0.82-0.84,0.82c-0.26,0-0.39-0.09-0.43-0.09c-0.1,0-0.1,0.21-0.17,0.2c-0.13-0.02-0.24-0.3-0.24-0.59 C10.99,4.01,11.03,3.82,11.13,3.69z M11.95,3.29c-0.04-0.07-0.21-0.11-0.28-0.11c-0.24,0-0.4,0.17-0.44,0.32 c-0.02-0.05-0.04-0.12-0.04-0.19c0-0.24,0.16-0.53,0.56-0.53c0.35,0,0.48,0.19,0.53,0.19c0.05,0,0.11-0.05,0.15-0.05 c0.06,0,0.06,0.09,0.06,0.16c0,0.22-0.1,0.59-0.34,0.73c-0.04-0.09-0.13-0.2-0.27-0.26c-0.04-0.02-0.05-0.05-0.05-0.08 C11.83,3.4,11.89,3.32,11.95,3.29 M7.34,2.1c0,0.19,0.68,1.12,0.81,1.12c0.11,0,0.19-0.19,0.19-0.35c0-0.04-0.01-0.09-0.03-0.12 c-0.1-0.14-0.79-0.68-0.94-0.68C7.35,2.07,7.34,2.09,7.34,2.1z M3.34,1.54c0,0.11-0.41,0.47-0.56,0.47c-0.05,0-0.07-0.07-0.07-0.13 c0-0.11,0.05-0.26,0.11-0.31c0.07-0.07,0.23-0.1,0.36-0.1C3.25,1.48,3.34,1.5,3.34,1.54z M8.31,1.86c0-0.33-0.88-0.92-0.89-1.18 c0-0.02,0.01-0.05,0.03-0.07C7.6,0.45,8.23,0.34,8.23,0.2c0-0.07-0.13-0.07-0.2-0.07c-0.51,0-1.25,0.19-1.25,0.36 c0,0.19,0.66,0.64,0.66,0.86c0,0.06-0.04,0.08-0.1,0.08c-0.19,0-0.59-0.22-0.78-0.22c-0.09,0-0.12,0.06-0.12,0.15 c0,0.26,0.31,0.76,0.31,0.9c0,0.02-0.01,0.04-0.03,0.04c-0.1,0-0.56-0.54-0.72-0.54c-0.06,0-0.07,0.08-0.07,0.2v0.19 c0,0.13-0.01,0.2-0.07,0.2c-0.14,0-0.21-0.4-0.34-0.4c-0.14,0-0.17,0.71-0.3,0.71c-0.16,0-0.02-0.78-0.17-0.78 C4.89,1.88,4.7,2.4,4.58,2.4c-0.04,0-0.05-0.04-0.05-0.08c0-0.16,0.09-0.41,0.09-0.57c0-0.08-0.02-0.12-0.09-0.12 c-0.17,0-0.54,0.27-0.68,0.27C3.83,1.9,3.8,1.89,3.8,1.87c0-0.13,0.59-0.54,0.59-0.73c0-0.18-0.82-0.06-0.82-0.27 c0-0.17,0.58-0.35,0.58-0.53c0-0.16-0.69-0.23-0.96-0.23c-0.32,0-0.5,0.04-0.5,0.13c0,0.14,0.73,0.19,0.73,0.31 c0,0.12-0.76,0.44-0.76,0.63c0,0.16,1.07,0.01,1.07,0.18c0,0.19-0.93,0.99-0.93,1.25c0,0.06,0.04,0.09,0.1,0.09 c0.28,0,1.02-0.54,1.22-0.54c0.07,0,0.08,0.09,0.08,0.16c0,0.14-0.05,0.36-0.05,0.52c0,0.13,0.03,0.21,0.14,0.21 c0.2,0,0.39-0.34,0.52-0.34c0.17,0,0.07,1.01,0.33,1.01c0.22,0,0.32-1.09,0.46-1.09s0.26,0.32,0.39,0.32c0.16,0,0.09-0.55,0.26-0.55 c0.19,0,0.74,0.65,0.98,0.65c0.08,0,0.1-0.06,0.1-0.14c0-0.29-0.4-0.94-0.4-1.15c0-0.05,0.02-0.07,0.08-0.07 c0.21,0,0.83,0.29,1.13,0.29C8.25,1.98,8.31,1.93,8.31,1.86z M7.75,0.78c0,0.1,0.34,0.31,0.5,0.31c0.09,0,0.12-0.13,0.12-0.26 c0-0.16-0.07-0.17-0.21-0.17C7.98,0.66,7.75,0.71,7.75,0.78z M6.47,0.22c0-0.03-0.16-0.07-0.39-0.07c-0.35,0-0.31,0.29-0.58,0.29 c-0.28,0-0.21-0.31-0.57-0.31c-0.22,0-0.42,0.04-0.42,0.09c0,0.07,0.26,0.04,0.26,0.22c0,0.19-0.55,0.25-0.55,0.36 c0,0.04,0.04,0.05,0.1,0.05c0.12,0,0.31-0.05,0.45-0.05c0.08,0,0.15,0.02,0.15,0.09c0,0.14-0.29,0.38-0.29,0.49 c0,0.03,0.03,0.04,0.05,0.04c0.11,0,0.29-0.28,0.47-0.28c0.29,0,0.1,0.62,0.26,0.62c0.16,0,0.09-0.6,0.33-0.6 c0.19,0,0.33,0.42,0.46,0.42c0.03,0,0.06-0.03,0.06-0.07c0-0.11-0.16-0.35-0.16-0.5c0-0.09,0.07-0.14,0.15-0.14 c0.13,0,0.29,0.08,0.39,0.08c0.03,0,0.07-0.01,0.07-0.05c0-0.13-0.48-0.27-0.48-0.44C6.2,0.3,6.47,0.3,6.47,0.22 M16.13,1.11c0,0.48-0.35,0.86-0.99,0.96c0.07,0.01,0.14,0.01,0.2,0.01c0.75,0,1.02-0.34,1.02-0.62 C16.36,1.29,16.27,1.15,16.13,1.11z M15.21,1.66c0-0.39-0.93-0.48-0.93-0.57c0-0.07,0.52-0.19,0.78-0.2 c-0.41-0.52-0.99-0.47-0.99-0.56c0-0.05,0.44-0.16,0.84-0.16c0.34,0,0.65,0.08,0.65,0.33c0,0.14-0.11,0.29-0.11,0.51 c0,0.12,0.06,0.22,0.22,0.22c0.17,0,0.21-0.18,0.21-0.37c0-0.16-0.03-0.28-0.03-0.35c0-0.23,0.16-0.38,0.38-0.38 c0.19,0,0.23,0.08,0.5,0.08c-0.15,0.09-0.2,0.25-0.2,0.32c0,0.23,0.15,0.39,0.15,0.86c0,0.86-0.81,1.17-1.79,1.17 c-0.27,0-0.56-0.02-0.84-0.07C14,2.47,13.99,2.46,13.99,2.43c0-0.07,0.39-0.11,0.39-0.46c0-0.14-0.04-0.27-0.04-0.32 c0-0.03,0.02-0.04,0.04-0.04c0.08,0,0.25,0.32,0.55,0.32C15,1.93,15.21,1.91,15.21,1.66z M16.09,0.45c0,0.08,0.06,0.14,0.14,0.14 s0.14-0.06,0.14-0.14c0-0.08-0.06-0.14-0.14-0.14S16.09,0.38,16.09,0.45 M15.61,5.49c0-0.11-0.29-0.13-0.32-0.45c-0.01-0.05-0.02-0.14-0.08-0.14c-0.1,0-0.02,0.3-0.13,0.3 c-0.25,0-0.33-0.49-0.42-0.49c-0.02,0-0.05,0.02-0.05,0.08c0,0.06,0.01,0.1,0.01,0.17c0,0.07-0.02,0.12-0.08,0.12 c-0.15,0-0.28-0.34-0.4-0.34c-0.03,0-0.05,0.02-0.05,0.04c0,0.07,0.11,0.19,0.11,0.25c0,0.13-0.35,0.06-0.35,0.17 c0,0.05,0.05,0.07,0.11,0.07c0.11,0,0.29-0.05,0.39-0.05c0.05,0,0.14,0.01,0.14,0.08c0,0.08-0.2,0.17-0.2,0.25 c0,0.03,0.03,0.05,0.06,0.05c0.15,0,0.41-0.26,0.59-0.26c0.03,0,0.11,0.02,0.11,0.07c0,0.07-0.19,0.2-0.19,0.3 c0,0.03,0.02,0.06,0.05,0.06c0.1,0,0.23-0.26,0.41-0.26c0.07,0,0.17,0.03,0.23,0.03C15.59,5.53,15.61,5.5,15.61,5.49z M15.75,8.13 c0.09-0.27,0.2-0.46,0.38-0.76c-0.18-0.09-0.65-0.29-0.65-0.61c0-0.38,0.47-0.67,0.57-0.67c0.04,0,0.05,0.04,0.05,0.11 c0,0.2-0.09,0.51-0.09,0.68c0,0.15,0.1,0.3,0.19,0.3c0.09,0,0.35-0.33,0.35-0.65c0-0.58-0.51-0.75-0.66-0.75 c-0.15,0-0.41,0.24-1.04,0.24c-1.17,0-1.44-1.16-1.44-1.67c0-0.02,0.01-0.03,0.01-0.03c0.03,0,0.14,0.14,0.51,0.14 c0.19,0,0.37-0.05,0.64-0.05c0.65,0,0.94,0.45,1.35,1.03c0.24,0.15,0.83,0.4,0.83,1.09c0,0.61-0.65,0.95-0.81,1.6 c0.25-0.03,0.4-0.47,0.65-0.47c0.13,0,0.19,0.1,0.19,0.27c0,0.24-0.14,0.6-0.4,0.82c0.01-0.02,0.01-0.05,0.01-0.08 c0-0.15-0.06-0.37-0.23-0.37c-0.27,0-0.36,0.29-0.51,0.54c-0.16-0.56-0.37-1.06-0.75-1.36c-0.39-0.31-1.05-0.14-1.05-0.71 c0-0.15,0.1-0.37,0.1-0.54c0-0.06-0.01-0.11-0.04-0.16c0.52,0.2,0.34,0.54,0.66,0.9c0.2,0.23,0.76,0.45,1.08,1.39 c0.01-0.03,0.01-0.1,0.01-0.15c0-0.81-1.07-1.6-1.16-1.92c0.62,0.07,0.73,0.22,1.02,1.04C15.55,7.5,15.75,7.92,15.75,8.13 M12.77,2.36c-0.38,0-0.63-0.19-0.63-0.29c0-0.05,0.03-0.08,0.08-0.08c0.12,0,0.38,0.19,0.47,0.19 c0.02,0,0.04-0.01,0.04-0.04c0-0.1-0.09-0.26-0.09-0.34c0-0.02,0.02-0.04,0.05-0.04c0.15,0,0.37,0.06,0.48,0.06 c0.04,0,0.05-0.02,0.05-0.04c0-0.12-0.35-0.35-0.35-0.42c0-0.07,0.44-0.16,0.44-0.27c0-0.11-0.6-0.03-0.6-0.14 c0-0.08,0.11-0.21,0.11-0.27c0-0.03-0.02-0.04-0.06-0.04c-0.05,0-0.31,0.1-0.42,0.1c-0.05,0-0.12-0.01-0.12-0.09 c0-0.13,0.21-0.26,0.55-0.26c0.54,0,0.86,0.37,0.86,0.99C13.62,2.17,13.07,2.36,12.77,2.36z M11.71,1.33c0-0.06-0.21-0.17-0.21-0.24 c0-0.01,0.01-0.02,0.03-0.02c0.06,0,0.16,0.02,0.25,0.02c0.07,0,0.08-0.31,0.14-0.31c0.04,0,0.1,0.29,0.16,0.29 c0.07,0,0.2-0.08,0.26-0.08c0.01,0,0.02,0.01,0.02,0.02c0,0.04-0.14,0.19-0.14,0.23c0,0.05,0.31,0.11,0.31,0.15 c0,0.05-0.31,0.05-0.31,0.1c0,0.04,0.11,0.19,0.11,0.24c0,0.01-0.01,0.02-0.02,0.02c-0.04,0-0.21-0.08-0.26-0.08 c-0.06,0-0.16,0.22-0.21,0.22c-0.02,0-0.03-0.02-0.03-0.05L11.8,1.63c0-0.02-0.01-0.04-0.04-0.04c-0.07,0-0.19-0.01-0.23-0.01 c-0.03,0-0.04-0.01-0.04-0.02C11.49,1.52,11.71,1.37,11.71,1.33z M11.55,2.22c0.09,0,0.1,0.21,0.12,0.34 c0.01,0.07,0.02,0.07,0.05,0.07c0.07,0,0.17-0.25,0.24-0.25c0.1,0,0.38,0.29,0.84,0.29c0.66,0,1.28-0.46,1.28-1.28 c0-0.79-0.56-1.25-1.32-1.25c-0.37,0-0.63,0.18-0.77,0.18C11.9,0.32,11.77,0.1,11.7,0.1c-0.03,0-0.05,0.05-0.05,0.15 c0,0.06,0,0.25-0.07,0.25c-0.13,0-0.64-0.38-0.64-0.24c0,0.13,0.34,0.51,0.34,0.6s-0.33,0.19-0.33,0.26c0,0.12,0.35,0.14,0.35,0.29 c0,0.15-0.37,0.27-0.37,0.39c0,0.09,0.37,0.03,0.37,0.14s-0.27,0.5-0.27,0.6c0,0.03,0.01,0.03,0.03,0.03 C11.16,2.58,11.47,2.22,11.55,2.22 M9.08,11.79c0,0.05-0.02,0.1-0.06,0.16c-0.06-0.11-0.23-0.16-0.31-0.16c-0.56,0-0.35,0.81-0.95,0.81 c-0.25,0-0.27-0.03-0.36-0.03c-0.04,0-0.06,0.02-0.06,0.05c0,0.14,0.2,0.49,0.76,0.49c0.56,0,1.1-0.34,1.1-0.77 c0-0.07-0.02-0.15-0.05-0.22c0.02-0.03,0.08-0.05,0.13-0.05c0.09,0,0.14,0.1,0.22,0.1c0.09,0,0.15-0.07,0.15-0.15 c0-0.07-0.04-0.12-0.1-0.15c0.04-0.03,0.08-0.09,0.08-0.15c0-0.09-0.07-0.18-0.17-0.18c-0.05,0-0.08,0.02-0.12,0.05 c-0.01-0.1-0.07-0.19-0.17-0.19c-0.08,0-0.14,0.06-0.14,0.15C9.02,11.63,9.08,11.7,9.08,11.79 M6.1,10.78c0.44,0.11,0.65,0.34,0.7,0.62c0.04,0.27,0.1,0.49,0.2,0.59c0.14,0.15,0.4,0.29,0.64,0.29 c0.2,0,0.35-0.06,0.35-0.24c0-0.2-0.27-0.64-0.66-0.64c-0.04,0-0.09,0.01-0.14,0.01c-0.05,0-0.12-0.01-0.16-0.05 c-0.09-0.08-0.11-0.49-0.28-0.73c-0.18-0.27-0.38-0.35-0.64-0.35c-0.19,0-0.4,0.1-0.4,0.26C5.7,10.62,5.75,10.69,6.1,10.78z  M7.62,12c-0.16,0-0.41-0.17-0.41-0.27c0-0.08,0.08-0.13,0.14-0.13c0.14,0,0.38,0.17,0.38,0.31C7.73,11.95,7.7,12,7.62,12 M7.12,7.75c0-0.35,0.83-0.53,0.83-0.96c0-0.07-0.03-0.2-0.08-0.29c0.29,0.16,0.5,0.43,0.5,0.64 c0,0.38-0.39,0.55-0.39,0.78c0,0.27,0.42,0.32,0.42,0.65C8.4,8.86,8,9.18,8,9.54c0,0.28,0.2,0.51,0.5,0.54 c-0.1,0.02-0.19,0.04-0.28,0.04c-0.55,0-1.12-0.45-1.12-0.99c0-0.27,0.11-0.5,0.29-0.67c0.15,0.13,0.31,0.22,0.4,0.22 c0.09,0,0.13-0.04,0.13-0.11C7.92,8.37,7.12,8.18,7.12,7.75z M8.85,10.5c-0.19,0.09-0.26,0.07-0.26,0.26c0,0.07-0.02,0.16-0.02,0.21 c0,0.07,0.01,0.1,0.09,0.1c0.2,0,0.51-0.33,0.51-0.62c0-0.08-0.04-0.11-0.09-0.11C9.03,10.36,8.98,10.44,8.85,10.5z M8.83,10.11 c0-0.25-0.51-0.25-0.51-0.62c0-0.09,0.06-0.25,0.18-0.42C8.55,9.35,8.67,9.5,8.91,9.59c0.48,0.18,0.55,0.45,0.55,0.74 c0,0.49-0.34,1.1-1.23,1.1c-0.71,0-1.22-0.63-1.22-1.17c0-0.15,0.04-0.31,0.13-0.31c0.08,0,0.11,0.07,0.17,0.13 c0.25,0.25,0.51,0.31,0.9,0.31C8.58,10.4,8.83,10.26,8.83,10.11 M4.97,10.23c0.01,0.11-0.07,0.22-0.18,0.23c-0.11,0.01-0.22-0.07-0.23-0.18c-0.01-0.11,0.07-0.22,0.18-0.23 C4.86,10.03,4.96,10.12,4.97,10.23z M3.96,10.44c0.02,0.19,0.2,0.33,0.39,0.31c0.07-0.01,0.14-0.03,0.18-0.05 c0.04,0.17,0.19,0.29,0.39,0.26c0.2-0.03,0.34-0.18,0.32-0.39c-0.01-0.05-0.02-0.09-0.03-0.13c0,0,0.03,0,0.05-0.01 c0.2-0.04,0.33-0.2,0.31-0.39c-0.02-0.2-0.2-0.34-0.38-0.32C5.11,9.74,5.04,9.77,5,9.81C4.95,9.64,4.79,9.5,4.58,9.54 c-0.19,0.03-0.31,0.19-0.3,0.4c0,0.03,0.01,0.07,0.03,0.11c0,0-0.03,0-0.05,0.01C4.1,10.07,3.93,10.23,3.96,10.44"/></svg>