<svg class="portfolio-client" xmlns="http://www.w3.org/2000/svg" viewBox="0 0 200 100"><path fill="#353534" d="M164.82,68.05c2.92-2.92,5.94-5.84,8.86-8.76c1.01-1.01,1.41-1.61,2.62,0.1c2.11,2.82,1.91,4.53-0.7,6.85
	c-3.83,3.32-7.35,7.05-10.67,10.88c-2.11,2.32-3.12,1.51-4.43-0.6c-3.02-4.63-2.62-9.67-1.81-14.8c0.4-2.52,0.7-4.93,0.5-7.45
	c-0.2-3.52-2.92-6.34-5.84-6.24c-2.72,0.1-4.33,2.32-4.33,6.24c-0.1,4.23-0.2,8.36,0.1,12.59c0.2,2.92-1.71,2.42-3.22,2.22
	c-1.41-0.2-3.83,1.31-3.73-2.11c0.2-4.63,0-9.26,0.1-13.9c0.1-6.44,5.84-11.78,12.49-11.68c6.04,0.1,11.08,5.34,11.28,11.68
	c0.1,4.13-1.21,8.06-1.51,12.08C164.32,66.04,163.92,67.04,164.82,68.05z M43.69,58.08c-2.42,0-4.73,0.1-7.15,0
	c-2.22-0.1-2.22,1.01-1.71,2.52c1.21,3.52,6.55,5.34,9.26,2.62c2.22-2.32,4.63-1.71,7.15-1.91c1.91-0.1,1.71,0.81,1.21,2.11
	c-1.61,3.83-6.65,6.75-11.98,6.65c-5.64-0.1-10.47-3.02-12.18-7.55c-2.22-5.74-0.91-13.39,3.02-17.12
	c3.63-3.42,10.27-4.43,15.21-2.11c4.53,2.11,7.55,8.26,6.75,13.39c-0.3,1.51-1.11,1.41-2.11,1.41
	C48.62,58.08,46.1,58.08,43.69,58.08z M40.26,53.25c1.11,0,2.22-0.1,3.32,0c2.62,0.2,2.62-1.01,1.51-2.82
	c-1.61-2.82-6.34-3.42-8.66-1.01c-0.91,0.91-1.91,2.01-1.41,3.22c0.4,1.31,1.91,0.4,2.92,0.6C38.65,53.35,39.46,53.25,40.26,53.25z
	 M138.84,55.87c0,8.76-5.03,14.2-13.29,14.2s-13.39-5.44-13.29-14.2c0-8.56,5.03-13.9,13.19-14
	C133.81,41.87,138.84,47.1,138.84,55.87z M131.59,55.97c0-5.34-2.42-8.26-6.55-7.96c-3.63,0.2-5.74,3.32-5.64,8.26
	c0.1,4.83,2.42,7.85,6.14,7.96C129.18,64.22,131.59,61,131.59,55.97z M76.92,60.5c1.31-0.1,2.82-0.3,3.73,2.11
	c0.81,2.11,6.55,2.62,8.26,1.01c1.61-1.51,0.81-2.72-0.91-3.32c-2.42-0.81-5.03-1.41-7.45-2.11c-5.14-1.51-7.05-3.52-6.95-7.45
	c0.1-4.33,3.02-7.35,7.85-8.46c4.13-0.91,8.06-0.3,11.68,2.01c0.5,0.3,0.91,0.7,1.21,1.21c0.81,1.61,2.82,3.93,1.01,4.83
	c-1.61,0.81-4.83,1.81-6.55-1.01c-0.7-1.21-1.81-1.81-3.02-1.91c-2.01-0.1-4.43-0.3-4.93,2.11c-0.4,2.32,2.01,2.22,3.52,2.62
	c2.52,0.7,5.03,1.21,7.45,2.11c2.92,1.11,4.73,3.22,4.83,6.65c0.1,3.52-1.41,6.24-4.53,7.65c-4.83,2.11-9.87,2.01-14.8-0.1
	c-1.71-0.7-2.92-2.11-3.73-3.83C71.98,61.2,72.48,60.5,76.92,60.5z M14.18,60.7c1.31-4.63,2.92-9.26,3.93-14
	c0.7-3.22,2.11-4.63,5.44-4.13c1.01,0.2,2.01,0,3.42,0c-3.12,8.76-5.94,17.12-9.16,25.38c-1.01,2.52-3.83,0.7-5.74,1.11
	c-1.21,0.2-2.01-0.2-2.52-1.61c-2.62-7.65-5.34-15.31-8.16-22.96c-0.6-1.31-0.6-2.01,1.11-1.91c1.01,0.1,2.01,0.1,3.02,0
	c2.11-0.3,3.22,0.5,3.73,2.72c1.01,4.53,2.42,8.86,3.73,13.39C13.17,59.39,13.27,60.3,14.18,60.7z M63.02,45.9
	c2.01-1.71,3.52-3.42,5.94-3.63c1.61-0.2,2.72-0.1,2.52,2.01c-0.1,1.01-0.1,2.01,0,3.02c0.2,1.61-0.3,2.11-2.01,2.11
	c-4.73,0.2-6.14,1.81-6.24,6.55c-0.1,3.63-0.1,7.25,0,10.88c0,1.61-0.2,2.42-2.11,2.42c-4.93,0.1-4.93,0.2-4.93-4.73
	c0-6.04-0.1-11.98,0.1-18.02c0-1.31-1.41-3.83,1.61-3.83C60,42.67,63.12,41.26,63.02,45.9z M108.03,55.97c0,3.63-0.2,7.25,0.1,10.77
	c0.2,3.02-1.91,2.32-3.32,2.11c-1.41-0.1-3.83,1.31-3.83-2.01c0.1-7.35,0.1-14.7,0-21.95c0-3.63,2.62-1.71,4.13-2.11
	c1.61-0.3,3.12-0.2,2.92,2.32C107.93,48.82,108.03,52.44,108.03,55.97z"/><path fill="#A2C61B" d="M184.76,47.81c2.82-2.82,5.94-5.64,8.56-8.76c1.61-1.91,2.52-0.7,3.32,0.4c0.81,1.21,3.83,1.71,1.31,4.13
	c-4.83,4.73-9.57,9.57-14.3,14.5c-1.31,1.31-1.91,1.31-3.02-0.2c-3.32-4.33-3.63-9.16-2.92-14.2c0.3-2.62,0.81-5.14,1.01-7.75
	c0.2-2.72-0.7-5.14-3.12-6.75c-2.11-1.41-4.03-1.21-5.84,0.5c-1.71,1.71-2.11,3.52-0.81,5.84c0.6,0.91,2.32,1.71,1.31,3.12
	c-1.11,1.41-2.42,2.72-3.83,3.83c-0.91,0.7-1.31-0.5-1.81-1.01c-3.52-4.03-4.13-9.06-1.61-13.09c3.12-5.14,8.86-7.85,13.69-6.55
	c4.83,1.31,8.56,6.04,8.66,11.28c0.1,4.33-1.21,8.46-1.51,12.79C183.85,46.4,183.55,47.1,184.76,47.81z M108.94,35.73
	c0,2.52-2.11,4.53-4.43,4.43c-2.42-0.1-4.43-2.22-4.43-4.63c0-2.32,2.22-4.53,4.53-4.53C107.02,31.19,108.94,33.21,108.94,35.73z"/></svg>