<svg xmlns="http://www.w3.org/2000/svg" viewBox="0 0 20 20" class="portfolio-client"><path fill="#353534" d="M16.42,11.8c0.29-0.29,0.59-0.58,0.88-0.87c0.1-0.1,0.14-0.16,0.26,0.01c0.21,0.28,0.19,0.45-0.07,0.68 c-0.38,0.33-0.73,0.7-1.06,1.08c-0.21,0.23-0.31,0.15-0.44-0.06c-0.3-0.46-0.26-0.96-0.18-1.47c0.04-0.25,0.07-0.49,0.05-0.74 c-0.02-0.35-0.29-0.63-0.58-0.62c-0.27,0.01-0.43,0.23-0.43,0.62c-0.01,0.42-0.02,0.83,0.01,1.25c0.02,0.29-0.17,0.24-0.32,0.22 c-0.14-0.02-0.38,0.13-0.37-0.21c0.02-0.46,0-0.92,0.01-1.38c0.01-0.64,0.58-1.17,1.24-1.16c0.6,0.01,1.1,0.53,1.12,1.16 c0.01,0.41-0.12,0.8-0.15,1.2C16.37,11.6,16.33,11.7,16.42,11.8z M4.39,10.81c-0.24,0-0.47,0.01-0.71,0c-0.22-0.01-0.22,0.1-0.17,0.25c0.12,0.35,0.65,0.53,0.92,0.26 c0.22-0.23,0.46-0.17,0.71-0.19c0.19-0.01,0.17,0.08,0.12,0.21C5.1,11.72,4.6,12.01,4.07,12c-0.56-0.01-1.04-0.3-1.21-0.75 c-0.22-0.57-0.09-1.33,0.3-1.7c0.36-0.34,1.02-0.44,1.51-0.21c0.45,0.21,0.75,0.82,0.67,1.33c-0.03,0.15-0.11,0.14-0.21,0.14 C4.88,10.81,4.63,10.81,4.39,10.81z M4.05,10.33c0.11,0,0.22-0.01,0.33,0c0.26,0.02,0.26-0.1,0.15-0.28 C4.37,9.77,3.9,9.71,3.67,9.95c-0.09,0.09-0.19,0.2-0.14,0.32c0.04,0.13,0.19,0.04,0.29,0.06C3.89,10.34,3.97,10.33,4.05,10.33z M13.84,10.59c0,0.87-0.5,1.41-1.32,1.41c-0.82,0-1.33-0.54-1.32-1.41c0-0.85,0.5-1.38,1.31-1.39 C13.34,9.2,13.84,9.72,13.84,10.59z M13.12,10.6c0-0.53-0.24-0.82-0.65-0.79c-0.36,0.02-0.57,0.33-0.56,0.82 c0.01,0.48,0.24,0.78,0.61,0.79C12.88,11.42,13.12,11.1,13.12,10.6z M7.69,11.05c0.13-0.01,0.28-0.03,0.37,0.21c0.08,0.21,0.65,0.26,0.82,0.1c0.16-0.15,0.08-0.27-0.09-0.33 c-0.24-0.08-0.5-0.14-0.74-0.21c-0.51-0.15-0.7-0.35-0.69-0.74c0.01-0.43,0.3-0.73,0.78-0.84c0.41-0.09,0.8-0.03,1.16,0.2 c0.05,0.03,0.09,0.07,0.12,0.12c0.08,0.16,0.28,0.39,0.1,0.48c-0.16,0.08-0.48,0.18-0.65-0.1c-0.07-0.12-0.18-0.18-0.3-0.19 C8.37,9.74,8.13,9.72,8.08,9.96c-0.04,0.23,0.2,0.22,0.35,0.26c0.25,0.07,0.5,0.12,0.74,0.21c0.29,0.11,0.47,0.32,0.48,0.66 c0.01,0.35-0.14,0.62-0.45,0.76c-0.48,0.21-0.98,0.2-1.47-0.01c-0.17-0.07-0.29-0.21-0.37-0.38C7.2,11.12,7.25,11.05,7.69,11.05z M1.46,11.07c0.13-0.46,0.29-0.92,0.39-1.39c0.07-0.32,0.21-0.46,0.54-0.41c0.1,0.02,0.2,0,0.34,0 c-0.31,0.87-0.59,1.7-0.91,2.52c-0.1,0.25-0.38,0.07-0.57,0.11c-0.12,0.02-0.2-0.02-0.25-0.16c-0.26-0.76-0.53-1.52-0.81-2.28 C0.13,9.33,0.13,9.26,0.3,9.27c0.1,0.01,0.2,0.01,0.3,0c0.21-0.03,0.32,0.05,0.37,0.27c0.1,0.45,0.24,0.88,0.37,1.33 C1.36,10.94,1.37,11.03,1.46,11.07z M6.31,9.6c0.2-0.17,0.35-0.34,0.59-0.36c0.16-0.02,0.27-0.01,0.25,0.2c-0.01,0.1-0.01,0.2,0,0.3 c0.02,0.16-0.03,0.21-0.2,0.21c-0.47,0.02-0.61,0.18-0.62,0.65c-0.01,0.36-0.01,0.72,0,1.08c0,0.16-0.02,0.24-0.21,0.24 c-0.49,0.01-0.49,0.02-0.49-0.47c0-0.6-0.01-1.19,0.01-1.79c0-0.13-0.14-0.38,0.16-0.38C6.01,9.28,6.32,9.14,6.31,9.6z M10.78,10.6c0,0.36-0.02,0.72,0.01,1.07c0.02,0.3-0.19,0.23-0.33,0.21c-0.14-0.01-0.38,0.13-0.38-0.2 c0.01-0.73,0.01-1.46,0-2.18c0-0.36,0.26-0.17,0.41-0.21c0.16-0.03,0.31-0.02,0.29,0.23C10.77,9.89,10.78,10.25,10.78,10.6z"/><path fill="#A2C61B" d="M18.4,9.79c0.28-0.28,0.59-0.56,0.85-0.87c0.16-0.19,0.25-0.07,0.33,0.04c0.08,0.12,0.38,0.17,0.13,0.41 c-0.48,0.47-0.95,0.95-1.42,1.44c-0.13,0.13-0.19,0.13-0.3-0.02c-0.33-0.43-0.36-0.91-0.29-1.41c0.03-0.26,0.08-0.51,0.1-0.77 c0.02-0.27-0.07-0.51-0.31-0.67c-0.21-0.14-0.4-0.12-0.58,0.05c-0.17,0.17-0.21,0.35-0.08,0.58c0.06,0.09,0.23,0.17,0.13,0.31 c-0.11,0.14-0.24,0.27-0.38,0.38c-0.09,0.07-0.13-0.05-0.18-0.1c-0.35-0.4-0.41-0.9-0.16-1.3c0.31-0.51,0.88-0.78,1.36-0.65 c0.48,0.13,0.85,0.6,0.86,1.12c0.01,0.43-0.12,0.84-0.15,1.27C18.31,9.65,18.28,9.72,18.4,9.79z M10.87,8.59c0,0.25-0.21,0.45-0.44,0.44c-0.24-0.01-0.44-0.22-0.44-0.46c0-0.23,0.22-0.45,0.45-0.45 C10.68,8.14,10.87,8.34,10.87,8.59z"/></svg>