<svg class="portfolio-client" xmlns="http://www.w3.org/2000/svg" viewBox="0 0 200 100"><path fill="#004C6C" d="M92.16,68.54c0.81,0,1.44-0.61,1.44-1.33c0-0.81-0.61-1.33-1.44-1.33c-0.82,0-1.44,0.61-1.44,1.33 S91.35,68.54,92.16,68.54 M92.16,68.54c0.81,0,1.44-0.61,1.44-1.33c0-0.81-0.61-1.33-1.44-1.33c-0.82,0-1.44,0.61-1.44,1.33 S91.35,68.54,92.16,68.54 M30.92,79.7c0-4.71-2.87-8.19-7.58-8.19c-4.61,0-7.68,3.48-7.68,8.19c0,4.71,2.87,8.19,7.58,8.19 C27.84,87.9,30.92,84.41,30.92,79.7 M28.15,79.7c0,3.99-1.94,6.45-4.92,6.45c-2.87,0-4.92-2.45-4.92-6.45 c0-4.09,1.94-6.45,4.92-6.45C26.2,73.25,28.15,75.61,28.15,79.7 M92.16,71.91c-0.71,0-1.33,0.61-1.33,1.33v12.91 c0,0.71,0.61,1.33,1.33,1.33c0.71,0,1.33-0.61,1.33-1.33V73.25C93.5,72.54,92.89,71.91,92.16,71.91 M85.61,73.55 c-0.71-1.23-2.15-2.05-3.99-2.05c-2.35,0-3.99,1.23-5.32,2.77h-0.1v-7.48c0-0.71-0.61-1.33-1.33-1.33s-1.33,0.61-1.33,1.33v19.36 c0,0.71,0.61,1.33,1.33,1.33c0.71,0,1.33-0.61,1.33-1.33V75.81c1.13-1.23,2.77-2.25,4.41-2.25c1.13,0,2.15,0.41,2.77,1.44 c0.31,0.61,0.51,1.44,0.51,2.57v8.6c0,0.71,0.61,1.33,1.33,1.33c0.71,0,1.33-0.61,1.33-1.33v-8.91 C86.53,75.61,86.23,74.48,85.61,73.55 M62.46,75.61c0-1.44,1.23-2.15,3.18-2.15c1.44,0,2.05,0.2,2.97,0.31 c0.71,0.2,1.03-0.31,1.13-0.51c0.1-0.41-0.1-0.93-0.61-1.03c-0.71-0.31-2.05-0.71-3.89-0.71c-2.97,0-5.32,1.54-5.32,4.31 c0,5.32,7.68,3.68,7.68,7.58c0,1.33-0.93,2.67-3.79,2.67c-1.64,0-2.15-0.2-2.87-0.31c-0.61-0.2-0.93,0.2-1.03,0.51 c-0.1,0.31-0.1,0.71,0.51,1.03c0.71,0.31,2.35,0.71,3.89,0.71c3.07,0,6.05-1.44,6.05-4.81C70.15,77.55,62.46,79.09,62.46,75.61  M41.68,71.51c-3.68,0-7.58,0.81-7.58,7.27v7.37c0,0.71,0.61,1.33,1.33,1.33c0.72,0,1.33-0.61,1.33-1.33v-7.68 c0-1.94,0-3.28,0.41-3.68c0.51-0.61,1.84-0.51,4.51-0.51c0.71,0,1.33-0.61,1.33-1.33C43.1,72.12,42.49,71.51,41.68,71.51  M105.37,71.51c-3.58,0-7.58,0.81-7.58,7.27v7.37c0,0.71,0.61,1.33,1.33,1.33s1.33-0.61,1.33-1.33v-7.68c0-1.94,0-3.28,0.41-3.68 c0.61-0.61,1.84-0.51,4.51-0.51c0.71,0,1.33-0.61,1.33-1.33C106.71,72.12,106.1,71.51,105.37,71.51 M197.55,71.51 c-3.58,0-7.58,0.81-7.58,7.27v7.37c0,0.71,0.61,1.33,1.33,1.33s1.33-0.61,1.33-1.33v-7.68c0-1.94,0-3.28,0.41-3.68 c0.51-0.61,1.84-0.51,4.51-0.51c0.71,0,1.33-0.61,1.33-1.33C198.89,72.12,198.28,71.51,197.55,71.51 M15.86,65.68 c-0.71-0.31-1.54,0-1.84,0.61C13.82,66.79,9,76.32,9,76.32H8.9c0,0-4.92-9.63-5.12-10.04s-1.03-1.03-1.94-0.51 c-0.71,0.41-0.81,1.33-0.51,1.94c0.2,0.31,6.25,10.96,6.25,10.96v7.58c0,0.41,0.31,1.33,1.33,1.33c0.93,0,1.33-0.81,1.33-1.33v-7.79 c0,0,6.05-10.76,6.25-11.06C16.78,66.9,16.58,65.98,15.86,65.68 M56.63,85.44c-0.51-0.51-5.84-6.25-5.84-6.25l0,0 c0,0,5.43-4.92,5.63-5.12c0.2-0.2,0.61-1.03-0.1-1.64c-0.41-0.41-1.13-0.51-1.64,0.1c-0.2,0.2-5.94,6.25-5.94,6.25l0,0V66.79 c0-0.71-0.61-1.33-1.33-1.33c-0.72,0-1.33,0.61-1.33,1.33v19.36c0,0.71,0.61,1.33,1.33,1.33c0.72,0,1.33-0.61,1.33-1.33V79.7l0,0 c0,0,5.63,6.96,6.05,7.37c0.41,0.51,1.33,0.61,1.84,0.1C57.14,86.66,57.14,85.85,56.63,85.44 M117.15,78.37l-6.76,0.41 c0-3.79,1.74-5.53,3.89-5.53c2.35,0,3.38,2.05,3.58,4.41C117.87,78.16,117.87,78.37,117.15,78.37 M120.64,78.89 c0-3.38-1.74-7.48-6.15-7.48c-4.09,0-6.76,3.38-6.76,8.5c0,5.53,3.38,7.99,7.68,7.99c2.35,0,3.68-0.61,4.2-0.81 c0.51-0.2,0.61-0.61,0.51-1.03c-0.1-0.42-0.51-0.61-1.03-0.51c-0.61,0.2-1.23,0.41-2.97,0.41c-3.58,0-5.53-1.84-5.63-5.94h9.01 C120.53,80.01,120.64,79.4,120.64,78.89 M183.42,78.37l-6.76,0.41c0-3.79,1.74-5.53,3.89-5.53c2.35,0,3.38,2.05,3.58,4.41 C184.14,78.16,184.14,78.37,183.42,78.37 M186.8,78.89c0-3.38-1.74-7.48-6.15-7.48c-4.09,0-6.76,3.38-6.76,8.5 c0,5.53,3.38,7.99,7.68,7.99c2.35,0,3.68-0.61,4.2-0.81c0.51-0.2,0.61-0.61,0.51-1.03c-0.1-0.41-0.51-0.61-1.03-0.51 c-0.61,0.2-1.23,0.41-3.07,0.41c-3.58,0-5.53-1.84-5.53-5.94h9.01C186.8,80.01,186.8,79.4,186.8,78.89 M157,80.01 c-1.44,0-6.25,0.1-6.25,3.48c0,1.54,0.93,2.77,2.45,2.77C157.61,86.26,157,84.92,157,80.01 M149.93,72.74 c0.93-0.51,2.25-1.13,4.61-1.13c2.57,0,5.22,2.15,5.22,6.35v3.79c0,4.51-0.2,6.35-7.37,6.35c-2.25,0-4.41-1.23-4.41-4.2 c0-3.89,3.48-4.92,9.12-5.02v-0.81c0-3.79-2.25-4.31-3.07-4.31c-1.44,0-2.15,0.1-3.38,0.61C149.42,74.68,149.01,73.35,149.93,72.74  M171.95,86.15c-0.1-0.41-0.41-0.51-0.71-0.41c-0.51,0.1-0.81,0.2-1.54,0.2c-1.23,0-2.25-0.41-2.25-2.15v-9.73h3.58 c0.51,0,1.03-0.41,1.03-1.03c0-0.51-0.41-1.03-1.03-1.03h-3.58v-3.07c0-0.71-0.61-1.33-1.33-1.33c-0.72,0-1.33,0.61-1.33,1.33v3.07 h-2.57c-0.71,0-0.81,1.33,0,1.44c0.51,0.1,2.67,0.51,2.67,0.51V84c0,2.97,1.74,3.79,3.99,3.79c1.23,0,2.05-0.2,2.77-0.51 C171.95,86.97,172.06,86.56,171.95,86.15 M146.96,66.29c-0.61-0.1-1.44,0.1-1.74,1.03c-0.31,1.13-4.61,16.18-4.61,16.18h-0.1 c0,0-3.89-14.85-4.2-16.08c-0.31-1.44-2.57-1.54-2.87,0c-0.41,1.64-3.89,16.18-3.89,16.18h-0.1c0,0-4.71-15.98-4.81-16.29 c-0.31-0.93-1.13-1.13-1.64-1.03c-0.93,0.2-1.13,1.23-1.03,1.64c0.31,0.81,5.22,15.68,6.15,18.33c0.61,1.84,2.45,1.33,2.87,0 c0.31-1.33,3.89-16.18,3.89-16.18h0.1c0,0,4.2,15.88,4.31,16.18c0.41,1.33,2.25,1.64,2.77,0c0.1-0.31,5.94-18.23,6.05-18.33 C148.08,67.52,147.78,66.59,146.96,66.29 M30.92,79.7c0-4.71-2.87-8.19-7.58-8.19c-4.61,0-7.68,3.48-7.68,8.19 c0,4.71,2.87,8.19,7.58,8.19C27.84,87.9,30.92,84.41,30.92,79.7 M28.15,79.7c0,3.99-1.94,6.45-4.92,6.45 c-2.87,0-4.92-2.45-4.92-6.45c0-4.09,1.94-6.45,4.92-6.45C26.2,73.25,28.15,75.61,28.15,79.7 M92.16,71.91 c-0.71,0-1.33,0.61-1.33,1.33v12.91c0,0.71,0.61,1.33,1.33,1.33c0.71,0,1.33-0.61,1.33-1.33V73.25 C93.5,72.54,92.89,71.91,92.16,71.91 M85.61,73.55c-0.71-1.23-2.15-2.05-3.99-2.05c-2.35,0-3.99,1.23-5.32,2.77h-0.1v-7.48 c0-0.71-0.61-1.33-1.33-1.33s-1.33,0.61-1.33,1.33v19.36c0,0.71,0.61,1.33,1.33,1.33c0.71,0,1.33-0.61,1.33-1.33V75.81 c1.13-1.23,2.77-2.25,4.41-2.25c1.13,0,2.15,0.41,2.77,1.44c0.31,0.61,0.51,1.44,0.51,2.57v8.6c0,0.71,0.61,1.33,1.33,1.33 c0.71,0,1.33-0.61,1.33-1.33v-8.91C86.53,75.61,86.23,74.48,85.61,73.55 M62.46,75.61c0-1.44,1.23-2.15,3.18-2.15 c1.44,0,2.05,0.2,2.97,0.31c0.71,0.2,1.03-0.31,1.13-0.51c0.1-0.41-0.1-0.93-0.61-1.03c-0.71-0.31-2.05-0.71-3.89-0.71 c-2.97,0-5.32,1.54-5.32,4.31c0,5.32,7.68,3.68,7.68,7.58c0,1.33-0.93,2.67-3.79,2.67c-1.64,0-2.15-0.2-2.87-0.31 c-0.61-0.2-0.93,0.2-1.03,0.51c-0.1,0.31-0.1,0.71,0.51,1.03c0.71,0.31,2.35,0.71,3.89,0.71c3.07,0,6.05-1.44,6.05-4.81 C70.15,77.55,62.46,79.09,62.46,75.61 M41.68,71.51c-3.68,0-7.58,0.81-7.58,7.27v7.37c0,0.71,0.61,1.33,1.33,1.33 c0.72,0,1.33-0.61,1.33-1.33v-7.68c0-1.94,0-3.28,0.41-3.68c0.51-0.61,1.84-0.51,4.51-0.51c0.71,0,1.33-0.61,1.33-1.33 C43.1,72.12,42.49,71.51,41.68,71.51 M105.37,71.51c-3.58,0-7.58,0.81-7.58,7.27v7.37c0,0.71,0.61,1.33,1.33,1.33 s1.33-0.61,1.33-1.33v-7.68c0-1.94,0-3.28,0.41-3.68c0.61-0.61,1.84-0.51,4.51-0.51c0.71,0,1.33-0.61,1.33-1.33 C106.71,72.12,106.1,71.51,105.37,71.51 M197.55,71.51c-3.58,0-7.58,0.81-7.58,7.27v7.37c0,0.71,0.61,1.33,1.33,1.33 s1.33-0.61,1.33-1.33v-7.68c0-1.94,0-3.28,0.41-3.68c0.51-0.61,1.84-0.51,4.51-0.51c0.71,0,1.33-0.61,1.33-1.33 C198.89,72.12,198.28,71.51,197.55,71.51 M15.86,65.68c-0.71-0.31-1.54,0-1.84,0.61C13.82,66.79,9,76.32,9,76.32H8.9 c0,0-4.92-9.63-5.12-10.04s-1.03-1.03-1.94-0.51c-0.71,0.41-0.81,1.33-0.51,1.94c0.2,0.31,6.25,10.96,6.25,10.96v7.58 c0,0.41,0.31,1.33,1.33,1.33c0.93,0,1.33-0.81,1.33-1.33v-7.79c0,0,6.05-10.76,6.25-11.06C16.78,66.9,16.58,65.98,15.86,65.68  M56.63,85.44c-0.51-0.51-5.84-6.25-5.84-6.25l0,0c0,0,5.43-4.92,5.63-5.12c0.2-0.2,0.61-1.03-0.1-1.64 c-0.41-0.41-1.13-0.51-1.64,0.1c-0.2,0.2-5.94,6.25-5.94,6.25l0,0V66.79c0-0.71-0.61-1.33-1.33-1.33c-0.72,0-1.33,0.61-1.33,1.33 v19.36c0,0.71,0.61,1.33,1.33,1.33c0.72,0,1.33-0.61,1.33-1.33V79.7l0,0c0,0,5.63,6.96,6.05,7.37c0.41,0.51,1.33,0.61,1.84,0.1 C57.14,86.66,57.14,85.85,56.63,85.44 M117.15,78.37l-6.76,0.41c0-3.79,1.74-5.53,3.89-5.53c2.35,0,3.38,2.05,3.58,4.41 C117.87,78.16,117.87,78.37,117.15,78.37 M120.64,78.89c0-3.38-1.74-7.48-6.15-7.48c-4.09,0-6.76,3.38-6.76,8.5 c0,5.53,3.38,7.99,7.68,7.99c2.35,0,3.68-0.61,4.2-0.81c0.51-0.2,0.61-0.61,0.51-1.03c-0.1-0.42-0.51-0.61-1.03-0.51 c-0.61,0.2-1.23,0.41-2.97,0.41c-3.58,0-5.53-1.84-5.63-5.94h9.01C120.53,80.01,120.64,79.4,120.64,78.89 M183.42,78.37l-6.76,0.41 c0-3.79,1.74-5.53,3.89-5.53c2.35,0,3.38,2.05,3.58,4.41C184.14,78.16,184.14,78.37,183.42,78.37 M186.8,78.89 c0-3.38-1.74-7.48-6.15-7.48c-4.09,0-6.76,3.38-6.76,8.5c0,5.53,3.38,7.99,7.68,7.99c2.35,0,3.68-0.61,4.2-0.81 c0.51-0.2,0.61-0.61,0.51-1.03c-0.1-0.41-0.51-0.61-1.03-0.51c-0.61,0.2-1.23,0.41-3.07,0.41c-3.58,0-5.53-1.84-5.53-5.94h9.01 C186.8,80.01,186.8,79.4,186.8,78.89 M157,80.01c-1.44,0-6.25,0.1-6.25,3.48c0,1.54,0.93,2.77,2.45,2.77 C157.61,86.26,157,84.92,157,80.01 M149.93,72.74c0.93-0.51,2.25-1.13,4.61-1.13c2.57,0,5.22,2.15,5.22,6.35v3.79 c0,4.51-0.2,6.35-7.37,6.35c-2.25,0-4.41-1.23-4.41-4.2c0-3.89,3.48-4.92,9.12-5.02v-0.81c0-3.79-2.25-4.31-3.07-4.31 c-1.44,0-2.15,0.1-3.38,0.61C149.42,74.68,149.01,73.35,149.93,72.74 M171.95,86.15c-0.1-0.41-0.41-0.51-0.71-0.41 c-0.51,0.1-0.81,0.2-1.54,0.2c-1.23,0-2.25-0.41-2.25-2.15v-9.73h3.58c0.51,0,1.03-0.41,1.03-1.03c0-0.51-0.41-1.03-1.03-1.03h-3.58 v-3.07c0-0.71-0.61-1.33-1.33-1.33c-0.72,0-1.33,0.61-1.33,1.33v3.07h-2.57c-0.71,0-0.81,1.33,0,1.44c0.51,0.1,2.67,0.51,2.67,0.51 V84c0,2.97,1.74,3.79,3.99,3.79c1.23,0,2.05-0.2,2.77-0.51C171.95,86.97,172.06,86.56,171.95,86.15 M146.96,66.29 c-0.61-0.1-1.44,0.1-1.74,1.03c-0.31,1.13-4.61,16.18-4.61,16.18h-0.1c0,0-3.89-14.85-4.2-16.08c-0.31-1.44-2.57-1.54-2.87,0 c-0.41,1.64-3.89,16.18-3.89,16.18h-0.1c0,0-4.71-15.98-4.81-16.29c-0.31-0.93-1.13-1.13-1.64-1.03c-0.93,0.2-1.13,1.23-1.03,1.64 c0.31,0.81,5.22,15.68,6.15,18.33c0.61,1.84,2.45,1.33,2.87,0c0.31-1.33,3.89-16.18,3.89-16.18h0.1c0,0,4.2,15.88,4.31,16.18 c0.41,1.33,2.25,1.64,2.77,0c0.1-0.31,5.94-18.23,6.05-18.33C148.08,67.52,147.78,66.59,146.96,66.29"/><path fill="#A2DCED" d="M193.97,58.6c0,0,4.71,0,4.71-4.71V16.61c0,0,0-4.71-4.71-4.71H5.83c0,0-4.71,0-4.71,4.71V54 c0,0,0,4.71,4.71,4.71h188.14C193.97,58.71,193.97,58.6,193.97,58.6z"/><path fill="#00B5EF" d="M5.83,58.6h188.14c0,0,4.71,0,4.71-4.71V42.01c-12.08-1.44-35.85-3.89-51.82-3.89 c-27.35,0-73.44-13.21-133.25-13.21c-3.28,0-7.48,0.2-12.4,0.61v28.37C1.11,53.99,1.11,58.6,5.83,58.6"/><path fill="#004C6C" d="M11.35,39.76c40.56,0,73.02-3.07,76.92-3.07c23.76,0,82.65,7.27,110.41,8.7V23.27c-1.13,0-2.25,0-3.48,0 c-29.7,0-98.84,12.8-106.42,12.8c-11.88,0-47.52-11.06-79.58-11.06c-2.57,0-5.22,0.1-8.09,0.2v14.34 C5.21,39.66,9.21,39.76,11.35,39.76"/><path fill="#FFFFFF" d="M10.74,49.59c70.47,0,105.59-10.96,133.76-19.87c17.72-5.53,31.75-9.93,49.47-9.93h4.61v-1.03h-4.61 c-17.92,0-32.05,4.41-49.88,10.04c-28.06,8.8-63.09,19.77-133.35,19.77c-0.1,0-4.71,0-9.63,0v1.03 C5.83,49.59,10.34,49.59,10.74,49.59 M11.97,19.59c7.27,0,22.12,1.03,39.43,7.17c0.31,0.1,30.73,11.88,51.41,14.44 c0.71,0.1,51.11,6.96,92.08,7.58h3.68v-0.93l-3.68-0.1c-34.72,0.41-91.25-7.06-91.97-7.17c-20.58-2.57-50.9-14.34-51.21-14.44 c-17.52-6.25-32.37-7.17-39.64-7.27H1.11v0.61h10.86V19.59z"/></svg>