<svg xmlns="http://www.w3.org/2000/svg" viewBox="0 0 20 20" width="40"><path fill="#2684FF" d="M0.7,1C0.4,1,0.1,1.3,0.1,1.6c0,0,0,0.1,0,0.1l2.7,16.4c0.1,0.4,0.4,0.7,0.8,0.7h12.9c0.3,0,0.6-0.2,0.6-0.5 l2.7-16.6C20,1.4,19.7,1.1,19.4,1c0,0-0.1,0-0.1,0L0.7,1z M12.1,12.8H8L6.8,7h6.2L12.1,12.8z"/><linearGradient id="bbg" gradientUnits="userSpaceOnUse" x1="3.569" y1="19.4614" x2="20.5774" y2="9.6416"><stop offset="0.1748" id="bbg0"/><stop offset="1" id="bbg1"/></linearGradient><path fill="url(#bbg)" d="M19,7h-6l-1,5.8H8l-4.9,5.8c0.2,0.1,0.4,0.2,0.6,0.2h12.9c0.3,0,0.6-0.2,0.6-0.5L19,7z"/></svg>