<svg xmlns="http://www.w3.org/2000/svg" viewBox="0 0 20 20" width="40"><path d="M18.66,5.23c-0.89-1.53-2.11-2.75-3.64-3.64c-1.53-0.89-3.2-1.34-5.02-1.34c-1.81,0-3.49,0.45-5.02,1.34 C3.45,2.48,2.24,3.69,1.34,5.23C0.45,6.76,0,8.43,0,10.24c0,2.18,0.64,4.14,1.91,5.88c1.27,1.74,2.91,2.94,4.93,3.61 c0.23,0.04,0.41,0.01,0.52-0.09c0.11-0.1,0.17-0.23,0.17-0.39c0-0.03,0-0.26-0.01-0.7c0-0.44-0.01-0.83-0.01-1.16l-0.3,0.05 c-0.19,0.03-0.43,0.05-0.72,0.05c-0.29,0-0.59-0.03-0.9-0.09c-0.31-0.06-0.6-0.19-0.87-0.39c-0.27-0.2-0.46-0.47-0.57-0.8l-0.13-0.3 c-0.09-0.2-0.22-0.42-0.41-0.66C3.41,15,3.22,14.84,3.03,14.75l-0.09-0.07c-0.06-0.04-0.12-0.1-0.17-0.16 c-0.05-0.06-0.09-0.12-0.12-0.18c-0.03-0.06,0-0.11,0.07-0.15s0.2-0.06,0.38-0.06l0.26,0.04c0.17,0.03,0.39,0.14,0.64,0.31 c0.26,0.17,0.47,0.4,0.63,0.68c0.2,0.36,0.44,0.63,0.72,0.81c0.28,0.19,0.57,0.28,0.85,0.28s0.53-0.02,0.74-0.06 c0.21-0.04,0.4-0.11,0.59-0.2c0.08-0.58,0.29-1.03,0.64-1.34c-0.49-0.05-0.94-0.13-1.33-0.23c-0.39-0.1-0.8-0.27-1.22-0.51 c-0.42-0.23-0.77-0.53-1.05-0.87c-0.28-0.35-0.51-0.8-0.68-1.37c-0.18-0.56-0.27-1.22-0.27-1.95c0-1.05,0.34-1.94,1.03-2.68 C4.33,6.25,4.36,5.37,4.74,4.38c0.25-0.08,0.63-0.02,1.12,0.18c0.49,0.2,0.86,0.36,1.09,0.5C7.18,5.2,7.36,5.32,7.5,5.41 C8.31,5.19,9.14,5.08,10,5.08c0.86,0,1.69,0.11,2.5,0.34l0.49-0.31c0.34-0.21,0.74-0.4,1.2-0.57c0.46-0.17,0.81-0.22,1.06-0.14 c0.39,0.98,0.43,1.87,0.1,2.66c0.69,0.74,1.03,1.63,1.03,2.68c0,0.74-0.09,1.39-0.27,1.96c-0.18,0.57-0.41,1.02-0.69,1.37 c-0.28,0.34-0.63,0.63-1.05,0.87c-0.42,0.23-0.83,0.4-1.22,0.51c-0.4,0.1-0.84,0.18-1.33,0.23c0.45,0.39,0.68,1.01,0.68,1.85v2.75 c0,0.16,0.05,0.29,0.16,0.39c0.11,0.1,0.28,0.13,0.51,0.09c2.01-0.67,3.66-1.87,4.93-3.61c1.27-1.74,1.91-3.7,1.91-5.88 C20,8.43,19.55,6.76,18.66,5.23z"/></svg>