<?xml version="1.0" encoding="utf-8"?>
<!DOCTYPE svg PUBLIC "-//W3C//DTD SVG 1.1//EN" "http://www.w3.org/Graphics/SVG/1.1/DTD/svg11.dtd">
<svg version="1.1" id="Layer_1" width="80px" height="114px" xmlns:svg="http://www.w3.org/2000/svg"
	 xmlns="http://www.w3.org/2000/svg" xmlns:xlink="http://www.w3.org/1999/xlink" x="0px" y="0px" viewBox="0 0 80 113.9"
	 enable-background="new 0 0 80 113.9" xml:space="preserve">
<polygon fill="#FC6D26" points="46.2,88.4 40,82.2 33.8,88.4 25.5,88.4 25.5,108.9 54.5,108.9 54.5,88.4 "/>
<rect x="3.1" y="94.4" fill="none" width="73.8" height="14.5"/>
<text transform="matrix(1 0 0 1 30.2653 103.306)" fill="#FFFFFF" font-family="'Lato-Bold'" font-size="12">GIT</text>
<title>logo-square</title>
<g id="Group" transform="translate(0.666658, 0.666658)">
	<g transform="translate(0.532000, 0.774933)">
		<path id="path46" fill="#FC6D26" d="M-0.4,43.7L4,30.1l8.7-26.9c0.5-1.4,2.4-1.4,2.9,0l8.7,26.9h29L62,3.2c0.5-1.4,2.4-1.4,2.9,0
			l8.7,26.9L78,43.7c0.4,1.2,0,2.6-1.1,3.4L38.8,74.8L0.7,47.1C-0.4,46.3-0.8,45-0.4,43.7"/>
	</g>
	<g transform="translate(156.197863, 1.160267)">
		<path id="path50" fill="#E24329" d="M-116.9,74.4L-116.9,74.4l-14.5-44.6h29L-116.9,74.4L-116.9,74.4z"/>
	</g>
	<g transform="translate(28.531199, 1.160800)">
		<path id="path58" fill="#FC6D26" d="M10.8,74.4l14.5-44.6h20.3L10.8,74.4L10.8,74.4z"/>
	</g>
	<g transform="translate(0.088533, 0.255867)">
		<path id="path66" fill="#FCA326" d="M74.1,30.7L74.1,30.7l4.4,13.6c0.4,1.2,0,2.6-1.1,3.4L39.3,75.3L74.1,30.7L74.1,30.7z"/>
	</g>
	<g transform="translate(29.421866, 280.255593)">
		<path id="path74" fill="#E24329" d="M44.7-249.3H24.4l8.7-26.9c0.5-1.4,2.4-1.4,2.9,0L44.7-249.3L44.7-249.3z"/>
	</g>
	<g transform="translate(247.197860, 1.160800)">
		<path id="path78" fill="#FC6D26" d="M-207.9,74.4l-14.5-44.6h-20.3L-207.9,74.4L-207.9,74.4z"/>
	</g>
	<g transform="translate(246.307061, 0.255867)">
		<path id="path82" fill="#FCA326" d="M-241.8,30.7L-241.8,30.7l-4.4,13.6c-0.4,1.2,0,2.6,1.1,3.4l38.2,27.8L-241.8,30.7
			L-241.8,30.7z"/>
	</g>
	<g transform="translate(336.973725, 280.255593)">
		<path id="path86" fill="#E24329" d="M-332.4-249.3h20.3l-8.7-26.9c-0.5-1.4-2.4-1.4-2.9,0L-332.4-249.3L-332.4-249.3z"/>
	</g>
</g>
</svg>
