<?xml version="1.0" encoding="utf-8"?>
<!DOCTYPE svg PUBLIC "-//W3C//DTD SVG 1.1//EN" "http://www.w3.org/Graphics/SVG/1.1/DTD/svg11.dtd">
<svg version="1.1" id="Layer_1" width="80px" height="114px" xmlns:svg="http://www.w3.org/2000/svg" xmlns="http://www.w3.org/2000/svg" xmlns:xlink="http://www.w3.org/1999/xlink" x="0px" y="0px" viewBox="0 0 80 113.9" enable-background="new 0 0 80 113.9" xml:space="preserve">
<path id="path4" fill="none" d="M0,0h80v80H0V0z"/>
<path id="path6" fill="#00AFF0" d="M11.9,6.9c6.4-4.6,15.3-5,22.1-1.1c7.6-1.3,15.7-0.1,22.5,3.6c7.6,4.1,13.6,11.1,16.3,19.3
	c1.9,5.5,2.4,11.5,1.4,17.3c2.4,4.3,3.3,9.5,2.3,14.3c-1,5.3-4.3,10.2-8.9,13.2c-6.3,4.2-15,4.5-21.6,0.7c-7.3,1.3-15,0.2-21.7-3.2
	c-7.7-3.9-13.8-10.7-16.8-18.8C5.3,46.4,4.8,40.1,5.8,34c-2.5-4.4-3.3-9.7-2.2-14.6C4.6,14.4,7.7,9.8,11.9,6.9z"/>
<path id="path8" fill="#FFFFFF" d="M15.3,10.9c3.9-2.6,8.9-3.2,13.3-1.7c1.6,0.5,3,1.4,4.4,2.2c5.5-1.2,11.4-1,16.7,0.9
	c8.5,2.9,15.4,10,18.2,18.5c1.8,5.2,1.9,10.9,0.7,16.2c1.4,2.3,2.6,4.7,2.8,7.3c0.7,5-1.4,10.2-5.2,13.5c-3.7,3.3-9.2,4.6-14,3.2
	c-1.9-0.5-3.6-1.5-5.3-2.4c-5.8,1.3-12,1-17.5-1.2C21.2,64.3,14.6,57.4,12,49c-1.7-5.1-1.8-10.7-0.6-16c-1.8-2.8-3-5.9-3-9.3
	C8.3,18.7,11.1,13.7,15.3,10.9z"/>
<path id="path10" fill="#00AFF0" d="M35.4,19c5-0.8,10.3,0,14.7,2.4c1.9,1.1,3.8,2.5,4.7,4.6c0.6,1.4,0.7,3.2-0.4,4.3
	c-1.2,1.2-3.1,1.6-4.7,1.1c-1.8-0.8-2.7-2.7-4.3-3.8c-2-1.6-4.6-2-7.1-2c-1.8,0.1-3.7,0.5-5,1.8c-1.2,1.3-1.7,3.5-0.5,5
	c1.1,1.3,2.8,1.8,4.4,2.2c3,0.8,6.1,1.4,9.1,2.1c3.2,0.7,6.3,2.1,8.4,4.7c3.6,4.7,2.8,12-1.7,15.9c-3.6,3.2-8.5,4-13.2,4.1
	c-4.9-0.1-10.2-1.1-14-4.5c-1.9-1.7-3.5-4.3-2.9-7c0.6-2.6,4.2-3.6,6.3-2c1.6,1.3,2.4,3.2,3.9,4.5c1.8,1.7,4.3,2.3,6.7,2.3
	c2.4,0.1,4.9-0.7,6.5-2.5c1.1-1.2,1.7-3.1,1-4.6c-0.6-1.5-2.1-2.3-3.5-2.7c-2.7-0.7-5.3-1.3-8-2c-2.9-0.7-6-1.4-8.5-3.1
	c-2-1.3-3.4-3.3-3.9-5.7c-0.8-3.6-0.2-7.8,2.4-10.6C28.4,20.8,31.9,19.5,35.4,19z"/>
<polygon fill="#00AFF0" points="46.2,88.4 40,82.2 33.8,88.4 16.5,88.4 16.5,108.9 63.5,108.9 63.5,88.4 "/>
<rect x="3.1" y="94.4" fill="none" width="73.8" height="14.5"/>
<text transform="matrix(1 0 0 1 21.5446 103.306)" fill="#FFFFFF" font-family="'Lato-Bold'" font-size="12">SKYPE</text>
</svg>
