<svg xmlns="http://www.w3.org/2000/svg" viewBox="0 0 20 20"><path d="M10.83,8.98V8.95c-0.01,0.01-0.01,0.02-0.02,0.03H10.83z M0,0v20h20V0H0z M6.22,16.62H3.25V7.69h2.97h0L6.22,16.62z M4.74,6.47H4.72c-1,0-1.64-0.69-1.64-1.54c0-0.88,0.66-1.54,1.68-1.54c1.02,0,1.64,0.67,1.66,1.54C6.42,5.78,5.77,6.47,4.74,6.47z M16.92,16.62h-2.97v-4.78c0-1.2-0.43-2.02-1.5-2.02c-0.82,0-1.31,0.55-1.52,1.09c-0.08,0.19-0.1,0.46-0.1,0.72v4.99H7.86 c0,0,0.04-8.09,0-8.93h2.97v1.27c0.39-0.61,1.1-1.47,2.67-1.47c1.95,0,3.42,1.28,3.42,4.02V16.62z"/></svg>