<svg version="1.1" id="Layer_1" xmlns="http://www.w3.org/2000/svg" xmlns:xlink="http://www.w3.org/1999/xlink" x="0px" y="0px" viewBox="0 0 20 20" enable-background="new 0 0 20 20" xml:space="preserve" fill="#AAC148">
<path d="M15.1,6.6H4.9C4.7,6.6,4.5,6.8,4.5,7v8.5c0,0.2,0.2,0.4,0.4,0.4h1.8v2.9c0,0.7,0.5,1.2,1.2,1.2l0,0
	c0.7,0,1.2-0.5,1.2-1.2v-2.9h1.7v2.9c0,0.7,0.5,1.2,1.2,1.2l0,0c0.7,0,1.2-0.5,1.2-1.2v-2.9h1.8c0.2,0,0.4-0.2,0.4-0.4V7
	C15.5,6.8,15.3,6.6,15.1,6.6z"/>
<path d="M2.8,6.6L2.8,6.6c-0.7,0-1.2,0.5-1.2,1.2v4.9c0,0.7,0.5,1.2,1.2,1.2l0,0c0.7,0,1.2-0.5,1.2-1.2V7.8
	C4,7.1,3.5,6.6,2.8,6.6z"/>
<path d="M17.2,6.6L17.2,6.6c-0.7,0-1.2,0.5-1.2,1.2v4.9c0,0.7,0.5,1.2,1.2,1.2l0,0c0.7,0,1.2-0.5,1.2-1.2V7.8
	C18.4,7.1,17.9,6.6,17.2,6.6z"/>
<path d="M5,6h10c0.3,0,0.5-0.2,0.4-0.5C15,3.9,14,2.6,12.7,1.9l0.9-1.5c0.1-0.1,0-0.2-0.1-0.3
	c-0.1-0.1-0.2,0-0.3,0.1l-0.9,1.5c-0.7-0.3-1.5-0.5-2.3-0.5c-0.8,0-1.6,0.2-2.3,0.5L6.8,0.1C6.8,0,6.6,0,6.5,0
	C6.4,0.1,6.4,0.2,6.4,0.3l0.9,1.5C5.9,2.6,4.9,3.9,4.6,5.5C4.6,5.8,4.7,6,5,6z M13,3.7c0,0.3-0.2,0.5-0.5,0.5C12.2,4.2,12,4,12,3.7
	c0-0.3,0.2-0.5,0.5-0.5C12.8,3.3,13,3.5,13,3.7z M7.5,3.3c0.3,0,0.5,0.2,0.5,0.5c0,0.3-0.2,0.5-0.5,0.5C7.2,4.2,7,4,7,3.7
	C7,3.5,7.2,3.3,7.5,3.3z"/>
</svg>
