<svg xmlns="http://www.w3.org/2000/svg">
	<path fill="#9DBE3B" d="M20.78,59.66c8.84-0.61,19.64-0.85,28.6-1.28c10.73-0.55,22.38-0.85,33.12-1.04c0,0.12-0.85,0.3,0,0.3 c3.6,0.12,3.6,0.3,3.6,0.55c0,0.12-2.68,0.06-1.77,0.12c-1.34,0-3.11,0.06-4.27,0.12c-1.1,0.06-1.59,0.12-0.24,0.12 c0.91,0.12,4.45-0.06,5.37,0.06c0.91,0.18-0.85,0.37,0,0.49c0.91,0,2.68-0.06,3.6-0.06c0.91,0.12-0.85,0.37,0,0.3 c1.34,0.06,2.93,0.06,4.57,0c1.65,0,3.48-0.06,5.25-0.06c0,0.12,0.91,0.24-0.91,0.3c-15.61,0.12-31.47,0.55-47.27,1.1 c-15.8,0.55-31.59,1.28-47.14,2.13c-3.54,0.12-0.91-0.24,1.71-0.55c-0.85,0.12-0.91-0.06-1.77,0.06c-0.06-0.18,1.71-0.55,5.25-0.79 c-0.91,0.06-1.77,0.12-2.68,0.18c-0.91,0-0.06-0.18-0.06-0.3c0.91-0.06,1.77-0.12,1.77-0.18c0-0.06-0.06-0.18-0.06-0.24 c-0.91,0.06-2.68,0.18-3.54,0.18C4.8,61.13,5.65,61.06,5.65,61c0-0.06-0.06-0.18-0.06-0.24c1.77-0.18,4.45-0.18,6.22-0.37v-0.18 c-1.77,0.06-4.45,0.24-6.22,0.37c0.85-0.12,0.85-0.18,0.85-0.24c2.68-0.18,5.37-0.18,7.99-0.49c-0.91,0.06-1.77,0.12-2.68,0.12 c0.85-0.18,2.44-0.3,4.09-0.37C17.67,59.78,19.44,59.72,20.78,59.66"/> <path fill="#353331" d="M16.31,45.08c-0.73,3.45-3.37,5.35-7.26,5.35c-4.84,0-7.85-2.71-7.85-7.19c0-4.55,3.01-7.33,7.85-7.33 c3.74,0,6.38,1.83,7.11,4.91h-2.71c-0.66-1.83-2.13-2.79-4.33-2.79c-3.23,0-5.06,1.91-5.06,5.06c0,3.23,1.91,5.13,5.13,5.13 c2.27,0,3.74-1.03,4.4-3.23h2.71V45.08z M28.7,43.18c-1.54,0.44-3.23,0.81-5.43,1.03c-2.49,0.22-3.3,0.73-3.3,1.98c0,1.39,1.17,2.13,3.45,2.13 c1.91,0,3.3-0.44,4.33-1.39c0.81-0.73,1.03-1.32,1.03-2.57v-1.17H28.7z M17.63,40.83c0.15-1.32,0.44-2.05,0.95-2.79 c1.17-1.39,3.23-2.13,6.16-2.13c2.35,0,4.03,0.37,5.21,1.17c0.95,0.66,1.39,1.61,1.39,3.3v6.09c0,1.32,0.37,1.83,1.32,1.76 c0.15,0,0.44,0,0.66-0.07V50c-0.51,0.15-0.88,0.22-1.47,0.22c-1.76,0-2.57-0.51-3.08-2.05c-1.76,1.61-3.52,2.27-6.09,2.27 c-3.45,0-5.5-1.54-5.5-4.11c0-1.47,0.81-2.79,2.13-3.37c1.03-0.44,1.69-0.59,4.62-0.88c2.57-0.22,2.93-0.29,3.67-0.51 c0.81-0.22,1.1-0.66,1.1-1.39c0-1.47-1.25-2.13-3.81-2.13c-3.08,0-4.25,0.73-4.47,2.79C20.41,40.83,17.63,40.83,17.63,40.83z M37.79,36.28h3.89v2.2h-3.89v7.92c0,1.25,0.37,1.54,1.76,1.54c0.59,0,0.88,0,1.54-0.15v2.27 c-1.1,0.15-1.61,0.22-2.27,0.22c-1.39,0-2.49-0.29-3.08-0.88c-0.59-0.51-0.73-1.17-0.73-2.93v-7.99h-2.93v-2.2h2.93v-3.81h2.79 V36.28z M54.44,41.86c-0.66-2.42-2.49-3.81-5.13-3.81s-4.47,1.39-5.13,3.81H54.44z M44.17,43.98 c0.29,2.64,2.35,4.33,5.43,4.33c2.2,0,3.74-0.81,4.47-2.49h3.01c-1.39,3.15-3.96,4.69-7.7,4.69c-4.69,0-7.92-2.86-7.92-7.19 s3.23-7.33,7.92-7.33c3.37,0,6.16,1.54,7.26,4.11c0.51,1.17,0.66,2.2,0.66,3.96H44.17V43.98z M61.63,36.28v2.05c1.69-1.91,2.71-2.42,4.69-2.42c0.51,0,0.95,0,1.76,0.15v2.71 c-0.81-0.22-1.25-0.22-1.91-0.22c-1.47,0-2.64,0.44-3.52,1.39c-0.81,0.81-1.03,1.39-1.03,2.64v7.55h-2.86V36.28H61.63z M69.47,50.07h2.79V36.28h-2.79V50.07z M69.47,34.3h2.79v-2.86h-2.79V34.3z M79.22,36.28h3.89v2.2h-3.89v7.92c0,1.25,0.37,1.54,1.76,1.54c0.59,0,0.88,0,1.54-0.15v2.27 c-1.1,0.15-1.61,0.22-2.27,0.22c-1.39,0-2.49-0.29-3.08-0.88c-0.59-0.51-0.73-1.17-0.73-2.93v-7.99H73.5v-2.2h2.93v-3.81h2.79 C79.22,32.47,79.22,36.28,79.22,36.28z M96.24,41.86c-0.66-2.42-2.49-3.81-5.13-3.81s-4.47,1.39-5.13,3.81H96.24z M85.9,43.98 c0.29,2.64,2.35,4.33,5.43,4.33c2.2,0,3.74-0.81,4.47-2.49h3.01c-1.39,3.15-3.96,4.69-7.7,4.69c-4.69,0-7.92-2.86-7.92-7.19 s3.23-7.33,7.92-7.33c3.37,0,6.16,1.54,7.26,4.11c0.51,1.17,0.66,2.2,0.66,3.96H85.9V43.98z"/>
</svg>