<svg xmlns:svg="http://www.w3.org/2000/svg" xmlns="http://www.w3.org/2000/svg" xmlns:xlink="http://www.w3.org/1999/xlink" x="0px" y="0px" viewBox="0 0 173.76 61.35" enable-background="new 0 0 173.76 61.35" xml:space="preserve" class="portfolio-client">
	<path fill="#40AAA7" d="M170.91,34.64c1.18,0.09,1.71,0.61,1.77,1.54c0.06,0.92-0.4,1.6-1.33,1.67c-1.1,0.08-1.82-0.55-1.78-1.67 C169.6,35.28,170.3,34.83,170.91,34.64z"/>
	<path fill="#1E1D1B" d="M98.76,19.99c1.1,0.26,1.27,1.03,1,1.88c-0.54,1.66-0.96,3.58-3.24,3.53c-0.85-0.02-1.45-0.94-1.2-1.8 C95.83,21.84,96.92,20.51,98.76,19.99z M67.12,27.68c0.56-0.86,1.22-1.93-0.31-2.66c-1.13-0.54-1.69,0.05-2.29,0.95c-1.34,2.03-2.78,4-4.24,6.08 c-0.39-0.49-0.73-0.77-0.86-1.12c-1.76-4.74-1.76-4.75-6.11-2.57c-0.61,0.31-1.14,0.75-1.86,0.39c-3.88-1.9-6.41,0.59-8.98,2.82 c-1.7,1.48-3.31,3.07-5.18,4.83c-0.19-2.7,0.62-7.94,1.29-9.05c1.26-2.08,3.44-0.87,5.15-1.38c1.75-0.52,1.88-2.37,1.32-2.74 c-1.88-1.21-4.59-1.25-5.08-4.18c-0.46,0.2-1.24,0.31-1.33,0.62c-0.9,3.01-3.21,2.82-5.57,2.59c-1.11-0.11-1.81,0.28-1.94,1.51 c-0.12,1.09,0.15,1.91,1.29,2.17c0.9,0.2,1.82,0.29,2.93,0.46c-1.57,3.49-3.9,6.07-6.73,8.23c-0.89,0.68-2.05,1.36-2.94,0.47 c-1.21-1.2,0.36-1.83,0.98-2.56c0.88-1.03,1.89-1.9,2.42-3.23c0.55-1.39,0.81-2.66-0.51-3.67c-1.47-1.13-2.84-0.56-4.02,0.54 c-1.34,1.23-2.13,2.83-2.54,4.56c-0.53,2.21-1.81,4.18-4.02,3.65c-1.91-0.46-2.15-2.9-2.08-4.86c0.04-1.08,0.21-2.16,0.39-3.23 c0.78-4.71,2.55-9.12,4.03-13.63c0.44-1.35,1.46-2.71,0.36-4.22c-0.54,0-1.09,0-1.63,0c-3.21,2.16-3.74,5.83-5.03,9.06 c-0.75,1.87-1.09,3.91-2.93,5.22C6.07,26.3,2.68,31.05,1.08,37.03c0,0.82,0,1.63,0,2.45c3.14,3.83,5.08,3.33,11.5-3.14 c0.4,0.7,0.79,1.6,1.52,1.74c4.07,0.84,8.28,0.59,12.37,1.71c1.69,0.46,3.4-1.73,5.2-2.62c1.48,5.22,2.84,5.76,7.18,3.03 c0.96-0.6,1.61-1.08,2.88-0.36c4.41,2.5,8.26,1.17,10.94-3.45c0.7-1.2,0.61-2.97,2.58-3.62c1,2.13-0.36,3.34-1.57,4.52 c-3.61,3.5-7.05,7.15-10.16,11.1c-0.76,0.96-1.65,1.99-0.96,3.29c0.53,1,1.38,1.7,2.59,0.79c4.42-4.69,8.84-9.38,13.35-14.17 c0.98,1.61,1.54,2.89,2.42,3.88c0.9,1.02,2.22,0.88,3.4,0.36c0.78-0.34,1.39-0.95,1.35-1.86c-0.04-0.73-0.54-1.19-1.28-1.36 c-3.5-0.82-3.62-2.7-1.7-5.31C64.23,31.95,65.71,29.84,67.12,27.68z M11.55,31.06c-1.36,2.32-2.83,4.55-6.22,6.39 c0.81-3.78,2.36-5.91,4.34-7.77c0.47-0.44,1.11-1,1.76-0.49C12.06,29.67,11.9,30.47,11.55,31.06z M49.29,33.23 c-0.37,1.92-1.78,2.94-3.4,3.66c-0.84-0.13-1.42-0.62-1.24-1.35c0.46-1.9,1.83-2.96,3.7-3.32C49.02,32.09,49.39,32.7,49.29,33.23z M165.55,36.49c-2.41-1.44-1.93-4.82-4.16-6c-2.07-1.09-3.2,1.36-4.88,2.22c0-0.48-0.07-0.89,0.01-1.26 c0.33-1.4,1.38-3.09-0.35-4.01c-1.91-1-2.84,0.9-3.89,2.07c-1.62,1.8-2.88,3.96-5.11,5.17c-0.78,0.43-1.6,0.55-2.18-0.23 c-0.49-0.66-0.05-1.25,0.43-1.78c0.45-0.5,0.92-1.01,1.29-1.57c1.01-1.55,2.55-2.99,1.8-5.09c-0.34-0.96-1.38-1.33-2.39-1.18 c-2.38,0.35-3.21,2.23-3.94,4.18c-0.14,0.38-0.43,0.76-0.43,1.13c0.06,2.75-1.75,4.2-3.98,4.16c-2.12-0.03-0.85-2.77-1.9-3.94 c-0.18-0.02-0.35-0.05-0.51-0.08c-1.52-0.04-1.75,2.14-3.45,2.41c0.48-1.96,1.81-2.96,3.02-4.03c1.79-3.03,3.77-5.97,4.7-9.41 c0.44-1.62,1.51-3.68-0.5-4.78c-1.85-1.02-2.89,0.97-3.93,2.09c-2.91,3.14-5,6.86-5.96,10.98c-1.14,4.87-5.23,6.68-8.67,9.17 c-0.86,0.63-2.41,1.17-2.86-0.78c-0.56-2.4,2.58-5.87,4.85-5.18c0.98,0.3,1.73,1.51,2.32-0.29c0.57-1.74-0.39-2.69-1.89-2.94 c-2.99-0.51-5.32,0.88-7.03,3.17c-1.76,2.35-4.19,3.71-6.84,5.5c0.3-1.98,0.37-3.62,0.83-5.15c0.79-2.61,0.38-6.21,5.15-5.59 c1.91,0.25,1.63-2.59,0.88-2.94c-1.62-0.74-4.08,0.02-3.52-3.23c0.08-0.47-1.38-0.4-1.58,0.23c-0.93,2.91-3.07,2.98-5.51,2.63 c-1.13-0.17-1.83,0.42-1.96,1.55c-0.13,1.17,0.49,1.71,1.63,1.85c0.7,0.09,1.61-0.35,2.14,0.77c-1.77,2.71-3.82,5.2-6.64,6.95 C99.4,34,98.54,34.32,98,32.34c-1.46-5.36-1.59-5.32-5.38-1.36c-0.47,0.49-0.88,1.09-1.45,1.42c-0.98,0.59-1.29,2.85-3.12,1.42 c-1.57-1.22-1.55-2.65-0.49-4.28c1.17-1.82,2.53-3.55,3.08-5.71c0.21-0.81,0.32-1.74-0.59-2.13c-1.04-0.44-1.37,0.59-1.73,1.24 c-1.58,2.8-2.69,5.98-6.26,7.26c0.38-3.17,1.66-5.98,2.9-8.82c1.3-2.97,2.85-5.89,2.84-9.26c0-1.09,0.06-2.4-1.22-2.75 c-1.46-0.4-1.72,1.04-2.12,1.97c-3.44,8-5.97,16.29-7.34,24.9c-0.24,1.49-0.97,3.57,0.94,4.4c1.91,0.84,2.84-1.14,3.83-2.31 c1.39-1.63,2.39-3.78,4.78-1.05c1.15,1.31,2.54,0.53,3.64-0.34c1.26-1.01,2.4-2.17,3.73-3.39c0.29,0.55,0.59,0.99,0.76,1.48 c1.52,4.26,2.89,4.73,6.39,2.06c1.69-1.29,3.28-2.73,4.99-4.17c0.77,2.54-1.76,5.74,0.78,7.05c3.11,1.61,4.59-2.6,7.45-3.57 c0.3,3.8,2.65,4.65,5.89,3.8c2.79-0.74,4.64-3.06,7.25-4.88c0,1.45-0.07,2.49,0.02,3.51c0.14,1.64,1.76,2.46,2.45,1.44 c2.16-3.19,5.08-3.38,8.36-3.19c0.59,0.03,1.23-0.5,1.83-0.82c0.57-0.3,1.06-0.86,1.72-0.12c3.21,3.6,5.92,1.9,8.52-0.83 c1.86-0.25,1.37,0.79,0.97,1.77c0.1,1.04-0.64,2.46,0.46,3.01c1.33,0.68,2.17-0.65,2.98-1.54c0.46-0.5,0.89-1.02,1.34-1.53 c1.8-2,3.6-4.73,4.95,0.38c0.37,1.41,1.68,1.78,2.97,1.08C164.87,38.08,166.18,36.87,165.55,36.49z M137.29,18.85 c-0.11,1.88-0.38,3.05-2.05,3.69C134.78,20.75,135.57,19.86,137.29,18.85z"/>
</svg>