
<svg xmlns="http://www.w3.org/2000/svg" xmlns:xlink="http://www.w3.org/1999/xlink" x="0px" y="0px" viewBox="0 0 200 100" enable-background="new 0 0 200 100" xml:space="preserve" class="portfolio-clients">
<g transform="translate(-133.118, 258.312)">
	<path id="path11" fill="#007B82" d="M136.2-231.8c2.4-0.4,5.3-0.6,8.4-0.6c5.6,0,9.6,1.3,12.3,3.7c2.7,2.5,4.3,6,4.3,10.9
		c0,4.9-1.6,9-4.4,11.8c-2.9,2.8-7.6,4.4-13.4,4.4c-2.8,0-5.1-0.1-7.1-0.4V-231.8z M140.2-205c1,0.2,2.4,0.2,4,0.2
		c8.4,0,12.9-4.7,12.9-12.9c0-7.2-4-11.7-12.3-11.7c-2,0-3.6,0.2-4.6,0.4V-205L140.2-205z M168.6-212.1c0.1,5.4,3.5,7.6,7.4,7.6c2.8,0,4.6-0.5,6-1.1l0.7,2.8c-1.4,0.6-3.8,1.4-7.3,1.4
		c-6.7,0-10.7-4.5-10.7-11c0-6.6,3.9-11.8,10.3-11.8c7.1,0,8.9,6.3,8.9,10.3c0,0.8,0,1.4-0.1,1.9L168.6-212.1z M180.2-215
		c0-2.5-1-6.4-5.4-6.4c-4,0-5.8,3.7-6.1,6.4H180.2z M190.3-223.7l4.3,12.2c0.7,2,1.3,3.8,1.8,5.6h0.1c0.5-1.8,1.1-3.6,1.8-5.6l4.2-12.2h4.1
		l-8.5,21.8h-3.8l-8.3-21.8H190.3L190.3-223.7z M218.8-201.4c-5.8,0-10.4-4.3-10.4-11.2c0-7.3,4.8-11.6,10.8-11.6c6.2,0,10.5,4.5,10.5,11.2
		C229.6-205,224-201.4,218.8-201.4L218.8-201.4L218.8-201.4z M218.9-204.4c3.8,0,6.6-3.6,6.6-8.5c0-3.7-1.8-8.3-6.5-8.3
		c-4.6,0-6.7,4.3-6.7,8.5C212.4-208,215.1-204.4,218.9-204.4L218.9-204.4z M234.6-217.8c0-2.3,0-4.1-0.2-5.9h3.5l0.2,3.6h0.1c1.1-2,3.6-4,7.2-4c3,0,7.7,1.8,7.7,9.3v13
		h-4v-12.5c0-3.5-1.3-6.5-5-6.5c-2.6,0-4.6,1.8-5.3,4c-0.2,0.5-0.3,1.2-0.3,1.8v13.1h-4L234.6-217.8L234.6-217.8z M145-183.3c-0.6,0.3-1.8,0.6-3.3,0.6c-3.5,0-6.2-2.2-6.2-6.4c0-4,2.7-6.6,6.6-6.6
		c1.5,0,2.6,0.3,3,0.6l-0.4,1.3c-0.6-0.3-1.5-0.5-2.5-0.5c-2.9,0-4.9,1.9-4.9,5.2c0,3.1,1.8,5.1,4.8,5.1c1,0,2-0.2,2.7-0.5
		L145-183.3z M150.4-182.7c-2.4,0-4.3-1.8-4.3-4.6c0-3,2-4.8,4.5-4.8c2.6,0,4.3,1.9,4.3,4.6
		C154.9-184.2,152.6-182.7,150.4-182.7L150.4-182.7L150.4-182.7z M150.4-184c1.6,0,2.7-1.5,2.7-3.5c0-1.5-0.8-3.4-2.7-3.4
		c-1.9,0-2.8,1.8-2.8,3.5C147.7-185.5,148.8-184,150.4-184L150.4-184z M164.5-185.4c0,0.9,0,1.8,0.1,2.5h-1.5l-0.1-1.5h0c-0.4,0.7-1.4,1.7-3,1.7
		c-1.4,0-3.1-0.8-3.1-4v-5.3h1.6v5c0,1.7,0.5,2.9,2,2.9c1.1,0,1.9-0.8,2.2-1.5c0.1-0.2,0.2-0.5,0.2-0.8v-5.5h1.6V-185.4z M167.2-189.5c0-1,0-1.7-0.1-2.4h1.5l0.1,1.5h0c0.4-0.8,1.5-1.7,3-1.7c1.2,0,3.2,0.7,3.2,3.8
		v5.4h-1.6v-5.2c0-1.5-0.5-2.7-2.1-2.7c-1.1,0-1.9,0.8-2.2,1.7c-0.1,0.2-0.1,0.5-0.1,0.8v5.4h-1.6L167.2-189.5L167.2-189.5z M179.5-194.1v2.2h2.3v1.2h-2.3v4.9c0,1.1,0.3,1.8,1.2,1.8c0.4,0,0.7,0,1-0.1l0.1,1.2
		c-0.3,0.1-0.8,0.2-1.5,0.2c-0.8,0-1.4-0.3-1.8-0.7c-0.4-0.5-0.6-1.3-0.6-2.4v-4.9h-1.4v-1.2h1.4v-1.7L179.5-194.1z M184.4-192l2,5.3c0.2,0.6,0.4,1.3,0.6,1.8h0c0.2-0.5,0.4-1.2,0.6-1.9l1.8-5.3h1.7l-2.5,6.4
		c-1.2,3.1-2,4.7-3.1,5.7c-0.8,0.7-1.6,1-2,1l-0.4-1.4c0.4-0.1,1-0.4,1.4-0.8c0.4-0.4,1-1,1.4-1.8c0.1-0.2,0.1-0.3,0.1-0.4
		c0-0.1,0-0.2-0.1-0.4l-3.3-8.3H184.4L184.4-192z M205.4-183.3c-0.6,0.3-1.8,0.6-3.3,0.6c-3.5,0-6.2-2.2-6.2-6.4c0-4,2.7-6.6,6.6-6.6
		c1.5,0,2.6,0.3,3,0.6l-0.4,1.3c-0.6-0.3-1.5-0.5-2.5-0.5c-2.9,0-4.9,1.9-4.9,5.2c0,3.1,1.8,5.1,4.8,5.1c1,0,2-0.2,2.7-0.5
		L205.4-183.3z M210.8-182.7c-2.4,0-4.3-1.8-4.3-4.6c0-3,2-4.8,4.5-4.8c2.6,0,4.3,1.9,4.3,4.6
		C215.3-184.2,213-182.7,210.8-182.7L210.8-182.7L210.8-182.7z M210.9-184c1.6,0,2.7-1.5,2.7-3.5c0-1.5-0.8-3.4-2.7-3.4
		c-1.9,0-2.8,1.8-2.8,3.5C208.1-185.5,209.3-184,210.9-184L210.9-184z M224.9-185.4c0,0.9,0,1.8,0.1,2.5h-1.5l-0.1-1.5h0c-0.4,0.7-1.4,1.7-3,1.7
		c-1.4,0-3.1-0.8-3.1-4v-5.3h1.6v5c0,1.7,0.5,2.9,2,2.9c1.1,0,1.9-0.8,2.2-1.5c0.1-0.2,0.1-0.5,0.1-0.8v-5.5h1.6V-185.4z M227.6-189.5c0-1,0-1.7-0.1-2.4h1.5l0.1,1.5h0c0.4-0.8,1.5-1.7,3-1.7c1.2,0,3.2,0.7,3.2,3.8
		v5.4h-1.6v-5.2c0-1.5-0.5-2.7-2.1-2.7c-1.1,0-1.9,0.8-2.2,1.7c-0.1,0.2-0.1,0.5-0.1,0.8v5.4h-1.6V-189.5L227.6-189.5z M244.4-183.3c-0.4,0.2-1.4,0.5-2.6,0.5c-2.7,0-4.5-1.8-4.5-4.6s1.9-4.8,4.8-4.8
		c1,0,1.8,0.2,2.3,0.5l-0.4,1.2c-0.4-0.2-1-0.4-1.9-0.4c-2.1,0-3.2,1.5-3.2,3.4c0,2.1,1.3,3.4,3.1,3.4c0.9,0,1.5-0.2,2-0.4
		L244.4-183.3z M247.1-193.6c-0.6,0-1-0.5-1-1.1s0.4-1,1.1-1s1,0.5,1,1C248.2-194.1,247.8-193.6,247.1-193.6
		L247.1-193.6z M246.3-182.9v-9h1.6v9H246.3z M250.7-196.2h1.6v13.2h-1.6V-196.2z M263.1-195.2c0,1.8-0.1,4.8,0.4,7.2c0.7-1.2,1.4-2.3,2-3.2c-0.3-1.6-0.7-4.3-0.7-6.5
		c0-5.9,2.4-11.7,5.1-16c2.1-3.3,4.7-5.5,7.7-7.5c1.7-1.5,3.6-2.7,5.3-3.4c3.3-1.3,6.4-2.3,9.5-2.7c0.9-3.1,3-6.7,4.1-8.3
		c1.2-1.7,4.6-4.9,7-6.4c-1.2-0.3-4.5-0.7-7-0.7c-4.6,0-11.9,0.8-18.5,3.2c-2.9,1.1-7,3.3-10.5,7.2c-3.5,3.9-5.9,11.4-5.9,15.4
		c0,3.9,1.2,10.9,3,13.5C263.9-200.6,263.1-197.3,263.1-195.2z"/>
	<path id="path49" fill="#68BF8A" d="M297-227.7c7.2,0,12.9,2.6,18.3,4.1c5.4,1.4,12,3,15.5,3.3c-3.8,1.2-11.6,4.2-14.3,6.4
		c-2.8,2.2-6.7,6.4-8.7,9.3c-2,2.9-5,7.6-7.9,9.6c-2.9,2-5.9,3.8-12,3.8c-6,0-12.1-2.8-13.8-3.7c2.4-4.7,10.4-10.9,18-15.5
		c-5.8,1.2-11.3,4.1-14.2,6.6c-2.9,2.5-6.7,6.2-9.2,10.2c-2.5,4.1-6.2,12.2-6.8,17.6l-3.4,2.1c0.9-9.5,7.6-18.7,9.5-20.8
		c-0.8-4.6-0.3-11.6,2.2-16.9c2.5-5.4,7.9-11.2,12.7-13.1C287.8-226.6,292.2-227.7,297-227.7z"/>
</g>
</svg>
