<svg version="1.1" xmlns="http://www.w3.org/2000/svg" xmlns:xlink="http://www.w3.org/1999/xlink" x="0px" y="0px" viewBox="0 0 200 200" enable-background="new 0 0 200 200" xml:space="preserve">
<g id="Page-1_1_" sketch:type="MSPage">
	<g id="logo-square" sketch:type="MSArtboardGroup">
		<g id="logo-no-bg" transform="translate(2.000000, 19.000000)" sketch:type="MSLayerGroup">
			<g id="Page-1" sketch:type="MSShapeGroup">
				<g id="gitlab_logo">
					
						<g id="g10" transform="translate(248.000000, 228.833300) scale(1, -1) translate(-248.000000, -228.833300) translate(0.000000, 0.333300)">
						<g id="g16">
							<g id="g18-Clipped">
								<g id="g18">
									<g>
										<g id="Group" transform="translate(0.666658, 0.666658)">
											<g id="g44" transform="translate(0.532000, 0.774933)">
												<path id="path46" fill="#FC6D26" d="M195.7,362.1l-11.1,34.2l-22,67.8c-1.1,3.5-6.1,3.5-7.2,0l-22-67.8H60.1l-22,67.8
													c-1.1,3.5-6.1,3.5-7.2,0l-22-67.8l-11.1-34.2c-1-3.1,0.1-6.5,2.8-8.5l96.2-69.9l96.2,69.9
													C195.6,355.5,196.7,359,195.7,362.1"/>
											</g>
											<g id="g48" transform="translate(156.197863, 1.160267)">
												<path id="path50" fill="#E24329" d="M-59,283.3L-59,283.3l36.6,112.6h-73.2L-59,283.3L-59,283.3z"/>
											</g>
											<g id="g56" transform="translate(28.531199, 1.160800)">
												<path id="path58" fill="#FC6D26" d="M68.7,283.3L32.1,395.9h-51.3L68.7,283.3L68.7,283.3z"/>
											</g>
											<g id="g64" transform="translate(0.088533, 0.255867)">
												<path id="path66" fill="#FCA326" d="M9.2,396.8L9.2,396.8l-11.1-34.2c-1-3.1,0.1-6.5,2.8-8.5l96.2-69.9L9.2,396.8
													L9.2,396.8z"/>
											</g>
											<g id="g72" transform="translate(29.421866, 280.255593)">
												<path id="path74" fill="#E24329" d="M-20.1,116.8h51.3l-22,67.8c-1.1,3.5-6.1,3.5-7.2,0L-20.1,116.8L-20.1,116.8z"/>
											</g>
											<g id="g76" transform="translate(247.197860, 1.160800)">
												<path id="path78" fill="#FC6D26" d="M-150,283.3l36.6,112.6h51.3L-150,283.3L-150,283.3z"/>
											</g>
											<g id="g80" transform="translate(246.307061, 0.255867)">
												<path id="path82" fill="#FCA326" d="M-61.2,396.8L-61.2,396.8l11.1-34.2c1-3.1-0.1-6.5-2.8-8.5l-96.2-69.9L-61.2,396.8
													L-61.2,396.8z"/>
											</g>
											<g id="g84" transform="translate(336.973725, 280.255593)">
												<path id="path86" fill="#E24329" d="M-151.9,116.8h-51.3l22,67.8c1.1,3.5,6.1,3.5,7.2,0L-151.9,116.8L-151.9,116.8z"/>
											</g>
										</g>
									</g>
								</g>
							</g>
						</g>
					</g>
				</g>
			</g>
		</g>
	</g>
</g>
</svg>
