<svg version="1.1" id="Layer_1" xmlns="http://www.w3.org/2000/svg" xmlns:xlink="http://www.w3.org/1999/xlink" x="0px" y="0px"
	 viewBox="0 0 20 20" enable-background="new 0 0 20 20" xml:space="preserve">
	<path fill="#2DBCAF" d="M1.9,8.6C1.8,8.6,1.8,8.6,1.9,8.6L2,8.3c0,0,0.1,0,0.1,0h3.3c0,0,0,0,0,0.1L5.4,8.5c0,0-0.1,0.1-0.1,0.1 L1.9,8.6z"/>
	<path fill="#2DBCAF" d="M0.5,9.4C0.4,9.4,0.4,9.4,0.5,9.4l0.2-0.3c0,0,0.1,0,0.1,0H5c0,0,0.1,0,0,0.1L5,9.4c0,0,0,0.1-0.1,0.1 C4.9,9.4,0.5,9.4,0.5,9.4z"/>
	<path fill="#2DBCAF" d="M2.7,10.3C2.7,10.3,2.7,10.3,2.7,10.3L2.8,10c0,0,0.1-0.1,0.1-0.1h1.9c0,0,0.1,0,0.1,0.1l0,0.2 c0,0,0,0.1-0.1,0.1C4.8,10.3,2.7,10.3,2.7,10.3z"/>
	<path fill="#2DBCAF" d="M19.6,9.1c-0.1-0.9-0.6-1.6-1.3-2.1c-0.8-0.6-1.7-0.6-2.7-0.5c-1.1,0.2-1.9,0.7-2.6,1.6 c-0.3,0.4-0.5,0.8-0.6,1.2h-3c-0.1,0-0.2,0.1-0.2,0.1c-0.1,0.2-0.4,0.7-0.5,1c-0.1,0.2,0,0.3,0.2,0.3h1.8c-0.1,0.1-0.2,0.2-0.3,0.3 c-0.4,0.5-1,0.7-1.6,0.6C8,11.7,7.5,11,7.5,10.3c0-0.8,0.3-1.4,1-1.8C9,8.2,9.6,8.1,10.1,8.4c0.2,0.1,0.3,0.2,0.4,0.4 c0.1,0.1,0.1,0.1,0.3,0.1c0.6-0.1,1-0.3,1.6-0.4c0.1,0,0.1-0.1,0.1-0.2c-0.2-0.5-0.6-1-1.1-1.3C10.7,6.4,9.8,6.3,9,6.5 C7.9,6.7,7,7.2,6.3,8.1c-0.6,0.8-0.9,1.7-0.8,2.7c0.1,0.9,0.5,1.6,1.2,2.1c0.7,0.6,1.6,0.7,2.5,0.6c1.1-0.1,2-0.7,2.7-1.6 c0.2-0.2,0.3-0.4,0.4-0.7c0.2,0.6,0.5,1.1,0.9,1.5c0.7,0.6,1.4,0.8,2.3,0.8c0.2,0,0.5,0,0.7-0.1c0.9-0.2,1.6-0.6,2.2-1.2 C19.4,11.4,19.7,10.4,19.6,9.1z M16.6,11.6c-0.5,0.3-1,0.3-1.5,0.1c-0.7-0.3-1-1-0.9-1.8c0.2-0.9,0.8-1.4,1.6-1.6 c0.9-0.2,1.7,0.3,1.9,1.2c0,0.1,0,0.2,0,0.3C17.7,10.6,17.3,11.2,16.6,11.6z"/></svg>