<svg version="1.1" id="Layer_1" xmlns="http://www.w3.org/2000/svg" xmlns:xlink="http://www.w3.org/1999/xlink" x="0px" y="0px" viewBox="0 0 20 20" enable-background="new 0 0 20 20" xml:space="preserve">
	<path fill="#2DBCAF" d="M1.876,8.586c-0.037,0-0.047-0.019-0.028-0.047l0.196-0.252C2.063,8.258,2.109,8.24,2.147,8.24h3.337 c0.037,0,0.047,0.028,0.028,0.056L5.359,8.529C5.34,8.557,5.293,8.585,5.265,8.585L1.876,8.586z M0.464,9.445c-0.037,0-0.047-0.019-0.028-0.047l0.196-0.252C0.651,9.118,0.698,9.1,0.735,9.1h4.262 c0.037,0,0.056,0.028,0.047,0.056L4.966,9.389C4.957,9.426,4.919,9.445,4.882,9.445C4.882,9.445,0.464,9.445,0.464,9.445z M2.726,10.305c-0.037,0-0.047-0.028-0.028-0.056l0.131-0.234C2.848,9.988,2.885,9.96,2.922,9.96h1.869 c0.037,0,0.056,0.028,0.056,0.065l-0.017,0.214c0,0.037-0.037,0.065-0.065,0.065C4.765,10.305,2.726,10.305,2.726,10.305z"/>
	<path fill="#2DBCAF" d="M19.588,9.137c-0.122-0.897-0.58-1.58-1.318-2.084c-0.813-0.551-1.71-0.645-2.664-0.477 c-1.112,0.196-1.935,0.664-2.617,1.561c-0.292,0.382-0.501,0.788-0.636,1.215H9.334c-0.14,0-0.206,0.093-0.234,0.15 C8.97,9.745,8.745,10.231,8.624,10.52c-0.065,0.159-0.019,0.28,0.178,0.28h1.804c-0.093,0.131-0.168,0.243-0.252,0.346 c-0.421,0.477-0.953,0.701-1.589,0.617c-0.738-0.103-1.252-0.72-1.262-1.467C7.493,9.539,7.82,8.931,8.456,8.52 c0.533-0.346,1.103-0.43,1.692-0.14c0.196,0.093,0.299,0.196,0.439,0.355c0.122,0.14,0.131,0.131,0.271,0.094 c0.579-0.15,0.981-0.262,1.57-0.411c0.112-0.028,0.15-0.075,0.093-0.159c-0.234-0.542-0.589-0.991-1.084-1.318 C10.68,6.426,9.839,6.324,8.96,6.483C7.886,6.679,7.007,7.23,6.343,8.1c-0.617,0.804-0.916,1.72-0.794,2.739 c0.103,0.86,0.495,1.552,1.187,2.075c0.748,0.561,1.598,0.738,2.514,0.617c1.112-0.15,1.991-0.701,2.664-1.589 c0.158-0.208,0.285-0.431,0.397-0.66c0.155,0.578,0.464,1.08,0.93,1.482c0.654,0.561,1.43,0.804,2.281,0.822 c0.243-0.028,0.495-0.037,0.748-0.084c0.869-0.178,1.626-0.57,2.243-1.196C19.382,11.427,19.747,10.399,19.588,9.137z M16.559,11.595c-0.495,0.252-1.009,0.28-1.523,0.056c-0.673-0.299-1.028-1.037-0.86-1.766c0.206-0.879,0.766-1.43,1.636-1.626 c0.888-0.206,1.738,0.318,1.907,1.243c0.019,0.093,0.019,0.187,0.028,0.308C17.7,10.614,17.298,11.212,16.559,11.595z"/>
</svg>
