<?xml version="1.0" encoding="utf-8"?>
<!-- Generator: Adobe Illustrator 18.0.0, SVG Export Plug-In . SVG Version: 6.00 Build 0)  -->
<!DOCTYPE svg PUBLIC "-//W3C//DTD SVG 1.1//EN" "http://www.w3.org/Graphics/SVG/1.1/DTD/svg11.dtd">
<svg version="1.1" id="Layer_1" xmlns="http://www.w3.org/2000/svg" xmlns:xlink="http://www.w3.org/1999/xlink" x="0px" y="0px"
	 viewBox="0 0 20 20" enable-background="new 0 0 20 20" xml:space="preserve">
<g>
	<path fill="#2DBCAF" d="M1.88,8.59c-0.04,0-0.05-0.02-0.03-0.05l0.2-0.25c0.02-0.03,0.07-0.05,0.1-0.05h3.34
		c0.04,0,0.05,0.03,0.03,0.06L5.36,8.53C5.34,8.56,5.29,8.59,5.27,8.59L1.88,8.59z"/>
	<path fill="#2DBCAF" d="M0.46,9.45c-0.04,0-0.05-0.02-0.03-0.05l0.2-0.25C0.65,9.12,0.7,9.1,0.74,9.1H5c0.04,0,0.06,0.03,0.05,0.06
		L4.97,9.39C4.96,9.43,4.92,9.45,4.88,9.45C4.88,9.45,0.46,9.45,0.46,9.45z"/>
	<path fill="#2DBCAF" d="M2.73,10.31c-0.04,0-0.05-0.03-0.03-0.06l0.13-0.23c0.02-0.03,0.06-0.06,0.09-0.06h1.87
		c0.04,0,0.06,0.03,0.06,0.07l-0.02,0.21c0,0.04-0.04,0.07-0.07,0.07C4.77,10.3,2.73,10.31,2.73,10.31z"/>
	<path fill="#2DBCAF" d="M19.59,9.14c-0.12-0.9-0.58-1.58-1.32-2.08c-0.81-0.55-1.71-0.64-2.66-0.48c-1.11,0.2-1.93,0.66-2.62,1.56
		c-0.29,0.38-0.5,0.79-0.64,1.22H9.33c-0.14,0-0.21,0.09-0.23,0.15c-0.13,0.24-0.36,0.73-0.48,1.02C8.56,10.68,8.61,10.8,8.8,10.8
		h1.8c-0.09,0.13-0.17,0.24-0.25,0.35c-0.42,0.48-0.95,0.7-1.59,0.62c-0.74-0.1-1.25-0.72-1.26-1.47C7.49,9.54,7.82,8.93,8.46,8.52
		c0.53-0.35,1.1-0.43,1.69-0.14c0.2,0.09,0.3,0.2,0.44,0.36c0.12,0.14,0.13,0.13,0.27,0.09c0.58-0.15,0.98-0.26,1.57-0.41
		c0.11-0.03,0.15-0.07,0.09-0.16c-0.23-0.54-0.59-0.99-1.08-1.32c-0.76-0.51-1.6-0.62-2.48-0.46C7.89,6.68,7.01,7.23,6.34,8.1
		c-0.62,0.8-0.92,1.72-0.79,2.74c0.1,0.86,0.5,1.55,1.19,2.07c0.75,0.56,1.6,0.74,2.51,0.62c1.11-0.15,1.99-0.7,2.66-1.59
		c0.16-0.21,0.29-0.43,0.4-0.66c0.16,0.58,0.46,1.08,0.93,1.48c0.65,0.56,1.43,0.8,2.28,0.82c0.24-0.03,0.5-0.04,0.75-0.08
		c0.87-0.18,1.63-0.57,2.24-1.2C19.38,11.43,19.75,10.4,19.59,9.14z M16.56,11.6c-0.5,0.25-1.01,0.28-1.52,0.06
		c-0.67-0.3-1.03-1.04-0.86-1.77c0.21-0.88,0.77-1.43,1.64-1.63c0.89-0.21,1.74,0.32,1.91,1.24c0.02,0.09,0.02,0.19,0.03,0.31
		C17.7,10.61,17.3,11.21,16.56,11.6z"/>
</g>
</svg>
