<svg xmlns="http://www.w3.org/2000/svg"><path fill="#2DBCAF" d="M1.69,8.56c-0.04,0-0.05-0.02-0.03-0.05l0.2-0.26c0.02-0.03,0.07-0.05,0.11-0.05h3.41 c0.04,0,0.05,0.03,0.03,0.06L5.25,8.51c-0.02,0.03-0.07,0.06-0.1,0.06L1.69,8.56z M0.25,9.44c-0.04,0-0.05-0.02-0.03-0.05l0.2-0.26 c0.02-0.03,0.07-0.05,0.11-0.05h4.36c0.04,0,0.06,0.03,0.05,0.06L4.86,9.38C4.85,9.41,4.81,9.43,4.77,9.43 C4.77,9.43,0.25,9.44,0.25,9.44z M2.56,10.32c-0.04,0-0.05-0.03-0.03-0.06l0.13-0.24C2.69,10,2.72,9.97,2.76,9.97h1.91 c0.04,0,0.06,0.03,0.06,0.07l-0.02,0.23c0,0.04-0.04,0.07-0.07,0.07C4.65,10.33,2.56,10.32,2.56,10.32z"/><path fill="#2DBCAF" d="M19.01,7.41c-1.23-1.43-3.57-1.43-5.22,0c-0.63,0.55-1.07,1.23-1.31,1.94H9.32c-0.14,0-0.21,0.1-0.24,0.15 c-0.13,0.25-0.36,0.75-0.49,1.04c-0.07,0.16-0.02,0.29,0.18,0.29h1.85c-0.1,0.13-0.17,0.25-0.26,0.35 c-0.43,0.49-0.98,0.72-1.63,0.63c-0.76-0.11-1.28-0.74-1.29-1.5C7.44,9.54,7.77,8.92,8.42,8.5c0.55-0.35,1.13-0.44,1.73-0.14 c0.2,0.1,0.31,0.2,0.45,0.36c0.12,0.14,0.13,0.13,0.28,0.1c0.59-0.15,1-0.27,1.61-0.42c0.11-0.03,0.15-0.08,0.1-0.16 c-0.24-0.55-0.6-1.01-1.11-1.35C10.7,6.35,9.84,6.25,8.94,6.41c-1.1,0.2-2,0.77-2.68,1.65c-0.63,0.82-0.94,1.76-0.81,2.8 c0.11,0.88,0.51,1.59,1.21,2.12c0.77,0.57,1.64,0.76,2.57,0.63c1.14-0.15,2.04-0.72,2.73-1.63c0.17-0.22,0.31-0.46,0.43-0.7 c0.11,0.47,0.33,0.9,0.65,1.28c1.23,1.43,3.57,1.43,5.22,0C19.91,11.15,20.25,8.84,19.01,7.41z M17.12,11.25 c-0.8,0.7-1.94,0.69-2.55,0c-0.6-0.7-0.44-1.82,0.37-2.52c0.8-0.7,1.94-0.69,2.55,0C18.09,9.43,17.92,10.56,17.12,11.25z"/></svg>