<svg xmlns="http://www.w3.org/2000/svg" x="0px" y="0px"
	 viewBox="0 0 20 20" enable-background="new 0 0 20 20"><path fill="#2DBCAF" d="M1.7,8.6C1.7,8.6,1.6,8.5,1.7,8.6l0.2-0.3c0,0,0.1,0,0.1,0h3.4c0,0,0,0,0,0.1L5.2,8.5c0,0-0.1,0.1-0.1,0.1 L1.7,8.6z M0.2,9.4C0.2,9.4,0.2,9.4,0.2,9.4l0.2-0.3c0,0,0.1,0,0.1,0h4.4c0,0,0.1,0,0,0.1L4.9,9.4c0,0,0,0.1-0.1,0.1 C4.8,9.4,0.2,9.4,0.2,9.4z M2.6,10.3C2.5,10.3,2.5,10.3,2.6,10.3L2.7,10c0,0,0.1-0.1,0.1-0.1h1.9c0,0,0.1,0,0.1,0.1l0,0.2 c0,0,0,0.1-0.1,0.1C4.6,10.3,2.6,10.3,2.6,10.3z"/><path fill="#2DBCAF" d="M19,7.4c-1.2-1.4-3.6-1.4-5.2,0c-0.6,0.5-1.1,1.2-1.3,1.9H9.3c-0.1,0-0.2,0.1-0.2,0.2 c-0.1,0.2-0.4,0.7-0.5,1c-0.1,0.2,0,0.3,0.2,0.3h1.8c-0.1,0.1-0.2,0.2-0.3,0.4c-0.4,0.5-1,0.7-1.6,0.6c-0.8-0.1-1.3-0.7-1.3-1.5 c0-0.8,0.3-1.4,1-1.8C9,8.1,9.6,8.1,10.2,8.4c0.2,0.1,0.3,0.2,0.4,0.4c0.1,0.1,0.1,0.1,0.3,0.1c0.6-0.2,1-0.3,1.6-0.4 c0.1,0,0.2-0.1,0.1-0.2c-0.2-0.6-0.6-1-1.1-1.3c-0.8-0.5-1.6-0.6-2.5-0.5c-1.1,0.2-2,0.8-2.7,1.7c-0.6,0.8-0.9,1.8-0.8,2.8 C5.6,11.7,6,12.5,6.7,13c0.8,0.6,1.6,0.8,2.6,0.6c1.1-0.2,2-0.7,2.7-1.6c0.2-0.2,0.3-0.5,0.4-0.7c0.1,0.5,0.3,0.9,0.7,1.3 c1.2,1.4,3.6,1.4,5.2,0C19.9,11.2,20.2,8.8,19,7.4z M17.1,11.3c-0.8,0.7-1.9,0.7-2.5,0c-0.6-0.7-0.4-1.8,0.4-2.5 c0.8-0.7,1.9-0.7,2.5,0C18.1,9.4,17.9,10.6,17.1,11.3z"/></svg>