<svg viewBox="0 0 20 20"><path fill="#2DBCAF" d="M2.78,9.99c-0.04,0-0.07,0.03-0.1,0.05l-0.13,0.24c-0.02,0.03-0.01,0.06,0.03,0.06c0,0,2.09,0.01,2.08,0.02 c0.03,0,0.07-0.03,0.07-0.07l0.02-0.23c0-0.04-0.02-0.07-0.06-0.07H2.78z M0.55,9.1c-0.04,0-0.09,0.02-0.11,0.05l-0.2,0.26C0.22,9.44,0.23,9.46,0.27,9.46l4.52-0.01 c0.04,0,0.08-0.02,0.09-0.05l0.08-0.24C4.97,9.13,4.95,9.1,4.91,9.1H0.55z M1.99,8.22c-0.04,0-0.09,0.02-0.11,0.05l-0.2,0.26C1.66,8.56,1.67,8.58,1.71,8.58l3.46,0.01 c0.03,0,0.08-0.03,0.1-0.06l0.16-0.25C5.45,8.25,5.44,8.22,5.4,8.22H1.99z M18.94,7.42c-1.23-1.43-3.57-1.43-5.22,0c-0.64,0.55-1.07,1.23-1.3,1.94l-3,0c-0.14,0-0.21,0.1-0.24,0.15 c-0.13,0.25-0.36,0.74-0.49,1.04c-0.07,0.16-0.02,0.29,0.18,0.29h1.77c-0.1,0.15-0.23,0.3-0.38,0.43c-0.8,0.69-1.94,0.69-2.54,0 c-0.6-0.69-0.44-1.82,0.37-2.51c0.76-0.66,1.82-0.69,2.44-0.1c0.08,0.08,0.21,0.1,0.31,0.08c0.01,0,1.82-0.48,1.82-0.48 c-0.12-0.29-0.29-0.57-0.5-0.82c-1.23-1.42-3.56-1.42-5.21,0c-1.65,1.42-1.98,3.73-0.75,5.15c1.23,1.42,3.56,1.42,5.21,0 c0.4-0.35,0.7-0.76,0.94-1.18c0.12,0.43,0.32,0.83,0.62,1.18c1.23,1.43,3.57,1.43,5.22,0C19.84,11.16,20.18,8.85,18.94,7.42z M17.05,11.26c-0.8,0.7-1.94,0.69-2.55,0c-0.6-0.7-0.44-1.82,0.37-2.52c0.8-0.7,1.94-0.69,2.55,0 C18.01,9.44,17.85,10.56,17.05,11.26z"/></svg>