<svg xmlns:svg="http://www.w3.org/2000/svg" x="0px" y="0px" viewBox="0 0 173.76 61.35"
	 enable-background="new 0 0 173.76 61.35" xml:space="preserve" class="portfolio-client">
<rect x="0" y="0.26" width="173.91" height="60.83"/>
<g>
	<path fill="#FFFFFF" d="M19.82,25.12h4.03v1.76c-0.32,0.27-0.73,0.52-1.23,0.74c-0.54,0.23-1.12,0.35-1.71,0.35
		c-1.28,0-2.31-0.43-3.16-1.32c-0.83-0.88-1.26-2.01-1.26-3.36s0.42-2.47,1.26-3.35c0.84-0.88,1.88-1.31,3.16-1.31
		c0.69,0,1.32,0.16,1.9,0.48c0.58,0.32,1.05,0.74,1.4,1.25l0.13,0.19l2.39-1.36l-0.16-0.23c-1.36-1.93-3.27-2.92-5.66-2.92
		c-1,0-1.96,0.18-2.85,0.52c-0.89,0.35-1.68,0.83-2.34,1.45c-0.66,0.62-1.19,1.39-1.58,2.3c-0.38,0.91-0.58,1.91-0.58,2.97
		c0,1.42,0.33,2.7,1,3.81c0.66,1.11,1.56,1.97,2.67,2.57c1.1,0.59,2.34,0.89,3.69,0.89c1.17,0,2.26-0.22,3.23-0.67
		c0.97-0.44,1.82-1.06,2.53-1.85l0.06-0.07v-5.43h-6.91V25.12z"/>
	<path fill="#FFFFFF" d="M44.44,18.09c-0.62-0.64-1.39-1.15-2.28-1.51c-0.89-0.36-1.86-0.55-2.88-0.55c-1.37,0-2.62,0.31-3.7,0.93
		c-1.09,0.62-1.95,1.49-2.55,2.59c-0.6,1.1-0.91,2.35-0.91,3.72s0.31,2.63,0.91,3.72c0.6,1.1,1.46,1.97,2.55,2.59
		c1.09,0.62,2.33,0.93,3.7,0.93c1.02,0,1.99-0.18,2.88-0.55c0.89-0.36,1.66-0.87,2.28-1.51c0.62-0.64,1.12-1.41,1.47-2.3
		c0.35-0.89,0.53-1.86,0.53-2.89s-0.18-2-0.53-2.89C45.57,19.5,45.07,18.73,44.44,18.09z M43.52,23.28c0,1.35-0.4,2.48-1.17,3.35
		c-0.78,0.88-1.78,1.31-3.06,1.31c-1.28,0-2.28-0.43-3.06-1.31c-0.77-0.88-1.17-2-1.17-3.35c0-1.36,0.39-2.49,1.17-3.36
		c0.78-0.87,1.78-1.3,3.06-1.3c1.28,0,2.28,0.43,3.06,1.3C43.12,20.8,43.52,21.93,43.52,23.28z"/>
	<path fill="#FFFFFF" d="M65.99,23.28c0-1.03-0.18-2-0.53-2.89c-0.35-0.89-0.85-1.67-1.47-2.3c-0.62-0.64-1.39-1.15-2.28-1.51
		c-0.89-0.36-1.86-0.55-2.88-0.55c-1.37,0-2.62,0.31-3.7,0.93c-1.09,0.62-1.95,1.49-2.55,2.59c-0.6,1.1-0.91,2.35-0.91,3.72
		s0.31,2.63,0.91,3.72c0.6,1.1,1.46,1.97,2.55,2.59c1.09,0.62,2.33,0.93,3.7,0.93c1.02,0,1.99-0.18,2.88-0.55
		c0.89-0.36,1.66-0.87,2.28-1.51c0.62-0.64,1.12-1.41,1.47-2.3C65.81,25.28,65.99,24.31,65.99,23.28z M58.82,18.62
		c1.28,0,2.28,0.43,3.06,1.3c0.78,0.87,1.17,2,1.17,3.36c0,1.35-0.4,2.48-1.17,3.35c-0.78,0.88-1.78,1.31-3.06,1.31
		c-1.28,0-2.28-0.43-3.06-1.31c-0.77-0.88-1.17-2.01-1.17-3.35c0-1.36,0.39-2.49,1.17-3.36C56.54,19.05,57.54,18.62,58.82,18.62z"/>
	<path fill="#FFFFFF" d="M83.49,19.65c-0.61-1.06-1.49-1.9-2.6-2.5c-1.11-0.59-2.39-0.89-3.81-0.89H71.8v14.02h5.28
		c1.42,0,2.7-0.3,3.81-0.89c1.11-0.59,1.99-1.43,2.6-2.49c0.61-1.06,0.92-2.28,0.92-3.63C84.41,21.93,84.1,20.71,83.49,19.65z
		 M81.48,23.28c0,0.81-0.17,1.56-0.51,2.22c-0.34,0.65-0.85,1.19-1.52,1.59c-0.67,0.4-1.47,0.6-2.37,0.6h-2.4v-8.85h2.4
		c1.38,0,2.47,0.42,3.23,1.24C81.09,20.92,81.48,22,81.48,23.28z"/>
	<polygon fill="#FFFFFF" points="102.47,30.29 102.47,16.26 99.59,16.26 99.59,25.14 93.05,16.26 90.24,16.26 90.24,30.29 
		93.11,30.29 93.11,21.15 99.8,30.29 	"/>
	<polygon fill="#FFFFFF" points="118.63,27.7 111.74,27.7 111.74,24.45 118.5,24.45 118.5,21.86 111.74,21.86 111.74,18.85 
		118.63,18.85 118.63,16.26 108.87,16.26 108.87,30.29 118.63,30.29 	"/>
	<path fill="#FFFFFF" d="M133.89,23.43c-0.32-0.29-0.69-0.55-1.11-0.77c-0.42-0.22-0.85-0.39-1.3-0.52l-2.55-0.72
		c-0.38-0.11-0.72-0.23-1.01-0.35c-0.27-0.11-0.48-0.26-0.63-0.43c-0.14-0.16-0.21-0.33-0.21-0.54c0-0.43,0.17-0.77,0.53-1.03
		c0.37-0.28,0.88-0.42,1.52-0.42c0.7,0,1.39,0.13,2.04,0.38c0.65,0.25,1.22,0.62,1.7,1.1l0.2,0.2l1.68-2.17l-0.16-0.16
		c-1.34-1.29-3.11-1.94-5.26-1.94c-1.51,0-2.76,0.4-3.72,1.18c-0.97,0.8-1.46,1.81-1.46,3.01c0,0.57,0.1,1.08,0.29,1.53
		c0.19,0.45,0.46,0.82,0.79,1.11c0.32,0.28,0.69,0.53,1.1,0.74c0.4,0.21,0.84,0.38,1.3,0.5l2.55,0.7c0.38,0.1,0.72,0.23,1.01,0.36
		c0.27,0.13,0.48,0.29,0.64,0.48c0.15,0.18,0.22,0.39,0.22,0.64c0,0.43-0.19,0.79-0.59,1.12c-0.4,0.33-1.04,0.5-1.88,0.5
		c-0.83,0-1.61-0.17-2.31-0.5c-0.7-0.34-1.31-0.77-1.8-1.3l-0.21-0.22l-1.62,2.24l0.14,0.15c1.39,1.47,3.3,2.22,5.68,2.22
		c0.91,0,1.73-0.12,2.44-0.34c0.72-0.23,1.31-0.56,1.74-0.97c0.44-0.41,0.77-0.88,0.99-1.41c0.22-0.52,0.33-1.09,0.33-1.7
		c0-0.57-0.1-1.09-0.29-1.55C134.49,24.11,134.23,23.73,133.89,23.43z"/>
	<path fill="#FFFFFF" d="M149.97,23.43c-0.32-0.29-0.7-0.55-1.11-0.77c-0.42-0.22-0.85-0.39-1.3-0.52l-2.55-0.72
		c-0.38-0.11-0.72-0.23-1.01-0.35c-0.27-0.11-0.48-0.26-0.63-0.43c-0.14-0.16-0.21-0.33-0.21-0.54c0-0.43,0.17-0.77,0.53-1.03
		c0.37-0.28,0.88-0.42,1.52-0.42c0.7,0,1.38,0.13,2.04,0.38c0.65,0.25,1.22,0.62,1.7,1.1l0.2,0.2l1.68-2.17l-0.16-0.16
		c-1.34-1.29-3.11-1.94-5.26-1.94c-1.51,0-2.76,0.4-3.72,1.18c-0.97,0.8-1.46,1.81-1.46,3.01c0,0.57,0.1,1.08,0.29,1.53
		c0.2,0.45,0.46,0.82,0.79,1.11c0.32,0.28,0.68,0.53,1.1,0.74c0.41,0.21,0.84,0.38,1.3,0.5l2.55,0.71c0.38,0.1,0.72,0.23,1.01,0.36
		c0.27,0.13,0.48,0.29,0.64,0.48c0.15,0.18,0.22,0.39,0.22,0.64c0,0.43-0.19,0.79-0.59,1.12c-0.4,0.33-1.04,0.5-1.88,0.5
		c-0.83,0-1.61-0.17-2.31-0.5c-0.7-0.34-1.31-0.77-1.8-1.3l-0.21-0.22l-1.61,2.24l0.14,0.15c1.39,1.47,3.3,2.22,5.68,2.22
		c0.91,0,1.73-0.12,2.44-0.34c0.72-0.23,1.3-0.56,1.75-0.97c0.44-0.41,0.77-0.88,0.99-1.41c0.22-0.52,0.33-1.09,0.33-1.7
		c0-0.57-0.1-1.09-0.29-1.55C150.57,24.11,150.3,23.73,149.97,23.43z"/>
	<polygon fill="#FFFFFF" points="159.09,26.3 159.44,16.26 156.48,16.26 156.76,26.3 	"/>
	<path fill="#FFFFFF" d="M159.07,27.81c-0.32-0.3-0.71-0.46-1.15-0.46c-0.46,0-0.83,0.16-1.11,0.47c-0.28,0.31-0.42,0.68-0.42,1.1
		c0,0.42,0.14,0.78,0.42,1.09c0.28,0.31,0.66,0.47,1.11,0.47c0.45,0,0.83-0.15,1.15-0.46c0.32-0.31,0.48-0.68,0.48-1.1
		C159.55,28.49,159.39,28.12,159.07,27.81z"/>
	<path fill="#FFFFFF" d="M36.59,43.49c0.06-0.05,0.12-0.11,0.17-0.17c0.19-0.23,0.28-0.52,0.28-0.84c0-0.4-0.14-0.74-0.42-1
		c-0.28-0.26-0.65-0.4-1.12-0.4h-2.47v5.01h2.53c0.48,0,0.86-0.14,1.14-0.41c0.28-0.27,0.42-0.63,0.42-1.06
		c0-0.33-0.1-0.63-0.31-0.89C36.75,43.63,36.67,43.55,36.59,43.49z M35.82,44.51c0,0.12-0.03,0.21-0.1,0.28
		c-0.08,0.07-0.19,0.1-0.34,0.1h-1.05v-0.75h1.05c0.15,0,0.26,0.04,0.33,0.11C35.78,44.31,35.82,44.39,35.82,44.51z M35.64,42.84
		c-0.07,0.06-0.16,0.09-0.29,0.09h-1.01v-0.67h1.01c0.13,0,0.23,0.03,0.29,0.09c0.04,0.04,0.09,0.1,0.09,0.24
		C35.73,42.74,35.68,42.8,35.64,42.84z"/>
	<polygon fill="#FFFFFF" points="41.51,42.79 40.4,41.07 38.89,41.07 40.86,44.03 40.86,46.08 42.15,46.08 42.15,44.03 44.11,41.07 
		42.6,41.07 	"/>
	<polygon fill="#FFFFFF" points="53.49,42.92 51.65,42.92 51.65,41.07 50.35,41.07 50.35,46.08 51.65,46.08 51.65,44.11 
		53.49,44.11 53.49,46.08 54.78,46.08 54.78,41.07 53.49,41.07 	"/>
	<path fill="#FFFFFF" d="M58.98,41.07l-1.97,5.01h1.44l0.33-0.86h1.72l0.33,0.86h1.44l-1.97-5.01H58.98z M59.2,44.02l0.45-1.19
		l0.45,1.19H59.2z"/>
	<path fill="#FFFFFF" d="M67.67,44.15c0.15-0.08,0.28-0.18,0.4-0.31c0.13-0.13,0.23-0.3,0.3-0.49c0.07-0.19,0.1-0.4,0.1-0.62
		c0-0.49-0.16-0.89-0.48-1.2c-0.32-0.31-0.74-0.46-1.24-0.46h-2.23v5.01h1.29V44.4h0.39l1,1.68h1.5l-1.17-1.87
		C67.58,44.19,67.63,44.17,67.67,44.15z M67.16,42.73c0,0.14-0.04,0.25-0.14,0.33c-0.1,0.09-0.22,0.13-0.38,0.13h-0.83v-0.93h0.83
		c0.16,0,0.29,0.04,0.38,0.13C67.12,42.48,67.16,42.59,67.16,42.73z"/>
	<path fill="#FFFFFF" d="M74.28,44.15c0.15-0.08,0.28-0.18,0.4-0.31c0.13-0.13,0.23-0.3,0.3-0.49c0.07-0.19,0.1-0.4,0.1-0.62
		c0-0.49-0.16-0.89-0.48-1.2c-0.32-0.31-0.74-0.46-1.24-0.46h-2.23v5.01h1.29V44.4h0.39l1,1.68h1.5l-1.16-1.87
		C74.19,44.19,74.24,44.17,74.28,44.15z M72.42,42.27h0.83c0.16,0,0.29,0.04,0.38,0.13c0.09,0.09,0.14,0.19,0.14,0.33
		s-0.04,0.25-0.14,0.33c-0.1,0.09-0.22,0.13-0.38,0.13h-0.83V42.27z"/>
	<polygon fill="#FFFFFF" points="79.55,42.79 78.44,41.07 76.93,41.07 78.9,44.03 78.9,46.08 80.19,46.08 80.19,44.03 82.15,41.07 
		80.64,41.07 	"/>
	<path fill="#FFFFFF" d="M84.37,41.21c-0.14,0.14-0.21,0.31-0.21,0.5c0,0.19,0.06,0.35,0.19,0.48c0.06,0.06,0.12,0.1,0.2,0.14
		c-0.07,0.09-0.15,0.16-0.23,0.2l-0.31,0.18l0.74,0.62l0.16-0.11c0.22-0.16,0.4-0.35,0.53-0.59c0.14-0.24,0.21-0.5,0.21-0.77
		c0-0.25-0.08-0.46-0.22-0.62C85.15,40.95,84.66,40.92,84.37,41.21z"/>
	<path fill="#FFFFFF" d="M91.68,43.5c-0.12-0.11-0.26-0.2-0.4-0.28c-0.15-0.08-0.3-0.14-0.47-0.19l-0.85-0.24
		c-0.12-0.03-0.23-0.07-0.32-0.11c-0.07-0.03-0.12-0.06-0.15-0.1c-0.02-0.02-0.03-0.04-0.03-0.07c0-0.09,0.03-0.15,0.11-0.21
		c0.21-0.16,0.67-0.13,1.03,0.01c0.19,0.07,0.37,0.18,0.51,0.33l0.2,0.2l0.77-0.99l-0.16-0.16C91.44,41.24,90.81,41,90.05,41
		c-0.54,0-1,0.15-1.34,0.43c-0.36,0.3-0.55,0.68-0.55,1.13c0,0.21,0.04,0.41,0.11,0.58c0.08,0.17,0.18,0.32,0.31,0.43
		c0.12,0.1,0.25,0.19,0.4,0.27c0.15,0.08,0.31,0.14,0.46,0.18l0.85,0.24c0.12,0.03,0.22,0.07,0.31,0.11
		c0.07,0.03,0.12,0.07,0.16,0.11c0.02,0.03,0.04,0.06,0.04,0.11c0,0.06-0.01,0.14-0.13,0.24c-0.21,0.17-0.82,0.17-1.22-0.02
		c-0.21-0.1-0.4-0.24-0.55-0.4l-0.21-0.22l-0.74,1.02l0.14,0.15c0.5,0.52,1.17,0.79,2.01,0.79c0.32,0,0.61-0.04,0.86-0.12
		c0.26-0.08,0.48-0.21,0.64-0.36c0.16-0.15,0.29-0.33,0.37-0.53c0.08-0.2,0.12-0.41,0.12-0.63c0-0.21-0.04-0.41-0.11-0.58
		C91.91,43.77,91.81,43.62,91.68,43.5z"/>
	<polygon fill="#FFFFFF" points="103.12,41.07 101.47,41.07 100.08,42.77 100.08,41.07 98.79,41.07 98.79,46.08 100.08,46.08 
		100.08,44.48 100.21,44.32 101.61,46.08 103.24,46.08 101.07,43.45 	"/>
	<rect x="105.35" y="41.07" fill="#FFFFFF" width="1.29" height="5.01"/>
	<polygon fill="#FFFFFF" points="109.17,42.27 110.54,42.27 110.54,46.08 111.83,46.08 111.83,42.27 113.19,42.27 113.19,41.07 
		109.17,41.07 	"/>
	<path fill="#FFFFFF" d="M118.89,44.43c-0.09,0.16-0.22,0.29-0.38,0.39c-0.17,0.1-0.34,0.15-0.53,0.15c-0.38,0-0.68-0.13-0.93-0.38
		c-0.25-0.26-0.37-0.59-0.37-1c0-0.41,0.12-0.74,0.37-1c0.25-0.26,0.55-0.38,0.93-0.38c0.19,0,0.36,0.05,0.53,0.15
		c0.17,0.1,0.3,0.23,0.39,0.39l0.12,0.21l1.13-0.58l-0.15-0.23c-0.47-0.75-1.15-1.13-2.02-1.13c-0.36,0-0.71,0.06-1.02,0.19
		c-0.32,0.12-0.6,0.3-0.83,0.53c-0.24,0.22-0.42,0.5-0.56,0.82c-0.13,0.32-0.2,0.67-0.2,1.04s0.07,0.72,0.2,1.05
		c0.13,0.32,0.32,0.6,0.56,0.82c0.23,0.22,0.51,0.4,0.83,0.52c0.32,0.13,0.66,0.19,1.02,0.19c0.87,0,1.55-0.38,2.02-1.13l0.15-0.23
		l-1.13-0.58L118.89,44.43z"/>
	<polygon fill="#FFFFFF" points="125.67,42.92 123.82,42.92 123.82,41.07 122.53,41.07 122.53,46.08 123.82,46.08 123.82,44.11 
		125.67,44.11 125.67,46.08 126.96,46.08 126.96,41.07 125.67,41.07 	"/>
	<polygon fill="#FFFFFF" points="129.78,46.08 133.37,46.08 133.37,44.88 131.07,44.88 131.07,44.13 133.32,44.13 133.32,42.94 
		131.07,42.94 131.07,42.27 133.37,42.27 133.37,41.07 129.78,41.07 	"/>
	<polygon fill="#FFFFFF" points="139.16,43.69 137.23,41.07 136.04,41.07 136.04,46.08 137.33,46.08 137.33,43.38 139.31,46.08 
		140.45,46.08 140.45,41.07 139.16,41.07 	"/>
</g>
</svg>
