<svg xmlns="http://www.w3.org/2000/svg" viewBox="0 0 20 20"><path fill="#E34F26" d="M2.77,17.97L1.17,0h17.62l-1.6,17.97L9.96,20"/><path fill="#EF652A" d="M10,18.44l5.82-1.6l1.37-15.39H10"/><path fill="#EBEBEB" d="M10,8.12H7.07l-0.2-2.27H10V3.67H9.96H4.45l0.04,0.59l0.55,6.09H10V8.12z M10,13.87H9.96L7.5,13.2 l-0.16-1.76H6.17H5.16l0.27,3.48l4.53,1.25H10V13.87z"/><path fill="#FFFFFF" d="M9.96,8.12v2.23h2.73l-0.27,2.85l-2.46,0.66v2.3l4.53-1.25l0.04-0.39l0.51-5.82l0.08-0.59h-0.62H9.96z M9.96,3.67v1.37v0.82l0,0h5.35l0,0l0,0l0.04-0.47l0.12-1.13l0.04-0.59H9.96z"/></svg>