<?xml version="1.0" encoding="UTF-8"?>
<svg width="960px" height="960px" viewBox="0 0 960 960" version="1.1" xmlns="http://www.w3.org/2000/svg" xmlns:xlink="http://www.w3.org/1999/xlink">
    <!-- Generator: Sketch 43.2 (39069) - http://www.bohemiancoding.com/sketch -->
    <title>ionic</title>
    <desc>Created with Sketch.</desc>
    <defs></defs>
    <g id="Page-1" stroke="none" stroke-width="1" fill="none" fill-rule="evenodd">
        <g id="ionic" fill-rule="nonzero">
            <path d="M480,0 C215.04,0 0,215.04 0,480 C0,744.96 215.04,960 480,960 C744.96,960 960,744.96 960,480 C960,215.04 744.96,0 480,0 Z" id="Shape" fill="#E6F0FF"></path>
            <g id="Group" transform="translate(203.904000, 203.904000)" fill="#2F72E1">
                <path d="M500.736,116.736 C506.496,109.056 510.336,98.496 510.336,87.936 C510.336,62.976 490.176,41.856 464.256,41.856 C453.696,41.856 443.136,45.696 435.456,51.456 C390.336,19.776 335.616,0.576 276.096,0.576 C124.416,0.576 0.576,123.456 0.576,276.096 C0.576,428.736 124.416,551.616 276.096,551.616 C427.776,551.616 551.616,428.736 551.616,276.096 C551.616,216.576 532.416,161.856 500.736,116.736 Z M276.096,510.336 C147.456,510.336 41.856,405.696 41.856,276.096 C41.856,147.456 146.496,41.856 276.096,41.856 C329.856,41.856 378.816,60.096 418.176,89.856 C419.136,112.896 438.336,132.096 461.376,133.056 C492.096,172.416 510.336,222.336 510.336,275.136 C510.336,404.736 404.736,510.336 276.096,510.336 Z" id="Shape"></path>
                <circle id="Oval" cx="276.096" cy="276.096" r="126.72"></circle>
            </g>
        </g>
    </g>
</svg>