<svg xmlns="http://www.w3.org/2000/svg" viewBox="0 0 20 20"><path d="M0.78,4.72c0,0.22-0.13,0.38-0.36,0.38c-0.19,0-0.33-0.16-0.33-0.38c0-0.21,0.15-0.38,0.35-0.38 C0.65,4.34,0.78,4.51,0.78,4.72z M0.26,16.13V7.4h0.36v8.73H0.26z M12.51,9.91c0,4.4-2.44,6.4-5.12,6.4c-2.73,0-4.94-2.16-4.94-6.22c0-4.16,2.29-6.4,5.13-6.4 C10.37,3.69,12.51,5.89,12.51,9.91z M2.81,10c0,3.34,1.62,5.93,4.6,5.93c3,0,4.72-2.67,4.72-5.96c0-3.05-1.38-5.84-4.53-5.84 S2.81,6.74,2.81,10z M13.82,15.18c0.6,0.4,1.64,0.79,2.53,0.79c1.69,0,3.19-1.18,3.19-2.92c0-1.62-1-2.46-2.7-3.18 c-1.52-0.65-2.89-1.35-2.89-3.08c0-1.8,1.42-3.07,3.34-3.07c1.04,0,1.82,0.29,2.18,0.55l-0.14,0.31c-0.31-0.22-1.14-0.5-2.05-0.5 c-2.04,0-2.92,1.54-2.92,2.67c0,1.56,1.21,2.09,2.78,2.83c1.82,0.89,2.78,1.68,2.78,3.38c0,1.84-1.31,3.33-3.64,3.33 c-0.96,0-2.07-0.33-2.62-0.75L13.82,15.18z"/></svg>