<svg xmlns="http://www.w3.org/2000/svg" viewBox="0 0 20 20"><path fill="#00AB4E" d="M10,0.12c-0.22,0-0.41,0.05-0.6,0.17L1.88,4.63c-0.36,0.22-0.6,0.6-0.6,1.04v8.7c0,0.22,0.05,0.41,0.17,0.6 L10,10.02C10,10,10,3.59,10,0.12z"/><path fill="#00853E" d="M1.45,14.94c0.1,0.17,0.24,0.34,0.43,0.43l7.52,4.36c0.36,0.22,0.82,0.22,1.18,0l7.54-4.36 c0.19-0.1,0.34-0.27,0.43-0.43L10,10C10,10,4.46,13.2,1.45,14.94z"/><path fill="#004C2C" d="M18.55,14.94c0.1-0.17,0.17-0.39,0.17-0.6v-8.7c0-0.43-0.22-0.82-0.6-1.04L10.6,0.27 C10.41,0.17,10.22,0.1,10,0.1v9.88C10,10,15.54,13.2,18.55,14.94z"/><path fill="#FFF" d="M11.98,13.76c0.34,0.41,0.87,0.6,1.35,0.6c0.65,0,1.13-0.43,1.13-0.96V6.6c0-0.53-0.43-0.96-0.96-0.96h-0.02 c-0.55,0-0.99,0.43-0.99,0.99v4.84c0,0.02-0.02,0.02-0.05,0.02L8.02,6.24c-0.34-0.41-0.87-0.6-1.35-0.6c-0.65,0-1.13,0.43-1.13,0.96 v6.8c0,0.53,0.43,0.96,0.96,0.96h0.02c0.55,0,0.99-0.43,0.99-0.99V8.53c0-0.02,0.02-0.02,0.05-0.02L11.98,13.76z"/></svg>