<svg xmlns="http://www.w3.org/2000/svg" xmlns:xlink="http://www.w3.org/1999/xlink" x="0px" y="0px" viewBox="0 0 100 100" enable-background="new 0 0 100 100" xml:space="preserve">
	<path fill="#000" d="M114,563c-4.67,0-9.33,0-14,0c-8.39-4.95-16.63-10.16-25.21-14.74c-5.49-2.93-11.32-6.4-17.27-7.03 c-15-1.58-30.15-2.19-45.24-2.17c-6.8,0-13.93,1.54-20.32,3.94c-8.44,3.17-16.3,7.89-24.42,11.92c-3.85,1.91-8.11,3.3-11.87,0.69 c-7.37-5.12-16.38-7.46-21.58-16.27c-9.49-16.06-27.05-21.03-42.84-28.12c-1.41-0.63-3.33,0-4.94-0.33 c-5.15-1.03-10.58-1.5-15.34-3.52c-11.1-4.7-21.78-5.55-33.26-0.97c-5.98,2.39-12.83,2.89-19.36,3.43c-2,0.17-4.32-2.21-6.31-3.68 c-2.56-1.9-4.99-3.99-7.38-6.11c-1.99-1.77-4.52-3.37-5.61-5.63c-2.78-5.75-5.83-11.64-7.02-17.81 c-1.52-7.92-4.56-13.99-11.61-18.22c-2.22-1.33-3.14-4.67-5.24-6.35c-7.25-5.77-14.95-10.99-22.13-16.84 c-11.84-9.65-24.46-16.08-40.5-13.97c-6.48,0.85-12.63-1.49-17.47-6.71c-2.28-2.46-5.74-3.78-8.49-5.86 c-1.66-1.26-3.81-2.76-4.29-4.54c-1.8-6.71-3.2-13.55-4.4-20.41c-2.37-13.5-5.13-26.73-14.81-37.37 c-5.91-6.49-11.75-13.1-16.98-20.14c-6.49-8.73-13.44-16.38-24.81-18.5c-2.72-0.51-5.35-1.83-7.88-3.07 c-11.71-5.73-21.4-13.37-21.88-27.7c-0.21-6.38,0.73-12.89,1.85-19.21c3.38-19.12,1.05-37.31-7.9-54.6 c-0.91-1.76-1.98-3.59-2.24-5.5c-1.19-8.58-6.24-14.86-11.93-20.78c-7.36-7.65-14.56-15.46-22.25-22.77 c-8.45-8.03-6.41-22.4-1.85-30.46c5.34-9.45,9.45-19.59,14.05-29.44c0.41-0.88,0.7-1.89,0.75-2.85 c0.54-12.06,0.88-24.14,1.56-36.19c0.43-7.64-2.5-14.04-5.57-20.8C-447.12,22.98-457.47,14.67-460,2c0-5,0-10,0-15 c4.63-10.26,11.33-19.06,19.69-26.45c6.81-6.01,13.23-11.98,15.57-21.25c3-11.87,7.34-23.49,9.25-35.51 c2.07-12.98-0.75-25.64-7.14-37.52c-6.88-12.8-4.09-23.74,7.7-32.18c3.61-2.58,7.63-4.81,11.77-6.4 c16.89-6.49,29.56-17.28,37.3-33.92c2.92-6.27,6.48-12.54,11.04-17.65c4.39-4.92,6.14-10.11,6.11-16.22 c-0.04-8.31-0.71-16.64-0.41-24.93c0.14-3.98,1.01-8.44,3.06-11.74c8.42-13.59,21.11-20.18,37-20.63 c8.64-0.25,16.58-1.75,23.3-8.12c7.33-6.94,15.94-12.58,22.9-19.84c7.4-7.71,14.25-16.19,19.94-25.22c3.89-6.17,5.07-13.99,8-20.83 c3.46-8.07,8.49-15.17,18.3-15.37c8.93-0.19,17.9,0.45,26.81,1.26c13.91,1.27,26.68-0.25,38.77-8.63 c7.37-5.11,16.94-6.86,24.51-12.22c0.38-0.27,1-0.17,1.42-0.39c1.27-0.66,2.8-1.13,3.7-2.15c8.53-9.71,16.95-19.52,25.41-29.29 c6.46-7.46,16.65-8.73,25.17-3.62c4.37,2.62,9.15,4.55,13.76,6.75c3.43,1.63,6.8,3.43,10.35,4.74c4.09,1.51,8.28,3.3,12.54,3.7 c14.46,1.34,28.09-3.93,42.14-5.94c9.68-1.39,17.92-5.28,25.67-11.08C41.87-449.78,50.54-455.25,59-461c3.33,0,6.67,0,10,0 c6.04,4.56,12.9,8.36,17.93,13.85c9.12,9.96,20.63,15.1,33.06,18.2c10.71,2.67,21.79,4.03,32.78,5.35 c16.11,1.94,31.81-0.11,46.76-6.67c8.75-3.84,16.61-3.09,22.66,4.06c6.5,7.69,11.64,16.51,17.88,24.45 c9.2,11.72,19.38,22.3,35.05,25.16c1.39,0.25,2.85,1.01,3.93,1.93c5.23,4.49,11.37,7.01,18.08,7.56 c12.07,0.99,24.19,1.31,36.26,2.27c3.72,0.3,7.7,1.11,10.91,2.88c3.35,1.84,5.69,5.45,8.91,7.64c2.52,1.71,3.44,3.47,3.55,6.46 c0.18,4.95,0.76,9.92,1.56,14.81c2.45,14.95,12.04,26.37,19.6,38.78c0.73,1.2,2.22,1.95,3.37,2.89c2.76,2.26,5.58,4.44,8.26,6.78 c2.6,2.26,5.13,4.61,7.55,7.06c5.65,5.73,11.38,11.28,19.5,13.42c0.45,0.12,0.81,0.57,1.19,0.89c4.23,3.53,8.99,4.21,14.39,3.43 c3.91-0.56,7.97-0.18,11.95,0c5.97,0.26,7.27,6.26,11.06,9.18c6.79,5.23,8.21,12.71,7.43,20.06c-1.48,13.9-2.11,27.14,1.54,41.22 c3.26,12.57,10.16,22.53,15.84,33.47c7.74,14.91,19.74,24.11,36.15,27.94c4.79,1.12,8.48,4.36,9.92,9.57 c0.48,1.73,1.35,3.47,2.46,4.88c6.05,7.68,4.46,14.91-0.56,22.42c-2.05,3.06-3.78,6.8-4.19,10.39c-1.02,8.87-1.85,17.86-1.56,26.77 c0.39,12.23,1.31,24.51,3.06,36.61c1.53,10.62,4.97,21.19,14.32,27.58C550.18,17.54,557.62,26.61,561,39c0,2,0,4,0,6 c-8.45,11.41-16.93,22.79-25.3,34.25c-1.12,1.54-2.05,3.41-2.44,5.26c-2.12,9.87-4.4,19.73-5.94,29.69 c-1.94,12.49-3.64,25.19,1.76,37.27c2.56,5.73,6.35,10.89,9.38,16.42c3.99,7.31,7.84,14.88,5.37,23.51 c-2.57,9-11.08,12.96-17.5,18.46c-6.58,5.64-14.17,10.1-21.29,15.11c-0.5,0.35-0.95,1.03-1.07,1.63 c-1.23,6.18-4.34,11.3-8.35,16.09c-1.24,1.48-1.09,4.06-1.79,6.06c-1.56,4.44-3.2,8.86-4.92,13.24c-1.26,3.19-3.89,6.31-3.87,9.44 c0.1,13.37,0.96,26.73,1.53,40.09c0.33,7.66,1.14,16.16-5.66,21.1c-10.47,7.62-21.06,16.12-35.52,14.12 c-6.26-0.86-11.2,1.67-14.9,6.31c-10.82,13.62-21.44,27.39-32,41.2c-1.02,1.33-1.38,3.38-1.52,5.13 c-0.45,5.61-0.79,11.24-0.91,16.87c-0.18,8.76-4.73,15.69-9.05,22.78c-4.05,6.66-9.84,11.4-17.31,12.79 c-6.78,1.26-13.93,1.43-20.84,0.95c-9.87-0.69-19.21-0.87-26.4,7.48c-0.81,0.94-2.22,1.52-3.47,1.89 c-11.86,3.57-20.5,11.98-29.59,19.67c-10.47,8.85-17.84,19.98-23.82,32.22c-3.39,6.93-8.46,13.13-16.64,13.3 c-5.9,0.13-11.83-2.51-17.78-3.76c-7.73-1.63-15.44-3.95-23.26-4.46c-14.43-0.94-28.08,3.91-42.01,6.93 c-16.4,3.55-28.13,13.41-38.61,25.54C123.43,556.06,120.21,561.28,114,563z M-298.15-177.55c0.47,0.4,0.94,0.79,1.41,1.19 c-1.42,8.42-4.97,16.24-9.88,22.99c-10.06,13.82-15.58,29.87-22.33,45.15c-7.4,16.75-12.14,34.72-17.57,52.3 c-8.54,27.66-14.22,55.98-15.23,84.91c-0.78,22.26,0.27,44.59,0.72,66.88c0.17,8.63,0.25,17.35,1.56,25.84 c3.25,20.98,7.72,41.72,15.48,61.6c7.15,18.31,11.21,37.55,20.8,55.24c10.37,19.12,20.1,38.51,32.45,56.48 c25.48,37.1,55.56,69.93,91.31,97.32c9.32,7.14,20.22,12.19,29.59,19.26c15.83,11.94,33.37,20.36,51.63,27.61 c8.32,3.3,16.53,6.87,24.82,10.25c4.27,1.74,8.56,3.46,12.92,4.97c6.69,2.32,13.44,4.45,20.17,6.66c2.97,0.98,5.87,2.29,8.92,2.89 c12.01,2.38,24.02,4.78,36.11,6.71c11.12,1.77,22.31,3.21,33.52,4.28c5.88,0.56,6.96-0.69,6.67-6.46 c-0.54-11.1-1.05-22.22-2.29-33.25c-1.11-9.91-3.94-19.46-13.23-25.06c-16.19-9.77-32.52-19.26-51.02-24.33 c-8.92-2.44-17.5-6.15-26.41-8.64c-6.98-1.95-14.25-2.8-21.36-4.3c-7.62-1.61-15.17-3.5-22.79-5.1 c-9.54-2.01-19.32-3.17-28.62-5.93c-10.42-3.1-11.47-7.06-6.23-16.65c4.63-8.48,3.57-12.55-5.02-17.41 c-14.91-8.43-29.96-16.61-44.87-25.04c-8.9-5.03-17.64-10.36-26.49-15.48c-3.57-2.06-6.67-4.87-5.45-9.06 c0.72-2.49,3.45-5.01,5.91-6.29c13.97-7.26,16.9-16.54,9.05-30.13c-0.66-1.15-1.4-2.27-2.2-3.32 c-11.38-15.09-22.78-30.17-34.18-45.24c-5.99-7.92-12.5-15.5-17.83-23.84c-4.79-7.5-2.22-11.36,6.31-14.17 c6.03-1.99,11.85-5.05,17.22-8.48c5.29-3.37,6.42-9.1,3.78-14.98c-1.21-2.69-3.03-5.13-4.67-7.62 c-10.75-16.34-21.75-32.53-32.18-49.07c-4.12-6.54-1.64-10.66,6.21-12.09c2.26-0.41,4.6-0.59,6.9-0.62 c8.73-0.1,14.17-3.21,16.45-11.63c2.41-8.89,4.36-18.12,4.79-27.28c0.76-16.13-0.33-32.35,0.45-48.48 c0.42-8.63,2.67-17.26,4.94-25.67c2.25-8.35,11.23-13.63,19.45-4.8c4.2,4.51,9.2,4.65,13.9,0.93c5.39-4.27,9.99-9.25,11.57-16.36 c2.77-12.45,5.34-24.95,8.67-37.25c1.79-6.62,5-12.84,7.51-19.27c1.13-2.91,2.07-5.89,3.15-8.81c1.41-3.82,2.57-7.78,4.41-11.38 c2.11-4.12,4.94-7.86,7.31-11.85c3.76-6.34,8.56-7.37,14.4-2.84c1.57,1.22,3.03,2.63,4.32,4.15c5.1,5.97,11.73,7.08,18.99,6.09 c10.3-1.41,16.01-8.78,21.12-16.73c6-9.34,11.94-18.73,17.69-28.23c4.37-7.21,8.39-14.63,12.58-21.95 c1.57-2.73,2.99-5.57,4.79-8.14c4-5.73,10.54-6,15.14-0.74c1.31,1.49,2.39,3.19,3.72,4.67c2.99,3.35,6.75,5.6,11,3.22 c4.83-2.7,10.11-5.53,13.52-9.68c10.72-13.03,20.78-26.61,30.86-40.16c11.91-16,23.66-32.11,39.23-44.89 c14.65-12.03,28.33-12.83,42.79-0.78c9.09,7.58,17.37,16.42,24.76,25.7c13.44,16.86,25.68,34.67,38.99,51.63 c4.83,6.15,10.82,11.68,17.16,16.25c5.72,4.12,9.99,2.77,15-2.23c1.65-1.65,3.22-3.39,4.99-4.9c5.07-4.3,9.67-3.62,13.31,1.9 c0.91,1.38,1.66,2.87,2.5,4.3c6.13,10.42,12.27,20.84,18.41,31.26c1.85,3.15,4.11,6.12,5.49,9.47c4.1,9.98,11.34,17.44,19.02,24.58 c8.96,8.32,22.1,7.08,33.12-3c7.31-6.69,12.5-5.73,17.11,3.24c2.28,4.43,3.97,9.23,6.66,13.38c7.48,11.55,8.46,25.65,15.16,37.47 c0.22,0.39,0.12,0.98,0.13,1.48c0.31,14.63,8.52,27.04,11.5,40.99c2.12,9.92,13.06,13.08,21.64,7.57c1.54-0.99,3.13-1.9,4.76-2.72 c6.06-3.03,9.17-2.29,13.13,3.33c4.87,6.91,6.28,15.05,6.7,23.12c0.88,17.1,0.75,34.25,1.57,51.36c0.42,8.74,1.29,17.57,3.17,26.09 c3.09,14.01,7.98,16.9,22.05,14.81c0.16-0.02,0.33-0.07,0.49-0.09c4.52-0.67,7.68,1.1,9.82,5.13c2.07,3.9,2.6,7.28-1.17,10.7 c-1.74,1.57-2.58,4.16-3.79,6.31c-2.58,4.6-4.78,9.45-7.76,13.77c-7.35,10.65-15.29,20.89-22.56,31.6 c-5.85,8.61-4.05,15.85,5.06,20.77c4.45,2.4,9.43,3.96,14.31,5.41c8.68,2.58,10.95,7.07,7.12,15.23c-0.77,1.63-1.76,3.22-2.91,4.6 c-3.81,4.59-7.98,8.9-11.57,13.65c-10.29,13.62-20.29,27.45-30.55,41.09c-4.47,5.95-9.62,11.42-13.87,17.51 c-5.55,7.96-4.02,14.39,4.24,19.79c3.47,2.27,7.16,4.21,10.85,6.1c6.66,3.42,7.31,11.27,0.97,15.59 c-6.55,4.46-13.11,9.01-20.11,12.68c-15.86,8.33-32.01,16.12-48.01,24.18c-3.12,1.57-6.3,3.09-9.15,5.08 c-5.08,3.54-6.2,8.44-3.56,13.98c1.29,2.7,2.76,5.33,3.95,8.07c2.16,4.97,1.42,7.75-3.34,10.27c-9.53,5.06-19.8,7.62-30.59,7.71 c-8.92,0.08-17.46,1.28-25.45,5.72c-2.95,1.64-6.55,2.57-9.93,2.89c-11.15,1.05-22.05,2.71-31.9,8.53 c-0.84,0.5-1.86,0.92-2.81,0.97c-9.32,0.41-17.42,4.2-25.76,8.04c-10.06,4.64-21.14,7.03-31.21,11.64 c-18.75,8.6-31.93,23.54-42.56,40.78c-3.84,6.22-5.45,13.68-11.45,18.8c-1.46,1.24-1.55,5.49-0.62,7.65 c0.68,1.57,4.1,2.85,6.22,2.74c5.43-0.28,10.78-1.71,16.21-2.14c17.68-1.42,35.32-2.65,52.64-7.18c12.6-3.3,25.94-3.68,37.73-10.21 c2.51-1.39,5.68-1.58,8.55-2.3c4.16-1.04,8.58-1.5,12.45-3.21c10.56-4.64,20.71-10.26,31.35-14.67 c21.12-8.76,40.95-19.52,59.5-33.01c17.04-12.4,34.25-24.47,49.62-38.98c25.12-23.72,46.68-50.42,66.19-78.84 c2.15-3.13,4.77-6.31,5.67-9.84c2.49-9.79,12.18-15.84,13.13-26.29c0.04-0.39,0.7-0.7,0.96-1.11c2.37-3.77,5.24-7.34,6.98-11.39 c6-14.01,11.64-28.18,17.3-42.33c0.91-2.28,1.29-4.78,1.81-7.2c1.25-5.8,2.24-11.66,3.7-17.4c1.86-7.34,4.3-14.55,6.05-21.91 c1.07-4.48,1.35-9.15,1.92-13.75c2.47-19.71,6.09-39.37,7.1-59.15c1.5-29.21,0.58-58.44-5.54-87.3 c-2.75-12.95-3.66-26.33-7.02-39.09c-4.75-18.01-10.41-35.84-16.86-53.31c-3.08-8.35-7.52-16.24-10.98-24.58 c-5.02-12.12-13.08-22.99-19.92-34.35c-16.25-26.99-34.97-52.2-57.62-74.09c-14.63-14.14-30.63-26.86-46.18-40.03 c-14.45-12.24-30.21-22.79-47.16-31.05c-9.38-4.57-17.23-12.62-28.42-13.43c-1.06-0.08-2.27-0.79-3.06-1.56 c-5.48-5.34-12.25-7.65-19.62-8.7c-1.28-0.18-2.69-0.51-3.74-1.22c-6.77-4.53-14.38-6.28-22.24-7.9 c-5.41-1.11-10.27-4.79-15.67-6.05c-16.75-3.91-33.52-8.12-50.52-10.48c-16.05-2.22-32.39-2.48-48.62-3.18 c-32.74-1.41-65.14-0.48-97.42,7.23c-34.38,8.21-67.96,17.96-99.73,33.69c-10.35,5.12-21.5,8.66-32.34,12.76 c-1.66,0.63-3.64,0.4-5.48,0.56c-0.17-0.44-0.34-0.89-0.51-1.33c2.01-1.56,4.08-3.05,6.02-4.68c7.38-6.17,13.93-13.85,22.23-18.29 c17-9.1,33.01-20.56,52.41-24.69c2.2-0.47,4.18-1.95,6.25-2.97c2.67-1.32,5.2-3.11,8.01-3.91c21.16-6.06,42.03-13.27,64.17-15.4 c22.08-2.12,44.11-4.8,66.18-6.97c10.72-1.05,21.49-1.84,32.25-2.06c7.32-0.15,14.76-1.36,22.03,1.96 c2.93,1.34,6.99,0.22,10.54,0.22c0.02-0.83,0.04-1.66,0.06-2.49c-8.48-0.48-16.96-0.94-25.44-1.45c-1.65-0.1-3.28-0.42-4.91-0.65 c-10.46-1.5-20.88-3.83-31.39-4.35c-33.34-1.66-66.16,2.6-98.8,9.35c-30.14,6.23-59.68,14.24-88.52,25.04 c-30.77,11.52-59.92,26.2-87.53,43.91c-17.05,10.94-33.64,22.51-48.32,36.66c-16.37,15.78-29.7,33.98-42.74,52.42 c-9.1,12.86-19.2,25.21-26.61,39c-9.37,17.42-16.45,36.06-24.52,54.18c-8.52,19.14-16,38.62-21.64,58.86 c-8.93,32.07-17.2,64.13-15.22,97.89c0.26,4.36-1.12,8.8-1.66,13.22c-0.44,3.59-1.78,7.47,2.78,10.33c0.34-3.6,0.4-6.75,0.97-9.79 c3.13-16.59,6.34-33.17,9.63-49.73c1.83-9.23,3.58-18.49,5.91-27.59c2.08-8.12,4.99-16.04,7.39-24.08 c1.09-3.65,1.32-7.61,2.8-11.07c8.21-19.23,15.76-38.83,25.39-57.33c6.04-11.61,15.06-21.75,23.29-32.12 C-307.93-169.32-302.75-173.2-298.15-177.55z M9.39-25.75c0,8.14,0.45,16.31-0.09,24.42c-1.13,16.91-3.5,33.65-9.45,49.66 c-4.03,10.85-11.02,18.78-22.27,22.55C-33.1,74.46-38.7,71.41-41.7,60.53c-6.1-22.07-5.25-44.43-2.56-66.78 c2.94-24.43,8.49-48.29,16.74-71.52c0.51-1.45-0.37-4.85-1.1-5.01c-1.97-0.42-4.67-0.2-6.23,0.94c-1.89,1.38-2.79,4.05-4.32,6 c-4.83,6.16-9.61,12.31-18.04,13.95c-7.35,1.43-9.84,3.79-10.1,11.29c-0.59,16.89-1.74,33.88-0.57,50.69 c1.51,21.75,5.03,43.36,7.73,65.03c1.57,12.56,0.94,14.62-9.89,18.72c-5.66,2.14-10.07,6.1-11.56,12.18 c-0.51,2.08-0.12,5.69,1.2,6.55c1.47,0.96,4.61-0.03,6.76-0.86c3.36-1.3,6.35-3.7,9.76-4.72c9.82-2.93,19.66-6.08,29.71-7.92 C-8.44,84.35,8.56,69.35,19.5,46.2C31.64,20.49,36.57-6.79,37.18-34.87c0.44-20.16-2.51-40.06-8.87-59.29 c-5.4-16.31-11.44-32.31-24.81-44.21c-14.37-12.79-30.52-16.7-48.78-9.84c-13.62,5.11-24.09,14.66-33.57,25.21 c-11.02,12.26-18.86,26.46-23.38,42.38c-1.4,4.92-0.1,6.3,4.62,5.69c7.7-1,15.41-1.93,23.13-2.7c7.86-0.79,12.03-5.02,12.37-12.85 c0.14-3.31,0.35-6.63,0.59-9.94c0.88-12.24,5.79-22.32,15.79-29.75c10.75-7.99,21.36-7.24,30.88,2.18 c7.15,7.08,11.65,15.71,14.75,25.12C8.14-77.81,9.95-51.89,9.39-25.75z M73.2-126.42c0.01,0,0.01,0,0.02,0 c0-12.83-0.14-25.67,0.04-38.5c0.18-12.7,5.83-17.61,18.05-14.38c9.38,2.48,18.61,6.08,27.3,10.41 c9.59,4.77,16.85,12.35,20.09,23.04c1.15,3.79,1.89,7.76,3.47,11.35c0.94,2.12,3.17,3.67,4.82,5.48c1.58-2.06,3.65-3.91,4.59-6.23 c0.66-1.63,0.12-4-0.51-5.83c-1.85-5.39-1.19-10.01,2.93-14.18c3.22-3.26,2.8-6.91,0.07-10.3c-1.13-1.41-2.45-2.82-3.98-3.74 c-9.81-5.9-19.32-12.5-29.65-17.31c-26.63-12.41-54.72-15.29-83.6-10.4c-2.77,0.47-6.05,1.19-6.11,5.33 c-0.06,4.13,3.13,4.2,5.79,4.77c9.47,2.02,13.26,6.59,13.26,16.28c0,74,0,147.99,0,221.99c0,9.02-0.61,10.1-9.09,13.03 c-4.32,1.49-4.77,4.73-4.46,8.32c0.32,3.77,2.57,5.22,6.46,5.24c19.65,0.1,39.29,0.31,58.94,0.73c5.11,0.11,10.22,0.95,15.3,1.66 c7.53,1.05,15.01,2.65,22.57,3.29c5.9,0.5,8.36-2.37,8.51-8.41c0.07-2.66,0.2-5.35-0.03-8c-0.48-5.66,1.56-9.99,6.11-13.37 c1.39-1.04,3.17-2.68,3.25-4.13c0.15-2.91-0.75-5.87-1.22-8.8c-2.57,0.41-5.49,0.19-7.65,1.37c-4.05,2.21-7.5,5.48-11.47,7.85 c-12.76,7.6-26.29,12.68-41.5,12.07c-14.81-0.59-22.1-7.33-22.24-21.69C73.05,18.37,73-3.8,73.27-25.96 c0.2-15.9,14.77-26.15,29.46-20.83c6.89,2.49,12.21,7.18,15.53,13.96c1.61,3.29,4.09,5.22,8.09,3.79c4.39-1.56,4.42-4.9,3.57-8.56 c-0.26-1.12-0.81-2.18-1.25-3.25c-3.04-7.35-4.53-14.86-2.76-22.81c1.48-6.63,2.88-13.28,4.13-19.96c0.82-4.39-1.21-6.2-5.59-5.65 c-4.16,0.53-5.01,3.95-6.41,6.89c-1.63,3.41-2.46,7.48-4.84,10.2c-7.42,8.48-17.9,9.25-27.62,7.04 C77.8-66.9,75.72-75.3,74.15-82.57c-0.69-3.2-0.88-6.56-0.91-9.85C73.13-103.75,73.2-115.09,73.2-126.42z M-79.5,27.05 c-0.56-7.78-0.81-15.59-1.73-23.33c-1.83-15.25-5.17-30.02-14.75-42.67c-9.19-12.15-27.63-15.26-38.95-5.75 c-6.18,5.19-12.17,10.94-16.93,17.41c-22.6,30.75-30.05,65.63-26.01,103.09c1.44,13.31,6.75,25.39,17.26,34.4 c7.5,6.43,15.64,11.06,26.27,8.85c19.81-4.12,32.74-16.73,41.98-33.75C-82.52,67.17-79.76,47.4-79.5,27.05z M222.61,76.98 c-13.94-0.26-23.16-8.82-23.41-22.62c-0.33-17.97-0.46-35.94-0.72-53.91c-0.16-10.81-0.53-21.62-0.56-32.43 c-0.08-24.99,0.02-49.98-0.04-74.97c-0.02-8.49,4.01-14.31,11.66-17.32c4.14-1.63,4.04-3.78,2.24-6.82 c-0.93-1.56-1.88-3.28-3.26-4.37c-10.07-8.03-20.1-16.1-30.47-23.73c-3.05-2.25-5.87-0.28-6,3.52c-0.07,1.96,0.22,3.95,0.54,5.9 c1.01,6.19,2.8,12.34,3.05,18.55c1.01,24.73,1.89,49.48,2.18,74.23c0.23,20.28-0.45,40.58-0.74,60.86 c-0.24,16.47-0.25,32.95-0.83,49.4c-0.37,10.54-3.94,19.78-13.5,25.73c-3.41,2.13-3.32,5.51,0.51,6.56 c3.52,0.96,7.46,0.45,11.22,0.41c4.6-0.05,9.28-0.89,13.79-0.34c16.11,1.95,31.05,8.05,46.1,13.73c2.73,1.03,5.78,1.66,8.69,1.66 c3.32,0,5.88-1.72,5.15-5.68c-1.54-8.35,1.05-16.11,3.09-23.98c1.1-4.23-1.21-6.39-5.37-4.92c-1.99,0.7-3.68,2.23-5.63,3.09 C234.43,72.11,228.51,74.52,222.61,76.98z M253.55,105.43c2.64,4.64,6.34,3.53,9.71,3.81c6.37,0.53,12.99,0.46,19,2.3 c8.68,2.66,16.92,6.79,25.33,10.33c5.35,2.25,10.54,5,16.04,6.76c5.44,1.73,7.84-0.94,7.3-6.44c-0.52-5.24-0.65-10.55-0.56-15.82 c0.08-4.26-1.86-6.21-5.37-3.88c-9.57,6.37-19.24,4.55-29.16,1.55c-6.25-1.89-9.76-6.14-10.07-12.65 c-0.31-6.63-0.65-13.27-0.77-19.9c-0.34-19.96-0.74-39.92-0.81-59.88c-0.04-11.79-0.02-23.63,1.03-35.35 c0.39-4.35,2.89-9.33,6.02-12.4c3.24-3.18,3.45-5.49,1.86-9.04C287.84-57,278.9-65.94,269.81-74.71c-1.22-1.17-3.37-1.38-5.09-2.03 c-0.56,1.93-2,4.11-1.55,5.76c4.39,16.12,3.36,32.69,3.78,49.05c0.7,27.81,0.24,55.65,0.17,83.48c-0.02,7.48-0.2,14.97-0.7,22.43 C265.8,93.07,261.83,100.45,253.55,105.43z M82.12,155.69c1.69,2.36,2.64,3.29,3.13,4.42c7.37,17.07,14.67,34.17,22.01,51.25 c1.23,2.86,1.28,7.78,5.54,6.74c1.98-0.48,3.73-5.05,4.22-8c2.75-16.82,4.7-33.77,7.66-50.54c2.78-15.74,4.06-31.94,11.68-46.52 c0.44-0.85-0.07-3.24-0.49-3.33c-5.15-1.12-10.37-1.96-15.06-2.77c2.18,27.95-2.35,54.04-9.92,79.9c-1.62-1.19-2.46-2.38-3.07-3.67 c-4.61-9.75-9.09-19.57-13.77-29.28c-2.29-4.76-4.21-9.22-0.87-14.47c2.29-3.6,0.02-7.22-2.67-9.23c-2.36-1.76-6.46-3.26-8.83-2.35 c-2.25,0.86-3.55,4.87-4.7,7.72c-0.64,1.58-0.33,3.65-0.09,5.45c1.95,14.54-6.54,25.68-12.09,37.97c-1.72-4.44-2.9-8.82-3.78-13.25 c-3.54-17.67-7.05-35.35-10.39-53.06c-0.58-3.05-2-3.73-4.79-3.5c-3.41,0.28-6.86,0.33-10.28,0.23c-3.69-0.1-4.79,1.35-3.59,4.86 c3.47,10.2,7.48,20.26,10.16,30.67c5.91,22.9,11.11,45.99,16.72,68.97c0.39,1.59,1.68,2.96,2.55,4.44 c1.17-1.19,2.92-2.18,3.41-3.61c2.83-8.12,5.56-16.29,7.95-24.55C75.93,179.24,78.74,168.21,82.12,155.69z M-70.59,184.64 c7.48-0.5,14.02,1.76,19.82,8.68c8.92,10.65,16.91,22.08,25.33,33.15c3.4,4.47,6.81,8.95,10.46,13.2c0.79,0.92,2.67,1.17,4.03,1.14 c0.38-0.01,0.83-2.07,1.07-3.23c0.49-2.39,1.13-4.79,1.17-7.2c0.03-1.84-0.27-4.96-1.25-5.33c-6.42-2.45-9.04-8.02-12.03-13.36 c-4.95-8.85-9.89-17.77-18.47-23.72c-4.59-3.18-9.58-5.78-14.94-8.97c7.63-5.55,11.59-13.43,12.67-22.6 c1.21-10.25-1.66-19.26-10.4-25.38c-8.47-5.92-17.17-5.14-25.51,0.64c-5.67,3.93-11.91,5.49-18.79,5.49 c-1.92,0-3.84,1.73-5.77,2.66c1.5,1.56,2.72,3.68,4.55,4.57c3.7,1.81,5.86,4.21,7.02,8.31c3.89,13.72,8.63,27.21,12.26,41 c2.88,10.95,4.51,22.22,7.02,33.28c0.22,0.99,2.92,2.15,4.33,1.99c3.05-0.34,6.05-1.38,9.01-2.33c0.96-0.31,2.19-1.13,2.41-1.95 c0.21-0.79-0.54-2.04-1.18-2.82c-1.24-1.5-3.48-2.59-3.96-4.24C-64.84,206.85-67.59,195.96-70.59,184.64z M222.78,200.56 c-1.25-3.16-2.69-6.25-3.71-9.48c-4.14-13.12-8.18-26.27-12.18-39.43c-2.33-7.68-6.85-14.79-5.93-23.39 c0.11-0.98-2.17-2.88-3.61-3.25c-3.83-0.96-7.8-1.43-11.73-1.88c-3.38-0.38-5,1.13-4.41,4.71c0.43,2.61,0.8,5.25,0.92,7.89 c0.74,16.42-1.95,32.5-6.28,48.16c-3.07,11.1-7.57,21.91-12.48,32.36c-2.05,4.36-4.48,7.23,0.89,10.41 c0.93,0.55,1.41,1.81,2.18,2.67c1.12,1.25,2.31,2.42,3.47,3.63c1.03-1.41,2.16-2.75,3.04-4.24c0.58-0.98,0.9-2.15,1.17-3.27 c5.02-21.11,10.01-42.22,15.02-63.34c1.16-4.89,2.36-9.77,3.79-15.68c1.05,1.82,1.67,2.57,1.95,3.42 c5.08,15.8,10.1,31.62,15.16,47.43c3.04,9.49,5.94,19.02,9.29,28.39c0.73,2.06,3.09,3.53,4.69,5.28c1.23-1.94,3.07-3.72,3.57-5.83 c2.4-10.14,4.09-20.46,6.68-30.55c4.44-17.31,7.19-35.16,15.5-51.32c1.45-2.82,0.2-3.76-2.66-4.17c-2.82-0.41-5.55-1.47-8.32-2.26 c-1.32-0.38-2.63-0.78-4.21-1.25c-0.96,11.59-1.32,22.54-2.91,33.31C230.11,179.56,228.63,190.39,222.78,200.56z M-168.71,165.81 c-0.46,0.42-0.93,0.83-1.39,1.25c1.44,1.88,2.63,5.06,4.37,5.4c7.74,1.51,10.28,7.56,12.49,13.57 c5.46,14.78,10.05,29.89,15.81,44.54c2.84,7.22,4.18,13.75,0.42,20.85c-0.56,1.05,0.01,2.68,0.05,4.05 c1.63-0.35,3.49-0.31,4.84-1.13c4.92-3,9.49-6.58,14.51-9.37c4.33-2.4,9.07-4.06,13.65-6c9.51-4.02,18.15-18.57,16.85-28.43 c-2.22-16.78-14.16-26.15-32.02-24.08c0.54-3.38,0.92-6.47,1.54-9.52c2.13-10.47-0.59-18.47-8.24-23.14 c-8.02-4.89-14.4-0.51-20.29,4.33C-152.75,163.57-160.28,165.84-168.71,165.81z M315.24,218.91c0.39-0.46,0.79-0.91,1.18-1.37 c-1.92-2.02-3.55-4.46-5.8-6c-8.56-5.83-18.61-6.56-28.5-7.6c-0.95-0.1-2.04,1.11-3.06,1.7c0.7,1,1.21,2.27,2.15,2.94 c1.04,0.74,2.48,0.89,3.72,1.36c8.94,3.4,10.48,6.23,8.44,15.5c-0.28,1.29-0.76,2.53-1.1,3.81c-2.61,9.87-11.17,10.92-18.04,8.92 c-7.4-2.16-11.34-7.53-12.56-14.65c-0.89-5.2-1.11-10.64-0.7-15.91c1.16-14.76,5.57-28.36,16.4-39.08 c6.29-6.23,17.56-7.42,24.51-2.93c7.14,4.61,10.2,15.16,7.14,23.73c-0.44,1.22,0.34,2.88,0.56,4.33c1.36-0.59,3.07-0.85,4.01-1.83 c1.81-1.91,2.72-5.13,4.83-6.2c5.93-3.03,7.13-5.16,0.87-9.56c-3.32-2.34-4.81-7.11-7.7-10.27c-11.08-12.15-24.35-16.16-39.04-6.62 c-6.85,4.44-11.92,10.47-15.92,17.51c-5.72,10.06-7.97,21.13-8.38,32.45c-0.23,6.54,0.69,13.27,2.16,19.67 c3.5,15.19,14.31,21.51,29.89,18.89c5.24-0.88,10.74-0.25,16.12-0.25c1.99,0,3.97,0.18,5.96,0.28c-0.35-1.96-0.25-4.16-1.14-5.84 c-3.99-7.56,0.37-13.74,2.97-20.23c1.93-4.82,5.88-2.28,9.08-2.47C313.95,219.15,314.59,219.01,315.24,218.91z M54.07,260.36 c-0.16,0.46-0.32,0.92-0.48,1.37c-8.76-0.28-16.78,1.44-23.28,7.96c-11.36,11.4-15.11,25.15-13.57,40.89 c1.76,18.04,10.98,30.33,27.87,36.45c9.65,3.49,19.48,5,29.31-0.63c2.86-1.64,6.93-1.1,10.4-1.77c1.35-0.26,3.39-0.8,3.7-1.7 c0.43-1.25,0.01-3.78-0.9-4.32c-4.23-2.52-4.68-5.9-3.71-10.25c0.28-1.24-0.94-2.82-1.47-4.24c-1.45,1.04-3.08,1.92-4.3,3.19 c-0.73,0.76-0.76,2.16-1.21,3.23c-3.15,7.46-8.21,11.06-15.8,10.26c-8.16-0.86-14.8-5.22-19.52-11.68 c-11.96-16.36-9.65-33.8-2.22-50.97c4.85-11.21,19.93-11.33,28.01-3.88c3.68,3.39,3.63,6.92-0.06,10.2c-1.23,1.09-2.84,1.76-4,2.9 c-0.84,0.83-1.24,2.12-1.83,3.21c1,0.44,1.97,1.03,3.01,1.3c2.66,0.69,5.33,1.42,8.04,1.77c1.06,0.14,2.85-0.39,3.27-1.17 c3.48-6.43,4.72-21.75-4.76-26.33C65.35,263.65,59.59,262.26,54.07,260.36z M34.66,182.63c-1.65,2.61-2.64,3.74-3.16,5.06 c-5.49,13.91-16.19,15.42-25.92,14.27c-4.38-0.52-5.89-2.73-6.37-6.64c-0.88-7.22-1.98-14.42-2.88-21.63 c-0.95-7.63,5.8-12.43,13.12-9.35c1.21,0.51,2.26,1.4,3.44,1.99c3.6,1.8,5.39,0.63,5.33-3.3c-0.07-5.04,0.22-10.1-0.13-15.12 c-0.12-1.66-1.73-3.22-2.65-4.82c-1.11,1.03-2.39,1.94-3.3,3.13c-1.2,1.56-1.76,3.81-3.23,4.92c-2.21,1.67-4.99,3.67-7.48,3.6 c-3.64-0.1-7.25-2.23-7.95-6.4c-1.23-7.34-2.2-14.74-2.83-22.15c-0.11-1.3,1.82-3.82,3.08-4.01c5.72-0.89,11.56-1.15,16.69,2.42 c2.03,1.41,3.83,3.25,6,4.35c1.09,0.55,3.34,0.42,4.11-0.35c1.66-1.67-3.06-14.8-5.35-15.51c-0.62-0.19-1.34-0.24-1.98-0.13 c-11.89,2.08-23.8,4.04-35.63,6.41c-3.88,0.78-4.06,3.1-1.54,6.15c1.57,1.9,3.17,4.23,3.59,6.58c2.3,12.7,4.64,25.41,6.17,38.21 c1.54,12.92,4.63,25.79,2.38,39.01c-0.63,3.68,1.87,5.15,5.76,4.58c11.45-1.69,22.94-3.1,34.37-4.94c2.35-0.38,6.08-1.76,6.42-3.29 c1.27-5.77,1.5-11.78,1.87-17.72C36.69,186.65,35.7,185.32,34.66,182.63z M113.57,269.8c-8.15-0.05-14.07,3.51-16.79,10.77 c-4.25,11.35-4.37,22.64,1.44,33.63c6.06,11.45,19.99,13.54,29.23,4.39c5.69-5.64,8.26-12.58,9.03-20.46 C138.1,281.69,128.5,269.69,113.57,269.8z M152.51,116.09c-1.11,12.6-1.78,24.81-3.36,36.9c-2.36,17.97-3.2,36.27-10.4,53.35 c-0.47,1.11,0.85,3.91,2.07,4.58c2.24,1.23,5.05,1.42,7.6,2.11c2.94,0.79,3.76-0.5,3.93-3.29c0.64-10.23,1.02-20.5,2.36-30.64 c2.23-16.85,5.24-33.6,7.63-50.44c0.48-3.37,5.74-6.45,1.82-9.68c-2.53-2.08-6.77-2.1-10.26-3 C153.44,115.86,152.91,116.05,152.51,116.09z M-92.72,293.5c-0.15,0.53-0.3,1.06-0.45,1.58c1.38,0.97,2.64,2.4,4.17,2.84 c6.02,1.73,12.07,3.48,18.23,4.6c17.59,3.21,35.2,6.36,52.87,9.03c10.49,1.59,11.22,0.59,9.8-9.42c-0.16-1.15-1.66-2.57-2.86-3.02 c-1.81-0.68-3.9-0.87-5.86-0.84c-21.96,0.35-43.77-1.27-65.51-4.25C-85.75,293.56-89.25,293.66-92.72,293.5z M242.29,292.01 c-0.18-0.66-0.36-1.32-0.54-1.98c-1.69,0-3.38-0.1-5.06,0.02c-22.13,1.55-44.26,3.1-66.38,4.73c-2.92,0.22-6.03,0.43-8.56,1.67 c-0.79,0.39,0.3,4.14,0.09,6.3c-0.34,3.43,1.48,4,4.21,3.72c4.44-0.46,8.88-1.28,13.32-1.35c19.4-0.28,38.26-3.46,56.53-9.99 C238.12,294.33,240.16,293.06,242.29,292.01z M-47.47,256.09c-0.38,0.52-0.77,1.05-1.15,1.57c1.15,1.86,1.88,4.33,3.52,5.48 c12.56,8.8,25.27,17.4,38.03,25.91c3.29,2.19,5.01,0.1,6.34-2.93c1.35-3.07,0.66-4.55-2.39-6.21 c-12.63-6.88-25.04-14.16-37.59-21.18C-42.81,257.57-45.21,256.96-47.47,256.09z M-42.22,352.24c0.28,0.44,0.57,0.89,0.85,1.33 c2.29-0.53,4.73-0.73,6.85-1.65c9.57-4.15,19.06-8.49,28.56-12.8c4.08-1.85,8.17-3.69,12.16-5.72c1.05-0.53,2.37-1.67,2.49-2.66 c0.37-3.03-6.05-7.19-8.71-5.63c-13.29,7.8-26.52,15.69-39.69,23.67C-40.84,349.46-41.4,351.07-42.22,352.24z M200.65,349.41 c0.41-0.67,0.82-1.35,1.23-2.02c-2.07-1.83-3.92-4-6.24-5.44c-11.08-6.91-22.28-13.63-33.45-20.39c-4.46-2.7-6.8-2.09-9.81,3.12 c-2.46,4.27,2.51,4.05,4.07,5.86c0.57,0.66,1.8,0.76,2.72,1.13c11.61,4.76,23.73,8.35,34.17,15.72 C195.29,348.74,198.19,348.76,200.65,349.41z M156.16,278.78c0.72,1.68,1.42,2.85,1.73,4.11c0.97,3.89,3.28,3.71,5.98,2.02 c11.51-7.18,21.06-16.6,30.16-26.52c0.8-0.87,0.65-2.62,0.95-3.96c-1.35,0.16-2.99-0.12-3.99,0.56 C179.42,262.77,167.95,270.69,156.16,278.78z M136.13,335.1c-6.7,3.43-13.19,2.67-19.75,0.63c-5.42-1.68-10.08,0.24-14.16,3.64 c-1.52,1.27-2.5,3.2-4.35,5.65c2.58,0,3.76,0.36,4.46-0.06c4.37-2.61,8.61-2.12,13.29-0.61c2.86,0.92,6.38,0.84,9.34,0.13 C129.85,343.3,134.6,341.35,136.13,335.1z M-100.2,23.97c-0.37,22.27-2.74,42.34-12.69,60.58c-3.09,5.66-7.52,11.01-12.5,15.09c-6.16,5.04-11.62,3.9-17.32-1.7 c-8.79-8.65-11.86-19.89-13.15-31.52c-2.98-26.88,2.59-52.44,13.79-76.79c2.8-6.08,6.87-11.73,11.11-16.96 c7.71-9.51,15.33-6.44,20.83,2.91c5.76,9.8,7.55,20.8,8.92,31.83C-100.45,13.49-100.45,19.66-100.2,23.97z M83.7,133.66c4.58,4.17,4.19,6.96-0.93,10.42C83.08,140.57,83.35,137.64,83.7,133.66z M-53.88,151.81c0.26,11.83-9.61,21.56-17.63,19.44c-1.73-0.46-3.91-2.19-4.41-3.79c-1.66-5.36-2.9-10.88-3.8-16.42 c-0.62-3.81,4.35-9.68,8.9-11.67c4.6-2.01,8.61-1.12,11.42,2.81C-56.87,145.72-55.03,149.76-53.88,151.81z M-100.38,215.5c0.03,7.33-8.27,18.04-15.29,19.51c-3.09,0.65-6.07,0.35-7.59-3.05c-2.82-6.33-6.03-12.53-8.22-19.07 c-1.94-5.8,2.44-12.49,9.27-15.84c5.93-2.91,11.61-2.12,15.39,3.24c3.14,4.45,5.2,9.67,7.73,14.54 C-99.52,215.05-99.95,215.28-100.38,215.5z M-146.36,174.84c-0.09-8.58,3.73-12.7,10.29-13.44c5.05-0.57,9.39,3.2,10.04,9.32c0.75,7.12-0.81,13.82-5.72,19.25 c-4.23,4.68-8.17,3.99-10.33-1.77C-143.98,183.14-145.39,177.9-146.36,174.84z M115.71,277.86c4.88,0.73,7.08,3.59,8.28,6.87c3.43,9.36,3.26,18.77-1.21,27.8c-1.71,3.45-4.31,7.24-8.59,6.09 c-2.82-0.76-5.98-3.54-7.25-6.24c-4.65-9.87-4.36-19.96,1.62-29.27C110.05,280.79,113.27,279.58,115.71,277.86z"/>
</svg>
