<svg xmlns="http://www.w3.org/2000/svg" viewBox="0 0 20 20"><path fill="#001D26" d="M0.83,1.08h18.33v17.83H0.83V1.08z"/><path fill="#00C8FF" d="M0,0.25v19.5h20V0.25H0z M0.83,1.08h18.33v17.83H0.83V1.08z M4.83,4.82c0-0.06,0.12-0.1,0.18-0.1 c0.53-0.03,1.32-0.04,2.15-0.04c2.31,0,3.21,1.27,3.21,2.89c0,2.12-1.53,3.03-3.42,3.03c-0.32,0-0.42-0.02-0.65-0.02v3.2 c0,0.07-0.03,0.1-0.1,0.1H4.93c-0.07,0-0.1-0.03-0.1-0.1V4.82L4.83,4.82z M6.32,9.24c0.19,0.02,0.34,0.02,0.67,0.02 c0.97,0,1.89-0.34,1.89-1.67C8.88,6.53,8.23,6,7.12,6c-0.33,0-0.65,0.02-0.8,0.03L6.32,9.24L6.32,9.24z M13.48,8.25 c-0.66,0-0.88,0.33-0.88,0.61c0,0.3,0.15,0.51,1.03,0.97c1.31,0.63,1.72,1.24,1.72,2.13c0,1.33-1.02,2.05-2.39,2.05 c-0.73,0-1.35-0.15-1.71-0.36c-0.06-0.03-0.07-0.07-0.07-0.13v-1.22c0-0.08,0.04-0.11,0.1-0.07c0.53,0.34,1.12,0.49,1.68,0.49 c0.66,0,0.93-0.28,0.93-0.65c0-0.3-0.19-0.57-1.03-1c-1.18-0.57-1.68-1.14-1.68-2.1c0-1.08,0.84-1.97,2.3-1.97 c0.72,0,1.22,0.11,1.49,0.23c0.07,0.04,0.08,0.11,0.08,0.17v1.14c0,0.07-0.04,0.11-0.12,0.08C14.57,8.39,14.03,8.25,13.48,8.25 L13.48,8.25z"/></svg>