<?xml version="1.0" encoding="utf-8"?>
<!-- Generator: Adobe Illustrator 18.0.0, SVG Export Plug-In . SVG Version: 6.00 Build 0)  -->
<!DOCTYPE svg PUBLIC "-//W3C//DTD SVG 1.1//EN" "http://www.w3.org/Graphics/SVG/1.1/DTD/svg11.dtd">
<svg version="1.1" id="Layer_1" xmlns="http://www.w3.org/2000/svg" xmlns:xlink="http://www.w3.org/1999/xlink" x="0px" y="0px"
	 viewBox="0 0 20 20" enable-background="new 0 0 20 20" xml:space="preserve">
<path d="M1.6,6.8h3c0.9,0,1.5,0.3,1.9,0.8s0.5,1.2,0.4,2c-0.1,0.4-0.2,0.8-0.3,1.1c-0.2,0.4-0.4,0.7-0.7,1c-0.4,0.4-0.8,0.6-1.2,0.7
	c-0.4,0.1-0.9,0.2-1.3,0.2H2l-0.4,2.1H0L1.6,6.8L1.6,6.8 M2.9,8l-0.7,3.3c0,0,0.1,0,0.1,0c0.1,0,0.1,0,0.2,0c0.7,0,1.3-0.1,1.8-0.2
	c0.5-0.2,0.8-0.7,0.9-1.6c0.1-0.8,0-1.2-0.4-1.3C4.4,8.1,4,8,3.4,8C3.3,8,3.2,8,3.1,8C3,8,3,8,2.9,8L2.9,8"/>
<path d="M8.6,4.7h1.5L9.7,6.8H11c0.8,0,1.3,0.2,1.7,0.5c0.4,0.3,0.5,0.9,0.3,1.7l-0.7,3.7h-1.5l0.7-3.5c0.1-0.4,0.1-0.6-0.1-0.8
	c-0.1-0.2-0.4-0.2-0.8-0.2l-1.2,0l-0.9,4.5H7L8.6,4.7L8.6,4.7"/>
<path d="M14.7,6.8h3c0.9,0,1.5,0.3,1.9,0.8s0.5,1.2,0.4,2c-0.1,0.4-0.2,0.8-0.3,1.1c-0.2,0.4-0.4,0.7-0.7,1
	c-0.4,0.4-0.8,0.6-1.2,0.7c-0.4,0.1-0.9,0.2-1.3,0.2h-1.3l-0.4,2.1h-1.5L14.7,6.8L14.7,6.8 M16,8l-0.7,3.3c0,0,0.1,0,0.1,0
	c0.1,0,0.1,0,0.2,0c0.7,0,1.3-0.1,1.8-0.2c0.5-0.2,0.8-0.7,0.9-1.6c0.1-0.8,0-1.2-0.4-1.3C17.5,8.1,17,8,16.5,8c-0.1,0-0.2,0-0.3,0
	C16.1,8,16.1,8,16,8L16,8"/>
</svg>
