<svg xmlns="http://www.w3.org/2000/svg" xmlns:xlink="http://www.w3.org/1999/xlink" x="0px" y="0px"
	 viewBox="0 0 200 200" enable-background="new 0 0 200 200" xml:space="preserve" class="portfolio-clients">
<g>
	<path d="M49.51,79.03c-4.63,0-8.25,3.65-8.25,8.6c0,5.01,3.62,8.82,8.25,8.82c1.68,0,3.55-0.6,4.85-1.65l-2.63-2.57l1.84-1.97
		l2.57,2.6c1.02-1.4,1.65-3.27,1.65-5.23C57.79,82.68,54.17,79.03,49.51,79.03z"/>
	<path d="M160.47,116.08c-2.79,0-4.38,2.03-4.38,5.3c0,3.33,1.78,5.62,4.66,5.62c2.22,0,4.25-1.33,4.25-5.52
		C165,117.28,162.97,116.08,160.47,116.08z"/>
	<path d="M111.2,15.25c-46.81,0-84.75,37.94-84.75,84.75s37.94,84.75,84.75,84.75s84.75-37.94,84.75-84.75S158.01,15.25,111.2,15.25
		z M55.13,110.18h-7.68v19.67h-3.14v-19.67h-7.68v-2.73h18.5V110.18z M49.51,99.33c-6.47,0-11.48-5.17-11.48-11.71
		c0-6.47,5.01-11.45,11.48-11.45c6.5,0,11.52,4.98,11.52,11.45c0,2.82-1.02,5.42-2.63,7.39l2.67,2.54l-1.84,1.97l-2.6-2.6
		C54.68,98.48,52.24,99.33,49.51,99.33z M73.15,129.85h-3.08v-9.58c0-2.25-0.48-4.03-3.05-4.03c-2.41,0-4.41,1.65-5.08,3.97
		c-0.19,0.63-0.25,1.36-0.25,2.13v7.52h-3.08v-22.4h3.08v8.22c0,0.76-0.06,1.33-0.06,1.33h0.06c0.7-1.55,2.73-3.58,5.93-3.58
		c3.78,0,5.52,2.06,5.52,6.15V129.85z M76.48,95.65c-0.67,1.59-2.76,3.68-5.9,3.68c-3.62,0-5.49-1.9-5.49-6.15V82.9h3.08v9.58
		c0,2.22,0.44,4,3.01,4c3.27,0,5.2-2.89,5.2-6.06V82.9h3.08v16.05h-2.98v-2.13c0-0.67,0.06-1.17,0.06-1.17H76.48z M81.75,129.85
		h-3.08v-16.05h3.08V129.85z M81.75,110.59h-3.11v-3.14h3.11V110.59z M87.36,98.95h-3.08V82.9h3.08V98.95z M87.36,79.7h-3.11v-3.14
		h3.11V79.7z M102.02,129.85h-3.08v-9.58c0-2.25-0.48-4.03-3.05-4.03c-2.44,0-4.41,1.62-5.08,3.93c-0.19,0.63-0.25,1.36-0.25,2.16
		v7.52h-3.08v-16.05h2.98v2.13c0,0.63-0.06,1.17-0.06,1.17h0.06c0.63-1.4,2.54-3.68,6.03-3.68c3.78,0,5.52,2.06,5.52,6.15V129.85z
		 M99.64,99.33c-5.04,0-8.6-3.58-8.6-8.41c0-4.76,3.55-8.41,8.6-8.41c4.03,0,6.03,2.35,6.03,2.35l-1.46,2.16
		c0,0-1.71-1.84-4.44-1.84c-3.24,0-5.58,2.41-5.58,5.71c0,3.27,2.35,5.77,5.68,5.77c2.98,0,4.95-2.16,4.95-2.16l1.24,2.25
		C106.05,96.76,103.83,99.33,99.64,99.33z M117.76,129.85l-4.82-7.55h-2.32v7.55h-3.08v-22.4h3.08v12.25h2.25l4.38-5.9h3.49
		l-5.33,7.07v0.06l5.93,8.91H117.76z M119.76,98.95l-4.82-7.55h-2.32v7.55h-3.08v-22.4h3.08V88.8h2.25l4.38-5.9h3.49l-5.33,7.07
		v0.06l5.93,8.91H119.76z M128.23,129.85h-3.08v-16.05h3.08V129.85z M128.23,110.59h-3.11v-3.14h3.11V110.59z M148.5,129.85h-3.08
		v-9.58c0-2.25-0.48-4.03-3.05-4.03c-2.44,0-4.41,1.62-5.08,3.93c-0.19,0.63-0.25,1.36-0.25,2.16v7.52h-3.08v-16.05h2.98v2.13
		c0,0.63-0.06,1.17-0.06,1.17h0.06c0.63-1.4,2.54-3.68,6.03-3.68c3.78,0,5.52,2.06,5.52,6.15V129.85z M168.02,129.18
		c0,5.3-4.03,7.33-8.09,7.33c-1.94,0-3.93-0.54-5.49-1.33l1.02-2.41c0,0,2,1.08,4.41,1.08c2.79,0,5.08-1.24,5.08-4.5v-1.17
		c0-0.51,0.03-1.02,0.03-1.02h-0.06c-0.95,1.59-2.44,2.51-4.76,2.51c-4.47,0-7.17-3.58-7.17-8.22c0-4.6,2.57-8.03,7.01-8.03
		c3.87,0,5.04,2.38,5.04,2.38h0.06c0,0-0.03-0.22-0.03-0.51v-1.49h2.95V129.18z"/>
</g>
<circle cx="26.45" cy="156.36" r="13.64"/>
<circle cx="9.2" cy="170" r="5.15"/>
</svg>
