<svg id="Layer_1" xmlns="http://www.w3.org/2000/svg" width="30" viewBox="0 0 52 53"><style>.st0{fill:#61dafb;enable-background:new}</style><path class="st0" d="M50.9 26.5c0-3.5-4.1-6.6-10.4-8.5 1.4-6.4.8-11.5-2.2-13.2-3-1.7-7.6.3-12.3 4.7-4.7-4.4-9.3-6.4-12.3-4.7-3 1.7-3.7 6.8-2.2 13.2-6.3 1.9-10.4 5-10.4 8.5s4.1 6.6 10.4 8.5c-1.4 6.4-.8 11.5 2.2 13.2 3 1.7 7.6-.3 12.3-4.7 4.7 4.4 9.3 6.4 12.3 4.7 3-1.7 3.7-6.8 2.2-13.2 6.3-1.9 10.4-5 10.4-8.5zM37 7.1c2.2 1.3 2.6 5.2 1.4 10.4-2-.5-4.2-.9-6.5-1.1-1.4-2-2.9-3.7-4.3-5.3 3.7-3.6 7.2-5.3 9.4-4zM16.9 31.7c.5.9 1 1.7 1.5 2.5-1.5-.2-2.9-.5-4.3-.8.4-1.3.9-2.7 1.5-4.1.4.8.9 1.6 1.3 2.4zm-2.7-12.1c1.3-.3 2.8-.6 4.3-.8-.5.8-1 1.6-1.5 2.5-.5.8-.9 1.6-1.3 2.4-.6-1.4-1.1-2.8-1.5-4.1zm2.6 6.9c.6-1.3 1.3-2.7 2.1-4 .8-1.4 1.6-2.7 2.4-3.9 1.5-.1 3-.2 4.6-.2s3.1.1 4.6.2c.8 1.2 1.7 2.6 2.4 3.9.8 1.3 1.5 2.7 2.1 4-.6 1.3-1.3 2.7-2.1 4-.8 1.4-1.6 2.7-2.4 3.9-1.5.1-3 .2-4.6.2s-3.1-.1-4.6-.2c-.8-1.2-1.7-2.6-2.4-3.9-.7-1.3-1.4-2.7-2.1-4zm18.3 5.2c.5-.8.9-1.6 1.3-2.4.6 1.4 1.1 2.8 1.5 4.1-1.3.3-2.8.6-4.3.8.5-.9 1-1.7 1.5-2.5zm0-10.4c-.5-.9-1-1.7-1.5-2.5 1.5.2 2.9.5 4.3.8-.4 1.3-.9 2.7-1.5 4.1-.4-.8-.9-1.6-1.3-2.4zM26 12.7c1 1 1.9 2.2 2.9 3.5-.9 0-1.9-.1-2.9-.1s-1.9 0-2.9.1c1-1.3 1.9-2.5 2.9-3.5zM15 7.1c2.2-1.2 5.7.4 9.5 4-1.5 1.5-2.9 3.3-4.3 5.3-2.3.2-4.5.6-6.5 1.1-1.3-5.2-1-9.1 1.3-10.4zm-3 25.7c-5.1-1.5-8.3-3.8-8.3-6.3S7 21.7 12 20.2c.6 2 1.4 4.2 2.3 6.3-.9 2.2-1.7 4.3-2.3 6.3zm3 13.1c-2.2-1.3-2.6-5.2-1.4-10.4 2 .5 4.2.9 6.5 1.1 1.4 2 2.9 3.7 4.3 5.3-3.7 3.6-7.2 5.3-9.4 4zm8.1-9c.9 0 1.9.1 2.9.1s1.9 0 2.9-.1c-1 1.3-1.9 2.4-2.9 3.5-1-1.1-1.9-2.3-2.9-3.5zm13.9 9c-2.2 1.2-5.7-.4-9.5-4 1.5-1.5 2.9-3.3 4.3-5.3 2.3-.2 4.5-.6 6.5-1.1 1.3 5.2 1 9.1-1.3 10.4zm3-13.1c-.6-2-1.4-4.2-2.3-6.3 1-2.2 1.7-4.3 2.3-6.3 5.1 1.5 8.3 3.8 8.3 6.3s-3.2 4.8-8.3 6.3z"/><circle class="st0" cx="26" cy="26.5" r="4.6"/></svg>