<svg version="1.1" id="skype-icon" xmlns="http://www.w3.org/2000/svg" xmlns:xlink="http://www.w3.org/1999/xlink" x="0px" y="0px" viewBox="0 0 20 20" enable-background="new 0 0 20 20" xml:space="preserve">
	<path d="M19.2,11.6c0.3-1.6,0.1-3.2-0.4-4.7c-0.7-2.2-2.3-4.1-4.4-5.2c-1.8-1-4-1.3-6.1-1c-1.8-1.1-4.2-0.9-6,0.3 c-1.1,0.8-2,2-2.2,3.4c-0.3,1.3-0.1,2.7,0.6,3.9c-0.3,1.6-0.1,3.3,0.5,4.9c0.8,2.2,2.5,4,4.5,5.1c1.8,0.9,3.9,1.2,5.9,0.9 c1.8,1,4.1,0.9,5.8-0.2c1.2-0.8,2.1-2.1,2.4-3.6C20.1,14.2,19.9,12.8,19.2,11.6z M17.1,17.5c-1,0.9-2.5,1.2-3.8,0.9 c-0.5-0.1-1-0.4-1.4-0.6c-1.6,0.4-3.2,0.3-4.7-0.3c-2.2-0.8-4-2.7-4.7-5C2,11.1,2,9.6,2.3,8.1C1.8,7.4,1.5,6.5,1.5,5.6 c0-1.3,0.7-2.7,1.9-3.5c1.1-0.7,2.4-0.9,3.6-0.5c0.4,0.1,0.8,0.4,1.2,0.6C9.6,2,11.2,2,12.6,2.5c2.3,0.8,4.2,2.7,4.9,5 c0.5,1.4,0.5,2.9,0.2,4.4c0.4,0.6,0.7,1.3,0.8,2C18.7,15.2,18.1,16.6,17.1,17.5z"/>
	<path d="M8.8,4.4c1.3-0.2,2.8,0,4,0.6c0.5,0.3,1,0.7,1.3,1.2c0.2,0.4,0.2,0.9-0.1,1.2 c-0.3,0.3-0.8,0.4-1.3,0.3c-0.5-0.2-0.7-0.7-1.2-1c-0.5-0.4-1.2-0.5-1.9-0.5c-0.5,0-1,0.1-1.3,0.5C7.9,7,7.8,7.6,8.1,8 c0.3,0.4,0.8,0.5,1.2,0.6c0.8,0.2,1.6,0.4,2.5,0.6c0.9,0.2,1.7,0.6,2.3,1.3c1,1.3,0.8,3.2-0.5,4.3c-1,0.9-2.3,1.1-3.6,1.1 c-1.3,0-2.7-0.3-3.8-1.2c-0.5-0.5-0.9-1.2-0.8-1.9c0.2-0.7,1.1-1,1.7-0.5c0.4,0.4,0.6,0.9,1.1,1.2C8.6,13.8,9.3,14,10,14 c0.6,0,1.3-0.2,1.8-0.7c0.3-0.3,0.5-0.8,0.3-1.2c-0.2-0.4-0.6-0.6-0.9-0.7c-0.7-0.2-1.4-0.4-2.2-0.5c-0.8-0.2-1.6-0.4-2.3-0.8 C6.1,9.6,5.7,9.1,5.5,8.4c-0.2-1-0.1-2.1,0.6-2.9C6.9,4.8,7.8,4.5,8.8,4.4z"/>
</svg>
