<svg xmlns:svg="http://www.w3.org/2000/svg" x="0px" y="0px" viewBox="0 0 173.76 61.35" enable-background="new 0 0 173.76 61.35" xml:space="preserve" class="portfolio-client">
<rect x="136.92" y="24.3" width="3.79" height="14.99"/>
<rect x="48.15" y="24.3" width="3.79" height="14.99"/>
<path d="M65.87,38.87c-1.25,0.3-2.61,0.42-4.13,0.42c-5.53,0-8.29-2.61-8.29-7.8c0-4.81,2.76-7.19,8.29-7.19
	c1.51,0,2.91,0.15,4.13,0.42v2.99c-1.25-0.3-2.54-0.42-3.86-0.42c-3.18,0-4.77,1.4-4.77,4.2c0,3.18,1.59,4.77,4.77,4.77
	c1.32,0,2.61-0.15,3.86-0.42V38.87z M94.56,33.27h-9.8c0,2.01,1.67,3.03,4.92,3.03c1.51,0,3.03-0.15,4.54-0.42v2.99
	c-1.32,0.3-3.03,0.42-5.11,0.42c-5.45,0-8.14-2.57-8.14-7.68c0-4.88,2.5-7.31,7.46-7.31C93.43,24.3,95.47,27.29,94.56,33.27
	 M84.76,30.51h6.25c0.15-2.16-0.87-3.22-2.99-3.22C86.01,27.29,84.95,28.35,84.76,30.51 M96.19,21.87h2.8l0.57,2.42h3.48v2.99h-3.07
	v6.89c0,1.4,0.61,2.08,1.82,2.08h1.25v2.99h-3.07c-2.5,0-3.79-1.36-3.79-4.05L96.19,21.87L96.19,21.87z M106.15,22.29h0.91
	l0.26,2.38h3.67v1.25h-3.41v9.27c0,1.93,0.72,2.88,2.2,2.88h1.21v1.25h-1.21c-2.46,0-3.67-1.32-3.67-3.94v-13.1L106.15,22.29
	L106.15,22.29z M111.82,32.02c0-4.88,2.31-7.34,6.97-7.34s6.97,2.46,6.97,7.34s-2.31,7.31-6.97,7.31
	C114.17,39.33,111.82,36.9,111.82,32.02 M118.79,38.08c3.67,0,5.53-2.04,5.53-6.13c0-4.01-1.85-6.02-5.53-6.02
	c-3.67,0-5.53,2.01-5.53,6.02C113.26,36.03,115.12,38.08,118.79,38.08 M1.86,18.96v2.16c0,0.98,0.38,1.78,1.1,2.5
	c0.72,0.68,1.63,1.02,2.65,1.02H9.4v12.57H5.38l0,0c-0.98,0-1.85,0.34-2.57,1.02c-0.72,0.72-1.06,1.55-1.06,2.5v2.16h9.73l0,0
	c0.98,0,1.82-0.34,2.5-1.02c0.68-0.64,1.02-1.4,1.06-2.31l0,0v-20.6H1.86z M29.68,18.96v2.16c0,0.98-0.38,1.78-1.1,2.5
	c-0.72,0.68-1.63,1.02-2.65,1.02h-3.75v12.57h3.97l0,0c0.98,0,1.85,0.34,2.57,1.02s1.06,1.51,1.06,2.46v2.16h-9.73l0,0
	c-0.98,0-1.82-0.34-2.5-1.02c-0.68-0.64-1.02-1.4-1.06-2.31l0,0V18.96H29.68z M18.66,16.8c0,0.61-0.49,1.14-1.14,1.14h-3.48
	c-0.61,0-1.14-0.53-1.14-1.14v-3.48c0-0.61,0.49-1.14,1.14-1.14h3.48c0.61,0,1.14,0.49,1.14,1.14V16.8z M39.86,21.87h2.8l0.57,2.42
	h3.48v2.99h-3.07v6.89c0,1.4,0.61,2.08,1.82,2.08h1.25v2.99h-3.07c-2.5,0-3.79-1.36-3.79-4.05C39.86,35.2,39.86,21.87,39.86,21.87z
	 M48.68,21.42c0.34,0.38,0.79,0.57,1.29,0.57h1.97v-1.17c0-0.53-0.19-0.95-0.53-1.32c-0.34-0.38-0.79-0.57-1.29-0.57h-1.93v1.17
	C48.15,20.59,48.34,21.04,48.68,21.42 M171.52,33.27h-9.8c0,2.01,1.67,3.03,4.92,3.03c1.51,0,3.03-0.15,4.54-0.42v2.99
	c-1.32,0.3-3.03,0.42-5.11,0.42c-5.45,0-8.14-2.57-8.14-7.68c0-4.88,2.5-7.31,7.46-7.31C170.39,24.3,172.43,27.29,171.52,33.27
	 M161.72,30.51h6.25c0.15-2.16-0.87-3.22-2.99-3.22C163,27.29,161.91,28.35,161.72,30.51 M156.61,38.38c-2.31,0.61-4.62,0.91-7,0.91
	c-5.03,0-7.57-2.61-7.57-7.8c0-4.81,2.42-7.19,7.27-7.19c1.29,0,2.46,0.23,3.52,0.72v-6.13h3.79L156.61,38.38L156.61,38.38z
	 M152.78,28.2c-0.98-0.53-2.16-0.76-3.52-0.76c-2.35,0-3.52,1.32-3.52,3.94c0,3.14,1.17,4.69,3.52,4.69c1.36,0,2.54-0.19,3.52-0.57
	V28.2z M127.91,39.29V24.3h2.91l0.45,1.93c1.32-1.29,2.69-1.93,4.16-1.93v3.07c-1.4,0-2.69,0.64-3.79,1.89v10.03H127.91z
	 M137.45,21.42c0.34,0.38,0.79,0.57,1.29,0.57h1.97v-1.17c0-0.53-0.19-0.95-0.53-1.32c-0.34-0.38-0.79-0.57-1.29-0.57h-1.93v1.17
	C136.92,20.59,137.07,21.04,137.45,21.42"/>
<polygon points="81.46,24.3 76.96,24.3 72.19,30.66 72.19,32.93 76.96,39.29 81.46,39.29 75.82,31.79 "/>
<rect x="67.69" y="18.88" width="3.79" height="20.4"/>
</svg>
