<svg version="1.1" id="Layer_1" xmlns="http://www.w3.org/2000/svg" xmlns:xlink="http://www.w3.org/1999/xlink" x="0px" y="0px"
	 viewBox="0 0 200 100" enable-background="new 0 0 200 100" xml:space="preserve" class="portfolio-clients">
<g>
	<path fill="#353534" d="M163.15,67.72c2.9-2.88,5.78-5.71,8.62-8.59c0.94-0.96,1.34-1.57,2.6,0.07c2.1,2.73,1.89,4.4-0.72,6.67
		c-3.74,3.25-7.16,6.9-10.46,10.61c-2.04,2.29-3.02,1.48-4.36-0.59c-2.94-4.55-2.56-9.47-1.76-14.42c0.39-2.41,0.65-4.82,0.54-7.25
		c-0.17-3.43-2.87-6.24-5.74-6.12c-2.64,0.11-4.22,2.27-4.26,6.05c-0.05,4.09-0.19,8.18,0.05,12.26c0.17,2.85-1.63,2.37-3.15,2.21
		c-1.41-0.15-3.74,1.24-3.61-2.07c0.18-4.52-0.03-9.06,0.06-13.58c0.13-6.32,5.72-11.49,12.22-11.41
		c5.91,0.07,10.86,5.22,10.99,11.45c0.09,4-1.16,7.85-1.43,11.81C162.68,65.77,162.26,66.76,163.15,67.72z"/>
	<path fill="#A2C61B" d="M182.55,47.93c2.77-2.79,5.77-5.51,8.4-8.56c1.62-1.88,2.47-0.73,3.24,0.41c0.77,1.14,3.69,1.64,1.3,4
		c-4.72,4.64-9.36,9.38-13.94,14.15c-1.25,1.3-1.89,1.23-2.99-0.21c-3.21-4.2-3.53-8.9-2.85-13.85c0.34-2.51,0.79-5.02,0.96-7.54
		c0.19-2.67-0.64-5.01-3.02-6.57c-2.03-1.34-3.95-1.22-5.68,0.53c-1.66,1.68-2.07,3.47-0.77,5.66c0.55,0.92,2.31,1.64,1.29,3.01
		c-1.04,1.4-2.38,2.62-3.76,3.7c-0.85,0.66-1.3-0.45-1.77-0.98c-3.44-3.9-4.03-8.81-1.57-12.82c3.06-4.99,8.65-7.66,13.42-6.39
		c4.68,1.24,8.36,5.94,8.5,11.03c0.11,4.22-1.21,8.28-1.5,12.46C181.74,46.56,181.44,47.25,182.55,47.93z"/>
	<path fill="#353534" d="M44.82,57.95c-2.32,0-4.64,0.11-6.95-0.03c-2.13-0.13-2.12,0.97-1.64,2.43c1.14,3.43,6.43,5.17,9.05,2.51
		c2.19-2.22,4.51-1.72,6.94-1.87c1.82-0.11,1.66,0.81,1.17,2.04c-1.57,3.91-6.47,6.71-11.68,6.64c-5.51-0.08-10.19-2.99-11.88-7.41
		c-2.17-5.65-0.86-13.08,2.93-16.68c3.56-3.39,10-4.28,14.85-2.04c4.46,2.05,7.41,8.06,6.59,13.04c-0.25,1.51-1.12,1.36-2.1,1.37
		C49.67,57.96,47.24,57.95,44.82,57.95z M41.49,53.28c1.1,0,2.19-0.06,3.28,0.01c2.52,0.17,2.53-1,1.51-2.73
		c-1.68-2.85-6.22-3.41-8.57-1.03c-0.85,0.86-1.82,1.98-1.41,3.14c0.44,1.29,1.9,0.42,2.9,0.58C39.94,53.38,40.72,53.28,41.49,53.28
		z"/>
	<path fill="#353534" d="M137.75,55.85c0.01,8.59-4.92,13.85-12.98,13.84c-8.06-0.02-13.04-5.31-13.02-13.83
		c0.02-8.4,4.92-13.61,12.84-13.65C132.81,42.16,137.74,47.26,137.75,55.85z M130.65,55.88c0.01-5.18-2.34-8.03-6.39-7.77
		c-3.53,0.23-5.61,3.27-5.51,8.05c0.1,4.74,2.39,7.71,5.95,7.74C128.36,63.92,130.65,60.84,130.65,55.88z"/>
	<path fill="#353534" d="M77.26,60.34c1.24-0.06,2.77-0.25,3.67,2.07c0.82,2.1,6.36,2.56,8.06,0.95c1.59-1.5,0.78-2.65-0.85-3.2
		c-2.39-0.82-4.87-1.37-7.3-2.08c-5.04-1.48-6.89-3.47-6.8-7.23c0.1-4.19,2.93-7.22,7.64-8.22c4.06-0.86,7.88-0.32,11.38,1.99
		c0.45,0.3,0.91,0.7,1.16,1.17c0.81,1.56,2.77,3.83,1,4.74c-1.55,0.8-4.7,1.73-6.4-0.99c-0.72-1.15-1.76-1.73-2.98-1.86
		c-1.86-0.19-4.23-0.43-4.68,1.89c-0.44,2.27,1.99,2.15,3.47,2.59c2.43,0.73,4.95,1.18,7.29,2.11c2.85,1.12,4.67,3.15,4.72,6.51
		c0.05,3.48-1.38,6.14-4.45,7.48c-4.75,2.07-9.65,1.97-14.44-0.11c-1.68-0.73-2.84-2.09-3.63-3.72
		C72.47,61.02,72.92,60.34,77.26,60.34z"/>
	<path fill="#353534" d="M15.99,60.51c1.31-4.56,2.86-9.05,3.83-13.66c0.67-3.19,2.04-4.55,5.27-3.99c0.94,0.16,1.93,0.02,3.34,0.02
		c-3.05,8.51-5.81,16.72-8.98,24.77c-0.96,2.44-3.74,0.73-5.65,1.11c-1.21,0.24-1.96-0.23-2.42-1.57
		c-2.58-7.49-5.24-14.94-7.95-22.38c-0.5-1.38-0.49-2.07,1.22-1.94c0.99,0.07,2,0.12,2.97-0.01c2.1-0.27,3.13,0.45,3.64,2.65
		c1.01,4.39,2.39,8.69,3.6,13.03C15.08,59.29,15.14,60.08,15.99,60.51z"/>
	<path fill="#353534" d="M63.72,46.03c1.97-1.65,3.46-3.31,5.83-3.54c1.55-0.15,2.64-0.07,2.42,1.93c-0.11,0.98-0.1,2,0,2.98
		c0.16,1.54-0.32,2.03-1.97,2.09c-4.59,0.18-6.01,1.75-6.1,6.37c-0.07,3.53-0.07,7.07,0.01,10.61c0.04,1.56-0.18,2.35-2.09,2.39
		c-4.84,0.1-4.83,0.22-4.83-4.61c0-5.86-0.09-11.71,0.07-17.57c0.04-1.29-1.37-3.74,1.6-3.74C60.77,42.94,63.83,41.56,63.72,46.03z"
		/>
	<path fill="#353534" d="M107.68,55.94c0,3.52-0.15,7.05,0.05,10.57c0.17,2.92-1.82,2.24-3.26,2.1c-1.4-0.13-3.76,1.3-3.71-1.99
		c0.1-7.16,0.05-14.31,0.02-21.47c-0.02-3.5,2.6-1.72,4.08-2.02c1.59-0.32,3.01-0.2,2.88,2.23
		C107.54,48.89,107.68,52.42,107.68,55.94z"/>
	<path fill="#A2C61B" d="M108.54,36.14c-0.04,2.43-2.02,4.42-4.36,4.37c-2.36-0.05-4.35-2.13-4.3-4.5c0.04-2.3,2.21-4.44,4.45-4.38
		C106.72,31.69,108.58,33.67,108.54,36.14z"/>
</g>
</svg>
