<svg version="1.1" id="Layer_1" xmlns="http://www.w3.org/2000/svg" xmlns:xlink="http://www.w3.org/1999/xlink" x="0px" y="0px"
	 viewBox="0 0 200 100" enable-background="new 0 0 200 100" xml:space="preserve" class="portfolio-client">
<path fill="#004C6C" d="M92.3,68.21c0.8,0,1.41-0.6,1.41-1.31c0-0.8-0.6-1.31-1.41-1.31s-1.41,0.6-1.41,1.31S91.5,68.21,92.3,68.21"
	/>
<path fill="#004C6C" d="M92.3,68.21c0.8,0,1.41-0.6,1.41-1.31c0-0.8-0.6-1.31-1.41-1.31s-1.41,0.6-1.41,1.31S91.5,68.21,92.3,68.21"
	/>
<path fill="#004C6C" d="M32.13,79.18c0-4.63-2.82-8.05-7.45-8.05c-4.53,0-7.55,3.42-7.55,8.05s2.82,8.05,7.45,8.05
	C29.11,87.23,32.13,83.81,32.13,79.18 M29.41,79.18c0,3.92-1.91,6.34-4.83,6.34c-2.82,0-4.83-2.41-4.83-6.34
	c0-4.02,1.91-6.34,4.83-6.34C27.5,72.84,29.41,75.16,29.41,79.18"/>
<path fill="#004C6C" d="M92.3,71.53c-0.7,0-1.31,0.6-1.31,1.31v12.68c0,0.7,0.6,1.31,1.31,1.31c0.7,0,1.31-0.6,1.31-1.31V72.84
	C93.61,72.14,93.01,71.53,92.3,71.53"/>
<path fill="#004C6C" d="M85.86,73.14c-0.7-1.21-2.11-2.01-3.92-2.01c-2.31,0-3.92,1.21-5.23,2.72h-0.1V66.5
	c0-0.7-0.6-1.31-1.31-1.31s-1.31,0.6-1.31,1.31v19.02c0,0.7,0.6,1.31,1.31,1.31c0.7,0,1.31-0.6,1.31-1.31V75.36
	c1.11-1.21,2.72-2.21,4.33-2.21c1.11,0,2.11,0.4,2.72,1.41c0.3,0.6,0.5,1.41,0.5,2.52v8.45c0,0.7,0.6,1.31,1.31,1.31
	c0.7,0,1.31-0.6,1.31-1.31v-8.75C86.77,75.16,86.47,74.05,85.86,73.14"/>
<path fill="#004C6C" d="M63.12,75.16c0-1.41,1.21-2.11,3.12-2.11c1.41,0,2.01,0.2,2.92,0.3c0.7,0.2,1.01-0.3,1.11-0.5
	c0.1-0.4-0.1-0.91-0.6-1.01c-0.7-0.3-2.01-0.7-3.82-0.7c-2.92,0-5.23,1.51-5.23,4.23c0,5.23,7.55,3.62,7.55,7.45
	c0,1.31-0.91,2.62-3.72,2.62c-1.61,0-2.11-0.2-2.82-0.3c-0.6-0.2-0.91,0.2-1.01,0.5c-0.1,0.3-0.1,0.7,0.5,1.01
	c0.7,0.3,2.31,0.7,3.82,0.7c3.02,0,5.94-1.41,5.94-4.73C70.67,77.07,63.12,78.58,63.12,75.16"/>
<path fill="#004C6C" d="M42.7,71.13c-3.62,0-7.45,0.8-7.45,7.14v7.24c0,0.7,0.6,1.31,1.31,1.31s1.31-0.6,1.31-1.31v-7.55
	c0-1.91,0-3.22,0.4-3.62c0.5-0.6,1.81-0.5,4.43-0.5c0.7,0,1.31-0.6,1.31-1.31C44.1,71.73,43.5,71.13,42.7,71.13"/>
<path fill="#004C6C" d="M105.28,71.13c-3.52,0-7.45,0.8-7.45,7.14v7.24c0,0.7,0.6,1.31,1.31,1.31s1.31-0.6,1.31-1.31v-7.55
	c0-1.91,0-3.22,0.4-3.62c0.6-0.6,1.81-0.5,4.43-0.5c0.7,0,1.31-0.6,1.31-1.31C106.59,71.73,105.99,71.13,105.28,71.13"/>
<path fill="#004C6C" d="M195.84,71.13c-3.52,0-7.45,0.8-7.45,7.14v7.24c0,0.7,0.6,1.31,1.31,1.31s1.31-0.6,1.31-1.31v-7.55
	c0-1.91,0-3.22,0.4-3.62c0.5-0.6,1.81-0.5,4.43-0.5c0.7,0,1.31-0.6,1.31-1.31C197.15,71.73,196.55,71.13,195.84,71.13"/>
<path fill="#004C6C" d="M17.34,65.4c-0.7-0.3-1.51,0-1.81,0.6c-0.2,0.5-4.93,9.86-4.93,9.86h-0.1c0,0-4.83-9.46-5.03-9.86
	s-1.01-1.01-1.91-0.5c-0.7,0.4-0.8,1.31-0.5,1.91c0.2,0.3,6.14,10.77,6.14,10.77v7.45c0,0.4,0.3,1.31,1.31,1.31
	c0.91,0,1.31-0.8,1.31-1.31v-7.65c0,0,5.94-10.57,6.14-10.87C18.24,66.6,18.04,65.7,17.34,65.4"/>
<path fill="#004C6C" d="M57.39,84.82c-0.5-0.5-5.74-6.14-5.74-6.14l0,0c0,0,5.33-4.83,5.53-5.03c0.2-0.2,0.6-1.01-0.1-1.61
	c-0.4-0.4-1.11-0.5-1.61,0.1c-0.2,0.2-5.84,6.14-5.84,6.14l0,0V66.5c0-0.7-0.6-1.31-1.31-1.31s-1.31,0.6-1.31,1.31v19.02
	c0,0.7,0.6,1.31,1.31,1.31s1.31-0.6,1.31-1.31v-6.34l0,0c0,0,5.53,6.84,5.94,7.24c0.4,0.5,1.31,0.6,1.81,0.1
	C57.89,86.02,57.89,85.22,57.39,84.82"/>
<path fill="#004C6C" d="M116.85,77.87l-6.64,0.4c0-3.72,1.71-5.43,3.82-5.43c2.31,0,3.32,2.01,3.52,4.33
	C117.56,77.67,117.56,77.87,116.85,77.87 M120.28,78.38c0-3.32-1.71-7.35-6.04-7.35c-4.02,0-6.64,3.32-6.64,8.35
	c0,5.43,3.32,7.85,7.55,7.85c2.31,0,3.62-0.6,4.13-0.8c0.5-0.2,0.6-0.6,0.5-1.01s-0.5-0.6-1.01-0.5c-0.6,0.2-1.21,0.4-2.92,0.4
	c-3.52,0-5.43-1.81-5.53-5.84h8.85C120.17,79.48,120.28,78.88,120.28,78.38"/>
<path fill="#004C6C" d="M181.96,77.87l-6.64,0.4c0-3.72,1.71-5.43,3.82-5.43c2.31,0,3.32,2.01,3.52,4.33
	C182.66,77.67,182.66,77.87,181.96,77.87 M185.28,78.38c0-3.32-1.71-7.35-6.04-7.35c-4.02,0-6.64,3.32-6.64,8.35
	c0,5.43,3.32,7.85,7.55,7.85c2.31,0,3.62-0.6,4.13-0.8c0.5-0.2,0.6-0.6,0.5-1.01c-0.1-0.4-0.5-0.6-1.01-0.5
	c-0.6,0.2-1.21,0.4-3.02,0.4c-3.52,0-5.43-1.81-5.43-5.84h8.85C185.28,79.48,185.28,78.88,185.28,78.38"/>
<path fill="#004C6C" d="M156,79.48c-1.41,0-6.14,0.1-6.14,3.42c0,1.51,0.91,2.72,2.41,2.72C156.6,85.62,156,84.31,156,79.48
	 M149.05,72.34c0.91-0.5,2.21-1.11,4.53-1.11c2.52,0,5.13,2.11,5.13,6.24v3.72c0,4.43-0.2,6.24-7.24,6.24
	c-2.21,0-4.33-1.21-4.33-4.13c0-3.82,3.42-4.83,8.96-4.93v-0.8c0-3.72-2.21-4.23-3.02-4.23c-1.41,0-2.11,0.1-3.32,0.6
	C148.55,74.25,148.15,72.94,149.05,72.34"/>
<path fill="#004C6C" d="M170.69,85.52c-0.1-0.4-0.4-0.5-0.7-0.4c-0.5,0.1-0.8,0.2-1.51,0.2c-1.21,0-2.21-0.4-2.21-2.11v-9.56h3.52
	c0.5,0,1.01-0.4,1.01-1.01c0-0.5-0.4-1.01-1.01-1.01h-3.52v-3.02c0-0.7-0.6-1.31-1.31-1.31s-1.31,0.6-1.31,1.31v3.02h-2.52
	c-0.7,0-0.8,1.31,0,1.41c0.5,0.1,2.62,0.5,2.62,0.5v9.86c0,2.92,1.71,3.72,3.92,3.72c1.21,0,2.01-0.2,2.72-0.5
	C170.69,86.32,170.79,85.92,170.69,85.52"/>
<path fill="#004C6C" d="M146.14,66c-0.6-0.1-1.41,0.1-1.71,1.01c-0.3,1.11-4.53,15.9-4.53,15.9h-0.1c0,0-3.82-14.59-4.13-15.8
	c-0.3-1.41-2.52-1.51-2.82,0c-0.4,1.61-3.82,15.9-3.82,15.9h-0.1c0,0-4.63-15.7-4.73-16c-0.3-0.91-1.11-1.11-1.61-1.01
	c-0.91,0.2-1.11,1.21-1.01,1.61c0.3,0.8,5.13,15.4,6.04,18.01c0.6,1.81,2.41,1.31,2.82,0c0.3-1.31,3.82-15.9,3.82-15.9h0.1
	c0,0,4.13,15.6,4.23,15.9c0.4,1.31,2.21,1.61,2.72,0c0.1-0.3,5.84-17.91,5.94-18.01C147.24,67.21,146.94,66.3,146.14,66"/>
<path fill="#004C6C" d="M32.13,79.18c0-4.63-2.82-8.05-7.45-8.05c-4.53,0-7.55,3.42-7.55,8.05s2.82,8.05,7.45,8.05
	C29.11,87.23,32.13,83.81,32.13,79.18 M29.41,79.18c0,3.92-1.91,6.34-4.83,6.34c-2.82,0-4.83-2.41-4.83-6.34
	c0-4.02,1.91-6.34,4.83-6.34C27.5,72.84,29.41,75.16,29.41,79.18"/>
<path fill="#004C6C" d="M92.3,71.53c-0.7,0-1.31,0.6-1.31,1.31v12.68c0,0.7,0.6,1.31,1.31,1.31c0.7,0,1.31-0.6,1.31-1.31V72.84
	C93.61,72.14,93.01,71.53,92.3,71.53"/>
<path fill="#004C6C" d="M85.86,73.14c-0.7-1.21-2.11-2.01-3.92-2.01c-2.31,0-3.92,1.21-5.23,2.72h-0.1V66.5
	c0-0.7-0.6-1.31-1.31-1.31s-1.31,0.6-1.31,1.31v19.02c0,0.7,0.6,1.31,1.31,1.31c0.7,0,1.31-0.6,1.31-1.31V75.36
	c1.11-1.21,2.72-2.21,4.33-2.21c1.11,0,2.11,0.4,2.72,1.41c0.3,0.6,0.5,1.41,0.5,2.52v8.45c0,0.7,0.6,1.31,1.31,1.31
	c0.7,0,1.31-0.6,1.31-1.31v-8.75C86.77,75.16,86.47,74.05,85.86,73.14"/>
<path fill="#004C6C" d="M63.12,75.16c0-1.41,1.21-2.11,3.12-2.11c1.41,0,2.01,0.2,2.92,0.3c0.7,0.2,1.01-0.3,1.11-0.5
	c0.1-0.4-0.1-0.91-0.6-1.01c-0.7-0.3-2.01-0.7-3.82-0.7c-2.92,0-5.23,1.51-5.23,4.23c0,5.23,7.55,3.62,7.55,7.45
	c0,1.31-0.91,2.62-3.72,2.62c-1.61,0-2.11-0.2-2.82-0.3c-0.6-0.2-0.91,0.2-1.01,0.5c-0.1,0.3-0.1,0.7,0.5,1.01
	c0.7,0.3,2.31,0.7,3.82,0.7c3.02,0,5.94-1.41,5.94-4.73C70.67,77.07,63.12,78.58,63.12,75.16"/>
<path fill="#004C6C" d="M42.7,71.13c-3.62,0-7.45,0.8-7.45,7.14v7.24c0,0.7,0.6,1.31,1.31,1.31s1.31-0.6,1.31-1.31v-7.55
	c0-1.91,0-3.22,0.4-3.62c0.5-0.6,1.81-0.5,4.43-0.5c0.7,0,1.31-0.6,1.31-1.31C44.1,71.73,43.5,71.13,42.7,71.13"/>
<path fill="#004C6C" d="M105.28,71.13c-3.52,0-7.45,0.8-7.45,7.14v7.24c0,0.7,0.6,1.31,1.31,1.31s1.31-0.6,1.31-1.31v-7.55
	c0-1.91,0-3.22,0.4-3.62c0.6-0.6,1.81-0.5,4.43-0.5c0.7,0,1.31-0.6,1.31-1.31C106.59,71.73,105.99,71.13,105.28,71.13"/>
<path fill="#004C6C" d="M195.84,71.13c-3.52,0-7.45,0.8-7.45,7.14v7.24c0,0.7,0.6,1.31,1.31,1.31s1.31-0.6,1.31-1.31v-7.55
	c0-1.91,0-3.22,0.4-3.62c0.5-0.6,1.81-0.5,4.43-0.5c0.7,0,1.31-0.6,1.31-1.31C197.15,71.73,196.55,71.13,195.84,71.13"/>
<path fill="#004C6C" d="M17.34,65.4c-0.7-0.3-1.51,0-1.81,0.6c-0.2,0.5-4.93,9.86-4.93,9.86h-0.1c0,0-4.83-9.46-5.03-9.86
	s-1.01-1.01-1.91-0.5c-0.7,0.4-0.8,1.31-0.5,1.91c0.2,0.3,6.14,10.77,6.14,10.77v7.45c0,0.4,0.3,1.31,1.31,1.31
	c0.91,0,1.31-0.8,1.31-1.31v-7.65c0,0,5.94-10.57,6.14-10.87C18.24,66.6,18.04,65.7,17.34,65.4"/>
<path fill="#004C6C" d="M57.39,84.82c-0.5-0.5-5.74-6.14-5.74-6.14l0,0c0,0,5.33-4.83,5.53-5.03c0.2-0.2,0.6-1.01-0.1-1.61
	c-0.4-0.4-1.11-0.5-1.61,0.1c-0.2,0.2-5.84,6.14-5.84,6.14l0,0V66.5c0-0.7-0.6-1.31-1.31-1.31s-1.31,0.6-1.31,1.31v19.02
	c0,0.7,0.6,1.31,1.31,1.31s1.31-0.6,1.31-1.31v-6.34l0,0c0,0,5.53,6.84,5.94,7.24c0.4,0.5,1.31,0.6,1.81,0.1
	C57.89,86.02,57.89,85.22,57.39,84.82"/>
<path fill="#004C6C" d="M116.85,77.87l-6.64,0.4c0-3.72,1.71-5.43,3.82-5.43c2.31,0,3.32,2.01,3.52,4.33
	C117.56,77.67,117.56,77.87,116.85,77.87 M120.28,78.38c0-3.32-1.71-7.35-6.04-7.35c-4.02,0-6.64,3.32-6.64,8.35
	c0,5.43,3.32,7.85,7.55,7.85c2.31,0,3.62-0.6,4.13-0.8c0.5-0.2,0.6-0.6,0.5-1.01s-0.5-0.6-1.01-0.5c-0.6,0.2-1.21,0.4-2.92,0.4
	c-3.52,0-5.43-1.81-5.53-5.84h8.85C120.17,79.48,120.28,78.88,120.28,78.38"/>
<path fill="#004C6C" d="M181.96,77.87l-6.64,0.4c0-3.72,1.71-5.43,3.82-5.43c2.31,0,3.32,2.01,3.52,4.33
	C182.66,77.67,182.66,77.87,181.96,77.87 M185.28,78.38c0-3.32-1.71-7.35-6.04-7.35c-4.02,0-6.64,3.32-6.64,8.35
	c0,5.43,3.32,7.85,7.55,7.85c2.31,0,3.62-0.6,4.13-0.8c0.5-0.2,0.6-0.6,0.5-1.01c-0.1-0.4-0.5-0.6-1.01-0.5
	c-0.6,0.2-1.21,0.4-3.02,0.4c-3.52,0-5.43-1.81-5.43-5.84h8.85C185.28,79.48,185.28,78.88,185.28,78.38"/>
<path fill="#004C6C" d="M156,79.48c-1.41,0-6.14,0.1-6.14,3.42c0,1.51,0.91,2.72,2.41,2.72C156.6,85.62,156,84.31,156,79.48
	 M149.05,72.34c0.91-0.5,2.21-1.11,4.53-1.11c2.52,0,5.13,2.11,5.13,6.24v3.72c0,4.43-0.2,6.24-7.24,6.24
	c-2.21,0-4.33-1.21-4.33-4.13c0-3.82,3.42-4.83,8.96-4.93v-0.8c0-3.72-2.21-4.23-3.02-4.23c-1.41,0-2.11,0.1-3.32,0.6
	C148.55,74.25,148.15,72.94,149.05,72.34"/>
<path fill="#004C6C" d="M170.69,85.52c-0.1-0.4-0.4-0.5-0.7-0.4c-0.5,0.1-0.8,0.2-1.51,0.2c-1.21,0-2.21-0.4-2.21-2.11v-9.56h3.52
	c0.5,0,1.01-0.4,1.01-1.01c0-0.5-0.4-1.01-1.01-1.01h-3.52v-3.02c0-0.7-0.6-1.31-1.31-1.31s-1.31,0.6-1.31,1.31v3.02h-2.52
	c-0.7,0-0.8,1.31,0,1.41c0.5,0.1,2.62,0.5,2.62,0.5v9.86c0,2.92,1.71,3.72,3.92,3.72c1.21,0,2.01-0.2,2.72-0.5
	C170.69,86.32,170.79,85.92,170.69,85.52"/>
<path fill="#004C6C" d="M146.14,66c-0.6-0.1-1.41,0.1-1.71,1.01c-0.3,1.11-4.53,15.9-4.53,15.9h-0.1c0,0-3.82-14.59-4.13-15.8
	c-0.3-1.41-2.52-1.51-2.82,0c-0.4,1.61-3.82,15.9-3.82,15.9h-0.1c0,0-4.63-15.7-4.73-16c-0.3-0.91-1.11-1.11-1.61-1.01
	c-0.91,0.2-1.11,1.21-1.01,1.61c0.3,0.8,5.13,15.4,6.04,18.01c0.6,1.81,2.41,1.31,2.82,0c0.3-1.31,3.82-15.9,3.82-15.9h0.1
	c0,0,4.13,15.6,4.23,15.9c0.4,1.31,2.21,1.61,2.72,0c0.1-0.3,5.84-17.91,5.94-18.01C147.24,67.21,146.94,66.3,146.14,66"/>
<path fill="#A2DCED" d="M192.32,58.45c0,0,4.63,0,4.63-4.63V17.2c0,0,0-4.63-4.63-4.63H7.48c0,0-4.63,0-4.63,4.63v36.73
	c0,0,0,4.63,4.63,4.63h184.84V58.45z"/>
<path fill="#00B5EF" d="M7.48,58.45h184.84c0,0,4.63,0,4.63-4.63V42.15c-11.87-1.41-35.22-3.82-50.91-3.82
	c-26.87,0-72.15-12.98-130.91-12.98c-3.22,0-7.35,0.2-12.18,0.6v27.87C2.85,53.92,2.85,58.45,7.48,58.45"/>
<path fill="#004C6C" d="M12.91,39.94c39.85,0,71.74-3.02,75.57-3.02c23.34,0,81.2,7.14,108.47,8.55V23.74c-1.11,0-2.21,0-3.42,0
	c-29.18,0-97.1,12.58-104.55,12.58c-11.67,0-46.69-10.87-78.18-10.87c-2.52,0-5.13,0.1-7.95,0.2v14.09
	C6.87,39.84,10.8,39.94,12.91,39.94"/>
<path fill="#FFFFFF" d="M12.31,49.6c69.23,0,103.74-10.77,131.41-19.52c17.41-5.43,31.19-9.76,48.6-9.76h4.53v-1.01h-4.53
	c-17.61,0-31.49,4.33-49,9.86c-27.57,8.65-61.98,19.42-131.01,19.42c-0.1,0-4.63,0-9.46,0v1.01C7.48,49.6,11.91,49.6,12.31,49.6"/>
<path fill="#FFFFFF" d="M13.52,20.12c7.14,0,21.73,1.01,38.74,7.04c0.3,0.1,30.19,11.67,50.51,14.19c0.7,0.1,50.21,6.84,90.46,7.45
	h3.62v-0.91l-3.62-0.1c-34.11,0.4-89.65-6.94-90.36-7.04c-20.22-2.52-50.01-14.09-50.31-14.19c-17.21-6.14-31.8-7.04-38.94-7.14
	H2.85v0.6h10.67V20.12z"/>
</svg>
