<svg class="contact-icons" xmlns="http://www.w3.org/2000/svg" viewBox="0 0 20 20"><path d="M15.8,2.5c-0.1,0-0.2,0-0.2-0.1C13.7,1.4,12,1,10,1C8,1,6.2,1.5,4.4,2.4c-0.2,0.1-0.5,0-0.7-0.2C3.6,2,3.7,1.7,4,1.5 C5.8,0.5,7.9,0,10,0c2.1,0,4,0.5,6,1.5c0.2,0.1,0.3,0.4,0.2,0.7C16.2,2.4,16,2.5,15.8,2.5z M1.5,7.7c-0.1,0-0.2,0-0.3-0.1 C1,7.5,0.9,7.2,1.1,6.9c1-1.4,2.2-2.5,3.8-3.3C8,2,12,2,15.2,3.7c1.5,0.8,2.8,1.9,3.7,3.2c0.2,0.2,0.1,0.5-0.1,0.7s-0.5,0.1-0.7-0.1 c-0.9-1.3-2-2.2-3.4-2.9c-2.9-1.5-6.5-1.5-9.4,0c-1.4,0.7-2.5,1.7-3.4,3C1.8,7.7,1.7,7.7,1.5,7.7z M7.8,19.8c-0.1,0-0.3,0-0.4-0.1 c-0.9-0.9-1.3-1.4-2-2.6c-0.7-1.2-1.1-2.7-1.1-4.3c0-3,2.5-5.4,5.7-5.4s5.7,2.4,5.7,5.4c0,0.3-0.2,0.5-0.5,0.5s-0.5-0.2-0.5-0.5 c0-2.4-2.1-4.4-4.7-4.4s-4.7,2-4.7,4.4c0,1.4,0.3,2.8,0.9,3.9c0.6,1.1,1.1,1.6,1.9,2.4c0.2,0.2,0.2,0.5,0,0.7 C8,19.7,7.9,19.8,7.8,19.8z M14.9,17.9c-1.2,0-2.2-0.3-3.1-0.9c-1.5-1-2.4-2.6-2.4-4.4c0-0.3,0.2-0.5,0.5-0.5s0.5,0.2,0.5,0.5 c0,1.4,0.7,2.7,1.9,3.6c0.7,0.5,1.5,0.7,2.5,0.7c0.2,0,0.6,0,1-0.1c0.3,0,0.5,0.1,0.6,0.4c0,0.3-0.1,0.5-0.4,0.6 C15.6,17.9,15.1,17.9,14.9,17.9z M12.9,20c0,0-0.1,0-0.1,0c-1.6-0.4-2.6-1-3.7-2.1c-1.4-1.4-2.2-3.2-2.2-5.2c0-1.6,1.4-2.9,3.1-2.9 s3.1,1.3,3.1,2.9c0,1.1,0.9,1.9,2.1,1.9s2.1-0.9,2.1-1.9c0-3.8-3.3-6.8-7.3-6.8c-2.8,0-5.4,1.6-6.6,4c-0.4,0.8-0.6,1.8-0.6,2.8 c0,0.8,0.1,2,0.7,3.6c0.1,0.3,0,0.5-0.3,0.6c-0.3,0.1-0.6,0-0.6-0.3c-0.5-1.3-0.7-2.6-0.7-4c0-1.2,0.2-2.3,0.7-3.2 C3.8,6.6,6.7,4.8,10,4.8c4.5,0,8.3,3.5,8.3,7.8c0,1.6-1.4,2.9-3.1,2.9s-3.1-1.3-3.1-2.9c0-1.1-0.9-1.9-2.1-1.9s-2.1,0.9-2.1,1.9 c0,1.7,0.7,3.3,1.9,4.5c0.9,0.9,1.9,1.5,3.3,1.9c0.3,0.1,0.4,0.4,0.4,0.6C13.3,19.9,13.1,20,12.9,20z"/></svg>