<svg class="contact-icons" xmlns="http://www.w3.org/2000/svg" viewBox="0 0 20 20"><path fill="#FC6D26" d="M19.81,11.21l-1.1-3.39l-2.18-6.72c-0.11-0.34-0.6-0.34-0.72,0l-2.18,6.72H6.37L4.18,1.09 c-0.11-0.34-0.6-0.34-0.72,0L1.28,7.82l-1.1,3.39c-0.1,0.31,0.01,0.65,0.27,0.84l9.54,6.93l9.54-6.93 C19.8,11.86,19.91,11.52,19.81,11.21 M10,18.98L6.37,7.82H1.28L10,18.98L10,18.98z"/><path fill="#E24329" d="M10,18.98L10,18.98l3.63-11.16H6.37L10,18.98L10,18.98z M1.28,7.82h5.08L4.18,1.09c-0.11-0.34-0.6-0.34-0.72,0L1.28,7.82L1.28,7.82z M18.7,7.82h-5.08l2.18-6.72c0.11-0.34,0.6-0.34,0.72,0L18.7,7.82L18.7,7.82z"/><path fill="#FCA326" d="M1.28,7.82L1.28,7.82l-1.1,3.39c-0.1,0.31,0.01,0.65,0.27,0.84l9.54,6.93L1.28,7.82L1.28,7.82z M18.7,7.82L18.7,7.82l1.1,3.39c0.1,0.31-0.01,0.65-0.27,0.84L10,18.98L18.7,7.82L18.7,7.82z"/><path fill="#FC6D26" d="M10,18.98l3.63-11.16h5.08L10,18.98L10,18.98z"/></svg>