<svg version="1.1" class="contact-icons" id="GitLab" x="0px" y="0px" viewBox="0 0 500 500" enable-background="new 0 0 500 500">
	<path fill="#FC6D26" d="M495.2,280.2l-27.6-84.8L413,27.3c-2.8-8.6-15-8.6-17.9,0l-54.6,168.1H159.2L104.6,27.3
		c-2.8-8.6-15-8.6-17.9,0L32.1,195.4L4.5,280.2c-2.5,7.7,0.2,16.2,6.8,21l238.5,173.3l238.5-173.3C495,296.4,497.7,288,495.2,280.2"/>
	<path fill="#E24329" d="M249.9,474.5L249.9,474.5l90.7-279.1H159.2L249.9,474.5L249.9,474.5z"/>
	<path fill="#FC6D26" d="M249.9,474.5l-90.7-279.1H32.1L249.9,474.5L249.9,474.5z"/>
	<path fill="#FCA326" d="M32.1,195.4L32.1,195.4L4.5,280.2c-2.5,7.7,0.2,16.2,6.8,21l238.5,173.3L32.1,195.4L32.1,195.4z"/>
	<path fill="#E24329" d="M32.1,195.4h127.1L104.6,27.3c-2.8-8.6-15-8.6-17.9,0L32.1,195.4L32.1,195.4z"/>
	<path fill="#FC6D26" d="M249.9,474.5l90.7-279.1h127.1L249.9,474.5L249.9,474.5z"/>
	<path fill="#FCA326" d="M467.6,195.4L467.6,195.4l27.6,84.8c2.5,7.7-0.2,16.2-6.8,21L249.9,474.5L467.6,195.4
		L467.6,195.4z"/>
	<path fill="#E24329" d="M467.6,195.4H340.5l54.6-168.1c2.8-8.6,15-8.6,17.9,0L467.6,195.4L467.6,195.4z"/>
</svg>
