<svg version="1.1" class="contact-icons" xmlns="http://www.w3.org/2000/svg" xmlns:xlink="http://www.w3.org/1999/xlink" x="0px" y="0px" viewBox="0 0 20 20" enable-background="new 0 0 20 20" xml:space="preserve">
	<path fill="#010101" d="M17.1,7.5h-1.3V5.8C15.8,2.6,13.2,0,10,0S4.2,2.6,4.2,5.8v1.7H2.9c-0.2,0-0.4,0.2-0.4,0.4v10.4
		c0,0.9,0.7,1.7,1.7,1.7h11.7c0.9,0,1.7-0.7,1.7-1.7V7.9C17.5,7.7,17.3,7.5,17.1,7.5z M11.3,16.2c0,0.1,0,0.2-0.1,0.3
		c-0.1,0.1-0.2,0.1-0.3,0.1H9.2c-0.1,0-0.2-0.1-0.3-0.1c-0.1-0.1-0.1-0.2-0.1-0.3L9,13.9c-0.4-0.3-0.7-0.8-0.7-1.3
		c0-0.9,0.7-1.7,1.7-1.7s1.7,0.7,1.7,1.7c0,0.5-0.3,1-0.7,1.3L11.3,16.2z M13.3,7.5H6.7V5.8C6.7,4,8.2,2.5,10,2.5s3.3,1.5,3.3,3.3
		V7.5z"/>
</svg>
