<svg class="contact-icons" xmlns="http://www.w3.org/2000/svg" viewBox="0 0 200 200"><path fill="#00AFF0" d="M192,116c3-16,1-32-4-47c-7-22-23-41-44-52C126,7,104,4,83,7C65-4,41-2,23,10C12,18,3,30,1,44c-3,13-1,27,6,39 c-3,16-1,33,5,49c8,22,25,40,45,51c18,9,39,12,59,9c18,10,41,9,58-2c12-8,21-21,24-36C201,142,199,128,192,116z M136,148 c-10,9-23,11-36,11s-27-3-38-12c-5-5-9-12-8-19c2-7,11-10,17-5c4,4,6,9,11,12c4,3,11,5,18,5c6,0,13-2,18-7c3-3,5-8,3-12s-6-6-9-7 c-7-2-14-4-22-5c-8-2-16-4-23-8c-6-5-10-10-12-17c-2-10-1-21,6-29c8-7,17-10,27-11c13-2,28,0,40,6c5,3,10,7,13,12c2,4,2,9-1,12 s-8,4-13,3c-5-2-7-7-12-10c-5-4-12-5-19-5c-5,0-10,1-13,5c-4,3-5,9-2,13s8,5,12,6c8,2,16,4,25,6s17,6,23,13C151,118,149,137,136,148 z"/></svg>